M48
;Layer_Color=9474304
;FILE_FORMAT=4:4
METRIC,LZ
;TYPE=PLATED
T1F00S00C0.2500
T2F00S00C0.7000
T3F00S00C1.0000
T4F00S00C1.1000
T5F00S00C1.2000
T6F00S00C3.1000
;TYPE=NON_PLATED
T7F00S00C3.0000
T8F00S00C3.2000
%
T01
X01166429Y00179293
X0117525Y00212485
X01336068Y0031
X0135Y0034415
X01140108Y00350001
X01094434Y00344133
X01085684
X01091917Y00320597
Y00308597
X01103917
Y00320597
X01097917Y00314597
X01061184Y00330433
Y00291483
X01023487Y00220485
X0089Y00202485
Y00240085
X00819494Y00198275
X00804483Y00168275
X00783633
X00768453Y00187745
X00773688Y00307275
X00738883Y00274121
X00694537Y00317999
Y00211
X0051Y00165
X00452Y00156
X00422Y00171
X0038Y00204
X003Y00218
X00231Y001995
X00215016
X00197591
X00178
X00158
X00137699
X00118
X00098
X00077904
X00075735Y0021689
X00072869Y002318
X00077904Y00177096
X00075735Y00159367
X00072869Y001445
X00098Y00177096
X00118Y00177
X00137699
X00158
X00178
X00198
X00215016Y0017732
X00231Y00177
X00189536Y00118
X00213365Y00488
X002425Y004755
X00278
X00274Y004945
X00293655Y00534634
X003466Y005001
X003546Y00491
X01046184Y00440544
X01111184Y00399233
X01111184Y00389233
X0114367Y00385472
Y0042237
X012157Y00410569
X013405Y00416
T02
X00372Y00346
X003974
X003466
T03
X009398Y003048
X009652
Y003302
Y003556
X009398
Y003302
X0066167Y003302
Y003048
X0063627
Y003302
Y003556
X0066167
X00635005Y000762
X00609605
X00584205
X00558805
X00533405
X00508005
X00457205Y000762
X00431805
X00406405Y000762
X00381005Y000762
X00355605
X00330205
X00304805
X00279405
X00289565Y004572
X00314965
X00340365
X00264165
X00238765
X00213365
X00187965
X00187965Y005588
X00213365
X00238765
X00264165
X00289565
X00314965
X00340365
X00365765
X00391165
X00416565
X00457205Y005588
X00482605
X00508005
X00533405
X00558805
X00584205
X00609605
X00635005
X00685805
X00711205
X00736605
X00492765Y00457316
X00467365Y004572
X00441965
X00416565
X00391165
X00365765
X00762005Y005588
X00787405
X00812805
X00838205
X00863605
X009398Y005334
X009652
Y00508
Y004826
Y004572
Y004318
Y004064
Y00381
X009398
Y004064
Y004318
Y004572
Y004826
Y00508
T04
X0097919Y00103739
X0100659
X0103399
X0106139
X0104769Y00129139
X0102029
X0099289
X0096549
X0107509
X00121152Y00354
X00091152
X01137694Y00505473
X01165094
X01192494
X01219894
X01247294
X01233594Y00530873
X01206194
X01178794
X01151394
T05
X004399Y00244
X004653
X004907
X005161
X0015Y004239
Y004493
Y004747
Y005001
T06
X0089529Y00116739
X0114529
X01067494Y00517873
X01317494
T07
X00047952Y00354
T08
X00660399Y00127999
X00139699Y00076199
Y00558799
X00660399Y00406399
X00901699Y005588
X01282699Y00462999
M30
