G04*
G04 #@! TF.GenerationSoftware,Altium Limited,Altium Designer,22.0.2 (36)*
G04*
G04 Layer_Color=16711935*
%FSLAX44Y44*%
%MOMM*%
G71*
G04*
G04 #@! TF.SameCoordinates,2F7B36FA-1CAB-4409-8D5E-7B144DD93BD5*
G04*
G04*
G04 #@! TF.FilePolarity,Positive*
G04*
G01*
G75*
%ADD10C,0.1500*%
%ADD12C,0.2540*%
D10*
X-1000Y153000D02*
Y222000D01*
Y153000D02*
Y222000D01*
D12*
X0Y10165D02*
G03*
X10165Y0I10165J0D01*
G01*
X1365000Y625000D02*
G03*
X1355000Y635000I-10000J0D01*
G01*
X9726Y635000D02*
G03*
X0Y625274I0J-9726D01*
G01*
X1355314Y269564D02*
G03*
X1365000Y279250I0J9686D01*
G01*
X1213316Y269564D02*
G03*
X1200616Y256864I0J-12700D01*
G01*
X1187916Y0D02*
G03*
X1200616Y12700I0J12700D01*
G01*
X0Y10165D02*
Y625274D01*
X10165Y0D02*
X907093D01*
X9726Y635000D02*
X1355000Y635000D01*
X1365000Y624840D02*
X1365000Y279250D01*
X1200616Y12700D02*
Y256864D01*
X1365000Y279250D02*
Y281877D01*
X1213316Y269564D02*
X1355314D01*
X1180429Y0D02*
X1187916D01*
X907093D02*
X1180429D01*
X0Y10165D02*
G03*
X10165Y0I10165J0D01*
G01*
X1365000Y625000D02*
G03*
X1355000Y635000I-10000J0D01*
G01*
X9726Y635000D02*
G03*
X0Y625274I0J-9726D01*
G01*
X1355314Y269564D02*
G03*
X1365000Y279250I0J9686D01*
G01*
X1213316Y269564D02*
G03*
X1200616Y256864I0J-12700D01*
G01*
X1187916Y0D02*
G03*
X1200616Y12700I0J12700D01*
G01*
X0Y10165D02*
Y625274D01*
X10165Y0D02*
X907093D01*
X9726Y635000D02*
X1355000Y635000D01*
X1365000Y624840D02*
X1365000Y279250D01*
X1200616Y12700D02*
Y256864D01*
X1365000Y279250D02*
Y281877D01*
X1213316Y269564D02*
X1355314D01*
X1180429Y0D02*
X1187916D01*
X907093D02*
X1180429D01*
M02*
