G04*
G04 #@! TF.GenerationSoftware,Altium Limited,Altium Designer,22.0.2 (36)*
G04*
G04 Layer_Physical_Order=1*
G04 Layer_Color=255*
%FSLAX44Y44*%
%MOMM*%
G71*
G04*
G04 #@! TF.SameCoordinates,2F7B36FA-1CAB-4409-8D5E-7B144DD93BD5*
G04*
G04*
G04 #@! TF.FilePolarity,Positive*
G04*
G01*
G75*
%ADD10C,0.1500*%
%ADD11C,0.2000*%
%ADD12C,0.2540*%
%ADD16R,0.4920X0.3000*%
G04:AMPARAMS|DCode=17|XSize=0.6mm|YSize=0.6mm|CornerRadius=0.075mm|HoleSize=0mm|Usage=FLASHONLY|Rotation=90.000|XOffset=0mm|YOffset=0mm|HoleType=Round|Shape=RoundedRectangle|*
%AMROUNDEDRECTD17*
21,1,0.6000,0.4500,0,0,90.0*
21,1,0.4500,0.6000,0,0,90.0*
1,1,0.1500,0.2250,0.2250*
1,1,0.1500,0.2250,-0.2250*
1,1,0.1500,-0.2250,-0.2250*
1,1,0.1500,-0.2250,0.2250*
%
%ADD17ROUNDEDRECTD17*%
G04:AMPARAMS|DCode=18|XSize=0.6mm|YSize=0.6mm|CornerRadius=0.075mm|HoleSize=0mm|Usage=FLASHONLY|Rotation=0.000|XOffset=0mm|YOffset=0mm|HoleType=Round|Shape=RoundedRectangle|*
%AMROUNDEDRECTD18*
21,1,0.6000,0.4500,0,0,0.0*
21,1,0.4500,0.6000,0,0,0.0*
1,1,0.1500,0.2250,-0.2250*
1,1,0.1500,-0.2250,-0.2250*
1,1,0.1500,-0.2250,0.2250*
1,1,0.1500,0.2250,0.2250*
%
%ADD18ROUNDEDRECTD18*%
%ADD19R,1.3000X1.4000*%
%ADD20R,1.0000X0.9500*%
%ADD21R,0.8000X1.5000*%
%ADD22R,1.4000X1.9000*%
%ADD23R,5.8000X2.3000*%
%ADD24R,5.8000X2.4000*%
G04:AMPARAMS|DCode=25|XSize=1.75mm|YSize=1.35mm|CornerRadius=0.1688mm|HoleSize=0mm|Usage=FLASHONLY|Rotation=0.000|XOffset=0mm|YOffset=0mm|HoleType=Round|Shape=RoundedRectangle|*
%AMROUNDEDRECTD25*
21,1,1.7500,1.0125,0,0,0.0*
21,1,1.4125,1.3500,0,0,0.0*
1,1,0.3375,0.7063,-0.5063*
1,1,0.3375,-0.7063,-0.5063*
1,1,0.3375,-0.7063,0.5063*
1,1,0.3375,0.7063,0.5063*
%
%ADD25ROUNDEDRECTD25*%
%ADD26R,1.9000X1.5000*%
G04:AMPARAMS|DCode=27|XSize=0.75mm|YSize=0.9mm|CornerRadius=0.0938mm|HoleSize=0mm|Usage=FLASHONLY|Rotation=90.000|XOffset=0mm|YOffset=0mm|HoleType=Round|Shape=RoundedRectangle|*
%AMROUNDEDRECTD27*
21,1,0.7500,0.7125,0,0,90.0*
21,1,0.5625,0.9000,0,0,90.0*
1,1,0.1875,0.3563,0.2813*
1,1,0.1875,0.3563,-0.2813*
1,1,0.1875,-0.3563,-0.2813*
1,1,0.1875,-0.3563,0.2813*
%
%ADD27ROUNDEDRECTD27*%
G04:AMPARAMS|DCode=28|XSize=0.75mm|YSize=0.9mm|CornerRadius=0.0938mm|HoleSize=0mm|Usage=FLASHONLY|Rotation=180.000|XOffset=0mm|YOffset=0mm|HoleType=Round|Shape=RoundedRectangle|*
%AMROUNDEDRECTD28*
21,1,0.7500,0.7125,0,0,180.0*
21,1,0.5625,0.9000,0,0,180.0*
1,1,0.1875,-0.2813,0.3563*
1,1,0.1875,0.2813,0.3563*
1,1,0.1875,0.2813,-0.3563*
1,1,0.1875,-0.2813,-0.3563*
%
%ADD28ROUNDEDRECTD28*%
G04:AMPARAMS|DCode=29|XSize=0.6mm|YSize=1mm|CornerRadius=0.15mm|HoleSize=0mm|Usage=FLASHONLY|Rotation=90.000|XOffset=0mm|YOffset=0mm|HoleType=Round|Shape=RoundedRectangle|*
%AMROUNDEDRECTD29*
21,1,0.6000,0.7000,0,0,90.0*
21,1,0.3000,1.0000,0,0,90.0*
1,1,0.3000,0.3500,0.1500*
1,1,0.3000,0.3500,-0.1500*
1,1,0.3000,-0.3500,-0.1500*
1,1,0.3000,-0.3500,0.1500*
%
%ADD29ROUNDEDRECTD29*%
%ADD30R,1.8000X0.7000*%
%ADD31R,1.8000X0.8000*%
G04:AMPARAMS|DCode=32|XSize=0.6mm|YSize=0.9mm|CornerRadius=0.15mm|HoleSize=0mm|Usage=FLASHONLY|Rotation=90.000|XOffset=0mm|YOffset=0mm|HoleType=Round|Shape=RoundedRectangle|*
%AMROUNDEDRECTD32*
21,1,0.6000,0.6000,0,0,90.0*
21,1,0.3000,0.9000,0,0,90.0*
1,1,0.3000,0.3000,0.1500*
1,1,0.3000,0.3000,-0.1500*
1,1,0.3000,-0.3000,-0.1500*
1,1,0.3000,-0.3000,0.1500*
%
%ADD32ROUNDEDRECTD32*%
G04:AMPARAMS|DCode=33|XSize=2.9mm|YSize=1.2mm|CornerRadius=0.3mm|HoleSize=0mm|Usage=FLASHONLY|Rotation=180.000|XOffset=0mm|YOffset=0mm|HoleType=Round|Shape=RoundedRectangle|*
%AMROUNDEDRECTD33*
21,1,2.9000,0.6000,0,0,180.0*
21,1,2.3000,1.2000,0,0,180.0*
1,1,0.6000,-1.1500,0.3000*
1,1,0.6000,1.1500,0.3000*
1,1,0.6000,1.1500,-0.3000*
1,1,0.6000,-1.1500,-0.3000*
%
%ADD33ROUNDEDRECTD33*%
G04:AMPARAMS|DCode=34|XSize=0.45mm|YSize=1.5mm|CornerRadius=0.1125mm|HoleSize=0mm|Usage=FLASHONLY|Rotation=90.000|XOffset=0mm|YOffset=0mm|HoleType=Round|Shape=RoundedRectangle|*
%AMROUNDEDRECTD34*
21,1,0.4500,1.2750,0,0,90.0*
21,1,0.2250,1.5000,0,0,90.0*
1,1,0.2250,0.6375,0.1125*
1,1,0.2250,0.6375,-0.1125*
1,1,0.2250,-0.6375,-0.1125*
1,1,0.2250,-0.6375,0.1125*
%
%ADD34ROUNDEDRECTD34*%
G04:AMPARAMS|DCode=35|XSize=0.85mm|YSize=0.25mm|CornerRadius=0.0625mm|HoleSize=0mm|Usage=FLASHONLY|Rotation=270.000|XOffset=0mm|YOffset=0mm|HoleType=Round|Shape=RoundedRectangle|*
%AMROUNDEDRECTD35*
21,1,0.8500,0.1250,0,0,270.0*
21,1,0.7250,0.2500,0,0,270.0*
1,1,0.1250,-0.0625,-0.3625*
1,1,0.1250,-0.0625,0.3625*
1,1,0.1250,0.0625,0.3625*
1,1,0.1250,0.0625,-0.3625*
%
%ADD35ROUNDEDRECTD35*%
G04:AMPARAMS|DCode=36|XSize=0.85mm|YSize=0.25mm|CornerRadius=0.0625mm|HoleSize=0mm|Usage=FLASHONLY|Rotation=0.000|XOffset=0mm|YOffset=0mm|HoleType=Round|Shape=RoundedRectangle|*
%AMROUNDEDRECTD36*
21,1,0.8500,0.1250,0,0,0.0*
21,1,0.7250,0.2500,0,0,0.0*
1,1,0.1250,0.3625,-0.0625*
1,1,0.1250,-0.3625,-0.0625*
1,1,0.1250,-0.3625,0.0625*
1,1,0.1250,0.3625,0.0625*
%
%ADD36ROUNDEDRECTD36*%
%ADD37R,2.0000X2.0000*%
G04:AMPARAMS|DCode=38|XSize=0.6mm|YSize=1.45mm|CornerRadius=0.15mm|HoleSize=0mm|Usage=FLASHONLY|Rotation=90.000|XOffset=0mm|YOffset=0mm|HoleType=Round|Shape=RoundedRectangle|*
%AMROUNDEDRECTD38*
21,1,0.6000,1.1500,0,0,90.0*
21,1,0.3000,1.4500,0,0,90.0*
1,1,0.3000,0.5750,0.1500*
1,1,0.3000,0.5750,-0.1500*
1,1,0.3000,-0.5750,-0.1500*
1,1,0.3000,-0.5750,0.1500*
%
%ADD38ROUNDEDRECTD38*%
%ADD39O,1.6000X0.3500*%
%ADD40O,0.3500X1.6000*%
G04:AMPARAMS|DCode=41|XSize=1.35mm|YSize=1.55mm|CornerRadius=0.1688mm|HoleSize=0mm|Usage=FLASHONLY|Rotation=90.000|XOffset=0mm|YOffset=0mm|HoleType=Round|Shape=RoundedRectangle|*
%AMROUNDEDRECTD41*
21,1,1.3500,1.2125,0,0,90.0*
21,1,1.0125,1.5500,0,0,90.0*
1,1,0.3375,0.6063,0.5063*
1,1,0.3375,0.6063,-0.5063*
1,1,0.3375,-0.6063,-0.5063*
1,1,0.3375,-0.6063,0.5063*
%
%ADD41ROUNDEDRECTD41*%
%ADD42C,0.6000*%
%ADD43C,2.0000*%
%ADD44C,5.0000*%
%ADD45C,3.2000*%
G04:AMPARAMS|DCode=46|XSize=2.032mm|YSize=2.032mm|CornerRadius=0.508mm|HoleSize=0mm|Usage=FLASHONLY|Rotation=270.000|XOffset=0mm|YOffset=0mm|HoleType=Round|Shape=RoundedRectangle|*
%AMROUNDEDRECTD46*
21,1,2.0320,1.0160,0,0,270.0*
21,1,1.0160,2.0320,0,0,270.0*
1,1,1.0160,-0.5080,-0.5080*
1,1,1.0160,-0.5080,0.5080*
1,1,1.0160,0.5080,0.5080*
1,1,1.0160,0.5080,-0.5080*
%
%ADD46ROUNDEDRECTD46*%
%ADD47P,2.1994X8X292.5*%
%ADD48P,2.1994X8X202.5*%
G04:AMPARAMS|DCode=49|XSize=2.032mm|YSize=2.032mm|CornerRadius=0.508mm|HoleSize=0mm|Usage=FLASHONLY|Rotation=180.000|XOffset=0mm|YOffset=0mm|HoleType=Round|Shape=RoundedRectangle|*
%AMROUNDEDRECTD49*
21,1,2.0320,1.0160,0,0,180.0*
21,1,1.0160,2.0320,0,0,180.0*
1,1,1.0160,-0.5080,0.5080*
1,1,1.0160,0.5080,0.5080*
1,1,1.0160,0.5080,-0.5080*
1,1,1.0160,-0.5080,-0.5080*
%
%ADD49ROUNDEDRECTD49*%
%ADD50C,1.6000*%
%ADD51R,1.0000X0.5000*%
G04:AMPARAMS|DCode=52|XSize=0.3mm|YSize=1mm|CornerRadius=0.075mm|HoleSize=0mm|Usage=FLASHONLY|Rotation=90.000|XOffset=0mm|YOffset=0mm|HoleType=Round|Shape=RoundedRectangle|*
%AMROUNDEDRECTD52*
21,1,0.3000,0.8500,0,0,90.0*
21,1,0.1500,1.0000,0,0,90.0*
1,1,0.1500,0.4250,0.0750*
1,1,0.1500,0.4250,-0.0750*
1,1,0.1500,-0.4250,-0.0750*
1,1,0.1500,-0.4250,0.0750*
%
%ADD52ROUNDEDRECTD52*%
%ADD53C,0.5000*%
%ADD54C,0.3000*%
%ADD55C,0.4000*%
%ADD56C,0.6500*%
%ADD57C,0.6200*%
%ADD58C,1.0000*%
%ADD59C,0.7700*%
%ADD60C,3.0000*%
G36*
X1357803Y634610D02*
X1359652Y633844D01*
X1361316Y632732D01*
X1362732Y631317D01*
X1363843Y629652D01*
X1364609Y627803D01*
X1365000Y625841D01*
Y624840D01*
Y279250D01*
Y278296D01*
X1364628Y276425D01*
X1363898Y274662D01*
X1362838Y273076D01*
X1361488Y271727D01*
X1359902Y270667D01*
X1358139Y269937D01*
X1356268Y269564D01*
X1213316D01*
X1212071Y269503D01*
X1209629Y269018D01*
X1207329Y268065D01*
X1205259Y266682D01*
X1203499Y264921D01*
X1202115Y262851D01*
X1201163Y260551D01*
X1200677Y258109D01*
X1200616Y256864D01*
Y12680D01*
Y11431D01*
X1200128Y8982D01*
X1199173Y6674D01*
X1197785Y4597D01*
X1196019Y2831D01*
X1193942Y1443D01*
X1191634Y487D01*
X1189184Y0D01*
X848983D01*
Y21775D01*
X831983D01*
Y0D01*
X9164D01*
X7200Y391D01*
X5350Y1157D01*
X3685Y2269D01*
X2269Y3685D01*
X1157Y5350D01*
X391Y7200D01*
X0Y9164D01*
Y10165D01*
Y129960D01*
X26730D01*
Y144500D01*
Y159040D01*
X0D01*
Y175000D01*
X58500D01*
Y183157D01*
X84461D01*
X84600Y182774D01*
X84673Y181887D01*
X84129Y181524D01*
X83632Y180780D01*
X83457Y179902D01*
Y175402D01*
X83632Y174524D01*
X83923Y174088D01*
Y172404D01*
X83921Y172393D01*
X83921Y172393D01*
Y163001D01*
X83921Y163001D01*
X84231Y161440D01*
X85115Y160117D01*
X88044Y157188D01*
X88044Y157188D01*
X89367Y156304D01*
X89756Y156227D01*
X90702Y155280D01*
Y151438D01*
X90891Y150486D01*
X91430Y149680D01*
X91922Y149352D01*
Y141563D01*
X91631Y141128D01*
X91456Y140250D01*
Y135750D01*
X91631Y134872D01*
X91921Y134437D01*
X91842Y133202D01*
X91737Y132862D01*
X91378Y132622D01*
X90651Y131534D01*
X90396Y130250D01*
Y129270D01*
X96000D01*
X101604D01*
Y130250D01*
X101349Y131534D01*
X100622Y132622D01*
X100263Y132862D01*
X100158Y133202D01*
X100079Y134437D01*
X100370Y134872D01*
X100544Y135750D01*
Y135868D01*
X109955D01*
X118802Y127021D01*
X118802Y127021D01*
X120125Y126136D01*
X121686Y125826D01*
X121686Y125826D01*
X169404D01*
X169404Y125826D01*
X170965Y126136D01*
X172288Y127021D01*
X180384Y135116D01*
X181193Y136328D01*
X181634Y136368D01*
X182514Y136196D01*
X182730Y135111D01*
X183623Y133775D01*
Y132600D01*
X182730Y131264D01*
X182417Y129688D01*
Y129458D01*
X190036D01*
X197655D01*
Y129688D01*
X197341Y131264D01*
X196448Y132600D01*
Y133775D01*
X197341Y135111D01*
X197655Y136687D01*
Y136917D01*
X190036D01*
Y139458D01*
X197655D01*
Y139688D01*
X197341Y141264D01*
X196448Y142600D01*
X195776Y143049D01*
X195699Y144525D01*
X196362Y145517D01*
X196595Y146687D01*
Y149688D01*
X196362Y150858D01*
X195699Y151850D01*
X194706Y152513D01*
X194011Y152652D01*
X194137Y153922D01*
X209935D01*
X210060Y152652D01*
X209365Y152513D01*
X208373Y151850D01*
X208316Y151766D01*
X207188D01*
X207188Y151766D01*
X205627Y151455D01*
X204304Y150571D01*
X201116Y147384D01*
X200232Y146061D01*
X199922Y144500D01*
X199922Y144500D01*
Y118000D01*
X199922Y118000D01*
X200232Y116439D01*
X201116Y115116D01*
X217116Y99116D01*
X217116Y99116D01*
X218439Y98232D01*
X220000Y97922D01*
X220000Y97922D01*
X282000D01*
X282000Y97922D01*
X283561Y98232D01*
X284884Y99116D01*
X295884Y110116D01*
X295884Y110116D01*
X296768Y111439D01*
X297078Y113000D01*
Y141901D01*
X306099Y150922D01*
X332602D01*
X333500Y150024D01*
Y149500D01*
X333500Y148230D01*
Y139770D01*
X333500Y138500D01*
X333500Y137230D01*
Y128770D01*
X333500Y127500D01*
X333500Y126230D01*
Y117040D01*
X332460D01*
Y112270D01*
X355540D01*
Y117040D01*
X356445Y117922D01*
X435000D01*
X435000Y117922D01*
X436561Y118232D01*
X437884Y119116D01*
X480884Y162116D01*
X481768Y163439D01*
X482078Y165000D01*
X482078Y165000D01*
Y185608D01*
X482914Y186274D01*
X484076Y185766D01*
Y181000D01*
X484156Y180808D01*
Y180750D01*
X484331Y179872D01*
X484828Y179128D01*
X485572Y178631D01*
X486450Y178456D01*
X486622D01*
Y167929D01*
X486622Y167929D01*
X486932Y166368D01*
X487816Y165045D01*
X490745Y162116D01*
X490745Y162116D01*
X492068Y161232D01*
X493629Y160922D01*
X508087D01*
X509105Y160500D01*
X510895D01*
X512549Y161185D01*
X513815Y162451D01*
X514500Y164105D01*
Y165895D01*
X513815Y167549D01*
X512549Y168815D01*
X510895Y169500D01*
X509105D01*
X508087Y169078D01*
X495318D01*
X494778Y169618D01*
Y178456D01*
X494950D01*
X495828Y178631D01*
X496572Y179128D01*
X497069Y179872D01*
X497244Y180750D01*
Y180808D01*
X497324Y181000D01*
Y187500D01*
X497323Y187501D01*
X497324Y187501D01*
X497323Y187502D01*
X497200Y188000D01*
X497200Y188000D01*
Y189202D01*
X497324Y189500D01*
Y194500D01*
X497200Y194799D01*
Y196000D01*
X497200D01*
X497148Y196077D01*
X497324Y196500D01*
Y203000D01*
X497244Y203192D01*
Y203250D01*
X497069Y204128D01*
X496572Y204872D01*
X495828Y205370D01*
X494950Y205544D01*
X494778D01*
Y232283D01*
X495780D01*
X497498Y232509D01*
X499098Y233172D01*
X500473Y234227D01*
X501528Y235602D01*
X502191Y237202D01*
X502235Y237540D01*
X503516D01*
X503596Y236931D01*
X504364Y235077D01*
X505585Y233485D01*
X507177Y232264D01*
X509031Y231496D01*
X511020Y231234D01*
X514830D01*
Y244000D01*
Y256766D01*
X511020D01*
X509031Y256504D01*
X507177Y255736D01*
X505585Y254515D01*
X504364Y252923D01*
X503596Y251069D01*
X503516Y250460D01*
X502235D01*
X502191Y250798D01*
X501528Y252398D01*
X500473Y253773D01*
X499098Y254828D01*
X497498Y255491D01*
X495780Y255717D01*
X485620D01*
X483902Y255491D01*
X482302Y254828D01*
X480927Y253773D01*
X479872Y252398D01*
X479209Y250798D01*
X478983Y249080D01*
Y238920D01*
X479209Y237202D01*
X479872Y235602D01*
X480927Y234227D01*
X482302Y233172D01*
X483902Y232509D01*
X485620Y232283D01*
X486622D01*
Y205544D01*
X486450D01*
X485572Y205370D01*
X484828Y204872D01*
X484331Y204128D01*
X484156Y203250D01*
Y203192D01*
X484076Y203000D01*
Y196500D01*
X482903Y196078D01*
X482500D01*
X480939Y195768D01*
X479616Y194884D01*
X479616Y194884D01*
X475116Y190384D01*
X474232Y189061D01*
X473922Y187500D01*
X473922Y187500D01*
Y166689D01*
X433311Y126078D01*
X355398D01*
X354500Y126976D01*
Y128024D01*
X355398Y128922D01*
X411000D01*
X411000Y128922D01*
X412561Y129232D01*
X413884Y130116D01*
X455884Y172116D01*
X455884Y172116D01*
X456768Y173439D01*
X457078Y175000D01*
Y184537D01*
X457406Y184767D01*
X458676Y184106D01*
Y181000D01*
X458756Y180808D01*
Y180750D01*
X458931Y179872D01*
X459428Y179128D01*
X460172Y178631D01*
X461050Y178456D01*
X461222D01*
Y170990D01*
X450469Y160236D01*
X449451Y159815D01*
X448185Y158549D01*
X447500Y156895D01*
Y155105D01*
X448185Y153451D01*
X449451Y152185D01*
X451105Y151500D01*
X452895D01*
X454549Y152185D01*
X455815Y153451D01*
X456236Y154469D01*
X468184Y166416D01*
X468184Y166416D01*
X469068Y167740D01*
X469379Y169300D01*
X469379Y169300D01*
Y178456D01*
X469550D01*
X470428Y178631D01*
X471172Y179128D01*
X471669Y179872D01*
X471844Y180750D01*
Y180808D01*
X471924Y181000D01*
Y187500D01*
X471923Y187501D01*
X471924Y187501D01*
X471923Y187502D01*
X471800Y188000D01*
X471800Y188000D01*
Y189202D01*
X471924Y189500D01*
Y194500D01*
X471800Y194799D01*
Y196000D01*
X471800D01*
X471748Y196077D01*
X471924Y196500D01*
Y203000D01*
X471844Y203192D01*
Y203250D01*
X471669Y204128D01*
X471172Y204872D01*
X470428Y205370D01*
X469550Y205544D01*
X469378D01*
Y232283D01*
X470380D01*
X472098Y232509D01*
X473698Y233172D01*
X475073Y234227D01*
X476128Y235602D01*
X476791Y237202D01*
X477017Y238920D01*
Y249080D01*
X476791Y250798D01*
X476128Y252398D01*
X475073Y253773D01*
X473698Y254828D01*
X472098Y255491D01*
X470380Y255717D01*
X460220D01*
X458502Y255491D01*
X456902Y254828D01*
X455527Y253773D01*
X454472Y252398D01*
X453809Y250798D01*
X453583Y249080D01*
Y238920D01*
X453809Y237202D01*
X454472Y235602D01*
X455527Y234227D01*
X456902Y233172D01*
X458502Y232509D01*
X460220Y232283D01*
X461222D01*
Y205544D01*
X461050D01*
X460172Y205370D01*
X459428Y204872D01*
X458931Y204128D01*
X458756Y203250D01*
Y203192D01*
X458676Y203000D01*
Y197038D01*
X458123Y196253D01*
X457516Y195982D01*
X456440Y195768D01*
X455116Y194884D01*
X455116Y194884D01*
X450116Y189884D01*
X449232Y188561D01*
X448922Y187000D01*
X448922Y187000D01*
Y176689D01*
X409311Y137078D01*
X355398D01*
X354500Y137976D01*
Y138500D01*
X354500Y139770D01*
Y148230D01*
X354500Y149500D01*
X354500Y150770D01*
Y159230D01*
X354500Y160500D01*
X354500Y161770D01*
Y170230D01*
X354500Y171500D01*
X354500Y172770D01*
Y181230D01*
X354500Y182500D01*
X354500D01*
Y182500D01*
X354500D01*
Y183922D01*
X361352D01*
X361680Y183430D01*
X362486Y182891D01*
X363438Y182702D01*
X370563D01*
X371514Y182891D01*
X372320Y183430D01*
X372648Y183922D01*
X413000D01*
X413000Y183922D01*
X414561Y184232D01*
X415884Y185116D01*
X418689Y187922D01*
X432095D01*
X432376Y187500D01*
Y182144D01*
X425311Y175078D01*
X423913D01*
X422895Y175500D01*
X421105D01*
X419451Y174815D01*
X418185Y173549D01*
X417500Y171895D01*
Y170105D01*
X418185Y168451D01*
X419451Y167185D01*
X421105Y166500D01*
X422895D01*
X423913Y166922D01*
X427000D01*
X427000Y166922D01*
X428561Y167232D01*
X429884Y168116D01*
X439236Y177469D01*
X440561Y177732D01*
X441644Y178456D01*
X443250D01*
X444128Y178631D01*
X444872Y179128D01*
X445369Y179872D01*
X445544Y180750D01*
Y180808D01*
X445624Y181000D01*
Y187500D01*
X445624Y187500D01*
X445624Y187501D01*
X445623Y187502D01*
X445500Y188000D01*
X445500Y188000D01*
Y189202D01*
X445624Y189500D01*
Y194500D01*
X445500Y194799D01*
Y196000D01*
X445500D01*
X445448Y196077D01*
X445624Y196500D01*
Y203000D01*
X445544Y203192D01*
Y203250D01*
X445369Y204128D01*
X444872Y204872D01*
X444128Y205369D01*
X443528Y205489D01*
Y232340D01*
X445730D01*
X451560Y238170D01*
Y249830D01*
X445730Y255660D01*
X434070D01*
X428240Y249830D01*
Y238170D01*
X434070Y232340D01*
X435372D01*
Y205544D01*
X434750D01*
X433872Y205369D01*
X433128Y204872D01*
X432631Y204128D01*
X432456Y203250D01*
Y203192D01*
X432376Y203000D01*
Y196500D01*
X431203Y196078D01*
X417000D01*
X417000Y196078D01*
X415439Y195768D01*
X414116Y194884D01*
X414116Y194884D01*
X411311Y192078D01*
X372648D01*
X372320Y192570D01*
X371514Y193109D01*
X370563Y193298D01*
X363438D01*
X362486Y193109D01*
X361680Y192570D01*
X361352Y192078D01*
X355398D01*
X354500Y192976D01*
Y193500D01*
X354500Y194770D01*
Y204000D01*
X348078D01*
Y213000D01*
X348078Y213000D01*
X347768Y214561D01*
X346884Y215884D01*
X341884Y220884D01*
X340561Y221768D01*
X339000Y222078D01*
X339000Y222078D01*
X328564D01*
X328136Y222636D01*
X326778Y223678D01*
X325197Y224333D01*
X323739Y224525D01*
X323500Y224624D01*
X322500D01*
X321750Y224313D01*
X321591Y224379D01*
X321000Y224624D01*
X320001Y224624D01*
X320000Y224624D01*
X320000Y224624D01*
X319761Y224524D01*
X318303Y224333D01*
X316722Y223678D01*
X316126Y223220D01*
X314862Y222697D01*
X314244Y222078D01*
X300000D01*
X300000Y222078D01*
X299527Y221984D01*
X283980D01*
X283362Y222603D01*
X282099Y223126D01*
X281502Y223584D01*
X279921Y224239D01*
X278463Y224431D01*
X278224Y224530D01*
X277224D01*
X276474Y224219D01*
X276315Y224285D01*
X275724Y224530D01*
X274725Y224530D01*
X274724Y224530D01*
X274724Y224530D01*
X274485Y224431D01*
X273027Y224239D01*
X271446Y223584D01*
X270088Y222542D01*
X269660Y221984D01*
X266571D01*
X265010Y221674D01*
X263687Y220790D01*
X263687Y220790D01*
X262840Y219943D01*
X261956Y218620D01*
X261646Y217059D01*
X261646Y217059D01*
Y214178D01*
X261646Y214178D01*
X261956Y212617D01*
X262840Y211294D01*
X271518Y202616D01*
X271518Y202616D01*
X272008Y202289D01*
X275327Y198970D01*
Y123189D01*
X267216Y115078D01*
X260398D01*
X259500Y115976D01*
X259500Y117270D01*
Y126230D01*
X259500Y127500D01*
X259500Y128770D01*
Y137230D01*
X259500Y138500D01*
X259500Y139770D01*
Y149500D01*
X259500D01*
X259500Y150770D01*
Y159230D01*
X259500Y160500D01*
X259500D01*
Y160500D01*
X259500D01*
Y170460D01*
X260540D01*
Y175730D01*
X237460D01*
Y170460D01*
X236348Y170078D01*
X144723D01*
X144723Y170078D01*
X143162Y169768D01*
X141839Y168884D01*
X141839Y168884D01*
X133656Y160701D01*
X132660Y160040D01*
X128930D01*
Y156000D01*
X127660D01*
Y154730D01*
X122660D01*
Y151960D01*
X123700D01*
Y149059D01*
X121517D01*
X117298Y153278D01*
Y158562D01*
X117109Y159514D01*
X116570Y160320D01*
X115764Y160859D01*
X114812Y161048D01*
X109187D01*
X108236Y160859D01*
X107430Y160320D01*
X106891Y159514D01*
X106702Y158562D01*
Y151438D01*
X106891Y150486D01*
X107430Y149680D01*
X108236Y149141D01*
X109187Y148952D01*
X112972D01*
X118087Y143837D01*
X118087Y143837D01*
X119079Y143174D01*
X120250Y142941D01*
X127660D01*
X127956Y143000D01*
X131620D01*
Y147431D01*
X133999D01*
X135365Y147703D01*
X136523Y148477D01*
X137208Y149162D01*
X137560Y149232D01*
X138883Y150116D01*
X139110Y150456D01*
X140380Y150070D01*
Y143000D01*
X144045D01*
X144340Y142941D01*
X150073D01*
X151952Y141062D01*
Y137278D01*
X152142Y136327D01*
X152680Y135520D01*
X153081Y135253D01*
X152696Y133983D01*
X123375D01*
X114528Y142830D01*
X113205Y143714D01*
X111644Y144025D01*
X111644Y144025D01*
X100078D01*
Y149352D01*
X100570Y149680D01*
X101109Y150486D01*
X101298Y151438D01*
Y158562D01*
X101109Y159514D01*
X100570Y160320D01*
X99764Y160859D01*
X98813Y161048D01*
X96470D01*
X94562Y162956D01*
X93239Y163840D01*
X92851Y163917D01*
X92078Y164690D01*
Y172385D01*
X92080Y172395D01*
Y174088D01*
X92371Y174524D01*
X92545Y175402D01*
Y179902D01*
X92371Y180780D01*
X91874Y181524D01*
X91330Y181887D01*
X91402Y182774D01*
X91541Y183157D01*
X123000D01*
X124503Y183456D01*
X125250D01*
X126128Y183631D01*
X126872Y184128D01*
X127343Y184833D01*
X127585Y184872D01*
X128414D01*
X128657Y184833D01*
X129128Y184128D01*
X129872Y183631D01*
X130750Y183456D01*
X131497D01*
X133000Y183157D01*
X237460D01*
Y178270D01*
X260540D01*
Y183540D01*
X259500D01*
Y192960D01*
X260540D01*
Y197730D01*
X237460D01*
Y192960D01*
X236238Y192843D01*
X133000D01*
X131497Y192544D01*
X130750D01*
X129872Y192369D01*
X129128Y191872D01*
X128657Y191167D01*
X128414Y191128D01*
X127585D01*
X127343Y191167D01*
X126872Y191872D01*
X126128Y192369D01*
X125250Y192544D01*
X124503D01*
X123000Y192843D01*
X58500D01*
Y201000D01*
X0D01*
Y217260D01*
X26730D01*
Y231800D01*
Y246340D01*
X0D01*
Y625274D01*
Y626232D01*
X374Y628111D01*
X1107Y629881D01*
X2171Y631474D01*
X3526Y632829D01*
X5119Y633893D01*
X6889Y634626D01*
X8768Y635000D01*
X1355840D01*
X1357803Y634610D01*
D02*
G37*
G36*
X321000Y223000D02*
Y213000D01*
X320000D01*
X315000Y218000D01*
X320000Y223000D01*
X321000Y223000D01*
D02*
G37*
G36*
X328500Y218000D02*
X323500Y213000D01*
X322500Y213000D01*
Y223000D01*
X323500D01*
X328500Y218000D01*
D02*
G37*
G36*
X275724Y222906D02*
Y212906D01*
X274724D01*
X269724Y217906D01*
X274724Y222906D01*
X275724Y222906D01*
D02*
G37*
G36*
X283224Y217906D02*
X278224Y212906D01*
X277224Y212906D01*
Y222906D01*
X278224D01*
X283224Y217906D01*
D02*
G37*
G36*
X470300Y196500D02*
X469300Y196500D01*
X465800Y200000D01*
X464799Y200000D01*
X461300Y196501D01*
X460300Y196500D01*
Y203000D01*
X470300D01*
Y196500D01*
D02*
G37*
G36*
X495700Y196500D02*
X494700Y196500D01*
X491200Y200000D01*
X490199Y200000D01*
X486700Y196501D01*
X485700Y196500D01*
Y203000D01*
X495700D01*
Y196500D01*
D02*
G37*
G36*
X444000Y196500D02*
X443000Y196500D01*
X439500Y200000D01*
X438499Y200000D01*
X435000Y196500D01*
X434000Y196500D01*
Y203000D01*
X444000D01*
Y196500D01*
D02*
G37*
G36*
X468800Y194500D02*
X470300D01*
Y189500D01*
X468800D01*
X465300Y185750D01*
X461800Y189500D01*
X460300D01*
Y193000D01*
Y194500D01*
X461800D01*
X465299Y198001D01*
X468800Y194500D01*
D02*
G37*
G36*
X494200Y194500D02*
X495700D01*
Y189500D01*
X494200D01*
X490700Y185750D01*
X487200Y189500D01*
X485700D01*
Y193000D01*
Y194500D01*
X487200D01*
X490699Y198001D01*
X494200Y194500D01*
D02*
G37*
G36*
X442500Y194500D02*
X444000D01*
Y189500D01*
X442500D01*
X439000Y185750D01*
X435500Y189500D01*
X434000D01*
Y193000D01*
Y194500D01*
X435500D01*
X438999Y198001D01*
X442500Y194500D01*
D02*
G37*
G36*
X464800Y184000D02*
X465801Y184000D01*
X469300Y187500D01*
X470300Y187500D01*
Y181000D01*
X460300D01*
Y187500D01*
X461300Y187500D01*
X464800Y184000D01*
D02*
G37*
G36*
X490200Y184000D02*
X491201Y184000D01*
X494700Y187500D01*
X495700Y187500D01*
Y181000D01*
X485700D01*
Y187500D01*
X486700Y187500D01*
X490200Y184000D01*
D02*
G37*
G36*
X438500Y184000D02*
X439501Y184000D01*
X443000Y187500D01*
X444000Y187500D01*
Y181000D01*
X434000D01*
Y187500D01*
X435000Y187500D01*
X438500Y184000D01*
D02*
G37*
%LPC*%
G36*
X947200Y630078D02*
X947200Y630078D01*
X382165D01*
X382165Y630078D01*
X380605Y629768D01*
X379281Y628884D01*
X319727Y569329D01*
X319404Y569516D01*
X316479Y570300D01*
X313451D01*
X310526Y569516D01*
X307904Y568002D01*
X305763Y565861D01*
X304249Y563239D01*
X303465Y560314D01*
Y557286D01*
X304249Y554361D01*
X305763Y551739D01*
X307904Y549598D01*
X310526Y548083D01*
X313451Y547300D01*
X316479D01*
X319404Y548083D01*
X322026Y549598D01*
X324167Y551739D01*
X325681Y554361D01*
X326465Y557286D01*
Y560314D01*
X325681Y563239D01*
X325495Y563562D01*
X383854Y621922D01*
X945112D01*
X945531Y621348D01*
X944885Y620078D01*
X397565D01*
X397565Y620078D01*
X396004Y619768D01*
X394681Y618884D01*
X345127Y569329D01*
X344804Y569516D01*
X341879Y570300D01*
X338851D01*
X335926Y569516D01*
X333304Y568002D01*
X331163Y565861D01*
X329649Y563239D01*
X328865Y560314D01*
Y557286D01*
X329649Y554361D01*
X331163Y551739D01*
X333304Y549598D01*
X335926Y548083D01*
X338851Y547300D01*
X341879D01*
X344804Y548083D01*
X347426Y549598D01*
X349567Y551739D01*
X351081Y554361D01*
X351865Y557286D01*
Y560314D01*
X351081Y563239D01*
X350895Y563562D01*
X399255Y611922D01*
X411364D01*
X411615Y611559D01*
X411849Y610652D01*
X370527Y569329D01*
X370204Y569516D01*
X367279Y570300D01*
X364251D01*
X361326Y569516D01*
X358704Y568002D01*
X356563Y565861D01*
X355049Y563239D01*
X354265Y560314D01*
Y557286D01*
X355049Y554361D01*
X356563Y551739D01*
X358704Y549598D01*
X361326Y548083D01*
X364251Y547300D01*
X367279D01*
X370204Y548083D01*
X372826Y549598D01*
X374967Y551739D01*
X376481Y554361D01*
X377265Y557286D01*
Y560314D01*
X376481Y563239D01*
X376295Y563562D01*
X416655Y603922D01*
X428764D01*
X429015Y603559D01*
X429249Y602652D01*
X395927Y569329D01*
X395604Y569516D01*
X392679Y570300D01*
X389651D01*
X386726Y569516D01*
X384104Y568002D01*
X381963Y565861D01*
X380449Y563239D01*
X379665Y560314D01*
Y557286D01*
X380449Y554361D01*
X381963Y551739D01*
X384104Y549598D01*
X386726Y548083D01*
X389651Y547300D01*
X392679D01*
X395604Y548083D01*
X398226Y549598D01*
X400367Y551739D01*
X401881Y554361D01*
X402665Y557286D01*
Y560314D01*
X401881Y563239D01*
X401695Y563562D01*
X434054Y595922D01*
X446819D01*
X447008Y595356D01*
X447030Y594652D01*
X445881Y593884D01*
X445881Y593884D01*
X421327Y569329D01*
X421004Y569516D01*
X418079Y570300D01*
X415051D01*
X412126Y569516D01*
X409504Y568002D01*
X407363Y565861D01*
X405849Y563239D01*
X405065Y560314D01*
Y557286D01*
X405849Y554361D01*
X407363Y551739D01*
X409504Y549598D01*
X412126Y548083D01*
X415051Y547300D01*
X418079D01*
X421004Y548083D01*
X423626Y549598D01*
X425767Y551739D01*
X427281Y554361D01*
X428065Y557286D01*
Y560314D01*
X427281Y563239D01*
X427095Y563562D01*
X450454Y586922D01*
X936118D01*
X985922Y537118D01*
Y399000D01*
X985922Y399000D01*
X986232Y397439D01*
X987116Y396116D01*
X1005406Y377826D01*
X1006729Y376942D01*
X1008290Y376632D01*
X1008290Y376632D01*
X1044962D01*
X1045448Y375458D01*
X1031106Y361117D01*
X1030222Y359794D01*
X1029912Y358233D01*
X1029912Y358233D01*
Y314156D01*
X1002834Y287078D01*
X919689D01*
X862884Y343884D01*
X861561Y344768D01*
X860000Y345078D01*
X860000Y345078D01*
X721616D01*
Y420462D01*
X721616Y420462D01*
X721306Y422023D01*
X720422Y423346D01*
X720422Y423346D01*
X659884Y483884D01*
X658561Y484768D01*
X657000Y485078D01*
X657000Y485078D01*
X355352D01*
X354673Y486348D01*
X354774Y486500D01*
X355495D01*
X357149Y487185D01*
X358415Y488451D01*
X359100Y490105D01*
Y491895D01*
X358415Y493549D01*
X357149Y494815D01*
X355495Y495500D01*
X353705D01*
X352051Y494815D01*
X350785Y493549D01*
X350100Y491895D01*
Y491638D01*
X349521Y491059D01*
X342182D01*
X341503Y492329D01*
X341838Y492831D01*
X342108Y494188D01*
Y495730D01*
X335000D01*
Y498270D01*
X342108D01*
Y499813D01*
X341838Y501169D01*
X341070Y502320D01*
X339919Y503088D01*
X338788Y503313D01*
X338482Y503974D01*
X338396Y504628D01*
X343249Y509481D01*
X344133Y510804D01*
X344443Y512365D01*
Y531000D01*
X344443Y531000D01*
X344133Y532561D01*
X343249Y533884D01*
X343249Y533884D01*
X338249Y538884D01*
X336926Y539768D01*
X335365Y540078D01*
X335365Y540078D01*
X314054D01*
X300095Y554038D01*
X300281Y554361D01*
X301065Y557286D01*
Y560314D01*
X300281Y563239D01*
X298767Y565861D01*
X296626Y568002D01*
X294004Y569516D01*
X291079Y570300D01*
X288051D01*
X285126Y569516D01*
X282504Y568002D01*
X280363Y565861D01*
X278849Y563239D01*
X278065Y560314D01*
Y557286D01*
X278849Y554361D01*
X280363Y551739D01*
X282504Y549598D01*
X285126Y548083D01*
X288051Y547300D01*
X291079D01*
X294004Y548083D01*
X294327Y548270D01*
X309481Y533116D01*
X310804Y532232D01*
X312365Y531922D01*
X312365Y531922D01*
X333676D01*
X336287Y529311D01*
Y514054D01*
X333674Y511442D01*
X329000D01*
X327439Y511131D01*
X327015Y510847D01*
X326405Y510997D01*
X325865Y512438D01*
X326061Y512732D01*
X326314Y514000D01*
X326061Y515268D01*
X325343Y516343D01*
Y516906D01*
X326093Y517407D01*
X327041Y518826D01*
X327121Y519230D01*
X316750D01*
X306379D01*
X306459Y518826D01*
X307407Y517407D01*
X308157Y516906D01*
Y516343D01*
X307439Y515268D01*
X307186Y514000D01*
X307439Y512732D01*
X308157Y511657D01*
X308371Y511514D01*
Y509986D01*
X308157Y509843D01*
X307878Y509426D01*
X307536Y509294D01*
X306344Y509278D01*
X306203Y509419D01*
X305735Y510119D01*
X272646Y543209D01*
X272576Y543561D01*
X271691Y544884D01*
X270368Y545768D01*
X269423Y545956D01*
X269324Y546232D01*
X269288Y547278D01*
X271865Y548765D01*
X274200Y551100D01*
X275850Y553960D01*
X276705Y557149D01*
Y557530D01*
X251625D01*
Y557149D01*
X252480Y553960D01*
X254130Y551100D01*
X256465Y548765D01*
X258920Y547348D01*
X258579Y546078D01*
X257254D01*
X249295Y554038D01*
X249481Y554361D01*
X250265Y557286D01*
Y560314D01*
X249481Y563239D01*
X247967Y565861D01*
X245826Y568002D01*
X243204Y569516D01*
X240279Y570300D01*
X237251D01*
X234326Y569516D01*
X231704Y568002D01*
X229563Y565861D01*
X228049Y563239D01*
X227265Y560314D01*
Y557286D01*
X228049Y554361D01*
X229563Y551739D01*
X231704Y549598D01*
X234326Y548083D01*
X237251Y547300D01*
X240279D01*
X243204Y548083D01*
X243527Y548270D01*
X252681Y539116D01*
X254004Y538232D01*
X255565Y537922D01*
X255565Y537922D01*
X267839D01*
X269509Y536252D01*
X269023Y535078D01*
X242854D01*
X223895Y554038D01*
X224081Y554361D01*
X224865Y557286D01*
Y560314D01*
X224081Y563239D01*
X222567Y565861D01*
X220426Y568002D01*
X217804Y569516D01*
X214879Y570300D01*
X211851D01*
X208926Y569516D01*
X206304Y568002D01*
X204163Y565861D01*
X202649Y563239D01*
X201865Y560314D01*
Y557286D01*
X202649Y554361D01*
X204163Y551739D01*
X206304Y549598D01*
X208926Y548083D01*
X211851Y547300D01*
X214879D01*
X217804Y548083D01*
X218127Y548270D01*
X238281Y528116D01*
X239604Y527232D01*
X241165Y526922D01*
X241165Y526922D01*
X269311D01*
X297116Y499116D01*
X297116Y499116D01*
X298439Y498232D01*
X299691Y497983D01*
X305337Y492337D01*
X305337Y492337D01*
X306329Y491674D01*
X307500Y491441D01*
X307514D01*
X307847Y490874D01*
X308042Y490171D01*
X307439Y489268D01*
X307186Y488000D01*
X307439Y486732D01*
X306804Y485396D01*
X306546Y485330D01*
X306387Y485381D01*
X274637Y517130D01*
X274134Y517884D01*
X272811Y518768D01*
X271518Y519025D01*
X269630Y520913D01*
X269383Y521078D01*
X268296Y522165D01*
X267843Y522843D01*
X266768Y523561D01*
X265500Y523814D01*
X253000D01*
X251732Y523561D01*
X250657Y522843D01*
X249939Y521768D01*
X249686Y520500D01*
X249939Y519232D01*
X250657Y518157D01*
X250871Y518014D01*
Y516486D01*
X250657Y516343D01*
X249939Y515268D01*
X249686Y514000D01*
X249939Y512732D01*
X250027Y512600D01*
X249757Y511343D01*
X249550Y511081D01*
X248897Y511043D01*
X248561Y511268D01*
X247000Y511578D01*
X182800D01*
X182800Y511578D01*
X181239Y511268D01*
X179916Y510384D01*
X179916Y510384D01*
X163970Y494438D01*
X162785Y495011D01*
X162766Y495029D01*
Y498830D01*
X150000D01*
X137234D01*
Y495020D01*
X137496Y493031D01*
X138264Y491177D01*
X139485Y489585D01*
X141077Y488364D01*
X142931Y487596D01*
X143539Y487516D01*
Y486235D01*
X143202Y486191D01*
X141602Y485528D01*
X140227Y484473D01*
X139172Y483098D01*
X138509Y481498D01*
X138283Y479780D01*
Y469620D01*
X138509Y467902D01*
X139172Y466302D01*
X140227Y464927D01*
X141602Y463872D01*
X143202Y463209D01*
X144920Y462983D01*
X153255D01*
X153904Y461768D01*
X153430Y461017D01*
X144920D01*
X143202Y460791D01*
X141602Y460128D01*
X140227Y459073D01*
X139172Y457698D01*
X138509Y456098D01*
X138283Y454380D01*
Y444220D01*
X138509Y442502D01*
X139172Y440902D01*
X140227Y439527D01*
X141602Y438472D01*
X143202Y437809D01*
X144920Y437583D01*
X155080D01*
X156277Y437741D01*
X156870Y436538D01*
X155861Y435529D01*
X155830Y435560D01*
X144170D01*
X138340Y429730D01*
Y418070D01*
X144170Y412240D01*
X155830D01*
X161660Y418070D01*
Y429730D01*
X161629Y429761D01*
X174884Y443016D01*
X174884Y443016D01*
X175768Y444339D01*
X176078Y445900D01*
X176078Y445900D01*
Y451680D01*
X176305Y451856D01*
X177957Y451534D01*
X178763Y450139D01*
X180904Y447998D01*
X183526Y446483D01*
X186451Y445700D01*
X189479D01*
X192404Y446483D01*
X195026Y447998D01*
X197167Y450139D01*
X198681Y452761D01*
X199465Y455686D01*
Y458714D01*
X198681Y461639D01*
X197167Y464261D01*
X195026Y466402D01*
X192404Y467916D01*
X189479Y468700D01*
X186451D01*
X183526Y467916D01*
X180904Y466402D01*
X178763Y464261D01*
X177957Y462865D01*
X176305Y462543D01*
X176078Y462720D01*
Y469311D01*
X180689Y473922D01*
X193186D01*
X193614Y473364D01*
X194972Y472322D01*
X196553Y471667D01*
X198011Y471475D01*
X198250Y471376D01*
X199250D01*
X200000Y471687D01*
X200159Y471621D01*
X200750Y471376D01*
X201749Y471376D01*
X201750Y471376D01*
X201750Y471376D01*
X201989Y471475D01*
X203447Y471667D01*
X205028Y472322D01*
X206386Y473364D01*
X206814Y473922D01*
X213407D01*
X214439Y473232D01*
X216000Y472922D01*
X216000Y472922D01*
X229750D01*
X229750Y472922D01*
X231311Y473232D01*
X232634Y474116D01*
X239228Y480710D01*
X239561Y480528D01*
X239668Y480195D01*
X239661Y479025D01*
X238685Y478049D01*
X238000Y476395D01*
Y474605D01*
X238685Y472951D01*
X239951Y471685D01*
X241605Y471000D01*
X243395D01*
X245049Y471685D01*
X246315Y472951D01*
X246737Y473969D01*
X248634Y475866D01*
X248634Y475866D01*
X249518Y477189D01*
X249767Y478441D01*
X251728D01*
X251732Y478439D01*
X253000Y478186D01*
X265500D01*
X266768Y478439D01*
X267843Y479157D01*
X268561Y480232D01*
X268814Y481500D01*
X268561Y482768D01*
X267958Y483671D01*
X268153Y484374D01*
X268486Y484941D01*
X269983D01*
X274941Y479983D01*
Y478805D01*
X274185Y478049D01*
X273500Y476395D01*
Y474605D01*
X274185Y472951D01*
X275451Y471685D01*
X277105Y471000D01*
X278895D01*
X280549Y471685D01*
X281815Y472951D01*
X282500Y474605D01*
Y476395D01*
X281815Y478049D01*
X281059Y478805D01*
Y481250D01*
X281059Y481250D01*
X280826Y482421D01*
X280163Y483413D01*
X274749Y488827D01*
X275232Y490140D01*
X276549Y490685D01*
X277815Y491951D01*
X278500Y493605D01*
Y495395D01*
X277815Y497049D01*
X276549Y498315D01*
X274895Y499000D01*
X273105D01*
X271451Y498315D01*
X270695Y497559D01*
X268486D01*
X268153Y498126D01*
X267958Y498829D01*
X268561Y499732D01*
X268814Y501000D01*
X268561Y502268D01*
X267843Y503343D01*
X267629Y503486D01*
Y505014D01*
X267843Y505157D01*
X268561Y506232D01*
X268814Y507500D01*
X268561Y508768D01*
X267843Y509843D01*
X268472Y510950D01*
X268899Y511241D01*
X269052Y511180D01*
X301521Y478712D01*
X302844Y477828D01*
X304404Y477517D01*
X305965Y477828D01*
X307026Y478537D01*
X309085D01*
X309232Y478439D01*
X310500Y478186D01*
X322446D01*
X322465Y478174D01*
X323635Y477941D01*
X329001D01*
X329141Y477236D01*
X329680Y476430D01*
X330486Y475891D01*
X331437Y475702D01*
X338563D01*
X339514Y475891D01*
X340320Y476430D01*
X340648Y476922D01*
X655311D01*
X713460Y418773D01*
Y342689D01*
X693005Y322235D01*
X691988Y321814D01*
X690722Y320548D01*
X690036Y318894D01*
Y317104D01*
X690722Y315450D01*
X691988Y314184D01*
X693641Y313499D01*
X695432D01*
X697086Y314184D01*
X698351Y315450D01*
X698773Y316467D01*
X719227Y336922D01*
X858311D01*
X915116Y280116D01*
X915116Y280116D01*
X916439Y279232D01*
X918000Y278922D01*
X1004523D01*
X1004523Y278922D01*
X1006084Y279232D01*
X1007407Y280116D01*
X1036874Y309583D01*
X1036874Y309583D01*
X1037758Y310906D01*
X1038069Y312467D01*
Y356544D01*
X1051656Y370132D01*
X1065434D01*
X1066826Y370409D01*
X1071809D01*
X1072833Y370612D01*
X1073640Y371151D01*
X1076581D01*
X1076581Y371151D01*
X1077751Y371384D01*
X1078744Y372047D01*
X1080888Y374191D01*
X1081684Y374085D01*
X1082228Y373816D01*
X1082320Y373201D01*
X1076754Y367635D01*
X1076091Y366642D01*
X1075858Y365472D01*
X1075858Y365472D01*
Y327388D01*
X1075292D01*
X1074463Y327223D01*
X1073760Y326754D01*
X1073290Y326051D01*
X1073126Y325222D01*
Y323972D01*
X1073236Y323416D01*
X1073114Y323192D01*
X1072942Y323075D01*
X1071594Y322797D01*
X1070744Y323365D01*
X1069184Y323675D01*
X1067106D01*
X1067042Y323997D01*
X1066504Y324803D01*
X1065697Y325342D01*
X1065262Y325428D01*
Y328520D01*
X1065684Y329538D01*
Y331328D01*
X1064999Y332982D01*
X1063733Y334248D01*
X1062079Y334933D01*
X1060289D01*
X1058635Y334248D01*
X1057369Y332982D01*
X1056684Y331328D01*
Y329538D01*
X1057105Y328520D01*
Y325428D01*
X1056670Y325342D01*
X1055864Y324803D01*
X1055325Y323997D01*
X1055136Y323046D01*
Y317421D01*
X1054062Y316312D01*
X1053184D01*
X1053184Y316312D01*
X1051623Y316001D01*
X1050300Y315117D01*
X1010994Y275812D01*
X934619D01*
X933058Y275501D01*
X931735Y274617D01*
X931735Y274617D01*
X911386Y254269D01*
X910502Y252946D01*
X910192Y251385D01*
X910192Y251385D01*
Y245444D01*
X905250D01*
X904079Y245211D01*
X903087Y244548D01*
X902424Y243556D01*
X902191Y242385D01*
Y239385D01*
X902424Y238214D01*
X903087Y237222D01*
X904079Y236559D01*
X905250Y236326D01*
X916750D01*
X917921Y236559D01*
X918913Y237222D01*
X919576Y238214D01*
X919809Y239385D01*
Y242385D01*
X919576Y243556D01*
X918913Y244548D01*
X918348Y244925D01*
Y249696D01*
X936308Y267655D01*
X1012684D01*
X1012684Y267655D01*
X1014245Y267966D01*
X1015568Y268850D01*
X1052806Y306087D01*
X1054076Y305561D01*
Y305503D01*
X1061184D01*
X1068292D01*
Y307046D01*
X1068123Y307893D01*
X1069294Y308519D01*
X1070018Y307794D01*
X1070845Y307242D01*
X1071820Y307048D01*
X1072429D01*
X1072743Y306684D01*
X1073236Y305778D01*
X1073126Y305222D01*
Y303972D01*
X1073290Y303143D01*
X1073760Y302440D01*
X1074463Y301970D01*
X1075292Y301805D01*
X1076368D01*
Y298704D01*
X1076033Y298480D01*
X1075149Y297157D01*
X1074839Y295597D01*
Y283692D01*
X1056710Y265563D01*
X954000D01*
X952439Y265253D01*
X951116Y264369D01*
X941116Y254369D01*
X940232Y253046D01*
X939922Y251485D01*
X939922Y251485D01*
Y221474D01*
X925311Y206863D01*
X918291D01*
X917921Y207111D01*
X916750Y207344D01*
X905250D01*
X904079Y207111D01*
X903087Y206448D01*
X902424Y205455D01*
X902191Y204285D01*
Y201285D01*
X902424Y200114D01*
X903087Y199122D01*
X904079Y198459D01*
X905250Y198226D01*
X916750D01*
X917921Y198459D01*
X918291Y198707D01*
X927000D01*
X927000Y198707D01*
X928561Y199017D01*
X929884Y199901D01*
X946884Y216901D01*
X946884Y216901D01*
X947768Y218224D01*
X948078Y219785D01*
X948078Y219785D01*
Y249796D01*
X955689Y257407D01*
X1058399D01*
X1058399Y257407D01*
X1059960Y257717D01*
X1061283Y258601D01*
X1081801Y279119D01*
X1081801Y279119D01*
X1082685Y280443D01*
X1082996Y282003D01*
Y295597D01*
X1082685Y297157D01*
X1081801Y298480D01*
X1081466Y298704D01*
Y301805D01*
X1082542D01*
X1083371Y301970D01*
X1084074Y302440D01*
X1084107Y302489D01*
X1085377Y302104D01*
Y302057D01*
X1085424D01*
X1085809Y300787D01*
X1085760Y300754D01*
X1085290Y300051D01*
X1085126Y299222D01*
Y291972D01*
X1085290Y291143D01*
X1085760Y290440D01*
X1086463Y289970D01*
X1087292Y289805D01*
X1088542D01*
X1089371Y289970D01*
X1089492Y290051D01*
X1090417Y290334D01*
X1091342Y290051D01*
X1091463Y289970D01*
X1092292Y289805D01*
X1093542D01*
X1094371Y289970D01*
X1095074Y290440D01*
X1095760D01*
X1096463Y289970D01*
X1097292Y289805D01*
X1098542D01*
X1099371Y289970D01*
X1100074Y290440D01*
X1100760D01*
X1101463Y289970D01*
X1102292Y289805D01*
X1103542D01*
X1104371Y289970D01*
X1104492Y290051D01*
X1105417Y290334D01*
X1106342Y290051D01*
X1106463Y289970D01*
X1107292Y289805D01*
X1108542D01*
X1109371Y289970D01*
X1110074Y290440D01*
X1110544Y291143D01*
X1110709Y291972D01*
Y299222D01*
X1110544Y300051D01*
X1110074Y300754D01*
X1110025Y300787D01*
X1110410Y302057D01*
X1110457D01*
Y302104D01*
X1111727Y302489D01*
X1111760Y302440D01*
X1112463Y301970D01*
X1113292Y301805D01*
X1120542D01*
X1121371Y301970D01*
X1121488Y302048D01*
X1123976D01*
X1124200Y301713D01*
X1125523Y300829D01*
X1127084Y300518D01*
X1135471D01*
Y298421D01*
X1135719Y297177D01*
X1136423Y296123D01*
X1137477Y295418D01*
X1138721Y295171D01*
X1140896D01*
Y292524D01*
X1140596Y292323D01*
X1140057Y291517D01*
X1139868Y290566D01*
Y283441D01*
X1140057Y282490D01*
X1140596Y281683D01*
X1141402Y281145D01*
X1142353Y280956D01*
X1147978D01*
X1148929Y281145D01*
X1149736Y281683D01*
X1150274Y282490D01*
X1150463Y283441D01*
Y287014D01*
X1150692Y288160D01*
Y288910D01*
X1150463Y290056D01*
Y290566D01*
X1150274Y291517D01*
X1149736Y292323D01*
X1149053Y292779D01*
Y295171D01*
X1150846D01*
X1152090Y295418D01*
X1153144Y296123D01*
X1153849Y297177D01*
X1154096Y298421D01*
Y308546D01*
X1153849Y309790D01*
X1153144Y310844D01*
X1152650Y311174D01*
X1152596Y311619D01*
X1152756Y312612D01*
X1153894Y313373D01*
X1154828Y314771D01*
X1155157Y316421D01*
Y320213D01*
X1144784D01*
X1134411D01*
Y316421D01*
X1134739Y314771D01*
X1135673Y313373D01*
X1136812Y312612D01*
X1136972Y311619D01*
X1136918Y311174D01*
X1136423Y310844D01*
X1135719Y309790D01*
X1135497Y308675D01*
X1131044D01*
X1130366Y309945D01*
X1130852Y310673D01*
X1131162Y312233D01*
Y347544D01*
X1137773Y354155D01*
X1144165D01*
X1151034Y347286D01*
Y344950D01*
X1150814Y344803D01*
X1150275Y343997D01*
X1150086Y343046D01*
Y335921D01*
X1150275Y334970D01*
X1150814Y334163D01*
X1151620Y333625D01*
X1152571Y333436D01*
X1158196D01*
X1159147Y333625D01*
X1159954Y334163D01*
X1160575Y334225D01*
X1162205Y332594D01*
Y329796D01*
X1160721D01*
X1159477Y329548D01*
X1158423Y328844D01*
X1157719Y327789D01*
X1157471Y326546D01*
Y316421D01*
X1157719Y315177D01*
X1158423Y314123D01*
X1158918Y313792D01*
X1158972Y313347D01*
X1158812Y312354D01*
X1157673Y311594D01*
X1156739Y310195D01*
X1156411Y308546D01*
Y304753D01*
X1166784D01*
X1177157D01*
Y308546D01*
X1176829Y310195D01*
X1175894Y311594D01*
X1174756Y312354D01*
X1174596Y313347D01*
X1174650Y313792D01*
X1175144Y314123D01*
X1175849Y315177D01*
X1176096Y316421D01*
Y326546D01*
X1175849Y327789D01*
X1175144Y328844D01*
X1174090Y329548D01*
X1172846Y329796D01*
X1170362D01*
Y334283D01*
X1170362Y334283D01*
X1170052Y335844D01*
X1169168Y337167D01*
X1163968Y342367D01*
X1162645Y343251D01*
X1161084Y343562D01*
X1160492Y343997D01*
X1159954Y344803D01*
X1159191Y345313D01*
Y348975D01*
X1158881Y350536D01*
X1157997Y351859D01*
X1157996Y351859D01*
X1148739Y361117D01*
X1147415Y362001D01*
X1145855Y362312D01*
X1145855Y362312D01*
X1136084D01*
X1134523Y362001D01*
X1133200Y361117D01*
X1133200Y361117D01*
X1124200Y352117D01*
X1123316Y350794D01*
X1123005Y349233D01*
X1123005Y349233D01*
Y327543D01*
X1122852Y327412D01*
X1121735Y326980D01*
X1121371Y327223D01*
X1120542Y327388D01*
X1113292D01*
X1112463Y327223D01*
X1111760Y326754D01*
X1111727Y326704D01*
X1110457Y327090D01*
Y327137D01*
X1110410D01*
X1110025Y328407D01*
X1110074Y328440D01*
X1110544Y329142D01*
X1110709Y329972D01*
Y337222D01*
X1110544Y338051D01*
X1110466Y338167D01*
Y342548D01*
X1110743Y342963D01*
X1110976Y344133D01*
Y372013D01*
X1114052Y375089D01*
X1115322Y374563D01*
Y373085D01*
X1115606Y371655D01*
X1116416Y370443D01*
X1117629Y369633D01*
X1119059Y369348D01*
X1124164D01*
Y374210D01*
X1125434D01*
Y375480D01*
X1135517D01*
X1135261Y376765D01*
X1134451Y377977D01*
X1134064Y378236D01*
X1134281Y378561D01*
X1134485Y379585D01*
Y381835D01*
X1134281Y382859D01*
X1134192Y382993D01*
X1133796Y383960D01*
X1134192Y384927D01*
X1134281Y385061D01*
X1134485Y386085D01*
Y388335D01*
X1134281Y389359D01*
X1134192Y389493D01*
X1133796Y390460D01*
X1134192Y391427D01*
X1134281Y391561D01*
X1134485Y392585D01*
Y394835D01*
X1134281Y395859D01*
X1134192Y395993D01*
X1133796Y396960D01*
X1134192Y397927D01*
X1134281Y398061D01*
X1134485Y399085D01*
Y401335D01*
X1134281Y402359D01*
X1134192Y402493D01*
X1133796Y403460D01*
X1134192Y404427D01*
X1134281Y404561D01*
X1134485Y405585D01*
Y407835D01*
X1134378Y408371D01*
X1135170Y409641D01*
X1137773D01*
X1137812Y409446D01*
X1138351Y408640D01*
X1139157Y408101D01*
X1140108Y407912D01*
X1147233D01*
X1148184Y408101D01*
X1148990Y408640D01*
X1149529Y409446D01*
X1149718Y410397D01*
Y416022D01*
X1149529Y416974D01*
X1148990Y417780D01*
X1148184Y418319D01*
X1147568Y418441D01*
X1147399Y419735D01*
X1147485Y419821D01*
X1148170Y421475D01*
Y423265D01*
X1147485Y424919D01*
X1146219Y426185D01*
X1144566Y426870D01*
X1142775D01*
X1141121Y426185D01*
X1139855Y424919D01*
X1139170Y423265D01*
Y421475D01*
X1139855Y419821D01*
X1139942Y419735D01*
X1139772Y418441D01*
X1139157Y418319D01*
X1138351Y417780D01*
X1137812Y416974D01*
X1137773Y416779D01*
X1135170D01*
X1134378Y418049D01*
X1134485Y418585D01*
Y420835D01*
X1134281Y421859D01*
X1133701Y422728D01*
X1132833Y423308D01*
X1131809Y423511D01*
X1119059D01*
X1118035Y423308D01*
X1117228Y422769D01*
X1107031D01*
X1107030Y422769D01*
X1105860Y422536D01*
X1104868Y421873D01*
X1104868Y421873D01*
X1083521Y400526D01*
X1083246Y400115D01*
X1081976Y400500D01*
Y410233D01*
X1081743Y411404D01*
X1081080Y412396D01*
X1081080Y412396D01*
X1078103Y415373D01*
X1077111Y416036D01*
X1075940Y416269D01*
X1075940Y416269D01*
X1074946D01*
X1074267Y417539D01*
X1074281Y417561D01*
X1074485Y418585D01*
Y420835D01*
X1074281Y421859D01*
X1073701Y422728D01*
X1072833Y423308D01*
X1071809Y423511D01*
X1059059D01*
X1058035Y423308D01*
X1057228Y422769D01*
X1052826D01*
X1052494Y423316D01*
X1052488Y423346D01*
X1052400Y424133D01*
X1053022Y425064D01*
X1053292Y426421D01*
Y427963D01*
X1046184D01*
Y429233D01*
D01*
Y427963D01*
X1039076D01*
Y426421D01*
X1039345Y425064D01*
X1039967Y424133D01*
X1039880Y423346D01*
X1039873Y423316D01*
X1039542Y422769D01*
X1034629D01*
X1033884Y423884D01*
X1025078Y432689D01*
Y552200D01*
X1025078Y552200D01*
X1024768Y553761D01*
X1023884Y555084D01*
X950084Y628884D01*
X948761Y629768D01*
X948502Y629819D01*
X947200Y630078D01*
D02*
G37*
G36*
X265816Y571340D02*
X265435D01*
Y560070D01*
X276705D01*
Y560451D01*
X275850Y563640D01*
X274200Y566500D01*
X271865Y568834D01*
X269005Y570485D01*
X265816Y571340D01*
D02*
G37*
G36*
X262895D02*
X262514D01*
X259325Y570485D01*
X256465Y568834D01*
X254130Y566500D01*
X252480Y563640D01*
X251625Y560451D01*
Y560070D01*
X262895D01*
Y571340D01*
D02*
G37*
G36*
X189479Y570300D02*
X186451D01*
X183526Y569516D01*
X180904Y568002D01*
X178763Y565861D01*
X177249Y563239D01*
X176465Y560314D01*
Y557286D01*
X177249Y554361D01*
X178763Y551739D01*
X180904Y549598D01*
X183526Y548083D01*
X186451Y547300D01*
X189479D01*
X192404Y548083D01*
X195026Y549598D01*
X197167Y551739D01*
X198681Y554361D01*
X199465Y557286D01*
Y560314D01*
X198681Y563239D01*
X197167Y565861D01*
X195026Y568002D01*
X192404Y569516D01*
X189479Y570300D01*
D02*
G37*
G36*
X865119Y570300D02*
X862091D01*
X859166Y569516D01*
X856544Y568002D01*
X854403Y565861D01*
X852889Y563239D01*
X852105Y560314D01*
Y557286D01*
X852889Y554361D01*
X854403Y551739D01*
X856544Y549598D01*
X859166Y548083D01*
X862091Y547300D01*
X865119D01*
X868044Y548083D01*
X870666Y549598D01*
X872807Y551739D01*
X874321Y554361D01*
X875105Y557286D01*
Y560314D01*
X874321Y563239D01*
X872807Y565861D01*
X870666Y568002D01*
X868044Y569516D01*
X865119Y570300D01*
D02*
G37*
G36*
X839719D02*
X836691D01*
X833766Y569516D01*
X831144Y568002D01*
X829003Y565861D01*
X827489Y563239D01*
X826705Y560314D01*
Y557286D01*
X827489Y554361D01*
X829003Y551739D01*
X831144Y549598D01*
X833766Y548083D01*
X836691Y547300D01*
X839719D01*
X842644Y548083D01*
X845266Y549598D01*
X847407Y551739D01*
X848921Y554361D01*
X849705Y557286D01*
Y560314D01*
X848921Y563239D01*
X847407Y565861D01*
X845266Y568002D01*
X842644Y569516D01*
X839719Y570300D01*
D02*
G37*
G36*
X814319D02*
X811291D01*
X808366Y569516D01*
X805744Y568002D01*
X803603Y565861D01*
X802089Y563239D01*
X801305Y560314D01*
Y557286D01*
X802089Y554361D01*
X803603Y551739D01*
X805744Y549598D01*
X808366Y548083D01*
X811291Y547300D01*
X814319D01*
X817244Y548083D01*
X819866Y549598D01*
X822007Y551739D01*
X823521Y554361D01*
X824305Y557286D01*
Y560314D01*
X823521Y563239D01*
X822007Y565861D01*
X819866Y568002D01*
X817244Y569516D01*
X814319Y570300D01*
D02*
G37*
G36*
X788919D02*
X785891D01*
X782966Y569516D01*
X780344Y568002D01*
X778203Y565861D01*
X776689Y563239D01*
X775905Y560314D01*
Y557286D01*
X776689Y554361D01*
X778203Y551739D01*
X780344Y549598D01*
X782966Y548083D01*
X785891Y547300D01*
X788919D01*
X791844Y548083D01*
X794466Y549598D01*
X796607Y551739D01*
X798121Y554361D01*
X798905Y557286D01*
Y560314D01*
X798121Y563239D01*
X796607Y565861D01*
X794466Y568002D01*
X791844Y569516D01*
X788919Y570300D01*
D02*
G37*
G36*
X763519D02*
X760491D01*
X757566Y569516D01*
X754944Y568002D01*
X752803Y565861D01*
X751289Y563239D01*
X750505Y560314D01*
Y557286D01*
X751289Y554361D01*
X752803Y551739D01*
X754944Y549598D01*
X757566Y548083D01*
X760491Y547300D01*
X763519D01*
X766444Y548083D01*
X769066Y549598D01*
X771207Y551739D01*
X772721Y554361D01*
X773505Y557286D01*
Y560314D01*
X772721Y563239D01*
X771207Y565861D01*
X769066Y568002D01*
X766444Y569516D01*
X763519Y570300D01*
D02*
G37*
G36*
X738119D02*
X735091D01*
X732166Y569516D01*
X729544Y568002D01*
X727403Y565861D01*
X725889Y563239D01*
X725105Y560314D01*
Y557286D01*
X725889Y554361D01*
X727403Y551739D01*
X729544Y549598D01*
X732166Y548083D01*
X735091Y547300D01*
X738119D01*
X741044Y548083D01*
X743666Y549598D01*
X745807Y551739D01*
X747321Y554361D01*
X748105Y557286D01*
Y560314D01*
X747321Y563239D01*
X745807Y565861D01*
X743666Y568002D01*
X741044Y569516D01*
X738119Y570300D01*
D02*
G37*
G36*
X712719D02*
X709691D01*
X706766Y569516D01*
X704144Y568002D01*
X702003Y565861D01*
X700489Y563239D01*
X699705Y560314D01*
Y557286D01*
X700489Y554361D01*
X702003Y551739D01*
X704144Y549598D01*
X706766Y548083D01*
X709691Y547300D01*
X712719D01*
X715644Y548083D01*
X718266Y549598D01*
X720407Y551739D01*
X721921Y554361D01*
X722705Y557286D01*
Y560314D01*
X721921Y563239D01*
X720407Y565861D01*
X718266Y568002D01*
X715644Y569516D01*
X712719Y570300D01*
D02*
G37*
G36*
X687319D02*
X684291D01*
X681366Y569516D01*
X678744Y568002D01*
X676603Y565861D01*
X675089Y563239D01*
X674305Y560314D01*
Y557286D01*
X675089Y554361D01*
X676603Y551739D01*
X678744Y549598D01*
X681366Y548083D01*
X684291Y547300D01*
X687319D01*
X690244Y548083D01*
X692866Y549598D01*
X695007Y551739D01*
X696521Y554361D01*
X697305Y557286D01*
Y560314D01*
X696521Y563239D01*
X695007Y565861D01*
X692866Y568002D01*
X690244Y569516D01*
X687319Y570300D01*
D02*
G37*
G36*
X636519D02*
X633491D01*
X630566Y569516D01*
X627944Y568002D01*
X625803Y565861D01*
X624289Y563239D01*
X623505Y560314D01*
Y557286D01*
X624289Y554361D01*
X625803Y551739D01*
X627944Y549598D01*
X630566Y548083D01*
X633491Y547300D01*
X636519D01*
X639444Y548083D01*
X642066Y549598D01*
X644207Y551739D01*
X645721Y554361D01*
X646505Y557286D01*
Y560314D01*
X645721Y563239D01*
X644207Y565861D01*
X642066Y568002D01*
X639444Y569516D01*
X636519Y570300D01*
D02*
G37*
G36*
X611119D02*
X608091D01*
X605166Y569516D01*
X602544Y568002D01*
X600403Y565861D01*
X598889Y563239D01*
X598105Y560314D01*
Y557286D01*
X598889Y554361D01*
X600403Y551739D01*
X602544Y549598D01*
X605166Y548083D01*
X608091Y547300D01*
X611119D01*
X614044Y548083D01*
X616666Y549598D01*
X618807Y551739D01*
X620321Y554361D01*
X621105Y557286D01*
Y560314D01*
X620321Y563239D01*
X618807Y565861D01*
X616666Y568002D01*
X614044Y569516D01*
X611119Y570300D01*
D02*
G37*
G36*
X585719D02*
X582691D01*
X579766Y569516D01*
X577144Y568002D01*
X575003Y565861D01*
X573489Y563239D01*
X572705Y560314D01*
Y557286D01*
X573489Y554361D01*
X575003Y551739D01*
X577144Y549598D01*
X579766Y548083D01*
X582691Y547300D01*
X585719D01*
X588644Y548083D01*
X591266Y549598D01*
X593407Y551739D01*
X594921Y554361D01*
X595705Y557286D01*
Y560314D01*
X594921Y563239D01*
X593407Y565861D01*
X591266Y568002D01*
X588644Y569516D01*
X585719Y570300D01*
D02*
G37*
G36*
X560319D02*
X557291D01*
X554366Y569516D01*
X551744Y568002D01*
X549603Y565861D01*
X548089Y563239D01*
X547305Y560314D01*
Y557286D01*
X548089Y554361D01*
X549603Y551739D01*
X551744Y549598D01*
X554366Y548083D01*
X557291Y547300D01*
X560319D01*
X563244Y548083D01*
X565866Y549598D01*
X568007Y551739D01*
X569521Y554361D01*
X570305Y557286D01*
Y560314D01*
X569521Y563239D01*
X568007Y565861D01*
X565866Y568002D01*
X563244Y569516D01*
X560319Y570300D01*
D02*
G37*
G36*
X534919D02*
X531891D01*
X528966Y569516D01*
X526344Y568002D01*
X524203Y565861D01*
X522689Y563239D01*
X521905Y560314D01*
Y557286D01*
X522689Y554361D01*
X524203Y551739D01*
X526344Y549598D01*
X528966Y548083D01*
X531891Y547300D01*
X534919D01*
X537844Y548083D01*
X540466Y549598D01*
X542607Y551739D01*
X544121Y554361D01*
X544905Y557286D01*
Y560314D01*
X544121Y563239D01*
X542607Y565861D01*
X540466Y568002D01*
X537844Y569516D01*
X534919Y570300D01*
D02*
G37*
G36*
X509519D02*
X506491D01*
X503566Y569516D01*
X500944Y568002D01*
X498803Y565861D01*
X497289Y563239D01*
X496505Y560314D01*
Y557286D01*
X497289Y554361D01*
X498803Y551739D01*
X500944Y549598D01*
X503566Y548083D01*
X506491Y547300D01*
X509519D01*
X512444Y548083D01*
X515066Y549598D01*
X517207Y551739D01*
X518721Y554361D01*
X519505Y557286D01*
Y560314D01*
X518721Y563239D01*
X517207Y565861D01*
X515066Y568002D01*
X512444Y569516D01*
X509519Y570300D01*
D02*
G37*
G36*
X484119D02*
X481091D01*
X478166Y569516D01*
X475544Y568002D01*
X473403Y565861D01*
X471889Y563239D01*
X471105Y560314D01*
Y557286D01*
X471889Y554361D01*
X473403Y551739D01*
X475544Y549598D01*
X478166Y548083D01*
X481091Y547300D01*
X484119D01*
X487044Y548083D01*
X489666Y549598D01*
X491807Y551739D01*
X493321Y554361D01*
X494105Y557286D01*
Y560314D01*
X493321Y563239D01*
X491807Y565861D01*
X489666Y568002D01*
X487044Y569516D01*
X484119Y570300D01*
D02*
G37*
G36*
X458719D02*
X455691D01*
X452766Y569516D01*
X450144Y568002D01*
X448003Y565861D01*
X446489Y563239D01*
X445705Y560314D01*
Y557286D01*
X446489Y554361D01*
X448003Y551739D01*
X450144Y549598D01*
X452766Y548083D01*
X455691Y547300D01*
X458719D01*
X461644Y548083D01*
X464266Y549598D01*
X466407Y551739D01*
X467921Y554361D01*
X468705Y557286D01*
Y560314D01*
X467921Y563239D01*
X466407Y565861D01*
X464266Y568002D01*
X461644Y569516D01*
X458719Y570300D01*
D02*
G37*
G36*
X903423Y576300D02*
X899976D01*
X896595Y575627D01*
X893410Y574308D01*
X890544Y572393D01*
X888106Y569955D01*
X886191Y567089D01*
X884872Y563904D01*
X884199Y560523D01*
Y557076D01*
X884872Y553695D01*
X886191Y550510D01*
X888106Y547644D01*
X890544Y545207D01*
X893410Y543292D01*
X896595Y541972D01*
X899976Y541300D01*
X903423D01*
X906804Y541972D01*
X909989Y543292D01*
X912855Y545207D01*
X915292Y547644D01*
X917207Y550510D01*
X918527Y553695D01*
X919199Y557076D01*
Y560523D01*
X918527Y563904D01*
X917207Y567089D01*
X915292Y569955D01*
X912855Y572393D01*
X909989Y574308D01*
X906804Y575627D01*
X903423Y576300D01*
D02*
G37*
G36*
X141423Y576299D02*
X137976D01*
X134595Y575627D01*
X131410Y574308D01*
X128544Y572392D01*
X126106Y569955D01*
X124191Y567089D01*
X122872Y563904D01*
X122199Y560523D01*
Y557076D01*
X122872Y553695D01*
X124191Y550510D01*
X126106Y547644D01*
X128544Y545206D01*
X131410Y543291D01*
X134595Y541972D01*
X137976Y541299D01*
X141423D01*
X144804Y541972D01*
X147989Y543291D01*
X150855Y545206D01*
X153292Y547644D01*
X155208Y550510D01*
X156527Y553695D01*
X157199Y557076D01*
Y560523D01*
X156527Y563904D01*
X155208Y567089D01*
X153292Y569955D01*
X150855Y572392D01*
X147989Y574308D01*
X144804Y575627D01*
X141423Y576299D01*
D02*
G37*
G36*
X1153045Y543413D02*
X1152664D01*
Y532143D01*
X1163934D01*
Y532524D01*
X1163080Y535713D01*
X1161429Y538573D01*
X1159094Y540908D01*
X1156235Y542558D01*
X1153045Y543413D01*
D02*
G37*
G36*
X1150124D02*
X1149743D01*
X1146554Y542558D01*
X1143695Y540908D01*
X1141360Y538573D01*
X1139709Y535713D01*
X1138854Y532524D01*
Y532143D01*
X1150124D01*
Y543413D01*
D02*
G37*
G36*
X966714Y544900D02*
X963686D01*
X960761Y544116D01*
X958139Y542602D01*
X955998Y540461D01*
X954484Y537839D01*
X953700Y534914D01*
Y531886D01*
X954484Y528961D01*
X955998Y526339D01*
X958139Y524198D01*
X960761Y522684D01*
X963686Y521900D01*
X966714D01*
X969639Y522684D01*
X972261Y524198D01*
X974402Y526339D01*
X975916Y528961D01*
X976700Y531886D01*
Y534914D01*
X975916Y537839D01*
X974402Y540461D01*
X972261Y542602D01*
X969639Y544116D01*
X966714Y544900D01*
D02*
G37*
G36*
X941314D02*
X938286D01*
X935361Y544116D01*
X932739Y542602D01*
X930598Y540461D01*
X929084Y537839D01*
X928300Y534914D01*
Y531886D01*
X929084Y528961D01*
X930598Y526339D01*
X932739Y524198D01*
X935361Y522684D01*
X938286Y521900D01*
X941314D01*
X944239Y522684D01*
X946861Y524198D01*
X949002Y526339D01*
X950516Y528961D01*
X951300Y531886D01*
Y534914D01*
X950516Y537839D01*
X949002Y540461D01*
X946861Y542602D01*
X944239Y544116D01*
X941314Y544900D01*
D02*
G37*
G36*
X323000Y524874D02*
X318020D01*
Y521770D01*
X327121D01*
X327041Y522174D01*
X326093Y523593D01*
X324674Y524541D01*
X323000Y524874D01*
D02*
G37*
G36*
X315480D02*
X310500D01*
X308826Y524541D01*
X307407Y523593D01*
X306459Y522174D01*
X306379Y521770D01*
X315480D01*
Y524874D01*
D02*
G37*
G36*
X1235108Y542373D02*
X1232080D01*
X1229155Y541589D01*
X1226533Y540075D01*
X1224392Y537934D01*
X1222878Y535312D01*
X1222094Y532387D01*
Y529359D01*
X1222878Y526434D01*
X1224392Y523812D01*
X1226533Y521671D01*
X1229155Y520157D01*
X1232080Y519373D01*
X1235108D01*
X1238033Y520157D01*
X1240655Y521671D01*
X1242796Y523812D01*
X1244311Y526434D01*
X1245094Y529359D01*
Y532387D01*
X1244311Y535312D01*
X1242796Y537934D01*
X1240655Y540075D01*
X1238033Y541589D01*
X1235108Y542373D01*
D02*
G37*
G36*
X1207708D02*
X1204680D01*
X1201755Y541589D01*
X1199133Y540075D01*
X1196992Y537934D01*
X1195478Y535312D01*
X1194694Y532387D01*
Y529359D01*
X1195478Y526434D01*
X1196992Y523812D01*
X1199133Y521671D01*
X1201755Y520157D01*
X1204680Y519373D01*
X1207708D01*
X1210633Y520157D01*
X1213255Y521671D01*
X1215397Y523812D01*
X1216911Y526434D01*
X1217694Y529359D01*
Y532387D01*
X1216911Y535312D01*
X1215397Y537934D01*
X1213255Y540075D01*
X1210633Y541589D01*
X1207708Y542373D01*
D02*
G37*
G36*
X1163934Y529603D02*
X1152664D01*
Y518333D01*
X1153045D01*
X1156235Y519188D01*
X1159094Y520839D01*
X1161429Y523173D01*
X1163080Y526033D01*
X1163934Y529222D01*
Y529603D01*
D02*
G37*
G36*
X1150124D02*
X1138854D01*
Y529222D01*
X1139709Y526033D01*
X1141360Y523173D01*
X1143695Y520839D01*
X1146554Y519188D01*
X1149743Y518333D01*
X1150124D01*
Y529603D01*
D02*
G37*
G36*
X1194145Y518013D02*
X1193764D01*
Y506743D01*
X1205034D01*
Y507124D01*
X1204180Y510313D01*
X1202529Y513173D01*
X1200194Y515508D01*
X1197335Y517158D01*
X1194145Y518013D01*
D02*
G37*
G36*
X1191224D02*
X1190843D01*
X1187654Y517158D01*
X1184794Y515508D01*
X1182460Y513173D01*
X1180809Y510313D01*
X1179954Y507124D01*
Y506743D01*
X1191224D01*
Y518013D01*
D02*
G37*
G36*
X1271455Y567991D02*
X1271454Y567991D01*
X1113534D01*
X1111973Y567681D01*
X1110650Y566797D01*
X1083126Y539272D01*
X1081383Y540538D01*
X1077667Y542431D01*
X1073700Y543721D01*
X1069580Y544373D01*
X1065409D01*
X1061289Y543721D01*
X1057322Y542431D01*
X1053605Y540538D01*
X1050231Y538086D01*
X1047281Y535137D01*
X1044829Y531762D01*
X1042936Y528046D01*
X1041647Y524078D01*
X1040994Y519959D01*
Y515787D01*
X1041647Y511668D01*
X1042936Y507701D01*
X1044829Y503984D01*
X1047281Y500609D01*
X1050231Y497660D01*
X1053605Y495208D01*
X1057322Y493315D01*
X1061289Y492025D01*
X1065409Y491373D01*
X1069580D01*
X1073700Y492025D01*
X1077667Y493315D01*
X1081383Y495208D01*
X1084758Y497660D01*
X1087707Y500609D01*
X1090159Y503984D01*
X1092053Y507701D01*
X1093342Y511668D01*
X1093994Y515787D01*
Y519959D01*
X1093342Y524078D01*
X1092053Y528046D01*
X1090159Y531762D01*
X1088893Y533504D01*
X1115223Y559834D01*
X1269765D01*
X1296095Y533504D01*
X1294829Y531762D01*
X1292936Y528046D01*
X1291647Y524078D01*
X1290994Y519959D01*
Y515787D01*
X1291647Y511668D01*
X1292936Y507701D01*
X1294410Y504807D01*
X1293370Y504051D01*
X1245537Y551884D01*
X1244214Y552768D01*
X1242653Y553078D01*
X1242653Y553078D01*
X1196921D01*
X1196921Y553078D01*
X1195360Y552768D01*
X1194037Y551884D01*
X1183556Y541403D01*
X1183233Y541589D01*
X1180308Y542373D01*
X1177280D01*
X1174355Y541589D01*
X1171733Y540075D01*
X1169592Y537934D01*
X1168078Y535312D01*
X1167294Y532387D01*
Y529359D01*
X1168078Y526434D01*
X1169592Y523812D01*
X1171733Y521671D01*
X1174355Y520157D01*
X1177280Y519373D01*
X1180308D01*
X1183233Y520157D01*
X1185855Y521671D01*
X1187997Y523812D01*
X1189511Y526434D01*
X1190294Y529359D01*
Y532387D01*
X1189511Y535312D01*
X1189324Y535635D01*
X1198611Y544922D01*
X1240964D01*
X1323922Y461964D01*
Y408053D01*
X1292925Y377056D01*
X1272222Y397759D01*
X1272183Y398060D01*
X1271528Y399641D01*
X1270486Y400999D01*
X1269128Y402041D01*
X1267547Y402696D01*
X1266089Y402888D01*
X1265850Y402987D01*
X1264850D01*
X1264100Y402676D01*
X1263941Y402742D01*
X1263350Y402987D01*
X1262351Y402987D01*
X1262350Y402987D01*
X1262350Y402987D01*
X1262111Y402888D01*
X1260653Y402696D01*
X1259072Y402041D01*
X1257714Y400999D01*
X1257286Y400442D01*
X1253757D01*
Y401926D01*
X1253568Y402877D01*
X1253029Y403683D01*
X1252538Y404012D01*
Y407579D01*
X1253029Y407907D01*
X1253568Y408713D01*
X1253757Y409664D01*
Y416789D01*
X1253568Y417740D01*
X1253029Y418547D01*
X1252223Y419085D01*
X1251272Y419275D01*
X1245647D01*
X1244696Y419085D01*
X1243890Y418547D01*
X1243351Y417740D01*
X1243162Y416789D01*
Y409664D01*
X1243351Y408713D01*
X1243890Y407907D01*
X1244381Y407579D01*
Y404012D01*
X1243890Y403683D01*
X1243351Y402877D01*
X1243162Y401926D01*
Y394801D01*
X1243351Y393850D01*
X1243890Y393044D01*
X1244696Y392505D01*
X1245647Y392316D01*
X1249556D01*
X1249710Y392285D01*
X1249710Y392285D01*
X1257286D01*
X1257714Y391727D01*
X1259072Y390686D01*
X1260653Y390031D01*
X1262111Y389839D01*
X1262350Y389740D01*
X1263350D01*
X1264100Y390051D01*
X1264259Y389985D01*
X1264850Y389740D01*
X1265849Y389740D01*
X1265850Y389740D01*
X1265850Y389740D01*
X1266089Y389839D01*
X1267547Y390031D01*
X1268161Y390285D01*
X1288847Y369599D01*
Y364552D01*
X1282116Y357821D01*
X1281130Y358630D01*
X1281473Y359144D01*
X1281783Y360705D01*
Y372238D01*
X1281783Y372238D01*
X1281473Y373799D01*
X1280589Y375122D01*
X1280589Y375122D01*
X1275514Y380197D01*
X1274191Y381081D01*
X1273765Y381166D01*
X1272222Y382709D01*
X1272183Y383010D01*
X1271528Y384591D01*
X1270486Y385949D01*
X1269128Y386991D01*
X1267547Y387646D01*
X1266089Y387838D01*
X1265850Y387937D01*
X1264850D01*
X1264100Y387626D01*
X1263941Y387692D01*
X1263350Y387937D01*
X1262351Y387937D01*
X1262350Y387937D01*
X1262350Y387937D01*
X1262111Y387838D01*
X1260653Y387646D01*
X1259072Y386991D01*
X1257714Y385949D01*
X1257286Y385392D01*
X1253640D01*
X1253568Y385752D01*
X1253029Y386558D01*
X1252223Y387097D01*
X1251272Y387286D01*
X1245647D01*
X1244696Y387097D01*
X1243890Y386558D01*
X1243351Y385752D01*
X1243162Y384801D01*
Y377676D01*
X1243351Y376725D01*
X1243890Y375919D01*
X1244381Y375590D01*
Y370887D01*
X1243890Y370558D01*
X1243351Y369752D01*
X1243162Y368801D01*
Y361676D01*
X1243351Y360725D01*
X1243890Y359919D01*
X1244696Y359380D01*
X1245647Y359191D01*
X1251272D01*
X1252223Y359380D01*
X1253029Y359919D01*
X1253568Y360725D01*
X1253757Y361676D01*
Y368801D01*
X1253568Y369752D01*
X1253029Y370558D01*
X1252538Y370887D01*
Y375590D01*
X1253029Y375919D01*
X1253568Y376725D01*
X1253670Y377235D01*
X1257286D01*
X1257714Y376678D01*
X1259072Y375636D01*
X1260653Y374981D01*
X1262111Y374789D01*
X1262350Y374690D01*
X1263350D01*
X1264100Y375000D01*
X1264259Y374935D01*
X1264850Y374690D01*
X1265849Y374690D01*
X1265850Y374690D01*
X1265850Y374690D01*
X1266089Y374789D01*
X1267547Y374981D01*
X1268161Y375235D01*
X1268966Y374430D01*
X1268966Y374430D01*
X1270289Y373545D01*
X1270715Y373461D01*
X1273627Y370549D01*
Y362394D01*
X1265312Y354080D01*
X1190495D01*
Y484151D01*
X1190495Y484151D01*
X1190184Y485712D01*
X1189300Y487035D01*
X1189300Y487035D01*
X1175624Y500711D01*
X1175811Y501034D01*
X1176594Y503959D01*
Y506987D01*
X1175811Y509912D01*
X1174297Y512534D01*
X1172155Y514675D01*
X1169533Y516189D01*
X1166608Y516973D01*
X1163580D01*
X1160655Y516189D01*
X1158033Y514675D01*
X1155892Y512534D01*
X1154378Y509912D01*
X1153594Y506987D01*
Y503959D01*
X1154378Y501034D01*
X1155892Y498412D01*
X1158033Y496271D01*
X1160655Y494757D01*
X1163580Y493973D01*
X1166608D01*
X1169533Y494757D01*
X1169856Y494943D01*
X1182338Y482462D01*
Y350001D01*
Y293590D01*
X1142116Y253369D01*
X1141232Y252046D01*
X1140922Y250485D01*
X1140922Y250485D01*
Y233680D01*
X1140486Y233594D01*
X1139680Y233055D01*
X1139352Y232563D01*
X1131088D01*
Y235985D01*
X1130739Y237741D01*
X1129744Y239229D01*
X1128256Y240224D01*
X1126500Y240573D01*
X1103500D01*
X1101744Y240224D01*
X1100256Y239229D01*
X1099261Y237741D01*
X1099126Y237063D01*
X1095500D01*
X1093939Y236753D01*
X1092616Y235869D01*
X1092616Y235869D01*
X1076516Y219769D01*
X1075632Y218446D01*
X1075322Y216885D01*
X1075322Y216885D01*
Y188188D01*
X1044807Y157673D01*
X1043922Y156349D01*
X1043612Y154789D01*
X1043612Y154789D01*
Y139952D01*
X1043251Y139856D01*
X1040629Y138342D01*
X1038488Y136201D01*
X1036974Y133578D01*
X1036190Y130653D01*
Y127625D01*
X1036974Y124700D01*
X1038488Y122078D01*
X1040629Y119937D01*
X1043251Y118423D01*
X1046176Y117639D01*
X1049204D01*
X1052129Y118423D01*
X1054752Y119937D01*
X1056893Y122078D01*
X1058407Y124700D01*
X1059190Y127625D01*
Y130653D01*
X1058407Y133578D01*
X1056893Y136201D01*
X1054752Y138342D01*
X1052129Y139856D01*
X1051769Y139952D01*
Y153099D01*
X1082284Y183615D01*
X1082284Y183615D01*
X1083168Y184938D01*
X1083478Y186498D01*
Y215196D01*
X1097189Y228907D01*
X1099126D01*
X1099261Y228229D01*
X1100256Y226741D01*
X1101744Y225746D01*
X1103500Y225397D01*
X1120789D01*
X1120954Y224927D01*
X1121001Y224127D01*
X1119866Y223369D01*
X1114866Y218369D01*
X1113982Y217046D01*
X1113689Y215573D01*
X1103500D01*
X1101744Y215224D01*
X1100256Y214229D01*
X1099261Y212741D01*
X1098912Y210985D01*
Y204985D01*
X1099261Y203229D01*
X1100256Y201741D01*
X1101744Y200746D01*
X1103500Y200397D01*
X1110922D01*
Y177574D01*
X1096406Y163059D01*
X1095522Y161736D01*
X1095212Y160175D01*
X1095212Y160175D01*
Y112429D01*
X1076601Y93818D01*
X1070862D01*
X1070376Y94991D01*
X1071425Y96040D01*
X1073076Y98899D01*
X1073930Y102088D01*
Y102469D01*
X1061390D01*
X1048850D01*
Y102088D01*
X1049705Y98899D01*
X1051356Y96040D01*
X1052404Y94991D01*
X1051918Y93818D01*
X1049680D01*
X1044520Y98977D01*
X1044707Y99300D01*
X1045490Y102225D01*
Y105253D01*
X1044707Y108178D01*
X1043193Y110801D01*
X1041051Y112942D01*
X1038429Y114456D01*
X1035504Y115239D01*
X1032476D01*
X1029551Y114456D01*
X1026929Y112942D01*
X1024788Y110801D01*
X1023274Y108178D01*
X1022490Y105253D01*
Y102225D01*
X1023274Y99300D01*
X1024788Y96678D01*
X1026929Y94537D01*
X1029551Y93023D01*
X1032476Y92239D01*
X1035504D01*
X1038429Y93023D01*
X1038752Y93210D01*
X1045106Y86856D01*
X1045107Y86855D01*
X1046430Y85971D01*
X1047990Y85661D01*
X1047990Y85661D01*
X1078290D01*
X1078290Y85661D01*
X1079851Y85971D01*
X1081174Y86855D01*
X1102174Y107855D01*
X1102174Y107856D01*
X1103058Y109179D01*
X1103369Y110739D01*
X1103369Y110739D01*
Y158485D01*
X1117884Y173001D01*
X1117884Y173001D01*
X1118768Y174324D01*
X1119078Y175884D01*
Y200397D01*
X1126500D01*
X1128256Y200746D01*
X1129744Y201741D01*
X1130739Y203229D01*
X1131088Y204985D01*
Y210985D01*
X1130739Y212741D01*
X1129744Y214229D01*
X1129396Y214462D01*
X1129108Y216182D01*
X1129279Y216407D01*
X1136818D01*
X1137892Y215297D01*
Y213755D01*
X1145000D01*
X1152108D01*
Y215297D01*
X1152065Y215516D01*
X1152558Y216009D01*
X1153182Y216407D01*
X1154250D01*
X1154250Y216407D01*
X1154841Y216524D01*
X1155888Y215552D01*
X1155921Y215444D01*
X1155892Y215298D01*
Y213755D01*
X1161730D01*
Y218843D01*
X1160172D01*
X1159646Y220113D01*
X1162720Y223187D01*
X1166562D01*
X1167514Y223376D01*
X1168320Y223915D01*
X1168858Y224721D01*
X1169048Y225672D01*
Y231297D01*
X1168858Y232249D01*
X1168320Y233055D01*
X1167514Y233594D01*
X1167078Y233680D01*
Y254261D01*
X1198136Y285318D01*
X1199020Y286641D01*
X1199330Y288202D01*
X1199330Y288202D01*
Y330978D01*
X1206174Y337822D01*
X1271963D01*
X1271963Y337822D01*
X1273523Y338132D01*
X1274847Y339016D01*
X1295809Y359978D01*
X1295809Y359978D01*
X1296693Y361301D01*
X1297003Y362862D01*
Y369599D01*
X1330884Y403480D01*
X1331768Y404803D01*
X1332078Y406363D01*
X1332078Y406363D01*
Y463653D01*
X1331768Y465214D01*
X1330884Y466537D01*
X1303672Y493749D01*
X1304428Y494789D01*
X1307322Y493315D01*
X1311289Y492025D01*
X1315409Y491373D01*
X1319580D01*
X1323700Y492025D01*
X1327667Y493315D01*
X1331383Y495208D01*
X1334758Y497660D01*
X1336184Y499086D01*
X1345922Y489349D01*
Y436814D01*
X1345364Y436386D01*
X1344322Y435028D01*
X1343667Y433447D01*
X1343475Y431989D01*
X1343376Y431750D01*
Y430750D01*
X1343687Y430000D01*
X1343621Y429841D01*
X1343376Y429250D01*
X1343376Y428251D01*
X1343376Y428250D01*
X1343376Y428250D01*
X1343475Y428011D01*
X1343667Y426553D01*
X1344141Y425409D01*
X1337616Y418884D01*
X1336732Y417561D01*
X1336422Y416000D01*
X1336732Y414439D01*
X1337616Y413116D01*
X1338939Y412232D01*
X1340500Y411922D01*
X1342061Y412232D01*
X1343384Y413116D01*
X1350978Y420710D01*
X1351102D01*
X1353138Y421553D01*
X1354697Y423112D01*
X1355220Y424375D01*
X1355678Y424972D01*
X1356333Y426553D01*
X1356525Y428011D01*
X1356624Y428250D01*
Y429250D01*
X1356313Y430000D01*
X1356379Y430159D01*
X1356624Y430750D01*
X1356624Y431749D01*
X1356624Y431750D01*
X1356624Y431750D01*
X1356525Y431989D01*
X1356333Y433447D01*
X1355678Y435028D01*
X1354636Y436386D01*
X1354078Y436814D01*
Y491038D01*
X1353768Y492599D01*
X1352884Y493922D01*
X1352884Y493922D01*
X1341058Y505748D01*
X1342053Y507701D01*
X1343342Y511668D01*
X1343994Y515787D01*
Y519959D01*
X1343342Y524078D01*
X1342053Y528046D01*
X1340159Y531762D01*
X1337707Y535137D01*
X1334758Y538086D01*
X1331383Y540538D01*
X1327667Y542431D01*
X1323700Y543721D01*
X1319580Y544373D01*
X1315409D01*
X1311289Y543721D01*
X1307322Y542431D01*
X1303605Y540538D01*
X1301863Y539272D01*
X1274338Y566797D01*
X1273015Y567681D01*
X1272756Y567732D01*
X1271455Y567991D01*
D02*
G37*
G36*
X155080Y512866D02*
X151270D01*
Y501370D01*
X162766D01*
Y505180D01*
X162504Y507169D01*
X161736Y509023D01*
X160515Y510615D01*
X158923Y511836D01*
X157069Y512604D01*
X155080Y512866D01*
D02*
G37*
G36*
X148730D02*
X144920D01*
X142931Y512604D01*
X141077Y511836D01*
X139485Y510615D01*
X138264Y509023D01*
X137496Y507169D01*
X137234Y505180D01*
Y501370D01*
X148730D01*
Y512866D01*
D02*
G37*
G36*
X966714Y519500D02*
X963686D01*
X960761Y518716D01*
X958139Y517202D01*
X955998Y515061D01*
X954484Y512439D01*
X953700Y509514D01*
Y506486D01*
X954484Y503561D01*
X955998Y500939D01*
X958139Y498798D01*
X960761Y497284D01*
X963686Y496500D01*
X966714D01*
X969639Y497284D01*
X972261Y498798D01*
X974402Y500939D01*
X975916Y503561D01*
X976700Y506486D01*
Y509514D01*
X975916Y512439D01*
X974402Y515061D01*
X972261Y517202D01*
X969639Y518716D01*
X966714Y519500D01*
D02*
G37*
G36*
X941314D02*
X938286D01*
X935361Y518716D01*
X932739Y517202D01*
X930598Y515061D01*
X929084Y512439D01*
X928300Y509514D01*
Y506486D01*
X929084Y503561D01*
X930598Y500939D01*
X932739Y498798D01*
X935361Y497284D01*
X938286Y496500D01*
X941314D01*
X944239Y497284D01*
X946861Y498798D01*
X949002Y500939D01*
X950516Y503561D01*
X951300Y506486D01*
Y509514D01*
X950516Y512439D01*
X949002Y515061D01*
X946861Y517202D01*
X944239Y518716D01*
X941314Y519500D01*
D02*
G37*
G36*
X1248808Y516973D02*
X1245780D01*
X1242855Y516189D01*
X1240233Y514675D01*
X1238092Y512534D01*
X1236578Y509912D01*
X1235794Y506987D01*
Y503959D01*
X1236578Y501034D01*
X1238092Y498412D01*
X1240233Y496271D01*
X1242855Y494757D01*
X1245780Y493973D01*
X1248808D01*
X1251733Y494757D01*
X1254355Y496271D01*
X1256497Y498412D01*
X1258011Y501034D01*
X1258794Y503959D01*
Y506987D01*
X1258011Y509912D01*
X1256497Y512534D01*
X1254355Y514675D01*
X1251733Y516189D01*
X1248808Y516973D01*
D02*
G37*
G36*
X1221408D02*
X1218380D01*
X1215455Y516189D01*
X1212833Y514675D01*
X1210692Y512534D01*
X1209178Y509912D01*
X1208394Y506987D01*
Y503959D01*
X1209178Y501034D01*
X1210692Y498412D01*
X1212833Y496271D01*
X1215455Y494757D01*
X1218380Y493973D01*
X1221408D01*
X1224333Y494757D01*
X1226955Y496271D01*
X1229097Y498412D01*
X1230611Y501034D01*
X1231394Y503959D01*
Y506987D01*
X1230611Y509912D01*
X1229097Y512534D01*
X1226955Y514675D01*
X1224333Y516189D01*
X1221408Y516973D01*
D02*
G37*
G36*
X1139208D02*
X1136180D01*
X1133255Y516189D01*
X1130633Y514675D01*
X1128492Y512534D01*
X1126978Y509912D01*
X1126194Y506987D01*
Y503959D01*
X1126978Y501034D01*
X1128492Y498412D01*
X1130633Y496271D01*
X1133255Y494757D01*
X1136180Y493973D01*
X1139208D01*
X1142133Y494757D01*
X1144755Y496271D01*
X1146897Y498412D01*
X1148411Y501034D01*
X1149194Y503959D01*
Y506987D01*
X1148411Y509912D01*
X1146897Y512534D01*
X1144755Y514675D01*
X1142133Y516189D01*
X1139208Y516973D01*
D02*
G37*
G36*
X1205034Y504203D02*
X1193764D01*
Y492933D01*
X1194145D01*
X1197335Y493788D01*
X1200194Y495438D01*
X1202529Y497773D01*
X1204180Y500633D01*
X1205034Y503822D01*
Y504203D01*
D02*
G37*
G36*
X1191224D02*
X1179954D01*
Y503822D01*
X1180809Y500633D01*
X1182460Y497773D01*
X1184794Y495438D01*
X1187654Y493788D01*
X1190843Y492933D01*
X1191224D01*
Y504203D01*
D02*
G37*
G36*
X966714Y494100D02*
X963686D01*
X960761Y493316D01*
X958139Y491802D01*
X955998Y489661D01*
X954484Y487039D01*
X953700Y484114D01*
Y481086D01*
X954484Y478161D01*
X955998Y475539D01*
X958139Y473398D01*
X960761Y471884D01*
X963686Y471100D01*
X966714D01*
X969639Y471884D01*
X972261Y473398D01*
X974402Y475539D01*
X975916Y478161D01*
X976700Y481086D01*
Y484114D01*
X975916Y487039D01*
X974402Y489661D01*
X972261Y491802D01*
X969639Y493316D01*
X966714Y494100D01*
D02*
G37*
G36*
X941314D02*
X938286D01*
X935361Y493316D01*
X932739Y491802D01*
X930598Y489661D01*
X929084Y487039D01*
X928300Y484114D01*
Y481086D01*
X929084Y478161D01*
X930598Y475539D01*
X932739Y473398D01*
X935361Y471884D01*
X938286Y471100D01*
X941314D01*
X944239Y471884D01*
X946861Y473398D01*
X949002Y475539D01*
X950516Y478161D01*
X951300Y481086D01*
Y484114D01*
X950516Y487039D01*
X949002Y489661D01*
X946861Y491802D01*
X944239Y493316D01*
X941314Y494100D01*
D02*
G37*
G36*
X494279Y468816D02*
X491251D01*
X488326Y468032D01*
X485704Y466518D01*
X483563Y464377D01*
X482049Y461755D01*
X481265Y458830D01*
Y455802D01*
X482049Y452877D01*
X483563Y450255D01*
X485704Y448114D01*
X488326Y446600D01*
X491251Y445816D01*
X494279D01*
X497204Y446600D01*
X499826Y448114D01*
X501967Y450255D01*
X503481Y452877D01*
X504265Y455802D01*
Y458830D01*
X503481Y461755D01*
X501967Y464377D01*
X499826Y466518D01*
X497204Y468032D01*
X494279Y468816D01*
D02*
G37*
G36*
X966714Y468700D02*
X963686D01*
X960761Y467916D01*
X958139Y466402D01*
X955998Y464261D01*
X954484Y461639D01*
X953700Y458714D01*
Y455686D01*
X954484Y452761D01*
X955998Y450139D01*
X958139Y447998D01*
X960761Y446484D01*
X963686Y445700D01*
X966714D01*
X969639Y446484D01*
X972261Y447998D01*
X974402Y450139D01*
X975916Y452761D01*
X976700Y455686D01*
Y458714D01*
X975916Y461639D01*
X974402Y464261D01*
X972261Y466402D01*
X969639Y467916D01*
X966714Y468700D01*
D02*
G37*
G36*
X941314D02*
X938286D01*
X935361Y467916D01*
X932739Y466402D01*
X930598Y464261D01*
X929084Y461639D01*
X928300Y458714D01*
Y455686D01*
X929084Y452761D01*
X930598Y450139D01*
X932739Y447998D01*
X935361Y446484D01*
X938286Y445700D01*
X941314D01*
X944239Y446484D01*
X946861Y447998D01*
X949002Y450139D01*
X950516Y452761D01*
X951300Y455686D01*
Y458714D01*
X950516Y461639D01*
X949002Y464261D01*
X946861Y466402D01*
X944239Y467916D01*
X941314Y468700D01*
D02*
G37*
G36*
X468879Y468700D02*
X465851D01*
X462926Y467916D01*
X460304Y466402D01*
X458163Y464261D01*
X456649Y461639D01*
X455865Y458714D01*
Y455686D01*
X456649Y452761D01*
X458163Y450139D01*
X460304Y447998D01*
X462926Y446483D01*
X465851Y445700D01*
X468879D01*
X471804Y446483D01*
X474426Y447998D01*
X476567Y450139D01*
X478081Y452761D01*
X478865Y455686D01*
Y458714D01*
X478081Y461639D01*
X476567Y464261D01*
X474426Y466402D01*
X471804Y467916D01*
X468879Y468700D01*
D02*
G37*
G36*
X443479D02*
X440451D01*
X437526Y467916D01*
X434904Y466402D01*
X432763Y464261D01*
X431249Y461639D01*
X430465Y458714D01*
Y455686D01*
X431249Y452761D01*
X432763Y450139D01*
X434904Y447998D01*
X437526Y446483D01*
X440451Y445700D01*
X443479D01*
X446404Y446483D01*
X449026Y447998D01*
X451167Y450139D01*
X452681Y452761D01*
X453465Y455686D01*
Y458714D01*
X452681Y461639D01*
X451167Y464261D01*
X449026Y466402D01*
X446404Y467916D01*
X443479Y468700D01*
D02*
G37*
G36*
X418079D02*
X415051D01*
X412126Y467916D01*
X409504Y466402D01*
X407363Y464261D01*
X405849Y461639D01*
X405065Y458714D01*
Y455686D01*
X405849Y452761D01*
X407363Y450139D01*
X409504Y447998D01*
X412126Y446483D01*
X415051Y445700D01*
X418079D01*
X421004Y446483D01*
X423626Y447998D01*
X425767Y450139D01*
X427281Y452761D01*
X428065Y455686D01*
Y458714D01*
X427281Y461639D01*
X425767Y464261D01*
X423626Y466402D01*
X421004Y467916D01*
X418079Y468700D01*
D02*
G37*
G36*
X392679D02*
X389651D01*
X386726Y467916D01*
X384104Y466402D01*
X381963Y464261D01*
X380449Y461639D01*
X379665Y458714D01*
Y455686D01*
X380449Y452761D01*
X381963Y450139D01*
X384104Y447998D01*
X386726Y446483D01*
X389651Y445700D01*
X392679D01*
X395604Y446483D01*
X398226Y447998D01*
X400367Y450139D01*
X401881Y452761D01*
X402665Y455686D01*
Y458714D01*
X401881Y461639D01*
X400367Y464261D01*
X398226Y466402D01*
X395604Y467916D01*
X392679Y468700D01*
D02*
G37*
G36*
X367279D02*
X364251D01*
X361326Y467916D01*
X358704Y466402D01*
X356563Y464261D01*
X355049Y461639D01*
X354265Y458714D01*
Y455686D01*
X355049Y452761D01*
X356563Y450139D01*
X358704Y447998D01*
X361326Y446483D01*
X364251Y445700D01*
X367279D01*
X370204Y446483D01*
X372826Y447998D01*
X374967Y450139D01*
X376481Y452761D01*
X377265Y455686D01*
Y458714D01*
X376481Y461639D01*
X374967Y464261D01*
X372826Y466402D01*
X370204Y467916D01*
X367279Y468700D01*
D02*
G37*
G36*
X341879D02*
X338851D01*
X335926Y467916D01*
X333304Y466402D01*
X331163Y464261D01*
X329649Y461639D01*
X328865Y458714D01*
Y455686D01*
X329649Y452761D01*
X331163Y450139D01*
X333304Y447998D01*
X335926Y446483D01*
X338851Y445700D01*
X341879D01*
X344804Y446483D01*
X347426Y447998D01*
X349567Y450139D01*
X351081Y452761D01*
X351865Y455686D01*
Y458714D01*
X351081Y461639D01*
X349567Y464261D01*
X347426Y466402D01*
X344804Y467916D01*
X341879Y468700D01*
D02*
G37*
G36*
X316479D02*
X313451D01*
X310526Y467916D01*
X307904Y466402D01*
X305763Y464261D01*
X304249Y461639D01*
X303465Y458714D01*
Y455686D01*
X304249Y452761D01*
X305763Y450139D01*
X307904Y447998D01*
X310526Y446483D01*
X313451Y445700D01*
X316479D01*
X319404Y446483D01*
X322026Y447998D01*
X324167Y450139D01*
X325681Y452761D01*
X326465Y455686D01*
Y458714D01*
X325681Y461639D01*
X324167Y464261D01*
X322026Y466402D01*
X319404Y467916D01*
X316479Y468700D01*
D02*
G37*
G36*
X291079D02*
X288051D01*
X285126Y467916D01*
X282504Y466402D01*
X280363Y464261D01*
X278849Y461639D01*
X278065Y458714D01*
Y455686D01*
X278849Y452761D01*
X280363Y450139D01*
X282504Y447998D01*
X285126Y446483D01*
X288051Y445700D01*
X291079D01*
X294004Y446483D01*
X296626Y447998D01*
X298767Y450139D01*
X300281Y452761D01*
X301065Y455686D01*
Y458714D01*
X300281Y461639D01*
X298767Y464261D01*
X296626Y466402D01*
X294004Y467916D01*
X291079Y468700D01*
D02*
G37*
G36*
X265679D02*
X262651D01*
X259726Y467916D01*
X257104Y466402D01*
X254963Y464261D01*
X253449Y461639D01*
X252665Y458714D01*
Y455686D01*
X253449Y452761D01*
X254963Y450139D01*
X257104Y447998D01*
X259726Y446483D01*
X262651Y445700D01*
X265679D01*
X268604Y446483D01*
X271226Y447998D01*
X273367Y450139D01*
X274881Y452761D01*
X275665Y455686D01*
Y458714D01*
X274881Y461639D01*
X273367Y464261D01*
X271226Y466402D01*
X268604Y467916D01*
X265679Y468700D01*
D02*
G37*
G36*
X240279D02*
X237251D01*
X234326Y467916D01*
X231704Y466402D01*
X229563Y464261D01*
X228049Y461639D01*
X227265Y458714D01*
Y455686D01*
X228049Y452761D01*
X229563Y450139D01*
X231704Y447998D01*
X234326Y446483D01*
X237251Y445700D01*
X240279D01*
X243204Y446483D01*
X245826Y447998D01*
X247967Y450139D01*
X249481Y452761D01*
X250265Y455686D01*
Y458714D01*
X249481Y461639D01*
X247967Y464261D01*
X245826Y466402D01*
X243204Y467916D01*
X240279Y468700D01*
D02*
G37*
G36*
X214879D02*
X211851D01*
X208926Y467916D01*
X206304Y466402D01*
X204163Y464261D01*
X202649Y461639D01*
X201865Y458714D01*
Y455686D01*
X202649Y452761D01*
X204163Y450139D01*
X206304Y447998D01*
X208926Y446483D01*
X211851Y445700D01*
X214879D01*
X217804Y446483D01*
X220426Y447998D01*
X222567Y450139D01*
X224081Y452761D01*
X224865Y455686D01*
Y458714D01*
X224081Y461639D01*
X222567Y464261D01*
X220426Y466402D01*
X217804Y467916D01*
X214879Y468700D01*
D02*
G37*
G36*
X1284423Y480499D02*
X1280976D01*
X1277595Y479827D01*
X1274410Y478507D01*
X1271544Y476592D01*
X1269106Y474155D01*
X1267191Y471288D01*
X1265872Y468104D01*
X1265199Y464723D01*
Y461276D01*
X1265872Y457895D01*
X1267191Y454710D01*
X1269106Y451844D01*
X1271544Y449406D01*
X1274410Y447491D01*
X1277595Y446172D01*
X1280976Y445499D01*
X1284423D01*
X1287804Y446172D01*
X1290989Y447491D01*
X1293855Y449406D01*
X1296292Y451844D01*
X1298208Y454710D01*
X1299527Y457895D01*
X1300199Y461276D01*
Y464723D01*
X1299527Y468104D01*
X1298208Y471288D01*
X1296292Y474155D01*
X1293855Y476592D01*
X1290989Y478507D01*
X1287804Y479827D01*
X1284423Y480499D01*
D02*
G37*
G36*
X1049746Y435591D02*
X1047454D01*
Y430503D01*
X1053292D01*
Y432046D01*
X1053022Y433403D01*
X1052253Y434553D01*
X1051103Y435322D01*
X1049746Y435591D01*
D02*
G37*
G36*
X1044914D02*
X1042621D01*
X1041264Y435322D01*
X1040114Y434553D01*
X1039345Y433403D01*
X1039076Y432046D01*
Y430503D01*
X1044914D01*
Y435591D01*
D02*
G37*
G36*
X966714Y443300D02*
X963686D01*
X960761Y442516D01*
X958139Y441002D01*
X955998Y438861D01*
X954484Y436239D01*
X953700Y433314D01*
Y430286D01*
X954484Y427361D01*
X955998Y424739D01*
X958139Y422598D01*
X960761Y421084D01*
X963686Y420300D01*
X966714D01*
X969639Y421084D01*
X972261Y422598D01*
X974402Y424739D01*
X975916Y427361D01*
X976700Y430286D01*
Y433314D01*
X975916Y436239D01*
X974402Y438861D01*
X972261Y441002D01*
X969639Y442516D01*
X966714Y443300D01*
D02*
G37*
G36*
X941314D02*
X938286D01*
X935361Y442516D01*
X932739Y441002D01*
X930598Y438861D01*
X929084Y436239D01*
X928300Y433314D01*
Y430286D01*
X929084Y427361D01*
X930598Y424739D01*
X932739Y422598D01*
X935361Y421084D01*
X938286Y420300D01*
X941314D01*
X944239Y421084D01*
X946861Y422598D01*
X949002Y424739D01*
X950516Y427361D01*
X951300Y430286D01*
Y433314D01*
X950516Y436239D01*
X949002Y438861D01*
X946861Y441002D01*
X944239Y442516D01*
X941314Y443300D01*
D02*
G37*
G36*
X1219262Y405222D02*
X1216970D01*
Y400134D01*
X1222808D01*
Y401676D01*
X1222538Y403033D01*
X1221770Y404183D01*
X1220619Y404952D01*
X1219262Y405222D01*
D02*
G37*
G36*
X1214430D02*
X1212138D01*
X1210781Y404952D01*
X1209630Y404183D01*
X1208862Y403033D01*
X1208592Y401676D01*
Y400134D01*
X1214430D01*
Y405222D01*
D02*
G37*
G36*
X1147233Y403568D02*
X1144940D01*
Y398480D01*
X1150779D01*
Y400023D01*
X1150509Y401379D01*
X1149740Y402530D01*
X1148590Y403298D01*
X1147233Y403568D01*
D02*
G37*
G36*
X1142400D02*
X1140108D01*
X1138751Y403298D01*
X1137601Y402530D01*
X1136832Y401379D01*
X1136562Y400023D01*
Y398480D01*
X1142400D01*
Y403568D01*
D02*
G37*
G36*
X966714Y417900D02*
X963686D01*
X960761Y417116D01*
X958139Y415602D01*
X955998Y413461D01*
X954484Y410839D01*
X953700Y407914D01*
Y404886D01*
X954484Y401961D01*
X955998Y399339D01*
X958139Y397198D01*
X960761Y395684D01*
X963686Y394900D01*
X966714D01*
X969639Y395684D01*
X972261Y397198D01*
X974402Y399339D01*
X975916Y401961D01*
X976700Y404886D01*
Y407914D01*
X975916Y410839D01*
X974402Y413461D01*
X972261Y415602D01*
X969639Y417116D01*
X966714Y417900D01*
D02*
G37*
G36*
X941314D02*
X938286D01*
X935361Y417116D01*
X932739Y415602D01*
X930598Y413461D01*
X929084Y410839D01*
X928300Y407914D01*
Y404886D01*
X929084Y401961D01*
X930598Y399339D01*
X932739Y397198D01*
X935361Y395684D01*
X938286Y394900D01*
X941314D01*
X944239Y395684D01*
X946861Y397198D01*
X949002Y399339D01*
X950516Y401961D01*
X951300Y404886D01*
Y407914D01*
X950516Y410839D01*
X949002Y413461D01*
X946861Y415602D01*
X944239Y417116D01*
X941314Y417900D01*
D02*
G37*
G36*
X1222808Y397593D02*
X1216970D01*
Y392505D01*
X1219262D01*
X1220619Y392775D01*
X1221770Y393544D01*
X1222538Y394694D01*
X1222808Y396051D01*
Y397593D01*
D02*
G37*
G36*
X1214430D02*
X1208592D01*
Y396051D01*
X1208862Y394694D01*
X1209630Y393544D01*
X1210781Y392775D01*
X1212138Y392505D01*
X1214430D01*
Y397593D01*
D02*
G37*
G36*
X1150779Y395940D02*
X1144940D01*
Y390852D01*
X1147233D01*
X1148590Y391122D01*
X1149740Y391890D01*
X1150509Y393041D01*
X1150779Y394398D01*
Y395940D01*
D02*
G37*
G36*
X1142400D02*
X1136562D01*
Y394398D01*
X1136832Y393041D01*
X1137601Y391890D01*
X1138751Y391122D01*
X1140108Y390852D01*
X1142400D01*
Y395940D01*
D02*
G37*
G36*
X662123Y423899D02*
X658676D01*
X655295Y423227D01*
X652110Y421908D01*
X649244Y419992D01*
X646806Y417555D01*
X644891Y414689D01*
X643572Y411504D01*
X642899Y408123D01*
Y404676D01*
X643572Y401295D01*
X644891Y398110D01*
X646806Y395244D01*
X649244Y392806D01*
X652110Y390891D01*
X655295Y389572D01*
X658676Y388899D01*
X662123D01*
X665504Y389572D01*
X668689Y390891D01*
X671555Y392806D01*
X673992Y395244D01*
X675908Y398110D01*
X677227Y401295D01*
X677899Y404676D01*
Y408123D01*
X677227Y411504D01*
X675908Y414689D01*
X673992Y417555D01*
X671555Y419992D01*
X668689Y421908D01*
X665504Y423227D01*
X662123Y423899D01*
D02*
G37*
G36*
X1235272Y419275D02*
X1229647D01*
X1228696Y419085D01*
X1227890Y418547D01*
X1227351Y417740D01*
X1227162Y416789D01*
Y409664D01*
X1227351Y408713D01*
X1227890Y407907D01*
X1228381Y407579D01*
Y404012D01*
X1227890Y403683D01*
X1227351Y402877D01*
X1227162Y401926D01*
Y394801D01*
X1227351Y393850D01*
X1227890Y393044D01*
X1228381Y392715D01*
Y386942D01*
X1221348D01*
X1221020Y387433D01*
X1220214Y387972D01*
X1219262Y388161D01*
X1212138D01*
X1211187Y387972D01*
X1210380Y387433D01*
X1209841Y386627D01*
X1209652Y385676D01*
Y380051D01*
X1209841Y379100D01*
X1210380Y378294D01*
X1211187Y377755D01*
X1212138Y377566D01*
X1219262D01*
X1220214Y377755D01*
X1221020Y378294D01*
X1221348Y378785D01*
X1227162D01*
Y377676D01*
X1227351Y376725D01*
X1227890Y375919D01*
X1228381Y375590D01*
Y370887D01*
X1227890Y370558D01*
X1227351Y369752D01*
X1227162Y368801D01*
Y361676D01*
X1227351Y360725D01*
X1227890Y359919D01*
X1228696Y359380D01*
X1229647Y359191D01*
X1235272D01*
X1236223Y359380D01*
X1237029Y359919D01*
X1237568Y360725D01*
X1237757Y361676D01*
Y368801D01*
X1237568Y369752D01*
X1237029Y370558D01*
X1236538Y370887D01*
Y375590D01*
X1237029Y375919D01*
X1237568Y376725D01*
X1237757Y377676D01*
Y384801D01*
X1237568Y385752D01*
X1237029Y386558D01*
X1236538Y386887D01*
Y392715D01*
X1237029Y393044D01*
X1237568Y393850D01*
X1237757Y394801D01*
Y401926D01*
X1237568Y402877D01*
X1237029Y403683D01*
X1236538Y404012D01*
Y407579D01*
X1237029Y407907D01*
X1237568Y408713D01*
X1237757Y409664D01*
Y416789D01*
X1237568Y417740D01*
X1237029Y418547D01*
X1236223Y419085D01*
X1235272Y419275D01*
D02*
G37*
G36*
X966714Y392500D02*
X963686D01*
X960761Y391716D01*
X958139Y390202D01*
X955998Y388061D01*
X954484Y385439D01*
X953700Y382514D01*
Y379486D01*
X954484Y376561D01*
X955998Y373939D01*
X958139Y371798D01*
X960761Y370284D01*
X963686Y369500D01*
X966714D01*
X969639Y370284D01*
X972261Y371798D01*
X974402Y373939D01*
X975916Y376561D01*
X976700Y379486D01*
Y382514D01*
X975916Y385439D01*
X974402Y388061D01*
X972261Y390202D01*
X969639Y391716D01*
X966714Y392500D01*
D02*
G37*
G36*
X941314D02*
X938286D01*
X935361Y391716D01*
X932739Y390202D01*
X930598Y388061D01*
X929084Y385439D01*
X928300Y382514D01*
Y379486D01*
X929084Y376561D01*
X930598Y373939D01*
X932739Y371798D01*
X935361Y370284D01*
X938286Y369500D01*
X941314D01*
X944239Y370284D01*
X946861Y371798D01*
X949002Y373939D01*
X950516Y376561D01*
X951300Y379486D01*
Y382514D01*
X950516Y385439D01*
X949002Y388061D01*
X946861Y390202D01*
X944239Y391716D01*
X941314Y392500D01*
D02*
G37*
G36*
X1135517Y372940D02*
X1126704D01*
Y369348D01*
X1131809D01*
X1133239Y369633D01*
X1134451Y370443D01*
X1135261Y371655D01*
X1135517Y372940D01*
D02*
G37*
G36*
X195469Y373312D02*
X181344D01*
X180100Y373065D01*
X179046Y372360D01*
X178508Y371556D01*
X158000D01*
X156303Y371333D01*
X154722Y370678D01*
X153364Y369636D01*
X144284Y360556D01*
X132675D01*
X132643Y360798D01*
X131980Y362398D01*
X130925Y363773D01*
X129551Y364828D01*
X127950Y365491D01*
X126232Y365717D01*
X116072D01*
X114355Y365491D01*
X112754Y364828D01*
X111379Y363773D01*
X110325Y362398D01*
X109662Y360798D01*
X109436Y359080D01*
Y348920D01*
X109662Y347202D01*
X110325Y345602D01*
X111379Y344227D01*
X112754Y343172D01*
X114355Y342509D01*
X116072Y342283D01*
X126232D01*
X127950Y342509D01*
X129551Y343172D01*
X130925Y344227D01*
X131980Y345602D01*
X132643Y347202D01*
X132675Y347444D01*
X147000D01*
X148697Y347667D01*
X150278Y348322D01*
X151636Y349364D01*
X160716Y358444D01*
X178508D01*
X179046Y357639D01*
X180100Y356935D01*
X181344Y356688D01*
X195469D01*
X195501Y356694D01*
X204086D01*
X205906Y354874D01*
Y341000D01*
X227906D01*
Y359000D01*
X220143D01*
X219546Y359778D01*
X211438Y367886D01*
X210080Y368928D01*
X208499Y369583D01*
X206802Y369806D01*
X198719D01*
Y370062D01*
X198471Y371306D01*
X197767Y372360D01*
X196712Y373065D01*
X195469Y373312D01*
D02*
G37*
G36*
X97502Y366700D02*
X92422D01*
Y355270D01*
X103852D01*
Y360350D01*
X97502Y366700D01*
D02*
G37*
G36*
X89882D02*
X84802D01*
X78452Y360350D01*
Y355270D01*
X89882D01*
Y366700D01*
D02*
G37*
G36*
X373388Y356540D02*
X373270D01*
Y347270D01*
X382540D01*
Y347388D01*
X381822Y350068D01*
X380434Y352472D01*
X378472Y354434D01*
X376068Y355822D01*
X373388Y356540D01*
D02*
G37*
G36*
X370730D02*
X370612D01*
X367932Y355822D01*
X365528Y354434D01*
X363566Y352472D01*
X362178Y350068D01*
X361460Y347388D01*
Y347270D01*
X370730D01*
Y356540D01*
D02*
G37*
G36*
X966714Y367100D02*
X963686D01*
X960761Y366316D01*
X958139Y364802D01*
X955998Y362661D01*
X954484Y360039D01*
X953700Y357114D01*
Y354086D01*
X954484Y351161D01*
X955998Y348539D01*
X958139Y346398D01*
X960761Y344884D01*
X963686Y344100D01*
X966714D01*
X969639Y344884D01*
X972261Y346398D01*
X974402Y348539D01*
X975916Y351161D01*
X976700Y354086D01*
Y357114D01*
X975916Y360039D01*
X974402Y362661D01*
X972261Y364802D01*
X969639Y366316D01*
X966714Y367100D01*
D02*
G37*
G36*
X941314D02*
X938286D01*
X935361Y366316D01*
X932739Y364802D01*
X930598Y362661D01*
X929084Y360039D01*
X928300Y357114D01*
Y354086D01*
X929084Y351161D01*
X930598Y348539D01*
X932739Y346398D01*
X935361Y344884D01*
X938286Y344100D01*
X941314D01*
X944239Y344884D01*
X946861Y346398D01*
X949002Y348539D01*
X950516Y351161D01*
X951300Y354086D01*
Y357114D01*
X950516Y360039D01*
X949002Y362661D01*
X946861Y364802D01*
X944239Y366316D01*
X941314Y367100D01*
D02*
G37*
G36*
X663184Y367100D02*
X660156D01*
X657231Y366316D01*
X654609Y364802D01*
X652468Y362661D01*
X650954Y360039D01*
X650170Y357114D01*
Y354086D01*
X650954Y351161D01*
X652468Y348539D01*
X654609Y346398D01*
X657231Y344884D01*
X660156Y344100D01*
X663184D01*
X666109Y344884D01*
X668731Y346398D01*
X670872Y348539D01*
X672386Y351161D01*
X673170Y354086D01*
Y357114D01*
X672386Y360039D01*
X670872Y362661D01*
X668731Y364802D01*
X666109Y366316D01*
X663184Y367100D01*
D02*
G37*
G36*
X637784D02*
X634756D01*
X631831Y366316D01*
X629209Y364802D01*
X627068Y362661D01*
X625554Y360039D01*
X624770Y357114D01*
Y354086D01*
X625554Y351161D01*
X627068Y348539D01*
X629209Y346398D01*
X631831Y344884D01*
X634756Y344100D01*
X637784D01*
X640709Y344884D01*
X643331Y346398D01*
X645472Y348539D01*
X646986Y351161D01*
X647770Y354086D01*
Y357114D01*
X646986Y360039D01*
X645472Y362661D01*
X643331Y364802D01*
X640709Y366316D01*
X637784Y367100D01*
D02*
G37*
G36*
X103852Y352730D02*
X92422D01*
Y341300D01*
X97502D01*
X103852Y347650D01*
Y352730D01*
D02*
G37*
G36*
X89882D02*
X78452D01*
Y347650D01*
X84802Y341300D01*
X89882D01*
Y352730D01*
D02*
G37*
G36*
X1142196Y346591D02*
X1140654D01*
Y340753D01*
X1145742D01*
Y343046D01*
X1145472Y344403D01*
X1144703Y345553D01*
X1143553Y346321D01*
X1142196Y346591D01*
D02*
G37*
G36*
X1138114D02*
X1136571D01*
X1135214Y346321D01*
X1134064Y345553D01*
X1133296Y344403D01*
X1133026Y343046D01*
Y340753D01*
X1138114D01*
Y346591D01*
D02*
G37*
G36*
X49577Y370500D02*
X46327D01*
X43140Y369866D01*
X40137Y368622D01*
X37434Y366816D01*
X35136Y364518D01*
X33330Y361816D01*
X32087Y358813D01*
X31452Y355625D01*
Y352375D01*
X32087Y349187D01*
X33330Y346184D01*
X35136Y343482D01*
X37434Y341184D01*
X40137Y339378D01*
X43140Y338134D01*
X46327Y337500D01*
X49577D01*
X52765Y338134D01*
X55768Y339378D01*
X58471Y341184D01*
X60769Y343482D01*
X62575Y346184D01*
X63818Y349187D01*
X64452Y352375D01*
Y355625D01*
X63818Y358813D01*
X62575Y361816D01*
X60769Y364518D01*
X58471Y366816D01*
X55768Y368622D01*
X52765Y369866D01*
X49577Y370500D01*
D02*
G37*
G36*
X398651Y355500D02*
X396149D01*
X393733Y354853D01*
X391567Y353602D01*
X389798Y351833D01*
X388547Y349667D01*
X387900Y347251D01*
Y344749D01*
X388547Y342333D01*
X389798Y340167D01*
X391567Y338398D01*
X393733Y337147D01*
X396149Y336500D01*
X398651D01*
X401067Y337147D01*
X403233Y338398D01*
X405002Y340167D01*
X406253Y342333D01*
X406900Y344749D01*
Y347251D01*
X406253Y349667D01*
X405002Y351833D01*
X403233Y353602D01*
X401067Y354853D01*
X398651Y355500D01*
D02*
G37*
G36*
X295719Y373312D02*
X281594D01*
X280350Y373065D01*
X279296Y372360D01*
X278591Y371306D01*
X278344Y370062D01*
Y369806D01*
X273156D01*
X271459Y369583D01*
X269878Y368928D01*
X268520Y367886D01*
X259634Y359000D01*
X246906D01*
Y341000D01*
X268906D01*
Y349728D01*
X275872Y356694D01*
X281562D01*
X281594Y356688D01*
X295719D01*
X296962Y356935D01*
X298017Y357639D01*
X298554Y358444D01*
X324884D01*
X337100Y346228D01*
Y344749D01*
X337747Y342333D01*
X338998Y340167D01*
X340767Y338398D01*
X342933Y337147D01*
X345349Y336500D01*
X347851D01*
X350267Y337147D01*
X352433Y338398D01*
X354202Y340167D01*
X355453Y342333D01*
X356100Y344749D01*
Y347251D01*
X355453Y349667D01*
X354202Y351833D01*
X352433Y353602D01*
X350267Y354853D01*
X347851Y355500D01*
X346372D01*
X332236Y369636D01*
X330878Y370678D01*
X329297Y371333D01*
X327600Y371556D01*
X298554D01*
X298017Y372360D01*
X296962Y373065D01*
X295719Y373312D01*
D02*
G37*
G36*
Y344373D02*
X289926D01*
Y336270D01*
X300029D01*
Y340062D01*
X299701Y341712D01*
X298767Y343110D01*
X297368Y344045D01*
X295719Y344373D01*
D02*
G37*
G36*
X287386D02*
X281594D01*
X279944Y344045D01*
X278546Y343110D01*
X277612Y341712D01*
X277283Y340062D01*
Y336270D01*
X287386D01*
Y344373D01*
D02*
G37*
G36*
X195469D02*
X189676D01*
Y336270D01*
X199779D01*
Y340062D01*
X199451Y341712D01*
X198517Y343110D01*
X197118Y344045D01*
X195469Y344373D01*
D02*
G37*
G36*
X187136D02*
X181344D01*
X179694Y344045D01*
X178296Y343110D01*
X177362Y341712D01*
X177033Y340062D01*
Y336270D01*
X187136D01*
Y344373D01*
D02*
G37*
G36*
X382540Y344730D02*
X373270D01*
Y335460D01*
X373388D01*
X376068Y336178D01*
X378472Y337566D01*
X380434Y339528D01*
X381822Y341932D01*
X382540Y344612D01*
Y344730D01*
D02*
G37*
G36*
X370730D02*
X361460D01*
Y344612D01*
X362178Y341932D01*
X363566Y339528D01*
X365528Y337566D01*
X367932Y336178D01*
X370612Y335460D01*
X370730D01*
Y344730D01*
D02*
G37*
G36*
X1145742Y338213D02*
X1140654D01*
Y332375D01*
X1142196D01*
X1143553Y332645D01*
X1144703Y333414D01*
X1145472Y334564D01*
X1145742Y335921D01*
Y338213D01*
D02*
G37*
G36*
X1138114D02*
X1133026D01*
Y335921D01*
X1133296Y334564D01*
X1134064Y333414D01*
X1135214Y332645D01*
X1136571Y332375D01*
X1138114D01*
Y338213D01*
D02*
G37*
G36*
X300029Y333730D02*
X289926D01*
Y325627D01*
X295719D01*
X297368Y325955D01*
X298767Y326890D01*
X299701Y328288D01*
X300029Y329938D01*
Y333730D01*
D02*
G37*
G36*
X287386D02*
X277283D01*
Y329938D01*
X277612Y328288D01*
X278546Y326890D01*
X279944Y325955D01*
X281594Y325627D01*
X287386D01*
Y333730D01*
D02*
G37*
G36*
X199779D02*
X189676D01*
Y325627D01*
X195469D01*
X197118Y325955D01*
X198517Y326890D01*
X199451Y328288D01*
X199779Y329938D01*
Y333730D01*
D02*
G37*
G36*
X187136D02*
X177033D01*
Y329938D01*
X177362Y328288D01*
X178296Y326890D01*
X179694Y325955D01*
X181344Y325627D01*
X187136D01*
Y333730D01*
D02*
G37*
G36*
X1150846Y330856D02*
X1146054D01*
Y322753D01*
X1155157D01*
Y326546D01*
X1154828Y328195D01*
X1153894Y329594D01*
X1152496Y330528D01*
X1150846Y330856D01*
D02*
G37*
G36*
X1143514D02*
X1138721D01*
X1137072Y330528D01*
X1135673Y329594D01*
X1134739Y328195D01*
X1134411Y326546D01*
Y322753D01*
X1143514D01*
Y330856D01*
D02*
G37*
G36*
X966714Y341700D02*
X963686D01*
X960761Y340916D01*
X958139Y339402D01*
X955998Y337261D01*
X954484Y334639D01*
X953700Y331714D01*
Y328686D01*
X954484Y325761D01*
X955998Y323139D01*
X958139Y320998D01*
X960761Y319484D01*
X963686Y318700D01*
X966714D01*
X969639Y319484D01*
X972261Y320998D01*
X974402Y323139D01*
X975916Y325761D01*
X976700Y328686D01*
Y331714D01*
X975916Y334639D01*
X974402Y337261D01*
X972261Y339402D01*
X969639Y340916D01*
X966714Y341700D01*
D02*
G37*
G36*
X941314D02*
X938286D01*
X935361Y340916D01*
X932739Y339402D01*
X930598Y337261D01*
X929084Y334639D01*
X928300Y331714D01*
Y328686D01*
X929084Y325761D01*
X930598Y323139D01*
X932739Y320998D01*
X935361Y319484D01*
X938286Y318700D01*
X941314D01*
X944239Y319484D01*
X946861Y320998D01*
X949002Y323139D01*
X950516Y325761D01*
X951300Y328686D01*
Y331714D01*
X950516Y334639D01*
X949002Y337261D01*
X946861Y339402D01*
X944239Y340916D01*
X941314Y341700D01*
D02*
G37*
G36*
X663184Y341700D02*
X660156D01*
X657231Y340916D01*
X654609Y339402D01*
X652468Y337261D01*
X650954Y334639D01*
X650170Y331714D01*
Y328686D01*
X650954Y325761D01*
X652468Y323139D01*
X654609Y320998D01*
X657231Y319484D01*
X660156Y318700D01*
X663184D01*
X666109Y319484D01*
X668731Y320998D01*
X670872Y323139D01*
X672386Y325761D01*
X673170Y328686D01*
Y331714D01*
X672386Y334639D01*
X670872Y337261D01*
X668731Y339402D01*
X666109Y340916D01*
X663184Y341700D01*
D02*
G37*
G36*
X637784D02*
X634756D01*
X631831Y340916D01*
X629209Y339402D01*
X627068Y337261D01*
X625554Y334639D01*
X624770Y331714D01*
Y328686D01*
X625554Y325761D01*
X627068Y323139D01*
X629209Y320998D01*
X631831Y319484D01*
X634756Y318700D01*
X637784D01*
X640709Y319484D01*
X643331Y320998D01*
X645472Y323139D01*
X646986Y325761D01*
X647770Y328686D01*
Y331714D01*
X646986Y334639D01*
X645472Y337261D01*
X643331Y339402D01*
X640709Y340916D01*
X637784Y341700D01*
D02*
G37*
G36*
X1350895Y348650D02*
X1349105D01*
X1347451Y347965D01*
X1346185Y346699D01*
X1345500Y345045D01*
Y343255D01*
X1345922Y342237D01*
Y331814D01*
X1345364Y331386D01*
X1344322Y330028D01*
X1343667Y328447D01*
X1343475Y326989D01*
X1343376Y326750D01*
Y325750D01*
X1343687Y325000D01*
X1343621Y324841D01*
X1343376Y324250D01*
X1343376Y323251D01*
X1343376Y323250D01*
X1343376Y323250D01*
X1343475Y323011D01*
X1343667Y321553D01*
X1344322Y319972D01*
X1345364Y318614D01*
X1345922Y318186D01*
Y315939D01*
X1344252Y314270D01*
X1337519D01*
X1336963Y314500D01*
X1335173D01*
X1333519Y313815D01*
X1332253Y312549D01*
X1331568Y310895D01*
Y309105D01*
X1332253Y307451D01*
X1333519Y306185D01*
X1335173Y305500D01*
X1336963D01*
X1338443Y306113D01*
X1345941D01*
X1345941Y306113D01*
X1347502Y306423D01*
X1348825Y307307D01*
X1352884Y311366D01*
X1352884Y311366D01*
X1353768Y312689D01*
X1354078Y314250D01*
X1354078Y314250D01*
Y318186D01*
X1354636Y318614D01*
X1355678Y319972D01*
X1356333Y321553D01*
X1356525Y323011D01*
X1356624Y323250D01*
Y324250D01*
X1356313Y325000D01*
X1356379Y325159D01*
X1356624Y325750D01*
X1356624Y326749D01*
X1356624Y326750D01*
X1356624Y326750D01*
X1356525Y326989D01*
X1356333Y328447D01*
X1355678Y330028D01*
X1354636Y331386D01*
X1354078Y331814D01*
Y342237D01*
X1354500Y343255D01*
Y345045D01*
X1353815Y346699D01*
X1352549Y347965D01*
X1350895Y348650D01*
D02*
G37*
G36*
X963930Y317340D02*
X963549D01*
X960360Y316485D01*
X957500Y314834D01*
X955165Y312500D01*
X953515Y309640D01*
X953157Y308307D01*
X951843D01*
X951485Y309640D01*
X949835Y312500D01*
X947500Y314834D01*
X944640Y316485D01*
X941451Y317340D01*
X941070D01*
Y304800D01*
Y292260D01*
X941451D01*
X944640Y293115D01*
X947500Y294765D01*
X949835Y297100D01*
X951485Y299960D01*
X951843Y301293D01*
X953157D01*
X953515Y299960D01*
X955165Y297100D01*
X957500Y294765D01*
X960360Y293115D01*
X963549Y292260D01*
X963930D01*
Y304800D01*
Y317340D01*
D02*
G37*
G36*
X966851D02*
X966470D01*
Y306070D01*
X977740D01*
Y306451D01*
X976885Y309640D01*
X975235Y312500D01*
X972900Y314834D01*
X970040Y316485D01*
X966851Y317340D01*
D02*
G37*
G36*
X938530D02*
X938149D01*
X934960Y316485D01*
X932100Y314834D01*
X929765Y312500D01*
X928115Y309640D01*
X927260Y306451D01*
Y306070D01*
X938530D01*
Y317340D01*
D02*
G37*
G36*
X1068292Y302963D02*
X1062454D01*
Y297875D01*
X1064746D01*
X1066103Y298145D01*
X1067253Y298914D01*
X1068022Y300064D01*
X1068292Y301421D01*
Y302963D01*
D02*
G37*
G36*
X1059914D02*
X1054076D01*
Y301421D01*
X1054345Y300064D01*
X1055114Y298914D01*
X1056264Y298145D01*
X1057621Y297875D01*
X1059914D01*
Y302963D01*
D02*
G37*
G36*
X777295Y301383D02*
X775753D01*
Y295545D01*
X780841D01*
Y297838D01*
X780571Y299194D01*
X779802Y300345D01*
X778652Y301113D01*
X777295Y301383D01*
D02*
G37*
G36*
X773213D02*
X771670D01*
X770313Y301113D01*
X769163Y300345D01*
X768394Y299194D01*
X768125Y297838D01*
Y295545D01*
X773213D01*
Y301383D01*
D02*
G37*
G36*
X1177157Y302213D02*
X1168054D01*
Y294110D01*
X1172846D01*
X1174496Y294438D01*
X1175894Y295373D01*
X1176829Y296771D01*
X1177157Y298421D01*
Y302213D01*
D02*
G37*
G36*
X1165514D02*
X1156411D01*
Y298421D01*
X1156739Y296771D01*
X1157673Y295373D01*
X1159072Y294438D01*
X1160721Y294110D01*
X1165514D01*
Y302213D01*
D02*
G37*
G36*
X663184Y316300D02*
X660156D01*
X657231Y315516D01*
X654609Y314002D01*
X652468Y311861D01*
X650954Y309239D01*
X650170Y306314D01*
Y303286D01*
X650954Y300361D01*
X652468Y297739D01*
X654609Y295598D01*
X657231Y294084D01*
X660156Y293300D01*
X663184D01*
X666109Y294084D01*
X668731Y295598D01*
X670872Y297739D01*
X672386Y300361D01*
X673170Y303286D01*
Y306314D01*
X672386Y309239D01*
X670872Y311861D01*
X668731Y314002D01*
X666109Y315516D01*
X663184Y316300D01*
D02*
G37*
G36*
X637784D02*
X634756D01*
X631831Y315516D01*
X629209Y314002D01*
X627068Y311861D01*
X625554Y309239D01*
X624770Y306314D01*
Y303286D01*
X625554Y300361D01*
X627068Y297739D01*
X629209Y295598D01*
X631831Y294084D01*
X634756Y293300D01*
X637784D01*
X640709Y294084D01*
X643331Y295598D01*
X645472Y297739D01*
X646986Y300361D01*
X647770Y303286D01*
Y306314D01*
X646986Y309239D01*
X645472Y311861D01*
X643331Y314002D01*
X640709Y315516D01*
X637784Y316300D01*
D02*
G37*
G36*
X977740Y303530D02*
X966470D01*
Y292260D01*
X966851D01*
X970040Y293115D01*
X972900Y294765D01*
X975235Y297100D01*
X976885Y299960D01*
X977740Y303149D01*
Y303530D01*
D02*
G37*
G36*
X938530D02*
X927260D01*
Y303149D01*
X928115Y299960D01*
X929765Y297100D01*
X932100Y294765D01*
X934960Y293115D01*
X938149Y292260D01*
X938530D01*
Y303530D01*
D02*
G37*
G36*
X1131978Y294111D02*
X1130436D01*
Y288273D01*
X1135524D01*
Y290566D01*
X1135254Y291923D01*
X1134485Y293073D01*
X1133335Y293841D01*
X1131978Y294111D01*
D02*
G37*
G36*
X1127896D02*
X1126353D01*
X1124996Y293841D01*
X1123846Y293073D01*
X1123077Y291923D01*
X1122808Y290566D01*
Y288273D01*
X1127896D01*
Y294111D01*
D02*
G37*
G36*
X780841Y293005D02*
X775753D01*
Y287167D01*
X777295D01*
X778652Y287437D01*
X779802Y288205D01*
X780571Y289356D01*
X780841Y290713D01*
Y293005D01*
D02*
G37*
G36*
X793295Y300323D02*
X787670D01*
X786719Y300133D01*
X785913Y299595D01*
X785374Y298789D01*
X785185Y297838D01*
Y290713D01*
X785374Y289761D01*
X785913Y288955D01*
X786719Y288416D01*
X787020Y288357D01*
Y283117D01*
X786159Y282757D01*
X785750Y282669D01*
X784751Y283336D01*
X783483Y283589D01*
X782215Y283336D01*
X781140Y282618D01*
X780996Y282404D01*
X779469D01*
X779326Y282618D01*
X778251Y283336D01*
X776983Y283589D01*
X775715Y283336D01*
X774640Y282618D01*
X774497Y282404D01*
X772969D01*
X772826Y282618D01*
X771751Y283336D01*
X770483Y283589D01*
X769215Y283336D01*
X768311Y282733D01*
X767609Y282929D01*
X767041Y283261D01*
Y286453D01*
X767280Y286809D01*
X767551Y288175D01*
X767507Y288398D01*
X768703Y288894D01*
X769163Y288205D01*
X770313Y287437D01*
X771670Y287167D01*
X773213D01*
Y293005D01*
X768125D01*
Y290713D01*
X768167Y290498D01*
X766971Y290003D01*
X766506Y290698D01*
X764721Y292484D01*
X764651Y292836D01*
X763767Y294159D01*
X763042Y294884D01*
X761718Y295768D01*
X760158Y296078D01*
X760158Y296078D01*
X728000D01*
X728000Y296078D01*
X726439Y295768D01*
X725116Y294884D01*
X725116Y294884D01*
X530521Y100289D01*
X529637Y98966D01*
X529327Y97405D01*
X529327Y97405D01*
Y87013D01*
X528966Y86916D01*
X526344Y85402D01*
X524203Y83261D01*
X522689Y80639D01*
X521905Y77714D01*
Y74686D01*
X522689Y71761D01*
X524203Y69139D01*
X526344Y66997D01*
X528966Y65483D01*
X531891Y64700D01*
X534919D01*
X537844Y65483D01*
X540466Y66997D01*
X542607Y69139D01*
X544121Y71761D01*
X544905Y74686D01*
Y77714D01*
X544121Y80639D01*
X542607Y83261D01*
X540466Y85402D01*
X537844Y86916D01*
X537483Y87013D01*
Y95716D01*
X555652Y113884D01*
X556922Y113358D01*
Y87601D01*
X554366Y86916D01*
X551744Y85402D01*
X549603Y83261D01*
X548089Y80639D01*
X547305Y77714D01*
Y74686D01*
X548089Y71761D01*
X549603Y69139D01*
X551744Y66997D01*
X554366Y65483D01*
X557291Y64700D01*
X560319D01*
X563244Y65483D01*
X565866Y66997D01*
X568007Y69139D01*
X569521Y71761D01*
X570305Y74686D01*
Y77714D01*
X569521Y80639D01*
X568007Y83261D01*
X565866Y85402D01*
X565078Y85857D01*
Y113206D01*
X578953Y127081D01*
X580127Y126595D01*
Y87013D01*
X579766Y86916D01*
X577144Y85402D01*
X575003Y83261D01*
X573489Y80639D01*
X572705Y77714D01*
Y74686D01*
X573489Y71761D01*
X575003Y69139D01*
X577144Y66997D01*
X579766Y65483D01*
X582691Y64700D01*
X585719D01*
X588644Y65483D01*
X591266Y66997D01*
X593407Y69139D01*
X594921Y71761D01*
X595705Y74686D01*
Y77714D01*
X594921Y80639D01*
X593407Y83261D01*
X591266Y85402D01*
X588644Y86916D01*
X588283Y87013D01*
Y127218D01*
X604257Y143192D01*
X605527Y142666D01*
Y87013D01*
X605166Y86916D01*
X602544Y85402D01*
X600403Y83261D01*
X598889Y80639D01*
X598105Y77714D01*
Y74686D01*
X598889Y71761D01*
X600403Y69139D01*
X602544Y66997D01*
X605166Y65483D01*
X608091Y64700D01*
X611119D01*
X614044Y65483D01*
X616666Y66997D01*
X618807Y69139D01*
X620321Y71761D01*
X621105Y74686D01*
Y77714D01*
X620321Y80639D01*
X618807Y83261D01*
X616666Y85402D01*
X614044Y86916D01*
X613683Y87013D01*
Y142517D01*
X714362Y243197D01*
X753641D01*
X754167Y241927D01*
X748099Y235859D01*
X747215Y234536D01*
X746904Y232975D01*
X747215Y231414D01*
X747414Y231116D01*
Y220603D01*
X732758D01*
X732758Y220603D01*
X731197Y220293D01*
X729874Y219409D01*
X725543Y215078D01*
X696450D01*
X695432Y215500D01*
X693641D01*
X691988Y214815D01*
X690722Y213549D01*
X690036Y211895D01*
Y210105D01*
X690722Y208451D01*
X691988Y207185D01*
X693641Y206500D01*
X695432D01*
X696450Y206922D01*
X727233D01*
X727233Y206922D01*
X728793Y207232D01*
X730117Y208116D01*
X734447Y212447D01*
X747669D01*
Y210275D01*
X747921Y209007D01*
X748640Y207932D01*
X749715Y207214D01*
X750983Y206961D01*
X752251Y207214D01*
X753326Y207932D01*
X753469Y208146D01*
X754996D01*
X755140Y207932D01*
X756215Y207214D01*
X757483Y206961D01*
X758751Y207214D01*
X759826Y207932D01*
X759969Y208146D01*
X761497D01*
X761640Y207932D01*
X762201Y207557D01*
X762500Y206060D01*
X746599Y190159D01*
X745715Y188836D01*
X745404Y187275D01*
X745404Y187275D01*
Y162036D01*
X745383Y160775D01*
X744134Y160775D01*
X716983D01*
Y143775D01*
X732983D01*
Y148275D01*
X734804D01*
Y129689D01*
X685393Y80278D01*
X645818D01*
X645721Y80639D01*
X644207Y83261D01*
X642066Y85402D01*
X639444Y86916D01*
X636519Y87700D01*
X633491D01*
X630566Y86916D01*
X627944Y85402D01*
X625803Y83261D01*
X624289Y80639D01*
X623505Y77714D01*
Y74686D01*
X624289Y71761D01*
X625803Y69139D01*
X627944Y66997D01*
X630566Y65483D01*
X633491Y64700D01*
X636519D01*
X639444Y65483D01*
X642066Y66997D01*
X644207Y69139D01*
X645721Y71761D01*
X645818Y72122D01*
X687082D01*
X687083Y72121D01*
X688643Y72432D01*
X689966Y73316D01*
X741767Y125116D01*
X741767Y125116D01*
X742651Y126439D01*
X742961Y128000D01*
X742961Y128000D01*
Y147377D01*
X743859Y148275D01*
X745383Y148275D01*
X745404Y147014D01*
Y91847D01*
X724999Y71442D01*
X724115Y70118D01*
X723804Y68558D01*
X723804Y68558D01*
Y53573D01*
X722906Y52675D01*
X722383D01*
X721113Y52675D01*
X711383D01*
Y34675D01*
X721113D01*
X722383Y34675D01*
X723653Y34675D01*
X732343D01*
Y31635D01*
X737613D01*
Y41675D01*
Y51715D01*
X733383D01*
Y52675D01*
X731961D01*
Y66868D01*
X752366Y87274D01*
X752367Y87274D01*
X753251Y88597D01*
X753561Y90158D01*
X753561Y90158D01*
Y185586D01*
X772654Y204679D01*
X773924Y204153D01*
Y198984D01*
X766922Y191982D01*
X765904Y191560D01*
X764638Y190294D01*
X763953Y188640D01*
Y186850D01*
X764638Y185196D01*
X765904Y183930D01*
X767558Y183245D01*
X769348D01*
X771002Y183930D01*
X772268Y185196D01*
X772689Y186214D01*
X779154Y192679D01*
X780424Y192152D01*
Y184542D01*
X776674Y180792D01*
X775422Y180543D01*
X774099Y179659D01*
X767599Y173159D01*
X766715Y171836D01*
X766404Y170275D01*
X766404Y170275D01*
Y90964D01*
X746999Y71559D01*
X746115Y70236D01*
X745804Y68675D01*
X745804Y68675D01*
Y52675D01*
X744383D01*
Y51715D01*
X740153D01*
Y41675D01*
Y31635D01*
X745423D01*
Y34675D01*
X755383D01*
X755383Y33405D01*
Y32675D01*
X766383D01*
Y33405D01*
X766383Y34675D01*
X767653Y34675D01*
X777383D01*
Y37405D01*
X777383Y38675D01*
X778653Y38675D01*
X788383D01*
X788383Y37405D01*
Y34675D01*
X799383D01*
Y52675D01*
X791810D01*
X791515Y53386D01*
X791403Y53945D01*
X792251Y55214D01*
X792266Y55290D01*
X822366Y85391D01*
X822367Y85391D01*
X823251Y86714D01*
X823561Y88275D01*
Y171275D01*
X823561Y171275D01*
X823251Y172836D01*
X822367Y174159D01*
X822366Y174159D01*
X806532Y189993D01*
X807018Y191167D01*
X809295D01*
X810652Y191437D01*
X811802Y192205D01*
X812571Y193356D01*
X812841Y194713D01*
Y197005D01*
X806483D01*
Y198275D01*
X805213D01*
Y205383D01*
X804287D01*
X804040Y205558D01*
X803401Y206415D01*
X803349Y206614D01*
X803561Y207679D01*
Y227375D01*
X803251Y228936D01*
X802367Y230259D01*
X802366Y230259D01*
X796767Y235859D01*
X795443Y236743D01*
X793883Y237053D01*
X793883Y237053D01*
X789725D01*
X789199Y238323D01*
X792867Y241991D01*
X793751Y243314D01*
X794061Y244875D01*
X794061Y244875D01*
Y262275D01*
X793751Y263836D01*
X793042Y264897D01*
Y266503D01*
X793044Y266507D01*
X793296Y267775D01*
Y280275D01*
X793137Y281075D01*
Y288227D01*
X793295D01*
X794246Y288416D01*
X795053Y288955D01*
X795591Y289761D01*
X795780Y290713D01*
Y297838D01*
X795591Y298789D01*
X795053Y299595D01*
X794246Y300133D01*
X793295Y300323D01*
D02*
G37*
G36*
X1135524Y285733D02*
X1130436D01*
Y279895D01*
X1131978D01*
X1133335Y280165D01*
X1134485Y280934D01*
X1135254Y282084D01*
X1135524Y283441D01*
Y285733D01*
D02*
G37*
G36*
X1127896D02*
X1122808D01*
Y283441D01*
X1123077Y282084D01*
X1123846Y280934D01*
X1124996Y280165D01*
X1126353Y279895D01*
X1127896D01*
Y285733D01*
D02*
G37*
G36*
X521180Y256766D02*
X517370D01*
Y245270D01*
X528866D01*
Y249080D01*
X528604Y251069D01*
X527836Y252923D01*
X526615Y254515D01*
X525023Y255736D01*
X523169Y256504D01*
X521180Y256766D01*
D02*
G37*
G36*
X971250Y245444D02*
X959750D01*
X958579Y245211D01*
X957587Y244548D01*
X956924Y243556D01*
X956691Y242385D01*
Y239385D01*
X956924Y238214D01*
X957587Y237222D01*
X958579Y236559D01*
X959750Y236326D01*
X971250D01*
X972421Y236559D01*
X973413Y237222D01*
X974076Y238214D01*
X974309Y239385D01*
Y242385D01*
X974076Y243556D01*
X973413Y244548D01*
X972421Y245211D01*
X971250Y245444D01*
D02*
G37*
G36*
X59540Y246340D02*
X29270D01*
Y233070D01*
X59540D01*
Y246340D01*
D02*
G37*
G36*
X528866Y242730D02*
X517370D01*
Y231234D01*
X521180D01*
X523169Y231496D01*
X525023Y232264D01*
X526615Y233485D01*
X527836Y235077D01*
X528604Y236931D01*
X528866Y238920D01*
Y242730D01*
D02*
G37*
G36*
X893562Y235843D02*
X891270D01*
Y230755D01*
X897108D01*
Y232297D01*
X896838Y233654D01*
X896070Y234805D01*
X894919Y235573D01*
X893562Y235843D01*
D02*
G37*
G36*
X888730D02*
X886438D01*
X885081Y235573D01*
X883930Y234805D01*
X883162Y233654D01*
X882892Y232297D01*
Y230755D01*
X888730D01*
Y235843D01*
D02*
G37*
G36*
X916750Y233804D02*
X912270D01*
Y229455D01*
X920869D01*
Y229685D01*
X920556Y231261D01*
X919663Y232598D01*
X918326Y233491D01*
X916750Y233804D01*
D02*
G37*
G36*
X909730D02*
X905250D01*
X903674Y233491D01*
X902337Y232598D01*
X901444Y231261D01*
X901131Y229685D01*
Y229455D01*
X909730D01*
Y233804D01*
D02*
G37*
G36*
X1052500Y240573D02*
X1029500D01*
X1027744Y240224D01*
X1026256Y239229D01*
X1025261Y237741D01*
X1025126Y237063D01*
X991000D01*
X989439Y236753D01*
X988116Y235869D01*
X988116Y235869D01*
X986791Y234544D01*
X983500D01*
X982329Y234311D01*
X981959Y234063D01*
X971550D01*
X969989Y233753D01*
X968666Y232869D01*
X968666Y232869D01*
X968541Y232744D01*
X959750D01*
X958579Y232511D01*
X957587Y231848D01*
X956924Y230856D01*
X956691Y229685D01*
Y226685D01*
X956924Y225514D01*
X957587Y224522D01*
X958579Y223859D01*
X959750Y223626D01*
X971250D01*
X972421Y223859D01*
X973413Y224522D01*
X974076Y225514D01*
X974154Y225907D01*
X981959D01*
X982329Y225659D01*
X983500Y225426D01*
X989500D01*
X990670Y225659D01*
X991663Y226322D01*
X992326Y227314D01*
X992559Y228485D01*
Y228776D01*
X992689Y228907D01*
X1025126D01*
X1025261Y228229D01*
X1026256Y226741D01*
X1027744Y225746D01*
X1029500Y225397D01*
X1052500D01*
X1054256Y225746D01*
X1055744Y226741D01*
X1056739Y228229D01*
X1057088Y229985D01*
Y235985D01*
X1056739Y237741D01*
X1055744Y239229D01*
X1054256Y240224D01*
X1052500Y240573D01*
D02*
G37*
G36*
X897108Y228215D02*
X891270D01*
Y223127D01*
X893562D01*
X894919Y223397D01*
X896070Y224165D01*
X896838Y225316D01*
X897108Y226672D01*
Y228215D01*
D02*
G37*
G36*
X888730D02*
X882892D01*
Y226672D01*
X883162Y225316D01*
X883930Y224165D01*
X885081Y223397D01*
X886438Y223127D01*
X888730D01*
Y228215D01*
D02*
G37*
G36*
X920869Y226915D02*
X912270D01*
Y222566D01*
X916750D01*
X918326Y222879D01*
X919663Y223772D01*
X920556Y225109D01*
X920869Y226685D01*
Y226915D01*
D02*
G37*
G36*
X909730D02*
X901131D01*
Y226685D01*
X901444Y225109D01*
X902337Y223772D01*
X903674Y222879D01*
X905250Y222566D01*
X909730D01*
Y226915D01*
D02*
G37*
G36*
X1012500Y226104D02*
X1010770D01*
Y221755D01*
X1016619D01*
Y221985D01*
X1016305Y223561D01*
X1015413Y224898D01*
X1014076Y225791D01*
X1012500Y226104D01*
D02*
G37*
G36*
X1008230D02*
X1006500D01*
X1004924Y225791D01*
X1003587Y224898D01*
X1002694Y223561D01*
X1002381Y221985D01*
Y221755D01*
X1008230D01*
Y226104D01*
D02*
G37*
G36*
X916750Y220044D02*
X905250D01*
X904079Y219811D01*
X903087Y219148D01*
X902424Y218155D01*
X902306Y217563D01*
X895648D01*
X895320Y218055D01*
X894513Y218594D01*
X893562Y218783D01*
X886438D01*
X885486Y218594D01*
X884680Y218055D01*
X884141Y217248D01*
X883952Y216297D01*
Y210672D01*
X884141Y209721D01*
X884680Y208915D01*
X885486Y208376D01*
X885922Y208290D01*
Y204398D01*
X885500Y203380D01*
Y201590D01*
X886185Y199936D01*
X887451Y198670D01*
X889105Y197985D01*
X890895D01*
X892549Y198670D01*
X893815Y199936D01*
X894500Y201590D01*
Y203380D01*
X894078Y204398D01*
Y208290D01*
X894513Y208376D01*
X895320Y208915D01*
X895648Y209407D01*
X904750D01*
X904750Y209407D01*
X906311Y209717D01*
X907634Y210601D01*
X907959Y210926D01*
X916750D01*
X917921Y211159D01*
X918913Y211822D01*
X919576Y212814D01*
X919809Y213985D01*
Y216985D01*
X919576Y218155D01*
X918913Y219148D01*
X917921Y219811D01*
X916750Y220044D01*
D02*
G37*
G36*
X59540Y230530D02*
X29270D01*
Y217260D01*
X59540D01*
Y230530D01*
D02*
G37*
G36*
X1016619Y219215D02*
X1010770D01*
Y214866D01*
X1012500D01*
X1014076Y215179D01*
X1015413Y216072D01*
X1016305Y217409D01*
X1016619Y218985D01*
Y219215D01*
D02*
G37*
G36*
X1008230D02*
X1002381D01*
Y218985D01*
X1002694Y217409D01*
X1003587Y216072D01*
X1004924Y215179D01*
X1006500Y214866D01*
X1008230D01*
Y219215D01*
D02*
G37*
G36*
X1166562Y218843D02*
X1164270D01*
Y213755D01*
X1170108D01*
Y215298D01*
X1169838Y216654D01*
X1169070Y217805D01*
X1167919Y218573D01*
X1166562Y218843D01*
D02*
G37*
G36*
X1170108Y211215D02*
X1164270D01*
Y206127D01*
X1166562D01*
X1167919Y206397D01*
X1169070Y207165D01*
X1169838Y208316D01*
X1170108Y209673D01*
Y211215D01*
D02*
G37*
G36*
X1161730D02*
X1155892D01*
Y209673D01*
X1156162Y208316D01*
X1156930Y207165D01*
X1158081Y206397D01*
X1159437Y206127D01*
X1161730D01*
Y211215D01*
D02*
G37*
G36*
X1152108Y211215D02*
X1146270D01*
Y206127D01*
X1148562D01*
X1149919Y206397D01*
X1151070Y207165D01*
X1151838Y208316D01*
X1152108Y209672D01*
Y211215D01*
D02*
G37*
G36*
X1143730D02*
X1137892D01*
Y209672D01*
X1138162Y208316D01*
X1138930Y207165D01*
X1140081Y206397D01*
X1141438Y206127D01*
X1143730D01*
Y211215D01*
D02*
G37*
G36*
X370563Y210358D02*
X368270D01*
Y205270D01*
X374108D01*
Y206812D01*
X373838Y208169D01*
X373070Y209320D01*
X371919Y210088D01*
X370563Y210358D01*
D02*
G37*
G36*
X365730D02*
X363438D01*
X362081Y210088D01*
X360930Y209320D01*
X360162Y208169D01*
X359892Y206812D01*
Y205270D01*
X365730D01*
Y210358D01*
D02*
G37*
G36*
X971250Y220044D02*
X959750D01*
X958579Y219811D01*
X957587Y219148D01*
X956924Y218155D01*
X956691Y216985D01*
Y213985D01*
X956924Y212814D01*
X957587Y211822D01*
X958579Y211159D01*
X959750Y210926D01*
X968541D01*
X970854Y208614D01*
X970328Y207344D01*
X959750D01*
X958579Y207111D01*
X957587Y206448D01*
X956924Y205455D01*
X956691Y204285D01*
Y201285D01*
X956924Y200114D01*
X957587Y199122D01*
X958579Y198459D01*
X959750Y198226D01*
X971250D01*
X972421Y198459D01*
X973413Y199122D01*
X974076Y200114D01*
X974309Y201285D01*
Y204285D01*
X974076Y205455D01*
X973929Y205676D01*
X974032Y206069D01*
X974634Y206907D01*
X981959D01*
X982329Y206659D01*
X983500Y206426D01*
X986791D01*
X988116Y205101D01*
X988116Y205101D01*
X989439Y204217D01*
X991000Y203907D01*
X991000Y203907D01*
X1025126D01*
X1025261Y203229D01*
X1026256Y201741D01*
X1027744Y200746D01*
X1029500Y200397D01*
X1052500D01*
X1054256Y200746D01*
X1055744Y201741D01*
X1056739Y203229D01*
X1057088Y204985D01*
Y210985D01*
X1056739Y212741D01*
X1055744Y214229D01*
X1054256Y215224D01*
X1052500Y215573D01*
X1029500D01*
X1027744Y215224D01*
X1026256Y214229D01*
X1025261Y212741D01*
X1025126Y212063D01*
X992689D01*
X992559Y212194D01*
Y212485D01*
X992326Y213655D01*
X991663Y214648D01*
X990670Y215311D01*
X989500Y215544D01*
X983500D01*
X982329Y215311D01*
X981959Y215063D01*
X975939D01*
X974309Y216694D01*
Y216985D01*
X974076Y218155D01*
X973413Y219148D01*
X972421Y219811D01*
X971250Y220044D01*
D02*
G37*
G36*
X260540Y205040D02*
X250270D01*
Y200270D01*
X260540D01*
Y205040D01*
D02*
G37*
G36*
X247730D02*
X237460D01*
Y200270D01*
X247730D01*
Y205040D01*
D02*
G37*
G36*
X809295Y205383D02*
X807753D01*
Y199545D01*
X812841D01*
Y201837D01*
X812571Y203194D01*
X811802Y204345D01*
X810652Y205113D01*
X809295Y205383D01*
D02*
G37*
G36*
X374108Y202730D02*
X368270D01*
Y197642D01*
X370563D01*
X371919Y197912D01*
X373070Y198680D01*
X373838Y199831D01*
X374108Y201187D01*
Y202730D01*
D02*
G37*
G36*
X365730D02*
X359892D01*
Y201187D01*
X360162Y199831D01*
X360930Y198680D01*
X362081Y197912D01*
X363438Y197642D01*
X365730D01*
Y202730D01*
D02*
G37*
G36*
X126390Y160040D02*
X122660D01*
Y157270D01*
X126390D01*
Y160040D01*
D02*
G37*
G36*
X59540Y159040D02*
X29270D01*
Y145770D01*
X59540D01*
Y159040D01*
D02*
G37*
G36*
X1166429Y183372D02*
X1164868Y183061D01*
X1163545Y182177D01*
X1163000Y181362D01*
X1160406Y178768D01*
X1159522Y177445D01*
X1159212Y175884D01*
X1159212Y175884D01*
Y171246D01*
X1158594Y170627D01*
X1158070Y169364D01*
X1157613Y168767D01*
X1156958Y167186D01*
X1156766Y165728D01*
X1156667Y165489D01*
Y164489D01*
X1156977Y163739D01*
X1156912Y163581D01*
X1156667Y162990D01*
X1156666Y161990D01*
X1156667Y161990D01*
X1156666Y161990D01*
X1156766Y161750D01*
X1156958Y160292D01*
X1157613Y158711D01*
X1158654Y157353D01*
X1159212Y156926D01*
Y146391D01*
X1154449Y141627D01*
X1151496Y142587D01*
X1147376Y143239D01*
X1143205D01*
X1139085Y142587D01*
X1135118Y141298D01*
X1131401Y139404D01*
X1128027Y136952D01*
X1125077Y134003D01*
X1122626Y130628D01*
X1120732Y126912D01*
X1119443Y122945D01*
X1118790Y118825D01*
Y114654D01*
X1119443Y110534D01*
X1120732Y106567D01*
X1122626Y102850D01*
X1123891Y101108D01*
X1093047Y70264D01*
X1091965D01*
X1091601Y70507D01*
X1090040Y70818D01*
X1090040Y70818D01*
X946980D01*
X916689Y101108D01*
X917955Y102850D01*
X919849Y106567D01*
X921138Y110534D01*
X921790Y114654D01*
Y118825D01*
X921138Y122945D01*
X919849Y126912D01*
X917955Y130628D01*
X915503Y134003D01*
X912554Y136952D01*
X909179Y139404D01*
X905463Y141298D01*
X901496Y142587D01*
X897376Y143239D01*
X893205D01*
X889085Y142587D01*
X885118Y141298D01*
X881401Y139404D01*
X878027Y136952D01*
X875077Y134003D01*
X872626Y130628D01*
X870732Y126912D01*
X869443Y122945D01*
X868790Y118825D01*
Y114654D01*
X869443Y110534D01*
X870732Y106567D01*
X872626Y102850D01*
X875077Y99476D01*
X878027Y96526D01*
X881401Y94074D01*
X885118Y92181D01*
X889085Y90892D01*
X893205Y90239D01*
X897376D01*
X901496Y90892D01*
X905463Y92181D01*
X909179Y94074D01*
X910922Y95340D01*
X942406Y63856D01*
X943730Y62971D01*
X945290Y62661D01*
X945290Y62661D01*
X1088669D01*
X1089034Y62417D01*
X1090594Y62107D01*
X1090594Y62107D01*
X1094736D01*
X1094736Y62107D01*
X1096297Y62417D01*
X1097620Y63302D01*
X1129659Y95340D01*
X1131401Y94074D01*
X1135118Y92181D01*
X1139085Y90892D01*
X1143205Y90239D01*
X1147376D01*
X1151496Y90892D01*
X1155463Y92181D01*
X1159179Y94074D01*
X1162554Y96526D01*
X1165503Y99476D01*
X1167955Y102850D01*
X1169849Y106567D01*
X1171138Y110534D01*
X1171790Y114654D01*
Y118825D01*
X1171138Y122945D01*
X1169849Y126912D01*
X1167955Y130628D01*
X1165503Y134003D01*
X1162554Y136952D01*
X1162463Y138106D01*
X1166174Y141817D01*
X1167058Y143140D01*
X1167369Y144701D01*
X1167369Y144701D01*
Y156926D01*
X1167926Y157353D01*
X1168968Y158711D01*
X1169623Y160292D01*
X1169815Y161751D01*
X1169914Y161990D01*
Y162989D01*
X1169603Y163739D01*
X1169669Y163898D01*
X1169914Y164489D01*
X1169914Y165489D01*
X1169914Y165489D01*
X1169914Y165489D01*
X1169815Y165729D01*
X1169623Y167186D01*
X1168968Y168767D01*
X1168510Y169364D01*
X1167987Y170627D01*
X1167369Y171246D01*
Y174195D01*
X1169312Y176139D01*
X1169312Y176139D01*
X1170196Y177462D01*
X1170507Y179023D01*
X1170507Y179023D01*
Y179293D01*
X1170196Y180854D01*
X1169312Y182177D01*
X1167989Y183061D01*
X1166429Y183372D01*
D02*
G37*
G36*
X1021941Y141679D02*
X1021560D01*
Y130409D01*
X1032830D01*
Y130790D01*
X1031976Y133980D01*
X1030325Y136839D01*
X1027990Y139174D01*
X1025131Y140825D01*
X1021941Y141679D01*
D02*
G37*
G36*
X1019020D02*
X1018639D01*
X1015450Y140825D01*
X1012591Y139174D01*
X1010256Y136839D01*
X1008605Y133980D01*
X1007750Y130790D01*
Y130409D01*
X1019020D01*
Y141679D01*
D02*
G37*
G36*
X59540Y143230D02*
X29270D01*
Y129960D01*
X59540D01*
Y143230D01*
D02*
G37*
G36*
X197655Y126917D02*
X191306D01*
Y122568D01*
X193536D01*
X195112Y122882D01*
X196448Y123775D01*
X197341Y125111D01*
X197655Y126687D01*
Y126917D01*
D02*
G37*
G36*
X188766D02*
X182417D01*
Y126687D01*
X182730Y125111D01*
X183623Y123775D01*
X184959Y122882D01*
X186536Y122568D01*
X188766D01*
Y126917D01*
D02*
G37*
G36*
X101604Y126730D02*
X97270D01*
Y122395D01*
X98250D01*
X99534Y122651D01*
X100622Y123378D01*
X101349Y124466D01*
X101604Y125750D01*
Y126730D01*
D02*
G37*
G36*
X94730D02*
X90396D01*
Y125750D01*
X90651Y124466D01*
X91378Y123378D01*
X92466Y122651D01*
X93750Y122395D01*
X94730D01*
Y126730D01*
D02*
G37*
G36*
X1076604Y140639D02*
X1073576D01*
X1070651Y139856D01*
X1068029Y138342D01*
X1065888Y136201D01*
X1064374Y133578D01*
X1063590Y130653D01*
Y127625D01*
X1064374Y124700D01*
X1065888Y122078D01*
X1068029Y119937D01*
X1070651Y118423D01*
X1073576Y117639D01*
X1076604D01*
X1079529Y118423D01*
X1082151Y119937D01*
X1084293Y122078D01*
X1085807Y124700D01*
X1086590Y127625D01*
Y130653D01*
X1085807Y133578D01*
X1084293Y136201D01*
X1082151Y138342D01*
X1079529Y139856D01*
X1076604Y140639D01*
D02*
G37*
G36*
X994404D02*
X991376D01*
X988452Y139856D01*
X985829Y138342D01*
X983688Y136201D01*
X982174Y133578D01*
X981390Y130653D01*
Y127625D01*
X982174Y124700D01*
X983688Y122078D01*
X985829Y119937D01*
X988452Y118423D01*
X991376Y117639D01*
X994404D01*
X997329Y118423D01*
X999951Y119937D01*
X1002093Y122078D01*
X1003607Y124700D01*
X1004390Y127625D01*
Y130653D01*
X1003607Y133578D01*
X1002093Y136201D01*
X999951Y138342D01*
X997329Y139856D01*
X994404Y140639D01*
D02*
G37*
G36*
X967004D02*
X963976D01*
X961051Y139856D01*
X958429Y138342D01*
X956288Y136201D01*
X954774Y133578D01*
X953990Y130653D01*
Y127625D01*
X954774Y124700D01*
X956288Y122078D01*
X958429Y119937D01*
X961051Y118423D01*
X963976Y117639D01*
X967004D01*
X969929Y118423D01*
X972551Y119937D01*
X974693Y122078D01*
X976207Y124700D01*
X976990Y127625D01*
Y130653D01*
X976207Y133578D01*
X974693Y136201D01*
X972551Y138342D01*
X969929Y139856D01*
X967004Y140639D01*
D02*
G37*
G36*
X1032830Y127869D02*
X1021560D01*
Y116599D01*
X1021941D01*
X1025131Y117454D01*
X1027990Y119105D01*
X1030325Y121440D01*
X1031976Y124299D01*
X1032830Y127488D01*
Y127869D01*
D02*
G37*
G36*
X1019020D02*
X1007750D01*
Y127488D01*
X1008605Y124299D01*
X1010256Y121440D01*
X1012591Y119105D01*
X1015450Y117454D01*
X1018639Y116599D01*
X1019020D01*
Y127869D01*
D02*
G37*
G36*
X662123Y145499D02*
X658676D01*
X655295Y144827D01*
X652110Y143507D01*
X649244Y141592D01*
X646806Y139155D01*
X644891Y136289D01*
X643572Y133104D01*
X642899Y129723D01*
Y126276D01*
X643572Y122895D01*
X644891Y119710D01*
X646806Y116844D01*
X649244Y114406D01*
X652110Y112491D01*
X655295Y111172D01*
X658676Y110499D01*
X662123D01*
X665504Y111172D01*
X668689Y112491D01*
X671555Y114406D01*
X673992Y116844D01*
X675908Y119710D01*
X677227Y122895D01*
X677899Y126276D01*
Y129723D01*
X677227Y133104D01*
X675908Y136289D01*
X673992Y139155D01*
X671555Y141592D01*
X668689Y143507D01*
X665504Y144827D01*
X662123Y145499D01*
D02*
G37*
G36*
X1063041Y116279D02*
X1062660D01*
Y105009D01*
X1073930D01*
Y105390D01*
X1073076Y108580D01*
X1071425Y111439D01*
X1069090Y113774D01*
X1066231Y115425D01*
X1063041Y116279D01*
D02*
G37*
G36*
X1060120D02*
X1059739D01*
X1056550Y115425D01*
X1053691Y113774D01*
X1051356Y111439D01*
X1049705Y108580D01*
X1048850Y105390D01*
Y105009D01*
X1060120D01*
Y116279D01*
D02*
G37*
G36*
X355540Y109730D02*
X345270D01*
Y104960D01*
X355540D01*
Y109730D01*
D02*
G37*
G36*
X342730D02*
X332460D01*
Y104960D01*
X342730D01*
Y109730D01*
D02*
G37*
G36*
X1008104Y115239D02*
X1005076D01*
X1002151Y114456D01*
X999529Y112942D01*
X997388Y110801D01*
X995874Y108178D01*
X995090Y105253D01*
Y102225D01*
X995874Y99300D01*
X997388Y96678D01*
X999529Y94537D01*
X1002151Y93023D01*
X1005076Y92239D01*
X1008104D01*
X1011029Y93023D01*
X1013652Y94537D01*
X1015793Y96678D01*
X1017307Y99300D01*
X1018090Y102225D01*
Y105253D01*
X1017307Y108178D01*
X1015793Y110801D01*
X1013652Y112942D01*
X1011029Y114456D01*
X1008104Y115239D01*
D02*
G37*
G36*
X980704D02*
X977676D01*
X974752Y114456D01*
X972129Y112942D01*
X969988Y110801D01*
X968474Y108178D01*
X967690Y105253D01*
Y102225D01*
X968474Y99300D01*
X969988Y96678D01*
X972129Y94537D01*
X974752Y93023D01*
X977676Y92239D01*
X980704D01*
X983629Y93023D01*
X986252Y94537D01*
X988393Y96678D01*
X989907Y99300D01*
X990690Y102225D01*
Y105253D01*
X989907Y108178D01*
X988393Y110801D01*
X986252Y112942D01*
X983629Y114456D01*
X980704Y115239D01*
D02*
G37*
G36*
X430535Y88740D02*
X430154D01*
X426965Y87885D01*
X424105Y86234D01*
X421771Y83900D01*
X420120Y81040D01*
X419762Y79707D01*
X418448D01*
X418090Y81040D01*
X416440Y83900D01*
X414105Y86234D01*
X411245Y87885D01*
X408056Y88740D01*
X407675D01*
Y76200D01*
Y63660D01*
X408056D01*
X411245Y64514D01*
X414105Y66165D01*
X416440Y68500D01*
X418090Y71360D01*
X418448Y72693D01*
X419762D01*
X420120Y71360D01*
X421771Y68500D01*
X424105Y66165D01*
X426965Y64514D01*
X430154Y63660D01*
X430535D01*
Y76200D01*
Y88740D01*
D02*
G37*
G36*
X433456D02*
X433075D01*
Y77470D01*
X444345D01*
Y77851D01*
X443490Y81040D01*
X441839Y83900D01*
X439505Y86234D01*
X436645Y87885D01*
X433456Y88740D01*
D02*
G37*
G36*
X405135Y88740D02*
X404754D01*
X401565Y87885D01*
X398705Y86234D01*
X396371Y83900D01*
X394720Y81040D01*
X393865Y77851D01*
Y77470D01*
X405135D01*
Y88740D01*
D02*
G37*
G36*
X458719Y87700D02*
X455691D01*
X452766Y86916D01*
X450144Y85402D01*
X448003Y83261D01*
X446489Y80639D01*
X445705Y77714D01*
Y74686D01*
X446489Y71761D01*
X448003Y69139D01*
X450144Y66998D01*
X452766Y65483D01*
X455691Y64700D01*
X458719D01*
X461644Y65483D01*
X464266Y66998D01*
X466407Y69139D01*
X467921Y71761D01*
X468705Y74686D01*
Y77714D01*
X467921Y80639D01*
X466407Y83261D01*
X464266Y85402D01*
X461644Y86916D01*
X458719Y87700D01*
D02*
G37*
G36*
X382519D02*
X379491D01*
X376566Y86916D01*
X373944Y85402D01*
X371803Y83261D01*
X370289Y80639D01*
X369505Y77714D01*
Y74686D01*
X370289Y71761D01*
X371803Y69139D01*
X373944Y66998D01*
X376566Y65483D01*
X379491Y64700D01*
X382519D01*
X385444Y65483D01*
X388066Y66998D01*
X390207Y69139D01*
X391721Y71761D01*
X392505Y74686D01*
Y77714D01*
X391721Y80639D01*
X390207Y83261D01*
X388066Y85402D01*
X385444Y86916D01*
X382519Y87700D01*
D02*
G37*
G36*
X331719D02*
X328691D01*
X325766Y86916D01*
X323144Y85402D01*
X321003Y83261D01*
X319489Y80639D01*
X318705Y77714D01*
Y74686D01*
X319489Y71761D01*
X321003Y69139D01*
X323144Y66998D01*
X325766Y65483D01*
X328691Y64700D01*
X331719D01*
X334644Y65483D01*
X337266Y66998D01*
X339407Y69139D01*
X340921Y71761D01*
X341705Y74686D01*
Y77714D01*
X340921Y80639D01*
X339407Y83261D01*
X337266Y85402D01*
X334644Y86916D01*
X331719Y87700D01*
D02*
G37*
G36*
X509519Y87700D02*
X506491D01*
X503566Y86916D01*
X500944Y85402D01*
X498803Y83261D01*
X497289Y80639D01*
X496505Y77714D01*
Y74686D01*
X497289Y71761D01*
X498803Y69139D01*
X500944Y66997D01*
X503566Y65483D01*
X506491Y64700D01*
X509519D01*
X512444Y65483D01*
X515066Y66997D01*
X517207Y69139D01*
X518721Y71761D01*
X519505Y74686D01*
Y77714D01*
X518721Y80639D01*
X517207Y83261D01*
X515066Y85402D01*
X512444Y86916D01*
X509519Y87700D01*
D02*
G37*
G36*
X444345Y74930D02*
X433075D01*
Y63660D01*
X433456D01*
X436645Y64514D01*
X439505Y66165D01*
X441839Y68500D01*
X443490Y71360D01*
X444345Y74549D01*
Y74930D01*
D02*
G37*
G36*
X405135Y74930D02*
X393865D01*
Y74549D01*
X394720Y71360D01*
X396371Y68500D01*
X398705Y66165D01*
X401565Y64514D01*
X404754Y63660D01*
X405135D01*
Y74930D01*
D02*
G37*
G36*
X357119Y87700D02*
X354091D01*
X351166Y86916D01*
X348544Y85402D01*
X346403Y83261D01*
X344889Y80639D01*
X344105Y77714D01*
Y74686D01*
X344889Y71761D01*
X346403Y69139D01*
X346619Y68923D01*
X342780Y65083D01*
X341896Y63760D01*
X341854Y63551D01*
X338382Y60078D01*
X326694D01*
X315335Y71438D01*
X315521Y71761D01*
X316305Y74686D01*
Y77714D01*
X315521Y80639D01*
X314007Y83261D01*
X311866Y85402D01*
X309244Y86916D01*
X306319Y87700D01*
X303291D01*
X300366Y86916D01*
X297744Y85402D01*
X295603Y83261D01*
X294089Y80639D01*
X293992Y80278D01*
X290218D01*
X290121Y80639D01*
X288607Y83261D01*
X286466Y85402D01*
X283844Y86916D01*
X280919Y87700D01*
X277891D01*
X274966Y86916D01*
X272344Y85402D01*
X270203Y83261D01*
X268689Y80639D01*
X267905Y77714D01*
Y74686D01*
X268689Y71761D01*
X270203Y69139D01*
X272344Y66998D01*
X274966Y65483D01*
X277891Y64700D01*
X280919D01*
X283844Y65483D01*
X286466Y66998D01*
X288607Y69139D01*
X290121Y71761D01*
X290218Y72122D01*
X293992D01*
X294089Y71761D01*
X295603Y69139D01*
X297744Y66998D01*
X300366Y65483D01*
X303291Y64700D01*
X306319D01*
X309244Y65483D01*
X309567Y65670D01*
X322121Y53116D01*
X322121Y53116D01*
X323444Y52232D01*
X325005Y51922D01*
X325005Y51922D01*
X340071D01*
X340071Y51922D01*
X341632Y52232D01*
X342955Y53116D01*
X348548Y58709D01*
X348548Y58709D01*
X349432Y60032D01*
X349473Y60242D01*
X353965Y64734D01*
X354091Y64700D01*
X357119D01*
X360044Y65483D01*
X362666Y66998D01*
X364807Y69139D01*
X366321Y71761D01*
X367105Y74686D01*
Y77714D01*
X366321Y80639D01*
X364807Y83261D01*
X362666Y85402D01*
X360044Y86916D01*
X357119Y87700D01*
D02*
G37*
G36*
X141423Y93699D02*
X137976D01*
X134595Y93027D01*
X131410Y91707D01*
X128544Y89792D01*
X126106Y87355D01*
X124191Y84489D01*
X122872Y81304D01*
X122199Y77923D01*
Y74476D01*
X122872Y71095D01*
X124191Y67910D01*
X126106Y65044D01*
X128544Y62606D01*
X131410Y60691D01*
X134595Y59372D01*
X137976Y58699D01*
X141423D01*
X144804Y59372D01*
X147989Y60691D01*
X150855Y62606D01*
X153292Y65044D01*
X155208Y67910D01*
X156527Y71095D01*
X157199Y74476D01*
Y77923D01*
X156527Y81304D01*
X155208Y84489D01*
X153292Y87355D01*
X150855Y89792D01*
X147989Y91707D01*
X144804Y93027D01*
X141423Y93699D01*
D02*
G37*
G36*
X717483Y31775D02*
X700483D01*
Y9775D01*
X717483D01*
Y31775D01*
D02*
G37*
%LPD*%
G36*
X218981Y495798D02*
X218691Y494077D01*
X218680Y494070D01*
X217912Y492919D01*
X217642Y491562D01*
Y489270D01*
X224000D01*
Y486730D01*
X217642D01*
Y484437D01*
X217912Y483081D01*
X217230Y481815D01*
X216714Y481665D01*
X216561Y481768D01*
X215000Y482078D01*
X215000Y482078D01*
X206814D01*
X206386Y482636D01*
X205028Y483678D01*
X203447Y484333D01*
X201989Y484525D01*
X201750Y484624D01*
X200750D01*
X200000Y484313D01*
X199841Y484379D01*
X199250Y484624D01*
X198251Y484624D01*
X198250Y484624D01*
X198250Y484624D01*
X198011Y484525D01*
X196553Y484333D01*
X194972Y483678D01*
X193614Y482636D01*
X193186Y482078D01*
X179000D01*
X179000Y482078D01*
X178553Y481990D01*
X177928Y483160D01*
X190789Y496022D01*
X218812D01*
X218981Y495798D01*
D02*
G37*
G36*
X199250Y483000D02*
Y473000D01*
X198250D01*
X193250Y478000D01*
X198250Y483000D01*
X199250Y483000D01*
D02*
G37*
G36*
X206750Y478000D02*
X201750Y473000D01*
X200750Y473000D01*
Y483000D01*
X201750D01*
X206750Y478000D01*
D02*
G37*
G36*
X1355000Y431750D02*
X1355000Y430750D01*
X1345000D01*
Y431750D01*
X1350000Y436750D01*
X1355000Y431750D01*
D02*
G37*
G36*
X1355000Y428250D02*
X1350000Y423250D01*
X1345000Y428250D01*
X1345000Y429250D01*
X1355000D01*
Y428250D01*
D02*
G37*
G36*
X1263350Y401363D02*
Y391363D01*
X1262350D01*
X1257350Y396363D01*
X1262350Y401364D01*
X1263350Y401363D01*
D02*
G37*
G36*
X1270850Y396363D02*
X1265850Y391363D01*
X1264850Y391363D01*
Y401363D01*
X1265850D01*
X1270850Y396363D01*
D02*
G37*
G36*
X1263350Y386313D02*
Y376313D01*
X1262350D01*
X1257350Y381313D01*
X1262350Y386314D01*
X1263350Y386313D01*
D02*
G37*
G36*
X1270850Y381313D02*
X1265850Y376313D01*
X1264850Y376313D01*
Y386313D01*
X1265850D01*
X1270850Y381313D01*
D02*
G37*
G36*
X1355000Y326750D02*
X1355000Y325750D01*
X1345000D01*
Y326750D01*
X1350000Y331750D01*
X1355000Y326750D01*
D02*
G37*
G36*
X1355000Y323250D02*
X1350000Y318250D01*
X1345000Y323250D01*
X1345000Y324250D01*
X1355000D01*
Y323250D01*
D02*
G37*
G36*
X759322Y287507D02*
X759674Y287437D01*
X760924Y286187D01*
Y283260D01*
X760356Y282929D01*
X759654Y282733D01*
X758751Y283336D01*
X757483Y283589D01*
X756215Y283336D01*
X755140Y282618D01*
X754577D01*
X754076Y283368D01*
X752657Y284316D01*
X752253Y284396D01*
Y274025D01*
X750983D01*
Y272755D01*
X746609D01*
Y267775D01*
X746942Y266101D01*
X747085Y265887D01*
X746406Y264617D01*
X708180D01*
X707654Y265887D01*
X729689Y287922D01*
X758702D01*
X759322Y287507D01*
D02*
G37*
%LPC*%
G36*
X749713Y284396D02*
X749309Y284316D01*
X747890Y283368D01*
X746942Y281949D01*
X746609Y280275D01*
Y275295D01*
X749713D01*
Y284396D01*
D02*
G37*
%LPD*%
G36*
X1168290Y165489D02*
X1168290Y164489D01*
X1158290D01*
Y165489D01*
X1163290Y170489D01*
X1168290Y165489D01*
D02*
G37*
G36*
X1168290Y161990D02*
X1163290Y156989D01*
X1158290Y161990D01*
X1158290Y162989D01*
X1168290D01*
Y161990D01*
D02*
G37*
D10*
X-1000Y153000D02*
Y222000D01*
D11*
X323500Y214000D02*
G03*
X323500Y222000I0J4000D01*
G01*
X320000D02*
G03*
X320000Y214000I0J-4000D01*
G01*
X278224Y213906D02*
G03*
X278224Y221906I0J4000D01*
G01*
X274724D02*
G03*
X274724Y213906I0J-4000D01*
G01*
X1346000Y323250D02*
G03*
X1354000Y323250I4000J0D01*
G01*
Y326750D02*
G03*
X1346000Y326750I-4000J0D01*
G01*
X198250Y482000D02*
G03*
X198250Y474000I0J-4000D01*
G01*
X201750D02*
G03*
X201750Y482000I0J4000D01*
G01*
X1167290Y165489D02*
G03*
X1159290Y165489I-4000J0D01*
G01*
Y161989D02*
G03*
X1167290Y161989I4000J0D01*
G01*
X1346000Y428250D02*
G03*
X1354000Y428250I4000J0D01*
G01*
Y431750D02*
G03*
X1346000Y431750I-4000J0D01*
G01*
X1262350Y400363D02*
G03*
X1262350Y392363I0J-4000D01*
G01*
X1265850D02*
G03*
X1265850Y400363I0J4000D01*
G01*
X1262350Y385313D02*
G03*
X1262350Y377313I0J-4000D01*
G01*
X1265850D02*
G03*
X1265850Y385313I0J4000D01*
G01*
X1102917Y333597D02*
Y344133D01*
X1107917Y333597D02*
Y344133D01*
X1087917Y333597D02*
Y341900D01*
X1085684Y344133D02*
X1087917Y341900D01*
X1092917Y333597D02*
Y342617D01*
X1094434Y344133D01*
X244000Y500100D02*
X244900Y501000D01*
X1046184Y413233D02*
X1046195Y413222D01*
X1065422D02*
X1065434Y413210D01*
X1071820Y309597D02*
X1078917D01*
X1069184Y312233D02*
X1071820Y309597D01*
X1078917Y295597D02*
Y304597D01*
Y314597D02*
Y319597D01*
X1069184D02*
X1078917D01*
X1097917Y314597D02*
X1116917D01*
X1126820Y312233D02*
X1127084D01*
X1124184Y309597D02*
X1126820Y312233D01*
X1116917Y309597D02*
X1124184D01*
X1116917Y304597D02*
X1127084D01*
D12*
X0Y10165D02*
G03*
X10165Y0I10165J0D01*
G01*
X1365000Y625000D02*
G03*
X1355000Y635000I-10000J0D01*
G01*
X9726Y635000D02*
G03*
X0Y625274I0J-9726D01*
G01*
X1355314Y269564D02*
G03*
X1365000Y279250I0J9686D01*
G01*
X1213316Y269564D02*
G03*
X1200616Y256864I0J-12700D01*
G01*
X1187916Y0D02*
G03*
X1200616Y12700I0J12700D01*
G01*
X0Y10165D02*
Y625274D01*
X10165Y0D02*
X907093D01*
X9726Y635000D02*
X1355000Y635000D01*
X1365000Y624840D02*
X1365000Y279250D01*
X1200616Y12700D02*
Y256864D01*
X1365000Y279250D02*
Y281877D01*
X1213316Y269564D02*
X1355314D01*
X1180429Y0D02*
X1187916D01*
X907093D02*
X1180429D01*
D16*
X144340Y151000D02*
D03*
Y156000D02*
D03*
Y146000D02*
D03*
X127660D02*
D03*
Y151000D02*
D03*
Y156000D02*
D03*
D17*
X88001Y177652D02*
D03*
X88001Y187647D02*
D03*
X96000Y138000D02*
D03*
X96000Y128000D02*
D03*
D18*
X133000Y188000D02*
D03*
X123000Y188000D02*
D03*
D19*
X724983Y152275D02*
D03*
X781983D02*
D03*
D20*
X738883Y154525D02*
D03*
D21*
X716883Y43675D02*
D03*
X727883D02*
D03*
X738883Y41675D02*
D03*
X749883Y43675D02*
D03*
X760883Y41675D02*
D03*
X771883Y43675D02*
D03*
X782883Y47675D02*
D03*
X793883Y43675D02*
D03*
D22*
X708983Y20775D02*
D03*
X840483Y10775D02*
D03*
D23*
X28000Y188000D02*
D03*
D24*
Y144500D02*
D03*
Y231800D02*
D03*
D25*
X188406Y335000D02*
D03*
Y365000D02*
D03*
X288656D02*
D03*
Y335000D02*
D03*
D26*
X216906Y350000D02*
D03*
X257906D02*
D03*
D27*
X158000Y156090D02*
D03*
Y140090D02*
D03*
X1046184Y429233D02*
D03*
Y413233D02*
D03*
X1143670Y397210D02*
D03*
Y413210D02*
D03*
X1061184Y304233D02*
D03*
Y320233D02*
D03*
X1163000Y212485D02*
D03*
Y228485D02*
D03*
X1145000Y212485D02*
D03*
Y228485D02*
D03*
X890000Y229485D02*
D03*
Y213485D02*
D03*
X335000Y481000D02*
D03*
Y497000D02*
D03*
X367000Y204000D02*
D03*
Y188000D02*
D03*
X1215700Y382864D02*
D03*
Y398863D02*
D03*
D28*
X96000Y155000D02*
D03*
X112000D02*
D03*
X1248460Y413227D02*
D03*
X1232460D02*
D03*
X1248460Y398363D02*
D03*
X1232460D02*
D03*
X1248460Y381238D02*
D03*
X1232460D02*
D03*
X1248460Y365238D02*
D03*
X1232460D02*
D03*
X1139384Y339483D02*
D03*
X1155384D02*
D03*
X1129166Y287003D02*
D03*
X1145166D02*
D03*
X224000Y488000D02*
D03*
X240000D02*
D03*
X774483Y294275D02*
D03*
X790483D02*
D03*
X806483Y198275D02*
D03*
X790483D02*
D03*
D29*
X190036Y148188D02*
D03*
Y138188D02*
D03*
Y128188D02*
D03*
X214036D02*
D03*
Y138188D02*
D03*
Y148188D02*
D03*
D30*
X249000Y111000D02*
D03*
Y199000D02*
D03*
X344000D02*
D03*
Y111000D02*
D03*
D31*
X249000Y122000D02*
D03*
Y133000D02*
D03*
Y144000D02*
D03*
Y155000D02*
D03*
Y166000D02*
D03*
Y177000D02*
D03*
Y188000D02*
D03*
X344000D02*
D03*
Y177000D02*
D03*
Y166000D02*
D03*
Y155000D02*
D03*
Y144000D02*
D03*
Y133000D02*
D03*
Y122000D02*
D03*
D32*
X986500Y229985D02*
D03*
Y210985D02*
D03*
X1009500Y220485D02*
D03*
D33*
X1115000Y207985D02*
D03*
Y232985D02*
D03*
X1041000Y207985D02*
D03*
Y232985D02*
D03*
D34*
X1125434Y374210D02*
D03*
Y380710D02*
D03*
Y387210D02*
D03*
Y393710D02*
D03*
Y400210D02*
D03*
Y406710D02*
D03*
Y413210D02*
D03*
Y419710D02*
D03*
X1065434Y374210D02*
D03*
Y380710D02*
D03*
Y387210D02*
D03*
Y393710D02*
D03*
Y400210D02*
D03*
Y406710D02*
D03*
Y413210D02*
D03*
Y419710D02*
D03*
D35*
X1102917Y333597D02*
D03*
X1097917D02*
D03*
X1107917D02*
D03*
X1087917Y295597D02*
D03*
Y333597D02*
D03*
X1092917D02*
D03*
X1107917Y295597D02*
D03*
X1102917D02*
D03*
X1097917D02*
D03*
X1092917D02*
D03*
D36*
X1116917Y324597D02*
D03*
Y319597D02*
D03*
Y314597D02*
D03*
X1078917Y324597D02*
D03*
X1116917Y309597D02*
D03*
Y304597D02*
D03*
X1078917Y309597D02*
D03*
Y304597D02*
D03*
Y319597D02*
D03*
Y314597D02*
D03*
D37*
X1097917D02*
D03*
D38*
X965500Y202785D02*
D03*
Y215485D02*
D03*
Y228185D02*
D03*
Y240885D02*
D03*
X911000Y202785D02*
D03*
Y215485D02*
D03*
Y228185D02*
D03*
Y240885D02*
D03*
D39*
X316750Y481500D02*
D03*
Y488000D02*
D03*
Y494500D02*
D03*
Y501000D02*
D03*
Y507500D02*
D03*
Y514000D02*
D03*
Y520500D02*
D03*
X259250Y481500D02*
D03*
Y488000D02*
D03*
Y494500D02*
D03*
Y501000D02*
D03*
Y507500D02*
D03*
Y514000D02*
D03*
Y520500D02*
D03*
D40*
X789983Y274025D02*
D03*
X783483D02*
D03*
X776983D02*
D03*
X770483D02*
D03*
X763983D02*
D03*
X757483D02*
D03*
X750983D02*
D03*
X789983Y216525D02*
D03*
X783483D02*
D03*
X776983D02*
D03*
X770483D02*
D03*
X763983D02*
D03*
X757483D02*
D03*
X750983D02*
D03*
D41*
X1166784Y321483D02*
D03*
Y303483D02*
D03*
X1144784Y321483D02*
D03*
Y303483D02*
D03*
D42*
X325500Y218000D02*
D03*
X318000D02*
D03*
X280224Y217906D02*
D03*
X272724D02*
D03*
X1350000Y321250D02*
D03*
Y328750D02*
D03*
X196250Y478000D02*
D03*
X203750D02*
D03*
X1163290Y167489D02*
D03*
Y159989D02*
D03*
X1350000Y426250D02*
D03*
Y433750D02*
D03*
X1260350Y396363D02*
D03*
X1267850D02*
D03*
X1260350Y381313D02*
D03*
X1267850D02*
D03*
X215016Y199500D02*
D03*
Y177320D02*
D03*
X197591Y199500D02*
D03*
X198000Y177000D02*
D03*
X178000Y199500D02*
D03*
Y177000D02*
D03*
X158000Y199500D02*
D03*
Y177000D02*
D03*
X137699Y199500D02*
D03*
X1175250Y212485D02*
D03*
X1166429Y179293D02*
D03*
X1336068Y310000D02*
D03*
X694537Y317999D02*
D03*
Y211000D02*
D03*
X75735Y216890D02*
D03*
X1340500Y416000D02*
D03*
X1046184Y440544D02*
D03*
X1140108Y350001D02*
D03*
X98000Y177096D02*
D03*
X77904D02*
D03*
X293655Y534634D02*
D03*
X773688Y307275D02*
D03*
X300000Y218000D02*
D03*
X422000Y171000D02*
D03*
X452000Y156000D02*
D03*
X510000Y165000D02*
D03*
X380000Y204000D02*
D03*
X231000Y177000D02*
D03*
Y199500D02*
D03*
X189536Y118000D02*
D03*
X75735Y159367D02*
D03*
X72869Y144500D02*
D03*
Y231800D02*
D03*
X77904Y199500D02*
D03*
X98000D02*
D03*
X118000D02*
D03*
X137699Y177000D02*
D03*
X118000D02*
D03*
X242500Y475500D02*
D03*
X346600Y500100D02*
D03*
X278000Y475500D02*
D03*
X213365Y488000D02*
D03*
X274000Y494500D02*
D03*
X1350000Y344150D02*
D03*
X738883Y274121D02*
D03*
X819494Y198275D02*
D03*
X1111184Y389233D02*
D03*
X1111184Y399233D02*
D03*
X1085684Y344133D02*
D03*
X1094434D02*
D03*
X1061184Y330433D02*
D03*
Y291483D02*
D03*
X1143670Y385472D02*
D03*
Y422370D02*
D03*
X1215700Y410569D02*
D03*
X1023487Y220485D02*
D03*
X890000Y202485D02*
D03*
Y240085D02*
D03*
X783633Y168275D02*
D03*
X768453Y187745D02*
D03*
X804483Y168275D02*
D03*
X354600Y491000D02*
D03*
X1091917Y320597D02*
D03*
Y308597D02*
D03*
X1103917Y320597D02*
D03*
Y308597D02*
D03*
X1097917Y314597D02*
D03*
D43*
X1151394Y530873D02*
D03*
X1178794D02*
D03*
X1206194D02*
D03*
X1233594D02*
D03*
X1247294Y505473D02*
D03*
X1165094D02*
D03*
X1192494D02*
D03*
X1219894D02*
D03*
X1137694D02*
D03*
X1061390Y103739D02*
D03*
X1033990D02*
D03*
X1006590D02*
D03*
X979190D02*
D03*
X965490Y129139D02*
D03*
X1047690D02*
D03*
X1020290D02*
D03*
X992890D02*
D03*
X1075090D02*
D03*
X187965Y558800D02*
D03*
X213365D02*
D03*
X238765D02*
D03*
X264165D02*
D03*
X289565D02*
D03*
X314965D02*
D03*
X340365D02*
D03*
X365765D02*
D03*
X391165D02*
D03*
X416565D02*
D03*
X457205Y558800D02*
D03*
X482605D02*
D03*
X508005D02*
D03*
X533405D02*
D03*
X558805D02*
D03*
X584205D02*
D03*
X609605D02*
D03*
X635005D02*
D03*
X279405Y76200D02*
D03*
X304805D02*
D03*
X330205D02*
D03*
X355605D02*
D03*
X381005D02*
D03*
X406405Y76200D02*
D03*
X431805Y76200D02*
D03*
X457205D02*
D03*
X508005Y76200D02*
D03*
X533405D02*
D03*
X558805D02*
D03*
X584205D02*
D03*
X609605D02*
D03*
X635005D02*
D03*
X685805Y558800D02*
D03*
X711205D02*
D03*
X736605D02*
D03*
X762005D02*
D03*
X787405D02*
D03*
X812805D02*
D03*
X838205D02*
D03*
X863605D02*
D03*
X187965Y457200D02*
D03*
X213365D02*
D03*
X238765D02*
D03*
X264165D02*
D03*
X289565D02*
D03*
X314965D02*
D03*
X340365D02*
D03*
X365765D02*
D03*
X391165D02*
D03*
X416565D02*
D03*
X441965D02*
D03*
X467365D02*
D03*
X492765Y457316D02*
D03*
X661670Y304800D02*
D03*
Y330200D02*
D03*
Y355600D02*
D03*
X965200Y533400D02*
D03*
Y508000D02*
D03*
Y482600D02*
D03*
Y457200D02*
D03*
Y431800D02*
D03*
Y406400D02*
D03*
Y381000D02*
D03*
Y355600D02*
D03*
Y330200D02*
D03*
Y304800D02*
D03*
X939800Y533400D02*
D03*
Y508000D02*
D03*
Y482600D02*
D03*
Y457200D02*
D03*
Y431800D02*
D03*
Y406400D02*
D03*
Y381000D02*
D03*
Y355600D02*
D03*
Y330200D02*
D03*
Y304800D02*
D03*
X636270Y304800D02*
D03*
Y330200D02*
D03*
Y355600D02*
D03*
D44*
X1067494Y517873D02*
D03*
X1317494D02*
D03*
X1145290Y116739D02*
D03*
X895290D02*
D03*
D45*
X901699Y558800D02*
D03*
X139699Y76199D02*
D03*
X1282699Y462999D02*
D03*
X660399Y406399D02*
D03*
X139699Y558799D02*
D03*
X660399Y127999D02*
D03*
D46*
X121152Y354000D02*
D03*
X465300Y244000D02*
D03*
X516100D02*
D03*
X490700D02*
D03*
D47*
X91152Y354000D02*
D03*
X439900Y244000D02*
D03*
D48*
X150000Y423900D02*
D03*
D49*
Y449300D02*
D03*
Y500100D02*
D03*
Y474700D02*
D03*
D50*
X397400Y346000D02*
D03*
X372000D02*
D03*
X346600D02*
D03*
D51*
X439000Y192000D02*
D03*
X465300Y192000D02*
D03*
X490700Y192000D02*
D03*
D52*
X439000Y181500D02*
D03*
Y202500D02*
D03*
X465300Y181500D02*
D03*
Y202500D02*
D03*
X490700Y181500D02*
D03*
Y202500D02*
D03*
D53*
X1196921Y549000D02*
X1242653D01*
X1328000Y406363D02*
Y463653D01*
X1242653Y549000D02*
X1328000Y463653D01*
X432365Y600000D02*
X941000D01*
X937808Y591000D02*
X990000Y538808D01*
X397565Y616000D02*
X946000D01*
X382165Y626000D02*
X947200D01*
X340365Y558800D02*
X397565Y616000D01*
X1005000Y411000D02*
Y547000D01*
X946000Y616000D02*
X1013000Y549000D01*
X941000Y600000D02*
X998000Y543000D01*
X414965Y608000D02*
X944000D01*
X990000Y399000D02*
X1008290Y380710D01*
X944000Y608000D02*
X1005000Y547000D01*
X314965Y558800D02*
X382165Y626000D01*
X990000Y399000D02*
Y538808D01*
X998000Y403000D02*
Y543000D01*
Y403000D02*
X1007523Y393477D01*
X947200Y626000D02*
X1021000Y552200D01*
X533405Y97405D02*
X728000Y292000D01*
X533405Y76200D02*
Y97405D01*
X728000Y292000D02*
X760158D01*
X769683Y232975D02*
X793883D01*
X783483Y256890D02*
Y257275D01*
X561000Y114895D02*
X706643Y260538D01*
X768617D01*
X712673Y247275D02*
X773867D01*
X763983Y227275D02*
X769683Y232975D01*
X609605Y144207D02*
X712673Y247275D01*
X768617Y260538D02*
X770353Y262275D01*
X561000Y78395D02*
Y114895D01*
X609605Y76200D02*
Y144207D01*
X709336Y254038D02*
X771439D01*
X758283Y240275D02*
X785383D01*
X750983Y232975D02*
X758283Y240275D01*
X771439Y254038D02*
X776983Y259583D01*
X773867Y247275D02*
X783483Y256890D01*
X789983Y244875D02*
Y262275D01*
X785383Y240275D02*
X789983Y244875D01*
X584205Y128908D02*
X709336Y254038D01*
X793883Y232975D02*
X799483Y227375D01*
X584205Y76200D02*
Y128908D01*
X1021000Y431000D02*
Y552200D01*
X1013000Y417000D02*
Y549000D01*
X181187Y147688D02*
X189536D01*
X177500Y144000D02*
X181187Y147688D01*
X177500Y138000D02*
Y144000D01*
X204000Y144500D02*
X207188Y147688D01*
X204000Y118000D02*
Y144500D01*
Y118000D02*
X220000Y102000D01*
X135999Y153000D02*
Y157276D01*
X144723Y166000D01*
X169404Y129904D02*
X177500Y138000D01*
X144723Y166000D02*
X249000D01*
X88001Y172395D02*
Y177002D01*
X87999Y172393D02*
X88001Y172395D01*
X87999Y163001D02*
Y172393D01*
X1067494Y517873D02*
X1113534Y563913D01*
X1271455D02*
X1317494Y517873D01*
X1113534Y563913D02*
X1271455D01*
X1178794Y530873D02*
X1196921Y549000D01*
X1186416Y350001D02*
Y484151D01*
X1165094Y505473D02*
X1186416Y484151D01*
Y350001D02*
X1267001D01*
X1145000Y250485D02*
X1186416Y291901D01*
Y350001D01*
X1195252Y332668D02*
X1204484Y341900D01*
X1195252Y288202D02*
Y332668D01*
X1204484Y341900D02*
X1271963D01*
X1163000Y255950D02*
X1195252Y288202D01*
X1271963Y341900D02*
X1292925Y362862D01*
X1145000Y228485D02*
Y250485D01*
X1163000Y228485D02*
Y255950D01*
X1267001Y350001D02*
X1277705Y360705D01*
X954000Y261485D02*
X1058399D01*
X1078917Y282003D01*
X1012684Y271733D02*
X1053184Y312233D01*
X1033990Y312467D02*
Y358233D01*
X1004523Y283000D02*
X1033990Y312467D01*
X918000Y283000D02*
X1004523D01*
X1008290Y380710D02*
X1050184D01*
X1033990Y358233D02*
X1049967Y374210D01*
X1007523Y393477D02*
X1050184D01*
X1016023Y399977D02*
X1049950D01*
X1050184Y400210D01*
X1023523Y406477D02*
X1036404D01*
X1036411Y406483D01*
X934619Y271733D02*
X1012684D01*
X1144784Y303483D02*
X1144975Y303292D01*
X1143670Y304597D02*
X1144784Y303483D01*
X1144975Y287194D02*
Y303292D01*
Y287194D02*
X1145166Y287003D01*
X190036Y128188D02*
Y138188D01*
X944000Y251485D02*
X954000Y261485D01*
X913770Y240885D02*
X914270Y241385D01*
X911000Y240885D02*
X913770D01*
X914270Y241385D02*
Y251385D01*
X934619Y271733D01*
X1292925Y362862D02*
Y371288D01*
X1272630Y377313D02*
X1277705Y372238D01*
X1271850Y377313D02*
X1272630D01*
X1277705Y360705D02*
Y372238D01*
X1267850Y381313D02*
X1271850Y377313D01*
X1047690Y154789D02*
X1079400Y186498D01*
Y216885D01*
X1047690Y129139D02*
Y154789D01*
X1115000Y175884D02*
Y207985D01*
X1099290Y160175D02*
X1115000Y175884D01*
X1099290Y110739D02*
Y160175D01*
X1166429Y179023D02*
Y179293D01*
X1163290Y167489D02*
Y175884D01*
X1166429Y179023D01*
X1350000Y314250D02*
Y321250D01*
X1336260Y310191D02*
X1345941D01*
X1350000Y314250D01*
X1336068Y310000D02*
X1336260Y310191D01*
X1128271Y228485D02*
X1145000D01*
X1122750Y220485D02*
X1138000D01*
X1117750Y215485D02*
X1122750Y220485D01*
X1117750Y210735D02*
Y215485D01*
X717538Y341000D02*
X860000D01*
X1049967Y374210D02*
X1065434D01*
X860000Y341000D02*
X918000Y283000D01*
X657000Y481000D02*
X717538Y420462D01*
Y341000D02*
Y420462D01*
X738883Y128000D02*
Y154525D01*
X687083Y76200D02*
X738883Y128000D01*
X727883Y68558D02*
X749483Y90158D01*
Y187275D01*
X727883Y43675D02*
Y68558D01*
X732758Y216525D02*
X749483D01*
X727233Y211000D02*
X732758Y216525D01*
X694537Y211000D02*
X727233D01*
X760158Y292000D02*
X760883Y291275D01*
X694537Y317999D02*
X717538Y341000D01*
X1340500Y416000D02*
X1350000Y425500D01*
Y426250D01*
X274565Y205500D02*
X279405Y200660D01*
X274402Y205500D02*
X274565D01*
X265724Y214178D02*
Y217059D01*
X266571Y217906D02*
X272724D01*
X265724Y217059D02*
X266571Y217906D01*
X265724Y214178D02*
X274402Y205500D01*
X299906Y217906D02*
X300000Y218000D01*
X280224Y217906D02*
X299906D01*
X214036Y138188D02*
X214536Y138687D01*
X222598D01*
X234910Y150999D02*
Y153500D01*
X222598Y138687D02*
X234910Y150999D01*
X234501Y153500D02*
X234910D01*
X247500D01*
X207188Y147688D02*
X213536D01*
X214036Y148188D01*
X189536Y147688D02*
X190036Y148188D01*
X176000Y158000D02*
X230001D01*
X234501Y153500D01*
X171000Y153000D02*
X176000Y158000D01*
X171000Y146090D02*
Y153000D01*
X300000Y218000D02*
X318000D01*
X335363Y507363D02*
X340365Y512365D01*
X335365Y536000D02*
X340365Y531000D01*
Y512365D02*
Y531000D01*
X150000Y474700D02*
X182800Y507500D01*
X157660Y459359D02*
X164160Y465859D01*
Y475160D01*
X157660Y458356D02*
Y459359D01*
X150000Y423900D02*
X172000Y445900D01*
X150000Y450696D02*
X157660Y458356D01*
X28000Y231800D02*
X28000Y231800D01*
X427000Y171000D02*
X437500Y181500D01*
X422000Y171000D02*
X427000D01*
X437500Y181500D02*
X439000D01*
X465300Y181500D02*
X465300Y181500D01*
Y169300D02*
Y181500D01*
X452000Y156000D02*
X465300Y169300D01*
X411000Y133000D02*
X453000Y175000D01*
Y187000D01*
X344000Y133000D02*
X411000D01*
X493629Y165000D02*
X510000D01*
X490700Y167929D02*
Y181500D01*
Y167929D02*
X493629Y165000D01*
X490700Y202500D02*
Y244000D01*
X465300Y202500D02*
Y244000D01*
X439450Y243550D02*
X439900Y244000D01*
X439000Y202500D02*
X439450Y202950D01*
Y243550D01*
X482500Y192000D02*
X490700D01*
X478000Y187500D02*
X482500Y192000D01*
X478000Y165000D02*
Y187500D01*
X435000Y122000D02*
X478000Y165000D01*
X344000Y122000D02*
X435000D01*
X453000Y187000D02*
X458000Y192000D01*
X465300D01*
X406405Y76200D02*
X406405Y76200D01*
X417000Y192000D02*
X439000D01*
X413000Y188000D02*
X417000Y192000D01*
X367000Y188000D02*
X413000D01*
X366250Y204000D02*
X367000D01*
X279405Y121500D02*
Y200660D01*
X268905Y111000D02*
X279405Y121500D01*
X249000Y111000D02*
X268905D01*
X293000Y113000D02*
Y143590D01*
X282000Y102000D02*
X293000Y113000D01*
X220000Y102000D02*
X282000D01*
X344000Y199000D02*
Y213000D01*
X339000Y218000D02*
X344000Y213000D01*
X325500Y218000D02*
X339000D01*
X367000Y188000D02*
X367000Y188000D01*
X344000Y188000D02*
X367000D01*
X344000Y177000D02*
Y188000D01*
X121686Y129904D02*
X169404D01*
X111644Y139946D02*
X121686Y129904D01*
X97054Y139946D02*
X111644D01*
X304410Y155000D02*
X344000D01*
X293000Y143590D02*
X304410Y155000D01*
X247500Y153500D02*
X249000Y155000D01*
X165000Y140090D02*
X171000Y146090D01*
X158000Y140090D02*
X165000D01*
X96000Y141000D02*
X97054Y139946D01*
X96000Y155000D02*
Y155750D01*
X91678Y160072D02*
X96000Y155750D01*
X96000Y141000D02*
Y155000D01*
X96000Y155000D02*
X96000Y155000D01*
X90928Y160072D02*
X91678D01*
X87999Y163001D02*
X90928Y160072D01*
X248500Y199500D02*
X249000Y199000D01*
X242500Y475500D02*
X245750Y478750D01*
Y481500D01*
X335000Y481000D02*
X657000D01*
X355605Y72141D02*
Y76200D01*
X345664Y62200D02*
X355605Y72141D01*
X340071Y56000D02*
X345664Y61593D01*
X325005Y56000D02*
X340071D01*
X345664Y61593D02*
Y62200D01*
X304805Y76200D02*
X325005Y56000D01*
X279405Y76200D02*
X304805D01*
X335000Y497000D02*
X335000Y497000D01*
X1350000Y328750D02*
Y344150D01*
X1232460Y381614D02*
Y398363D01*
Y381238D02*
Y381614D01*
X1231210Y382864D02*
X1232460Y381614D01*
Y381238D02*
X1232460Y381238D01*
X1139384Y339483D02*
X1140592Y340692D01*
X1127084Y349233D02*
X1136084Y358233D01*
X1127084Y312233D02*
Y349233D01*
X1136084Y358233D02*
X1145855D01*
X1155113Y348975D01*
Y339754D02*
Y348975D01*
X1061184Y320233D02*
Y330433D01*
X1046184Y429233D02*
X1046934D01*
X1163000Y212485D02*
X1163000Y212485D01*
X1145000Y212485D02*
X1145000Y212485D01*
X890000Y202485D02*
Y213485D01*
X558805Y76200D02*
X561000Y78395D01*
X776983Y259583D02*
Y259775D01*
X271250Y515000D02*
Y515000D01*
Y514750D02*
Y515000D01*
X635005Y76200D02*
X687083D01*
X790483Y168275D02*
Y198275D01*
Y164275D02*
Y168275D01*
X783633D02*
X790483D01*
X768453Y187745D02*
X776983Y196275D01*
X749483Y187275D02*
X770483Y208275D01*
X799483Y191275D02*
X819483Y171275D01*
Y88275D02*
Y171275D01*
X788483Y57275D02*
X819483Y88275D01*
X806483Y92275D02*
Y166275D01*
X804483Y168275D02*
X806483Y166275D01*
X771883Y57675D02*
X806483Y92275D01*
X796483Y96275D02*
Y158275D01*
X790483Y164275D02*
X796483Y158275D01*
X761483Y61275D02*
X796483Y96275D01*
X771883Y43675D02*
Y57675D01*
X782883Y51175D02*
X783633Y51925D01*
X788483Y56775D01*
Y57275D01*
X738883Y41675D02*
X740383Y40175D01*
X749883Y43675D02*
Y68675D01*
X770483Y89275D02*
Y170275D01*
X749883Y68675D02*
X770483Y89275D01*
Y170275D02*
X776983Y176775D01*
X782883Y47675D02*
Y51175D01*
X799483Y207679D02*
Y227375D01*
X761483Y42275D02*
Y61275D01*
X312365Y536000D02*
X335365D01*
X329000Y507363D02*
X335363D01*
X179000Y478000D02*
X196250D01*
X172000Y471000D02*
X179000Y478000D01*
X215000D02*
X216000Y477000D01*
X203750Y478000D02*
X215000D01*
X240000Y487250D02*
Y488000D01*
X229750Y477000D02*
X240000Y487250D01*
X216000Y477000D02*
X229750D01*
X240000Y487250D02*
X245750Y481500D01*
X300000Y502000D02*
Y502000D01*
X271000Y531000D02*
X300000Y502000D01*
X271250Y514750D02*
X304404Y481596D01*
X255565Y542000D02*
X268808D01*
X241165Y531000D02*
X271000D01*
X289565Y558800D02*
X312365Y536000D01*
X172000Y445900D02*
Y471000D01*
X164160Y475160D02*
X189100Y500100D01*
X150000Y449300D02*
Y450696D01*
X189100Y500100D02*
X244000D01*
X182800Y507500D02*
X247000D01*
X213365Y558800D02*
X241165Y531000D01*
X238765Y558800D02*
X255565Y542000D01*
X1021000Y431000D02*
X1031000Y421000D01*
X1005000Y411000D02*
X1016023Y399977D01*
X1013000Y417000D02*
X1023523Y406477D01*
X391165Y558800D02*
X432365Y600000D01*
X448765Y591000D02*
X937808D01*
X365765Y558800D02*
X414965Y608000D01*
X416565Y558800D02*
X448765Y591000D01*
X1248460Y398363D02*
Y413227D01*
X1232460Y398363D02*
Y413227D01*
X1248460Y397613D02*
X1249710Y396363D01*
X1260350D01*
X1248460Y397613D02*
Y398363D01*
X1215700Y382864D02*
X1231210D01*
X1232460Y365238D02*
Y381238D01*
X1232460Y381238D01*
X1248460Y381238D02*
X1248460Y381238D01*
X1248460Y365238D02*
Y381238D01*
X1248535Y381313D02*
X1260350D01*
X1248460Y381238D02*
X1248535Y381313D01*
X1053184Y312233D02*
X1056184D01*
X1078917Y282003D02*
Y295597D01*
X911000Y202785D02*
X927000D01*
X944000Y219785D01*
Y251485D01*
X1061820Y319597D02*
X1069184D01*
X1061184Y320233D02*
X1061820Y319597D01*
X1155113Y339754D02*
X1155384Y339483D01*
X1127084Y304597D02*
X1143670D01*
X1164155Y300854D02*
X1166784Y303483D01*
X1130058Y287523D02*
X1130808Y288273D01*
X1146613Y288160D02*
Y288910D01*
X1166284Y321483D02*
Y334283D01*
X1161084Y339483D02*
X1166284Y334283D01*
X1155384Y339483D02*
X1161084D01*
X1139384Y338733D02*
Y339483D01*
Y338733D02*
X1140634Y337483D01*
X1267850Y396363D02*
X1292925Y371288D01*
X1328000Y406363D01*
Y513038D02*
Y515000D01*
X1350000Y433750D02*
Y491038D01*
X1328000Y513038D02*
X1350000Y491038D01*
X1094736Y66185D02*
X1145290Y116739D01*
X1090040Y66739D02*
X1090594Y66185D01*
X1094736D01*
X945290Y66739D02*
X1090040D01*
X895290Y116739D02*
X945290Y66739D01*
X1078290Y89739D02*
X1099290Y110739D01*
X1047990Y89739D02*
X1078290D01*
X1033990Y103739D02*
X1047990Y89739D01*
X1095500Y232985D02*
X1115000D01*
X1079400Y216885D02*
X1095500Y232985D01*
X904750Y213485D02*
X906750Y215485D01*
X890000Y213485D02*
X904750D01*
X906750Y215485D02*
X911000D01*
X906750Y228185D02*
X911000D01*
X988000Y229985D02*
X991000Y232985D01*
X1041000D01*
X986500Y229985D02*
X988000D01*
X971550D02*
X986500D01*
X969750Y228185D02*
X971550Y229985D01*
X965500Y228185D02*
X969750D01*
X965500Y215485D02*
X969750D01*
X974250Y210985D02*
X986500D01*
X969750Y215485D02*
X974250Y210985D01*
X991000Y207985D02*
X1041000D01*
X988000Y210985D02*
X991000Y207985D01*
X986500Y210985D02*
X988000D01*
X1161750Y227235D02*
X1163000Y228485D01*
X1153000Y220485D02*
X1154250D01*
X1161000Y227235D02*
X1161750D01*
X1154250Y220485D02*
X1161000Y227235D01*
X1115000Y207985D02*
X1117750Y210735D01*
X1123771Y232985D02*
X1128271Y228485D01*
X1115000Y232985D02*
X1123771D01*
X1145290Y116739D02*
Y126701D01*
X1163290Y144701D01*
Y159989D01*
D54*
X783483Y257275D02*
Y274025D01*
X770483Y262275D02*
Y274025D01*
X789983Y262275D02*
Y274025D01*
X782883Y47675D02*
X785383Y50175D01*
X127660Y151000D02*
X131035D01*
X1065434Y380710D02*
X1065434Y380710D01*
X1050184Y380710D02*
X1065434D01*
X1050184Y393710D02*
X1065434D01*
X1050184Y400210D02*
X1065434D01*
X1040717Y419710D02*
X1040990Y419983D01*
X1051650Y419710D02*
X1065434D01*
X1032290D02*
X1040717D01*
X1040990Y419983D02*
X1051377D01*
X1051650Y419710D01*
X749483Y216525D02*
X750983D01*
X763983Y274025D02*
Y288175D01*
Y267640D02*
Y274025D01*
X157910Y156000D02*
X158000Y156090D01*
X144340Y156000D02*
X157910D01*
X144340Y151000D02*
Y156000D01*
Y146000D02*
X151340D01*
X120250D02*
X127660D01*
Y156000D02*
X127830D01*
X112000Y154250D02*
Y155000D01*
Y154250D02*
X120250Y146000D01*
X151340D02*
X157250Y140090D01*
X158000D01*
X790078Y293871D02*
X790483Y294275D01*
X350788Y488000D02*
X353788Y491000D01*
X316750Y488000D02*
X350788D01*
X353788Y491000D02*
X354600D01*
X278000Y475500D02*
Y481250D01*
X271250Y488000D02*
X278000Y481250D01*
X259250Y488000D02*
X271250D01*
X259250Y494500D02*
X274000D01*
X1111184Y389233D02*
X1114910Y392960D01*
X1124684D02*
X1125434Y393710D01*
X1114910Y392960D02*
X1124684D01*
X1111184Y399233D02*
X1112160Y400210D01*
X1125434D01*
X1102917Y401597D02*
X1107280Y405960D01*
X1124684D02*
X1125434Y406710D01*
X1107280Y405960D02*
X1124684D01*
X1078917Y324597D02*
Y365472D01*
X1085684Y372238D02*
Y398363D01*
X1078917Y365472D02*
X1085684Y372238D01*
X1102917Y344133D02*
Y401597D01*
X776983Y259775D02*
Y274025D01*
X770483Y208275D02*
Y216525D01*
X799483Y191275D02*
Y207679D01*
X776983Y176775D02*
X783483Y183275D01*
Y216525D01*
X789983Y274025D02*
X790078Y274121D01*
Y293871D01*
X763983Y216525D02*
Y227275D01*
X760883Y41675D02*
X761483Y42275D01*
X790078Y207679D02*
X790483Y207275D01*
X789983Y216525D02*
X790078Y216429D01*
Y207679D02*
Y216429D01*
X790483Y198275D02*
Y207275D01*
X776983Y196275D02*
Y216525D01*
X316846Y507404D02*
X328959D01*
X329000Y507363D01*
X316750Y507500D02*
X316846Y507404D01*
X245750Y481500D02*
X259250D01*
X323135D02*
X323635Y481000D01*
X335000D01*
X316750Y481500D02*
X323135D01*
X259154Y520404D02*
X259250Y520500D01*
X304256Y506552D02*
X309712Y501096D01*
X316654D01*
X307500Y494500D02*
X316750D01*
X316654Y501096D02*
X316750Y501000D01*
X300000Y502000D02*
X307500Y494500D01*
X271217Y515000D02*
X271250D01*
X267467Y518750D02*
X271217Y515000D01*
X267385Y518750D02*
X267467D01*
X259346Y520404D02*
X265731D01*
X267385Y518750D01*
X304404Y481596D02*
X316654D01*
X259250Y520500D02*
X259346Y520404D01*
X316654Y481596D02*
X316750Y481500D01*
X268808Y542000D02*
X269282D01*
X316750Y507500D02*
X316846Y507596D01*
X244900Y501000D02*
X259250D01*
X247000Y507500D02*
X259250D01*
X1051377Y406483D02*
X1051604Y406710D01*
X1036411Y406483D02*
X1051377D01*
X1051604Y406710D02*
X1065434D01*
X1085684Y398363D02*
X1107030Y419710D01*
X1076581Y374210D02*
X1078917Y376546D01*
Y410233D01*
X1075940Y413210D02*
X1078917Y410233D01*
X1065434Y374210D02*
X1076581D01*
X1107917Y344133D02*
Y373280D01*
X1107030Y419710D02*
X1125434D01*
X1065434Y413210D02*
X1075940D01*
X1115097Y380460D02*
X1125184D01*
X1107917Y373280D02*
X1115097Y380460D01*
X1056184Y312233D02*
X1069184D01*
D55*
X133999Y151000D02*
X135999Y153000D01*
X131035Y151000D02*
X133999D01*
X760883Y291275D02*
X763983Y288175D01*
X1143670Y413210D02*
Y422370D01*
X750983Y216525D02*
Y232975D01*
X303212Y507363D02*
Y507596D01*
Y507363D02*
X304140Y506436D01*
X268808Y542000D02*
X303212Y507596D01*
X1125434Y413210D02*
X1143670D01*
X1046195Y413222D02*
X1065422D01*
X1125184Y380460D02*
X1125434Y380710D01*
X1138000Y220485D02*
X1153000D01*
D56*
X28000Y188000D02*
X123000D01*
X133000Y188000D02*
X249000D01*
D57*
X133000Y188000D02*
X133000Y188000D01*
D58*
X187965Y334559D02*
X188406Y335000D01*
X288656Y365000D02*
X327600D01*
X346600Y346000D01*
X259906Y350000D02*
X273156Y363250D01*
X286906D01*
X288656Y365000D01*
X257906Y350000D02*
X259906D01*
X188406Y365000D02*
X190156Y363250D01*
X206802D01*
X214910Y351996D02*
Y355142D01*
X206802Y363250D02*
X214910Y355142D01*
Y351996D02*
X216906Y350000D01*
X158000Y365000D02*
X188406D01*
X121152Y354000D02*
X147000D01*
X158000Y365000D01*
D59*
X28000Y188000D02*
X28000Y188000D01*
D60*
X47952Y354000D02*
D03*
M02*
