G04*
G04 #@! TF.GenerationSoftware,Altium Limited,Altium Designer,22.0.2 (36)*
G04*
G04 Layer_Physical_Order=3*
G04 Layer_Color=128*
%FSLAX44Y44*%
%MOMM*%
G71*
G04*
G04 #@! TF.SameCoordinates,2F7B36FA-1CAB-4409-8D5E-7B144DD93BD5*
G04*
G04*
G04 #@! TF.FilePolarity,Negative*
G04*
G01*
G75*
%ADD10C,0.1500*%
%ADD12C,0.2540*%
%ADD50C,1.6000*%
%ADD53C,0.5000*%
%ADD61C,3.6000*%
%ADD62C,3.7000*%
%ADD63C,1.5000*%
%ADD64C,3.5000*%
%ADD65C,1.7000*%
%ADD66C,1.2000*%
%ADD67C,0.7500*%
D10*
X-1000Y153000D02*
Y222000D01*
D12*
X0Y10165D02*
G03*
X10165Y0I10165J0D01*
G01*
X1365000Y625000D02*
G03*
X1355000Y635000I-10000J0D01*
G01*
X9726Y635000D02*
G03*
X0Y625274I0J-9726D01*
G01*
X1355314Y269564D02*
G03*
X1365000Y279250I0J9686D01*
G01*
X1213316Y269564D02*
G03*
X1200616Y256864I0J-12700D01*
G01*
X1187916Y0D02*
G03*
X1200616Y12700I0J12700D01*
G01*
X0Y10165D02*
Y625274D01*
X10165Y0D02*
X907093D01*
X9726Y635000D02*
X1355000Y635000D01*
X1365000Y624840D02*
X1365000Y279250D01*
X1200616Y12700D02*
Y256864D01*
X1365000Y279250D02*
Y281877D01*
X1213316Y269564D02*
X1355314D01*
X1180429Y0D02*
X1187916D01*
X907093D02*
X1180429D01*
D50*
X1151394Y530873D02*
D03*
X1178794D02*
D03*
X1206194D02*
D03*
X1233594D02*
D03*
X1247294Y505473D02*
D03*
X1165094D02*
D03*
X1192494D02*
D03*
X1219894D02*
D03*
X1137694D02*
D03*
X1061390Y103739D02*
D03*
X1033990D02*
D03*
X1006590D02*
D03*
X979190D02*
D03*
X965490Y129139D02*
D03*
X1047690D02*
D03*
X1020290D02*
D03*
X992890D02*
D03*
X1075090D02*
D03*
X121152Y354000D02*
D03*
X91152D02*
D03*
D53*
X-1274Y10165D02*
G03*
X10165Y-1274I11439J0D01*
G01*
X9726Y636274D02*
G03*
X-1274Y625274I0J-11000D01*
G01*
X1366274Y625000D02*
G03*
X1355000Y636274I-11273J0D01*
G01*
X1366271Y624920D02*
G03*
X1366274Y625000I-1258J80D01*
G01*
Y624840D02*
G03*
X1366271Y624920I-1274J0D01*
G01*
X1355314Y268291D02*
G03*
X1366274Y279250I0J10959D01*
G01*
X1213316Y268291D02*
G03*
X1201890Y256864I0J-11426D01*
G01*
X1187916Y-1274D02*
G03*
X1201890Y12700I0J13974D01*
G01*
X-1274Y10165D02*
Y625274D01*
X9726Y636274D02*
X1355000Y636274D01*
X1366274Y624840D02*
X1366274Y281877D01*
Y279250D02*
Y281877D01*
X10165Y-1274D02*
X1187916D01*
X1213316Y268291D02*
X1355314D01*
X1201890Y12700D02*
Y256864D01*
D61*
X1067494Y517873D02*
D03*
X1317494D02*
D03*
X1145290Y116739D02*
D03*
X895290D02*
D03*
D62*
X901699Y558800D02*
D03*
X139699Y76199D02*
D03*
X1282699Y462999D02*
D03*
X660399Y406399D02*
D03*
X139699Y558799D02*
D03*
X660399Y127999D02*
D03*
D63*
X187965Y558800D02*
D03*
X213365D02*
D03*
X238765D02*
D03*
X264165D02*
D03*
X289565D02*
D03*
X314965D02*
D03*
X340365D02*
D03*
X365765D02*
D03*
X391165D02*
D03*
X416565D02*
D03*
X457205Y558800D02*
D03*
X482605D02*
D03*
X508005D02*
D03*
X533405D02*
D03*
X558805D02*
D03*
X584205D02*
D03*
X609605D02*
D03*
X635005D02*
D03*
X279405Y76200D02*
D03*
X304805D02*
D03*
X330205D02*
D03*
X355605D02*
D03*
X381005D02*
D03*
X406405Y76200D02*
D03*
X431805Y76200D02*
D03*
X457205D02*
D03*
X508005Y76200D02*
D03*
X533405D02*
D03*
X558805D02*
D03*
X584205D02*
D03*
X609605D02*
D03*
X635005D02*
D03*
X685805Y558800D02*
D03*
X711205D02*
D03*
X736605D02*
D03*
X762005D02*
D03*
X787405D02*
D03*
X812805D02*
D03*
X838205D02*
D03*
X863605D02*
D03*
X187965Y457200D02*
D03*
X213365D02*
D03*
X238765D02*
D03*
X264165D02*
D03*
X289565D02*
D03*
X314965D02*
D03*
X340365D02*
D03*
X365765D02*
D03*
X416565D02*
D03*
X441965D02*
D03*
X467365D02*
D03*
X492765Y457316D02*
D03*
X661670Y304800D02*
D03*
Y330200D02*
D03*
Y355600D02*
D03*
X965200Y533400D02*
D03*
Y508000D02*
D03*
Y482600D02*
D03*
Y457200D02*
D03*
Y431800D02*
D03*
Y406400D02*
D03*
Y381000D02*
D03*
Y355600D02*
D03*
Y330200D02*
D03*
Y304800D02*
D03*
X939800Y533400D02*
D03*
Y508000D02*
D03*
Y482600D02*
D03*
Y457200D02*
D03*
Y431800D02*
D03*
Y406400D02*
D03*
Y381000D02*
D03*
Y355600D02*
D03*
Y330200D02*
D03*
Y304800D02*
D03*
X636270Y304800D02*
D03*
Y330200D02*
D03*
Y355600D02*
D03*
D64*
X47952Y354000D02*
D03*
D65*
X150000Y423900D02*
D03*
Y449300D02*
D03*
Y500100D02*
D03*
Y474700D02*
D03*
X439900Y244000D02*
D03*
X465300D02*
D03*
X516100D02*
D03*
X490700D02*
D03*
D66*
X372000Y346000D02*
D03*
X346600D02*
D03*
D67*
X215016Y199500D02*
D03*
Y177320D02*
D03*
X197591Y199500D02*
D03*
X198000Y177000D02*
D03*
X178000Y199500D02*
D03*
Y177000D02*
D03*
X158000Y199500D02*
D03*
Y177000D02*
D03*
X137699Y199500D02*
D03*
X1175250Y212485D02*
D03*
X1166429Y179293D02*
D03*
X1336068Y310000D02*
D03*
X694537Y317999D02*
D03*
Y211000D02*
D03*
X75735Y216890D02*
D03*
X1340500Y416000D02*
D03*
X1046184Y440544D02*
D03*
X1140108Y350001D02*
D03*
X98000Y177096D02*
D03*
X77904D02*
D03*
X293655Y534634D02*
D03*
X773688Y307275D02*
D03*
X300000Y218000D02*
D03*
X452000Y156000D02*
D03*
X510000Y165000D02*
D03*
X380000Y204000D02*
D03*
X231000Y177000D02*
D03*
Y199500D02*
D03*
X189536Y118000D02*
D03*
X75735Y159367D02*
D03*
X72869Y144500D02*
D03*
Y231800D02*
D03*
X77904Y199500D02*
D03*
X98000D02*
D03*
X118000D02*
D03*
X137699Y177000D02*
D03*
X118000D02*
D03*
X346600Y500100D02*
D03*
X278000Y475500D02*
D03*
X213365Y488000D02*
D03*
X274000Y494500D02*
D03*
X1350000Y344150D02*
D03*
X738883Y274121D02*
D03*
X819494Y198275D02*
D03*
X1111184Y389233D02*
D03*
X1111184Y399233D02*
D03*
X1085684Y344133D02*
D03*
X1094434D02*
D03*
X1061184Y291483D02*
D03*
X1143670Y385472D02*
D03*
X1215700Y410569D02*
D03*
X1023487Y220485D02*
D03*
X890000Y240085D02*
D03*
X768453Y187745D02*
D03*
X804483Y168275D02*
D03*
X354600Y491000D02*
D03*
X1091917Y320597D02*
D03*
Y308597D02*
D03*
X1103917Y320597D02*
D03*
Y308597D02*
D03*
X1097917Y314597D02*
D03*
M02*
