G04*
G04 #@! TF.GenerationSoftware,Altium Limited,Altium Designer,22.0.2 (36)*
G04*
G04 Layer_Color=65535*
%FSLAX44Y44*%
%MOMM*%
G71*
G04*
G04 #@! TF.SameCoordinates,2F7B36FA-1CAB-4409-8D5E-7B144DD93BD5*
G04*
G04*
G04 #@! TF.FilePolarity,Positive*
G04*
G01*
G75*
%ADD10C,0.1500*%
%ADD11C,0.2000*%
%ADD12C,0.2540*%
%ADD13C,0.1000*%
%ADD14C,0.6000*%
%ADD15C,0.2500*%
G36*
X150000Y407200D02*
X163000D01*
X163000Y420200D01*
X150000Y407200D01*
D02*
G37*
G36*
X422700Y224000D02*
Y211000D01*
X435700Y211000D01*
X422700Y224000D01*
D02*
G37*
G36*
X814092Y478353D02*
X816121D01*
Y478184D01*
X817473D01*
Y478015D01*
X818488D01*
Y477846D01*
X819502D01*
Y477677D01*
X820178D01*
Y477508D01*
X821024D01*
Y477339D01*
X821531D01*
Y477170D01*
X822207D01*
Y477001D01*
X822714D01*
Y476832D01*
X823221D01*
Y476663D01*
X823559D01*
Y476494D01*
X824067D01*
Y476325D01*
X824405D01*
Y476156D01*
X824743D01*
Y475987D01*
X825081D01*
Y475817D01*
X825419D01*
Y475648D01*
X825757D01*
Y475479D01*
X826095D01*
Y475310D01*
X826433D01*
Y475141D01*
X826772D01*
Y474972D01*
X826941D01*
Y474803D01*
X827279D01*
Y474634D01*
X827448D01*
Y474465D01*
X827786D01*
Y474296D01*
X827955D01*
Y474127D01*
X828293D01*
Y473958D01*
X828462D01*
Y473789D01*
X828631D01*
Y473620D01*
X828800D01*
Y473451D01*
X829138D01*
Y473282D01*
X829307D01*
Y473113D01*
X829476D01*
Y472943D01*
X829646D01*
Y472775D01*
X829815D01*
Y472605D01*
X829984D01*
Y472436D01*
X830153D01*
Y472267D01*
X830322D01*
Y472098D01*
X830491D01*
Y471929D01*
X830660D01*
Y471591D01*
X830829D01*
Y471422D01*
X830998D01*
Y471253D01*
X831167D01*
Y471084D01*
X831336D01*
Y470746D01*
X831505D01*
Y470577D01*
X831674D01*
Y470239D01*
X831843D01*
Y470070D01*
X832012D01*
Y469731D01*
X832181D01*
Y469562D01*
X832350D01*
Y469224D01*
X832520D01*
Y468886D01*
X832689D01*
Y468548D01*
X832858D01*
Y468210D01*
X833027D01*
Y467872D01*
X833196D01*
Y467365D01*
X833365D01*
Y467026D01*
X833534D01*
Y466350D01*
X833703D01*
Y465843D01*
X833872D01*
Y464998D01*
X834041D01*
Y464152D01*
X834210D01*
Y462631D01*
X834379D01*
Y458743D01*
X834210D01*
Y457390D01*
X834041D01*
Y456545D01*
X833872D01*
Y455869D01*
X833703D01*
Y455192D01*
X833534D01*
Y454685D01*
X833365D01*
Y454178D01*
X833196D01*
Y453840D01*
X833027D01*
Y453502D01*
X832858D01*
Y453164D01*
X832689D01*
Y452826D01*
X832520D01*
Y452487D01*
X832350D01*
Y452149D01*
X832181D01*
Y451811D01*
X832012D01*
Y451642D01*
X831843D01*
Y451304D01*
X831674D01*
Y451135D01*
X831505D01*
Y450966D01*
X831336D01*
Y450628D01*
X831167D01*
Y450459D01*
X830998D01*
Y450290D01*
X830829D01*
Y449952D01*
X830660D01*
Y449782D01*
X830491D01*
Y449613D01*
X830322D01*
Y449444D01*
X830153D01*
Y449275D01*
X829984D01*
Y449106D01*
X829815D01*
Y448937D01*
X829646D01*
Y448768D01*
X829476D01*
Y448599D01*
X829307D01*
Y448430D01*
X828969D01*
Y448261D01*
X828800D01*
Y448092D01*
X828631D01*
Y447923D01*
X828462D01*
Y447754D01*
X828293D01*
Y447585D01*
X827955D01*
Y447416D01*
X827786D01*
Y447247D01*
X827448D01*
Y447077D01*
X827279D01*
Y446908D01*
X826941D01*
Y446739D01*
X826772D01*
Y446570D01*
X826433D01*
Y446401D01*
X826095D01*
Y446232D01*
X825757D01*
Y446063D01*
X825419D01*
Y445894D01*
X825081D01*
Y445725D01*
X824743D01*
Y445556D01*
X824405D01*
Y445387D01*
X823898D01*
Y445218D01*
X823559D01*
Y445049D01*
X823052D01*
Y444880D01*
X822545D01*
Y444711D01*
X822207D01*
Y444373D01*
X822376D01*
Y444203D01*
X822545D01*
Y443865D01*
X822714D01*
Y443527D01*
X822883D01*
Y443358D01*
X823052D01*
Y443020D01*
X823221D01*
Y442682D01*
X823390D01*
Y442513D01*
X823559D01*
Y442175D01*
X823728D01*
Y441837D01*
X823898D01*
Y441668D01*
X824067D01*
Y441329D01*
X824236D01*
Y440991D01*
X824405D01*
Y440822D01*
X824574D01*
Y440484D01*
X824743D01*
Y440315D01*
X824912D01*
Y439977D01*
X825081D01*
Y439639D01*
X825250D01*
Y439470D01*
X825419D01*
Y439132D01*
X825588D01*
Y438794D01*
X825757D01*
Y438625D01*
X825926D01*
Y438287D01*
X826095D01*
Y437948D01*
X826264D01*
Y437779D01*
X826433D01*
Y437441D01*
X826602D01*
Y437272D01*
X826772D01*
Y436934D01*
X826941D01*
Y436596D01*
X827110D01*
Y436427D01*
X827279D01*
Y436089D01*
X827448D01*
Y435751D01*
X827617D01*
Y435582D01*
X827786D01*
Y435243D01*
X827955D01*
Y434905D01*
X828124D01*
Y434736D01*
X828293D01*
Y434398D01*
X828462D01*
Y434229D01*
X828631D01*
Y433891D01*
X828800D01*
Y433553D01*
X828969D01*
Y433384D01*
X829138D01*
Y433046D01*
X829307D01*
Y432707D01*
X829476D01*
Y432538D01*
X829646D01*
Y432200D01*
X829815D01*
Y431862D01*
X829984D01*
Y431693D01*
X830153D01*
Y431355D01*
X830322D01*
Y431186D01*
X830491D01*
Y430848D01*
X830660D01*
Y430510D01*
X830829D01*
Y430341D01*
X830998D01*
Y430003D01*
X831167D01*
Y429664D01*
X831336D01*
Y429495D01*
X831505D01*
Y429157D01*
X831674D01*
Y428819D01*
X831843D01*
Y428650D01*
X832012D01*
Y428312D01*
X832181D01*
Y428143D01*
X832350D01*
Y427805D01*
X832520D01*
Y427467D01*
X832689D01*
Y427298D01*
X832858D01*
Y426959D01*
X833027D01*
Y426621D01*
X833196D01*
Y426452D01*
X833365D01*
Y426114D01*
X833534D01*
Y425776D01*
X833703D01*
Y425607D01*
X833872D01*
Y425269D01*
X834041D01*
Y424931D01*
X834210D01*
Y424762D01*
X834379D01*
Y424424D01*
X834548D01*
Y424255D01*
X834717D01*
Y423917D01*
X834886D01*
Y423578D01*
X835055D01*
Y423409D01*
X835225D01*
Y423071D01*
X835394D01*
Y422733D01*
X835563D01*
Y422564D01*
X835732D01*
Y422226D01*
X835901D01*
Y421888D01*
X836070D01*
Y421719D01*
X836239D01*
Y421381D01*
X836408D01*
Y421212D01*
X836577D01*
Y420873D01*
X836746D01*
Y420535D01*
X836915D01*
Y420366D01*
X837084D01*
Y420028D01*
X837253D01*
Y419690D01*
X837422D01*
Y419521D01*
X837591D01*
Y419352D01*
X820854D01*
Y419521D01*
X820686D01*
Y419859D01*
X820516D01*
Y420028D01*
X820347D01*
Y420366D01*
X820178D01*
Y420704D01*
X820009D01*
Y421043D01*
X819840D01*
Y421381D01*
X819671D01*
Y421550D01*
X819502D01*
Y421888D01*
X819333D01*
Y422226D01*
X819164D01*
Y422564D01*
X818995D01*
Y422902D01*
X818826D01*
Y423240D01*
X818657D01*
Y423409D01*
X818488D01*
Y423747D01*
X818319D01*
Y424086D01*
X818150D01*
Y424424D01*
X817980D01*
Y424762D01*
X817812D01*
Y425100D01*
X817642D01*
Y425269D01*
X817473D01*
Y425607D01*
X817304D01*
Y425945D01*
X817135D01*
Y426283D01*
X816966D01*
Y426621D01*
X816797D01*
Y426959D01*
X816628D01*
Y427129D01*
X816459D01*
Y427467D01*
X816290D01*
Y427805D01*
X816121D01*
Y428143D01*
X815952D01*
Y428481D01*
X815783D01*
Y428819D01*
X815614D01*
Y428988D01*
X815445D01*
Y429326D01*
X815276D01*
Y429664D01*
X815107D01*
Y430003D01*
X814938D01*
Y430341D01*
X814768D01*
Y430510D01*
X814599D01*
Y430848D01*
X814430D01*
Y431186D01*
X814261D01*
Y431524D01*
X814092D01*
Y431862D01*
X813923D01*
Y432200D01*
X813754D01*
Y432369D01*
X813585D01*
Y432707D01*
X813416D01*
Y433046D01*
X813247D01*
Y433384D01*
X813078D01*
Y433722D01*
X812909D01*
Y434060D01*
X812740D01*
Y434229D01*
X812571D01*
Y434567D01*
X812402D01*
Y434905D01*
X812233D01*
Y435243D01*
X812064D01*
Y435582D01*
X811894D01*
Y435920D01*
X811725D01*
Y436089D01*
X811556D01*
Y436427D01*
X811387D01*
Y436765D01*
X811218D01*
Y437103D01*
X811049D01*
Y437441D01*
X810880D01*
Y437779D01*
X810711D01*
Y437948D01*
X810542D01*
Y438287D01*
X810373D01*
Y438625D01*
X810204D01*
Y438963D01*
X810035D01*
Y439301D01*
X809866D01*
Y439470D01*
X809697D01*
Y439808D01*
X809528D01*
Y440146D01*
X809359D01*
Y440484D01*
X809190D01*
Y440822D01*
X809020D01*
Y441161D01*
X808851D01*
Y441329D01*
X808682D01*
Y441668D01*
X808513D01*
Y442006D01*
X808344D01*
Y442344D01*
X808175D01*
Y442682D01*
X808006D01*
Y443020D01*
X807837D01*
Y443189D01*
X807668D01*
Y443527D01*
X807499D01*
Y443865D01*
X807330D01*
Y444203D01*
X807161D01*
Y444542D01*
X806992D01*
Y444880D01*
X806823D01*
Y445049D01*
X806654D01*
Y445387D01*
X806485D01*
Y445725D01*
X806316D01*
Y446063D01*
X806146D01*
Y446401D01*
X805977D01*
Y446739D01*
X805808D01*
Y446908D01*
X805639D01*
Y447247D01*
X805808D01*
Y447585D01*
X805977D01*
Y448092D01*
X806146D01*
Y448599D01*
X806316D01*
Y448937D01*
X806485D01*
Y449444D01*
X806654D01*
Y449952D01*
X806823D01*
Y450290D01*
X806992D01*
Y450797D01*
X807161D01*
Y451135D01*
X807330D01*
Y451642D01*
X807499D01*
Y452149D01*
X807668D01*
Y452487D01*
X807837D01*
Y452995D01*
X808006D01*
Y453164D01*
X811218D01*
Y453333D01*
X812909D01*
Y453502D01*
X813923D01*
Y453671D01*
X814599D01*
Y453840D01*
X815276D01*
Y454009D01*
X815783D01*
Y454178D01*
X816121D01*
Y454347D01*
X816628D01*
Y454516D01*
X816966D01*
Y454685D01*
X817135D01*
Y454854D01*
X817473D01*
Y455023D01*
X817642D01*
Y455192D01*
X817980D01*
Y455361D01*
X818150D01*
Y455531D01*
X818319D01*
Y455700D01*
X818488D01*
Y455869D01*
X818657D01*
Y456038D01*
X818826D01*
Y456207D01*
X818995D01*
Y456376D01*
X819164D01*
Y456714D01*
X819333D01*
Y456883D01*
X819502D01*
Y457221D01*
X819671D01*
Y457559D01*
X819840D01*
Y458066D01*
X820009D01*
Y458743D01*
X820178D01*
Y461955D01*
X820009D01*
Y462631D01*
X819840D01*
Y462969D01*
X819671D01*
Y463307D01*
X819502D01*
Y463645D01*
X819333D01*
Y463814D01*
X819164D01*
Y464152D01*
X818995D01*
Y464322D01*
X818826D01*
Y464491D01*
X818657D01*
Y464660D01*
X818488D01*
Y464829D01*
X818319D01*
Y464998D01*
X818150D01*
Y465167D01*
X817980D01*
Y465336D01*
X817642D01*
Y465505D01*
X817304D01*
Y465674D01*
X817135D01*
Y465843D01*
X816797D01*
Y466012D01*
X816290D01*
Y466181D01*
X815783D01*
Y466350D01*
X815276D01*
Y466519D01*
X814599D01*
Y466688D01*
X813585D01*
Y466857D01*
X811725D01*
Y467026D01*
X805977D01*
Y466688D01*
X805808D01*
Y466350D01*
X805639D01*
Y465843D01*
X805470D01*
Y465336D01*
X805301D01*
Y464998D01*
X805132D01*
Y464491D01*
X804963D01*
Y464152D01*
X804794D01*
Y463645D01*
X804625D01*
Y463138D01*
X804456D01*
Y462800D01*
X804287D01*
Y462293D01*
X804118D01*
Y461955D01*
X803949D01*
Y461447D01*
X803780D01*
Y460940D01*
X803611D01*
Y460602D01*
X803441D01*
Y460095D01*
X803272D01*
Y459757D01*
X803103D01*
Y459250D01*
X802934D01*
Y458743D01*
X802765D01*
Y458405D01*
X802596D01*
Y457897D01*
X802427D01*
Y457559D01*
X802258D01*
Y457052D01*
X802089D01*
Y456545D01*
X801920D01*
Y456207D01*
X801751D01*
Y455700D01*
X801582D01*
Y455361D01*
X801413D01*
Y454854D01*
X801244D01*
Y454516D01*
X801075D01*
Y454009D01*
X800906D01*
Y453502D01*
X800736D01*
Y453164D01*
X800567D01*
Y452657D01*
X800398D01*
Y452318D01*
X800229D01*
Y451811D01*
X800060D01*
Y451304D01*
X799891D01*
Y450966D01*
X799722D01*
Y450459D01*
X799553D01*
Y450121D01*
X799384D01*
Y449613D01*
X799215D01*
Y449106D01*
X799046D01*
Y448768D01*
X798877D01*
Y448261D01*
X798708D01*
Y447923D01*
X798539D01*
Y447416D01*
X798370D01*
Y446908D01*
X798201D01*
Y446570D01*
X798032D01*
Y446063D01*
X797862D01*
Y445725D01*
X797693D01*
Y445218D01*
X797524D01*
Y444711D01*
X797355D01*
Y444373D01*
X797186D01*
Y443865D01*
X797017D01*
Y443527D01*
X796848D01*
Y443020D01*
X796679D01*
Y442513D01*
X796510D01*
Y442175D01*
X796341D01*
Y441668D01*
X796172D01*
Y441329D01*
X796003D01*
Y440822D01*
X795834D01*
Y440484D01*
X795665D01*
Y439977D01*
X795496D01*
Y439470D01*
X795327D01*
Y439132D01*
X795158D01*
Y438625D01*
X794989D01*
Y438287D01*
X794819D01*
Y437779D01*
X794650D01*
Y437272D01*
X794481D01*
Y436934D01*
X794312D01*
Y436427D01*
X794143D01*
Y436089D01*
X793974D01*
Y435582D01*
X793805D01*
Y435074D01*
X793636D01*
Y434736D01*
X793467D01*
Y434229D01*
X793298D01*
Y433891D01*
X793129D01*
Y433384D01*
X792960D01*
Y432877D01*
X792791D01*
Y432538D01*
X792622D01*
Y432031D01*
X792453D01*
Y431693D01*
X792284D01*
Y431186D01*
X792114D01*
Y430679D01*
X791945D01*
Y430341D01*
X791776D01*
Y429834D01*
X791607D01*
Y429495D01*
X791438D01*
Y428988D01*
X791269D01*
Y428481D01*
X791100D01*
Y428143D01*
X790931D01*
Y427636D01*
X790762D01*
Y427298D01*
X790593D01*
Y426791D01*
X790424D01*
Y426452D01*
X790255D01*
Y425945D01*
X790086D01*
Y425438D01*
X789917D01*
Y425100D01*
X789748D01*
Y424593D01*
X789579D01*
Y424255D01*
X789410D01*
Y423747D01*
X789241D01*
Y423240D01*
X789072D01*
Y422902D01*
X788902D01*
Y422395D01*
X788733D01*
Y422057D01*
X788564D01*
Y421550D01*
X788395D01*
Y421043D01*
X788226D01*
Y420704D01*
X788057D01*
Y420197D01*
X787888D01*
Y419859D01*
X787719D01*
Y419352D01*
X773349D01*
Y419521D01*
X773180D01*
Y420028D01*
X773011D01*
Y420366D01*
X772842D01*
Y420873D01*
X772673D01*
Y421212D01*
X772504D01*
Y421719D01*
X772335D01*
Y422226D01*
X772166D01*
Y422564D01*
X771997D01*
Y423071D01*
X771827D01*
Y423578D01*
X771658D01*
Y423917D01*
X771489D01*
Y424424D01*
X771320D01*
Y424931D01*
X771151D01*
Y425269D01*
X770982D01*
Y425776D01*
X770813D01*
Y426283D01*
X770644D01*
Y426621D01*
X770475D01*
Y427129D01*
X770306D01*
Y427467D01*
X770137D01*
Y427974D01*
X769968D01*
Y428481D01*
X769799D01*
Y428819D01*
X769630D01*
Y429326D01*
X769461D01*
Y429834D01*
X769292D01*
Y430172D01*
X769123D01*
Y430679D01*
X768953D01*
Y431186D01*
X768784D01*
Y431524D01*
X768615D01*
Y432031D01*
X768446D01*
Y432369D01*
X768277D01*
Y432877D01*
X768108D01*
Y433384D01*
X767939D01*
Y433722D01*
X767770D01*
Y434229D01*
X767601D01*
Y434736D01*
X767432D01*
Y435074D01*
X767263D01*
Y435582D01*
X767094D01*
Y436089D01*
X766925D01*
Y436427D01*
X766756D01*
Y436934D01*
X766587D01*
Y437441D01*
X766418D01*
Y437779D01*
X766249D01*
Y438287D01*
X766079D01*
Y438625D01*
X765910D01*
Y439132D01*
X765741D01*
Y439639D01*
X765572D01*
Y439977D01*
X765403D01*
Y440484D01*
X765234D01*
Y440991D01*
X765065D01*
Y441329D01*
X764896D01*
Y441837D01*
X764727D01*
Y442344D01*
X764558D01*
Y442682D01*
X764389D01*
Y443189D01*
X764220D01*
Y443696D01*
X764051D01*
Y444035D01*
X763882D01*
Y444542D01*
X763713D01*
Y444880D01*
X763544D01*
Y445387D01*
X763375D01*
Y445894D01*
X763205D01*
Y446232D01*
X763036D01*
Y446401D01*
X763205D01*
Y446570D01*
X763375D01*
Y446739D01*
X763713D01*
Y446908D01*
X763882D01*
Y447077D01*
X764051D01*
Y447247D01*
X764220D01*
Y447416D01*
X764558D01*
Y447585D01*
X764727D01*
Y447754D01*
X764896D01*
Y447923D01*
X765065D01*
Y448092D01*
X765403D01*
Y448261D01*
X765572D01*
Y448430D01*
X765741D01*
Y448599D01*
X765910D01*
Y448768D01*
X766249D01*
Y448937D01*
X766418D01*
Y449106D01*
X766587D01*
Y449275D01*
X766756D01*
Y449444D01*
X767094D01*
Y449613D01*
X767263D01*
Y449782D01*
X767432D01*
Y449952D01*
X767601D01*
Y450121D01*
X767939D01*
Y450290D01*
X768108D01*
Y450459D01*
X768277D01*
Y450628D01*
X768446D01*
Y450797D01*
X768784D01*
Y450966D01*
X768953D01*
Y451135D01*
X769123D01*
Y451304D01*
X769292D01*
Y451473D01*
X769630D01*
Y451642D01*
X769799D01*
Y451811D01*
X769968D01*
Y451980D01*
X770137D01*
Y452149D01*
X770475D01*
Y452318D01*
X770644D01*
Y452487D01*
X770813D01*
Y452657D01*
X770982D01*
Y452826D01*
X771151D01*
Y452995D01*
X770644D01*
Y452826D01*
X766925D01*
Y452657D01*
X763205D01*
Y452487D01*
X760670D01*
Y452995D01*
X760501D01*
Y453502D01*
X760331D01*
Y453840D01*
X760163D01*
Y454347D01*
X759993D01*
Y454854D01*
X759824D01*
Y455192D01*
X759655D01*
Y455700D01*
X759486D01*
Y456207D01*
X759317D01*
Y456545D01*
X759148D01*
Y457052D01*
X758979D01*
Y457390D01*
X758810D01*
Y457897D01*
X758641D01*
Y458405D01*
X758472D01*
Y458743D01*
X758303D01*
Y459250D01*
X758134D01*
Y459757D01*
X757965D01*
Y460095D01*
X757796D01*
Y460602D01*
X757627D01*
Y461109D01*
X757458D01*
Y461447D01*
X757289D01*
Y461955D01*
X757119D01*
Y462293D01*
X756950D01*
Y462800D01*
X756781D01*
Y463307D01*
X756612D01*
Y463645D01*
X756443D01*
Y464152D01*
X756274D01*
Y464660D01*
X756105D01*
Y464998D01*
X755936D01*
Y465505D01*
X755767D01*
Y466012D01*
X755598D01*
Y466350D01*
X755429D01*
Y466857D01*
X755260D01*
Y467365D01*
X755091D01*
Y467703D01*
X754922D01*
Y468210D01*
X754753D01*
Y468548D01*
X754584D01*
Y469055D01*
X754415D01*
Y469562D01*
X754245D01*
Y469901D01*
X754076D01*
Y470408D01*
X753907D01*
Y470915D01*
X753738D01*
Y471253D01*
X753569D01*
Y471760D01*
X753400D01*
Y472267D01*
X753231D01*
Y472605D01*
X753062D01*
Y473113D01*
X752893D01*
Y473620D01*
X752724D01*
Y473958D01*
X752555D01*
Y474465D01*
X752386D01*
Y474803D01*
X752217D01*
Y475310D01*
X752048D01*
Y475817D01*
X751879D01*
Y476156D01*
X751710D01*
Y476663D01*
X751541D01*
Y477170D01*
X751371D01*
Y477508D01*
X751202D01*
Y478015D01*
X751033D01*
Y478522D01*
X752724D01*
Y478353D01*
X754245D01*
Y478184D01*
X755260D01*
Y478015D01*
X756105D01*
Y477846D01*
X756781D01*
Y477677D01*
X757289D01*
Y477508D01*
X757796D01*
Y477339D01*
X758303D01*
Y477170D01*
X758810D01*
Y477001D01*
X759317D01*
Y476832D01*
X759655D01*
Y476663D01*
X759993D01*
Y476494D01*
X760331D01*
Y476325D01*
X760670D01*
Y476156D01*
X761008D01*
Y475987D01*
X761346D01*
Y475817D01*
X761684D01*
Y475648D01*
X762022D01*
Y475479D01*
X762360D01*
Y475310D01*
X762529D01*
Y475141D01*
X762867D01*
Y474972D01*
X763036D01*
Y474803D01*
X763375D01*
Y474634D01*
X763544D01*
Y474465D01*
X763882D01*
Y474296D01*
X764051D01*
Y474127D01*
X764389D01*
Y473958D01*
X764558D01*
Y473789D01*
X764727D01*
Y473620D01*
X764896D01*
Y473451D01*
X765234D01*
Y473282D01*
X765403D01*
Y473113D01*
X765572D01*
Y472943D01*
X765741D01*
Y472775D01*
X765910D01*
Y472605D01*
X766079D01*
Y472436D01*
X766249D01*
Y472267D01*
X766418D01*
Y472098D01*
X766587D01*
Y471929D01*
X766756D01*
Y471760D01*
X766925D01*
Y471591D01*
X767094D01*
Y471422D01*
X767263D01*
Y471253D01*
X767432D01*
Y471084D01*
X767601D01*
Y470915D01*
X767770D01*
Y470746D01*
X767939D01*
Y470408D01*
X768108D01*
Y470239D01*
X768277D01*
Y470070D01*
X768446D01*
Y469901D01*
X768615D01*
Y469562D01*
X768784D01*
Y469393D01*
X768953D01*
Y469224D01*
X769123D01*
Y468886D01*
X769292D01*
Y468717D01*
X769461D01*
Y468379D01*
X769630D01*
Y468210D01*
X769799D01*
Y467872D01*
X769968D01*
Y467534D01*
X770137D01*
Y467365D01*
X770306D01*
Y467026D01*
X770475D01*
Y466688D01*
X770644D01*
Y466350D01*
X770813D01*
Y466012D01*
X770982D01*
Y465674D01*
X771151D01*
Y465167D01*
X771320D01*
Y464829D01*
X771489D01*
Y464491D01*
X771658D01*
Y463983D01*
X771827D01*
Y463476D01*
X771997D01*
Y462969D01*
X772166D01*
Y462462D01*
X772335D01*
Y461955D01*
X772504D01*
Y461447D01*
X772673D01*
Y460940D01*
X772842D01*
Y460433D01*
X773011D01*
Y459926D01*
X773180D01*
Y459419D01*
X773349D01*
Y458912D01*
X773518D01*
Y458405D01*
X773687D01*
Y457897D01*
X773856D01*
Y457390D01*
X774025D01*
Y456714D01*
X774194D01*
Y456207D01*
X774363D01*
Y455700D01*
X774532D01*
Y455192D01*
X774702D01*
Y454685D01*
X774871D01*
Y454178D01*
X775040D01*
Y453671D01*
X775209D01*
Y453164D01*
X775378D01*
Y452657D01*
X775547D01*
Y452149D01*
X775716D01*
Y451642D01*
X775885D01*
Y451135D01*
X776054D01*
Y450628D01*
X776223D01*
Y450121D01*
X776392D01*
Y449613D01*
X776561D01*
Y449106D01*
X776730D01*
Y448430D01*
X776899D01*
Y447923D01*
X777068D01*
Y447416D01*
X777237D01*
Y446908D01*
X777406D01*
Y446401D01*
X777576D01*
Y445894D01*
X777745D01*
Y445387D01*
X777914D01*
Y444880D01*
X778083D01*
Y444373D01*
X778252D01*
Y443865D01*
X778421D01*
Y443358D01*
X778590D01*
Y442851D01*
X778759D01*
Y442344D01*
X778928D01*
Y441837D01*
X779097D01*
Y441329D01*
X779266D01*
Y440822D01*
X779435D01*
Y440315D01*
X779604D01*
Y439639D01*
X779773D01*
Y439132D01*
X779942D01*
Y438625D01*
X780111D01*
Y438117D01*
X780281D01*
Y437610D01*
X780450D01*
Y437103D01*
X780619D01*
Y436596D01*
X780957D01*
Y436765D01*
X781126D01*
Y437272D01*
X781295D01*
Y437779D01*
X781464D01*
Y438287D01*
X781633D01*
Y438794D01*
X781802D01*
Y439301D01*
X781971D01*
Y439808D01*
X782140D01*
Y440315D01*
X782309D01*
Y440822D01*
X782478D01*
Y441499D01*
X782647D01*
Y442006D01*
X782816D01*
Y442513D01*
X782985D01*
Y443020D01*
X783154D01*
Y443527D01*
X783324D01*
Y444035D01*
X783493D01*
Y444542D01*
X783662D01*
Y445049D01*
X783831D01*
Y445556D01*
X784000D01*
Y446063D01*
X784169D01*
Y446570D01*
X784338D01*
Y447077D01*
X784507D01*
Y447585D01*
X784676D01*
Y448261D01*
X784845D01*
Y448768D01*
X785014D01*
Y449275D01*
X785183D01*
Y449782D01*
X785352D01*
Y450290D01*
X785521D01*
Y450797D01*
X785690D01*
Y451304D01*
X785859D01*
Y451811D01*
X786029D01*
Y452318D01*
X786198D01*
Y452826D01*
X786367D01*
Y453333D01*
X786536D01*
Y453840D01*
X786705D01*
Y454347D01*
X786874D01*
Y455023D01*
X787043D01*
Y455531D01*
X787212D01*
Y456038D01*
X787381D01*
Y456545D01*
X787550D01*
Y457052D01*
X787719D01*
Y457559D01*
X787888D01*
Y458066D01*
X788057D01*
Y458573D01*
X788226D01*
Y459081D01*
X788395D01*
Y459588D01*
X788564D01*
Y460095D01*
X788733D01*
Y460602D01*
X788902D01*
Y461278D01*
X789072D01*
Y461786D01*
X789241D01*
Y462293D01*
X789410D01*
Y462800D01*
X789579D01*
Y463307D01*
X789748D01*
Y463814D01*
X789917D01*
Y464322D01*
X790086D01*
Y464829D01*
X790255D01*
Y465336D01*
X790424D01*
Y465843D01*
X790593D01*
Y466350D01*
X790762D01*
Y466857D01*
X790931D01*
Y467365D01*
X791100D01*
Y468041D01*
X791269D01*
Y468548D01*
X791438D01*
Y469055D01*
X791607D01*
Y469562D01*
X791776D01*
Y470070D01*
X791945D01*
Y470577D01*
X792114D01*
Y471084D01*
X792284D01*
Y471591D01*
X792453D01*
Y472098D01*
X792622D01*
Y472605D01*
X792791D01*
Y473113D01*
X792960D01*
Y473620D01*
X793129D01*
Y474296D01*
X793298D01*
Y474803D01*
X793467D01*
Y475310D01*
X793636D01*
Y475817D01*
X793805D01*
Y476325D01*
X793974D01*
Y476832D01*
X794143D01*
Y477339D01*
X794312D01*
Y477846D01*
X794481D01*
Y478353D01*
X794650D01*
Y478522D01*
X814092D01*
Y478353D01*
D02*
G37*
G36*
X886956Y477339D02*
X886787D01*
Y476156D01*
X886618D01*
Y475310D01*
X886449D01*
Y474803D01*
X886280D01*
Y474296D01*
X886111D01*
Y473789D01*
X885942D01*
Y473451D01*
X885773D01*
Y473113D01*
X885604D01*
Y472775D01*
X885435D01*
Y472436D01*
X885266D01*
Y472098D01*
X885097D01*
Y471929D01*
X884928D01*
Y471591D01*
X884759D01*
Y471422D01*
X884590D01*
Y471084D01*
X884421D01*
Y470915D01*
X884251D01*
Y470746D01*
X884082D01*
Y470577D01*
X883913D01*
Y470408D01*
X883744D01*
Y470070D01*
X883575D01*
Y469901D01*
X883406D01*
Y469731D01*
X883237D01*
Y469562D01*
X882899D01*
Y469393D01*
X882730D01*
Y469224D01*
X882561D01*
Y469055D01*
X882392D01*
Y468886D01*
X882223D01*
Y468717D01*
X881885D01*
Y468548D01*
X881716D01*
Y468379D01*
X881377D01*
Y468210D01*
X881208D01*
Y468041D01*
X880870D01*
Y467872D01*
X880701D01*
Y467703D01*
X880363D01*
Y467534D01*
X880025D01*
Y467365D01*
X879518D01*
Y467196D01*
X879180D01*
Y467026D01*
X878673D01*
Y466857D01*
X878165D01*
Y466688D01*
X877489D01*
Y466519D01*
X876644D01*
Y466350D01*
X862443D01*
Y466181D01*
X862274D01*
Y465843D01*
X862105D01*
Y465336D01*
X861936D01*
Y464998D01*
X861767D01*
Y464491D01*
X861598D01*
Y464152D01*
X861429D01*
Y463645D01*
X861260D01*
Y463307D01*
X861090D01*
Y462800D01*
X860921D01*
Y462462D01*
X860752D01*
Y461955D01*
X860583D01*
Y461617D01*
X860414D01*
Y461109D01*
X860245D01*
Y460771D01*
X860076D01*
Y460264D01*
X859907D01*
Y459926D01*
X859738D01*
Y459419D01*
X859569D01*
Y459081D01*
X859400D01*
Y458573D01*
X859231D01*
Y458235D01*
X859062D01*
Y457728D01*
X858893D01*
Y457390D01*
X858724D01*
Y456883D01*
X858555D01*
Y456545D01*
X858386D01*
Y456038D01*
X858216D01*
Y455700D01*
X858047D01*
Y455192D01*
X857878D01*
Y454854D01*
X857709D01*
Y454347D01*
X857540D01*
Y453840D01*
X857371D01*
Y453502D01*
X857202D01*
Y452995D01*
X857033D01*
Y452657D01*
X856864D01*
Y452149D01*
X856695D01*
Y451811D01*
X856526D01*
Y451304D01*
X856357D01*
Y450966D01*
X856188D01*
Y450459D01*
X856019D01*
Y450121D01*
X855850D01*
Y449613D01*
X855681D01*
Y449275D01*
X855512D01*
Y448768D01*
X855342D01*
Y448430D01*
X855173D01*
Y447923D01*
X855004D01*
Y447585D01*
X854835D01*
Y447416D01*
Y447247D01*
Y447077D01*
X854666D01*
Y446739D01*
X854497D01*
Y446232D01*
X854328D01*
Y445894D01*
X854159D01*
Y445387D01*
X853990D01*
Y445049D01*
X853821D01*
Y444542D01*
X853652D01*
Y444203D01*
X853483D01*
Y443696D01*
X853314D01*
Y443358D01*
X853145D01*
Y442851D01*
X852976D01*
Y442344D01*
X852807D01*
Y442006D01*
X852638D01*
Y441499D01*
X852468D01*
Y441161D01*
X852299D01*
Y440653D01*
X852130D01*
Y440315D01*
X851961D01*
Y439808D01*
X851792D01*
Y439470D01*
X851623D01*
Y438963D01*
X851454D01*
Y438625D01*
X851285D01*
Y438117D01*
X851116D01*
Y437779D01*
X850947D01*
Y437272D01*
X850778D01*
Y436934D01*
X850609D01*
Y436427D01*
X850440D01*
Y436089D01*
X850271D01*
Y435582D01*
X850102D01*
Y435243D01*
X849933D01*
Y434736D01*
X849764D01*
Y434398D01*
X849594D01*
Y433891D01*
X849426D01*
Y433553D01*
X849256D01*
Y433046D01*
X849087D01*
Y432707D01*
X848918D01*
Y432200D01*
X848749D01*
Y431862D01*
X848580D01*
Y431355D01*
X848411D01*
Y431017D01*
X848242D01*
Y430510D01*
X848073D01*
Y430003D01*
X847904D01*
Y429664D01*
X847735D01*
Y429157D01*
X847566D01*
Y428819D01*
X847397D01*
Y428312D01*
X847228D01*
Y427974D01*
X847059D01*
Y427467D01*
X846890D01*
Y427129D01*
X846721D01*
Y426621D01*
X846551D01*
Y426283D01*
X846382D01*
Y425776D01*
X846213D01*
Y425438D01*
X846044D01*
Y424931D01*
X845875D01*
Y424593D01*
X845706D01*
Y424086D01*
X845537D01*
Y423747D01*
X845368D01*
Y423240D01*
X845199D01*
Y422902D01*
X845030D01*
Y422395D01*
X844861D01*
Y422057D01*
X844692D01*
Y421550D01*
X844523D01*
Y421212D01*
X844354D01*
Y420704D01*
X844185D01*
Y420366D01*
X844016D01*
Y419859D01*
X843847D01*
Y419521D01*
X843678D01*
Y419352D01*
X842832D01*
Y419690D01*
X842663D01*
Y419859D01*
X842494D01*
Y420197D01*
X842325D01*
Y420535D01*
X842156D01*
Y420704D01*
X841987D01*
Y421043D01*
X841818D01*
Y421212D01*
X841649D01*
Y421550D01*
X841480D01*
Y421888D01*
X841311D01*
Y422057D01*
X841142D01*
Y422395D01*
X840973D01*
Y422733D01*
X840803D01*
Y422902D01*
X840634D01*
Y423240D01*
X840465D01*
Y423578D01*
X840296D01*
Y423747D01*
X840127D01*
Y424086D01*
X839958D01*
Y424255D01*
X839789D01*
Y424593D01*
X839620D01*
Y424931D01*
X839451D01*
Y425100D01*
X839282D01*
Y425438D01*
X839113D01*
Y425776D01*
X838944D01*
Y425945D01*
X838775D01*
Y426283D01*
X838606D01*
Y426621D01*
X838437D01*
Y426791D01*
X838268D01*
Y427129D01*
X838099D01*
Y427298D01*
X837930D01*
Y427636D01*
X837760D01*
Y427974D01*
X837591D01*
Y428143D01*
X837422D01*
Y428481D01*
X837253D01*
Y428819D01*
X837084D01*
Y428988D01*
X836915D01*
Y429326D01*
X836746D01*
Y429664D01*
X836577D01*
Y429834D01*
X836408D01*
Y430172D01*
X836239D01*
Y430510D01*
X836070D01*
Y430679D01*
X835901D01*
Y431017D01*
X835732D01*
Y431186D01*
X835563D01*
Y431524D01*
X835394D01*
Y431862D01*
X835225D01*
Y432031D01*
X835055D01*
Y432369D01*
X834886D01*
Y432707D01*
X834717D01*
Y433046D01*
X834886D01*
Y433384D01*
X835055D01*
Y433891D01*
X835225D01*
Y434229D01*
X835394D01*
Y434736D01*
X835563D01*
Y435074D01*
X835732D01*
Y435582D01*
X835901D01*
Y435920D01*
X836070D01*
Y436427D01*
X836239D01*
Y436765D01*
X836408D01*
Y437272D01*
X836577D01*
Y437610D01*
X836746D01*
Y438117D01*
X836915D01*
Y438456D01*
X837084D01*
Y438963D01*
X837253D01*
Y439301D01*
X837422D01*
Y439808D01*
X837591D01*
Y440146D01*
X837760D01*
Y440653D01*
X837930D01*
Y440991D01*
X838099D01*
Y441499D01*
X838268D01*
Y441837D01*
X838437D01*
Y442344D01*
X838606D01*
Y442682D01*
X838775D01*
Y443189D01*
X838944D01*
Y443527D01*
X839113D01*
Y444035D01*
X839282D01*
Y444373D01*
X839451D01*
Y444880D01*
X839620D01*
Y445387D01*
X839789D01*
Y445725D01*
X839958D01*
Y446232D01*
X840127D01*
Y446570D01*
X840296D01*
Y447077D01*
X840465D01*
Y447416D01*
X840634D01*
Y447923D01*
X840803D01*
Y448261D01*
X840973D01*
Y448768D01*
X841142D01*
Y449106D01*
X841311D01*
Y449613D01*
X841480D01*
Y449952D01*
X841649D01*
Y450459D01*
X841818D01*
Y450797D01*
X841987D01*
Y451304D01*
X842156D01*
Y451642D01*
X842325D01*
Y452149D01*
X842494D01*
Y452487D01*
X842663D01*
Y452995D01*
X842832D01*
Y453333D01*
X843001D01*
Y453840D01*
X843170D01*
Y454178D01*
X843339D01*
Y454685D01*
X843508D01*
Y455023D01*
X843678D01*
Y455531D01*
X843847D01*
Y455869D01*
X844016D01*
Y456376D01*
X844185D01*
Y456714D01*
X844354D01*
Y457221D01*
X844523D01*
Y457728D01*
X844692D01*
Y458066D01*
X844861D01*
Y458573D01*
X845030D01*
Y458912D01*
X845199D01*
Y459419D01*
X845368D01*
Y459757D01*
X845537D01*
Y460264D01*
X845706D01*
Y460602D01*
X845875D01*
Y461109D01*
X846044D01*
Y461447D01*
X846213D01*
Y461955D01*
X846382D01*
Y462293D01*
X846551D01*
Y462800D01*
X846721D01*
Y463138D01*
X846890D01*
Y463645D01*
X847059D01*
Y463983D01*
X847228D01*
Y464491D01*
X847397D01*
Y464829D01*
X847566D01*
Y465336D01*
X847735D01*
Y465674D01*
X847904D01*
Y466350D01*
X838268D01*
Y467026D01*
X838099D01*
Y467534D01*
X837930D01*
Y468210D01*
X837760D01*
Y468717D01*
X837591D01*
Y469055D01*
X837422D01*
Y469562D01*
X837253D01*
Y469901D01*
X837084D01*
Y470239D01*
X836915D01*
Y470577D01*
X836746D01*
Y470915D01*
X836577D01*
Y471253D01*
X836408D01*
Y471591D01*
X836239D01*
Y471929D01*
X836070D01*
Y472098D01*
X835901D01*
Y472436D01*
X835732D01*
Y472605D01*
X835563D01*
Y472943D01*
X835394D01*
Y473113D01*
X835225D01*
Y473451D01*
X835055D01*
Y473620D01*
X834886D01*
Y473789D01*
X834717D01*
Y474127D01*
X834548D01*
Y474296D01*
X834379D01*
Y474465D01*
X834210D01*
Y474634D01*
X834041D01*
Y474972D01*
X833872D01*
Y475141D01*
X833703D01*
Y475310D01*
X833534D01*
Y475479D01*
X833365D01*
Y475648D01*
X833196D01*
Y475817D01*
X833027D01*
Y475987D01*
X832858D01*
Y476156D01*
X832689D01*
Y476325D01*
X832520D01*
Y476494D01*
X832350D01*
Y476663D01*
X832181D01*
Y476832D01*
X831843D01*
Y477001D01*
X831674D01*
Y477170D01*
X831505D01*
Y477339D01*
X831336D01*
Y477508D01*
X830998D01*
Y477677D01*
X830829D01*
Y477846D01*
X830660D01*
Y478015D01*
X830322D01*
Y478184D01*
X830153D01*
Y478353D01*
X829815D01*
Y478522D01*
X886956D01*
Y477339D01*
D02*
G37*
G36*
X729732Y478353D02*
X731423D01*
Y478184D01*
X732606D01*
Y478015D01*
X733451D01*
Y477846D01*
X734127D01*
Y477677D01*
X734635D01*
Y477508D01*
X735311D01*
Y477339D01*
X735818D01*
Y477170D01*
X736325D01*
Y477001D01*
X736663D01*
Y476832D01*
X737170D01*
Y476663D01*
X737509D01*
Y476494D01*
X737847D01*
Y476325D01*
X738354D01*
Y476156D01*
X738692D01*
Y475987D01*
X739030D01*
Y475817D01*
X739368D01*
Y475648D01*
X739537D01*
Y475479D01*
X739875D01*
Y475310D01*
X740213D01*
Y475141D01*
X740383D01*
Y474972D01*
X740721D01*
Y474803D01*
X741059D01*
Y474634D01*
X741228D01*
Y474465D01*
X741566D01*
Y474296D01*
X741735D01*
Y474127D01*
X741904D01*
Y473958D01*
X742242D01*
Y473789D01*
X742411D01*
Y473620D01*
X742580D01*
Y473451D01*
X742918D01*
Y473282D01*
X743087D01*
Y473113D01*
X743257D01*
Y472943D01*
X743426D01*
Y472775D01*
X743595D01*
Y472605D01*
X743933D01*
Y472436D01*
X744102D01*
Y472267D01*
X744271D01*
Y472098D01*
X744440D01*
Y471929D01*
X744609D01*
Y471760D01*
X744778D01*
Y471591D01*
X744947D01*
Y471422D01*
X745116D01*
Y471253D01*
X745285D01*
Y471084D01*
X745454D01*
Y470915D01*
X745623D01*
Y470577D01*
X745792D01*
Y470408D01*
X745962D01*
Y470239D01*
X746131D01*
Y470070D01*
X746300D01*
Y469901D01*
X746469D01*
Y469562D01*
X746638D01*
Y469393D01*
X746807D01*
Y469224D01*
X746976D01*
Y468886D01*
X747145D01*
Y468717D01*
X747314D01*
Y468548D01*
X747483D01*
Y468210D01*
X747652D01*
Y468041D01*
X747821D01*
Y467703D01*
X747990D01*
Y467365D01*
X748159D01*
Y467196D01*
X748328D01*
Y466857D01*
X748497D01*
Y466519D01*
X748667D01*
Y466350D01*
X748836D01*
Y466012D01*
X749005D01*
Y465674D01*
X749174D01*
Y465336D01*
X749343D01*
Y464829D01*
X749512D01*
Y464491D01*
X749681D01*
Y464152D01*
X749850D01*
Y463645D01*
X750019D01*
Y463307D01*
X750188D01*
Y462800D01*
X750357D01*
Y462293D01*
X750526D01*
Y461955D01*
X750695D01*
Y461447D01*
X750864D01*
Y461109D01*
X751033D01*
Y460602D01*
X751202D01*
Y460095D01*
X751371D01*
Y459757D01*
X751541D01*
Y459250D01*
X751710D01*
Y458743D01*
X751879D01*
Y458405D01*
X752048D01*
Y457897D01*
X752217D01*
Y457390D01*
X752386D01*
Y457052D01*
X752555D01*
Y456545D01*
X752724D01*
Y456038D01*
X752893D01*
Y455700D01*
X753062D01*
Y455192D01*
X753231D01*
Y454854D01*
X753400D01*
Y454347D01*
X753569D01*
Y453840D01*
X753738D01*
Y453502D01*
X753907D01*
Y452995D01*
X754076D01*
Y452487D01*
X754245D01*
Y452149D01*
X752217D01*
Y451980D01*
X748497D01*
Y451811D01*
X744947D01*
Y451642D01*
X743933D01*
Y451473D01*
X744102D01*
Y451304D01*
X744440D01*
Y451135D01*
X744609D01*
Y450966D01*
X744947D01*
Y450797D01*
X745116D01*
Y450628D01*
X745454D01*
Y450459D01*
X745623D01*
Y450290D01*
X745962D01*
Y450121D01*
X746131D01*
Y449952D01*
X746469D01*
Y449782D01*
X746638D01*
Y449613D01*
X746976D01*
Y449444D01*
X747145D01*
Y449275D01*
X747483D01*
Y449106D01*
X747821D01*
Y448937D01*
X747990D01*
Y448768D01*
X748328D01*
Y448599D01*
X748497D01*
Y448430D01*
X748836D01*
Y448261D01*
X749005D01*
Y448092D01*
X749343D01*
Y447923D01*
X749512D01*
Y447754D01*
X749850D01*
Y447585D01*
X750019D01*
Y447416D01*
X750357D01*
Y447247D01*
X750526D01*
Y447077D01*
X750864D01*
Y446908D01*
X751033D01*
Y446739D01*
X751371D01*
Y446570D01*
X751541D01*
Y446401D01*
X751879D01*
Y446232D01*
X752048D01*
Y446063D01*
X752386D01*
Y445894D01*
X752555D01*
Y445556D01*
X752386D01*
Y445049D01*
X752217D01*
Y444373D01*
X752048D01*
Y443696D01*
X751879D01*
Y443189D01*
X751710D01*
Y442513D01*
X751541D01*
Y442006D01*
X751371D01*
Y441329D01*
X751202D01*
Y440653D01*
X751033D01*
Y440146D01*
X750864D01*
Y439470D01*
X750695D01*
Y438794D01*
X750526D01*
Y438287D01*
X750357D01*
Y437610D01*
X750188D01*
Y436934D01*
X750019D01*
Y436427D01*
X749850D01*
Y435920D01*
X750188D01*
Y436089D01*
X750357D01*
Y436258D01*
X750526D01*
Y436427D01*
X750695D01*
Y436596D01*
X751033D01*
Y436765D01*
X751202D01*
Y436934D01*
X751371D01*
Y437103D01*
X751541D01*
Y437272D01*
X751879D01*
Y437441D01*
X752048D01*
Y437610D01*
X752217D01*
Y437779D01*
X752386D01*
Y437948D01*
X752724D01*
Y438117D01*
X752893D01*
Y438287D01*
X753062D01*
Y438456D01*
X753231D01*
Y438625D01*
X753569D01*
Y438794D01*
X753738D01*
Y438963D01*
X753907D01*
Y439132D01*
X754076D01*
Y439301D01*
X754415D01*
Y439470D01*
X754584D01*
Y439639D01*
X754753D01*
Y439808D01*
X754922D01*
Y439977D01*
X755260D01*
Y440146D01*
X755429D01*
Y440315D01*
X755598D01*
Y440484D01*
X755767D01*
Y440653D01*
X756105D01*
Y440822D01*
X756274D01*
Y440991D01*
X756443D01*
Y441161D01*
X756612D01*
Y441329D01*
X756950D01*
Y441499D01*
X757119D01*
Y441668D01*
X757289D01*
Y441837D01*
X757458D01*
Y442006D01*
X757796D01*
Y442175D01*
X758134D01*
Y441837D01*
X758303D01*
Y441329D01*
X758472D01*
Y440991D01*
X758641D01*
Y440484D01*
X758810D01*
Y439977D01*
X758979D01*
Y439639D01*
X759148D01*
Y439132D01*
X759317D01*
Y438625D01*
X759486D01*
Y438287D01*
X759655D01*
Y437779D01*
X759824D01*
Y437272D01*
X759993D01*
Y436934D01*
X760163D01*
Y436427D01*
X760331D01*
Y436089D01*
X760501D01*
Y435582D01*
X760670D01*
Y435074D01*
X760839D01*
Y434736D01*
X761008D01*
Y434229D01*
X761177D01*
Y433722D01*
X761346D01*
Y433384D01*
X761515D01*
Y432877D01*
X761684D01*
Y432369D01*
X761853D01*
Y432031D01*
X762022D01*
Y431524D01*
X762191D01*
Y431186D01*
X762360D01*
Y430679D01*
X762529D01*
Y430172D01*
X762698D01*
Y429834D01*
X762867D01*
Y429326D01*
X763036D01*
Y428819D01*
X763205D01*
Y428481D01*
X763375D01*
Y427974D01*
X763544D01*
Y427467D01*
X763713D01*
Y427129D01*
X763882D01*
Y426621D01*
X764051D01*
Y426114D01*
X764220D01*
Y425776D01*
X764389D01*
Y425269D01*
X764558D01*
Y424931D01*
X764727D01*
Y424424D01*
X764896D01*
Y423917D01*
X765065D01*
Y423578D01*
X765234D01*
Y423071D01*
X765403D01*
Y422564D01*
X765572D01*
Y422226D01*
X765741D01*
Y421719D01*
X765910D01*
Y421212D01*
X766079D01*
Y420873D01*
X766249D01*
Y420366D01*
X766418D01*
Y419859D01*
X766587D01*
Y419521D01*
X766756D01*
Y419352D01*
X765065D01*
Y419521D01*
X763375D01*
Y419690D01*
X762360D01*
Y419859D01*
X761515D01*
Y420028D01*
X760839D01*
Y420197D01*
X760163D01*
Y420366D01*
X759655D01*
Y420535D01*
X759148D01*
Y420704D01*
X758641D01*
Y420873D01*
X758303D01*
Y421043D01*
X757796D01*
Y421212D01*
X757458D01*
Y421381D01*
X757119D01*
Y421550D01*
X756612D01*
Y421719D01*
X756274D01*
Y421888D01*
X755936D01*
Y422057D01*
X755598D01*
Y422226D01*
X755429D01*
Y422395D01*
X755091D01*
Y422564D01*
X754753D01*
Y422733D01*
X754584D01*
Y422902D01*
X754245D01*
Y423071D01*
X753907D01*
Y423240D01*
X753738D01*
Y423409D01*
X753400D01*
Y423578D01*
X753231D01*
Y423747D01*
X753062D01*
Y423917D01*
X752724D01*
Y424086D01*
X752555D01*
Y424255D01*
X752386D01*
Y424424D01*
X752048D01*
Y424593D01*
X751879D01*
Y424762D01*
X751710D01*
Y424931D01*
X751541D01*
Y425100D01*
X751371D01*
Y425269D01*
X751033D01*
Y425438D01*
X750864D01*
Y425607D01*
X750695D01*
Y425776D01*
X750526D01*
Y425945D01*
X750357D01*
Y426114D01*
X750188D01*
Y426283D01*
X750019D01*
Y426452D01*
X749850D01*
Y426621D01*
X749681D01*
Y426791D01*
X749512D01*
Y427129D01*
X749343D01*
Y427298D01*
X749174D01*
Y427467D01*
X749005D01*
Y427636D01*
X748836D01*
Y427805D01*
X748667D01*
Y427974D01*
X748497D01*
Y428312D01*
X748328D01*
Y428481D01*
X748159D01*
Y428650D01*
X747990D01*
Y428988D01*
X747821D01*
Y429157D01*
X747652D01*
Y429495D01*
X747483D01*
Y429664D01*
X747314D01*
Y430003D01*
X747145D01*
Y430172D01*
X746976D01*
Y430510D01*
X746807D01*
Y430679D01*
X746638D01*
Y431017D01*
X746469D01*
Y431355D01*
X746300D01*
Y431693D01*
X746131D01*
Y432031D01*
X745962D01*
Y432369D01*
X745792D01*
Y432707D01*
X745623D01*
Y433046D01*
X745454D01*
Y433384D01*
X745285D01*
Y433722D01*
X745116D01*
Y434229D01*
X744947D01*
Y434736D01*
X744778D01*
Y435074D01*
X744609D01*
Y435582D01*
X744440D01*
Y436089D01*
X744271D01*
Y436427D01*
X744102D01*
Y436934D01*
X743933D01*
Y437272D01*
X743764D01*
Y437779D01*
X743595D01*
Y438287D01*
X743426D01*
Y438625D01*
X743257D01*
Y439132D01*
X743087D01*
Y439639D01*
X742918D01*
Y439977D01*
X742749D01*
Y440484D01*
X742580D01*
Y440991D01*
X742411D01*
Y441329D01*
X742242D01*
Y441837D01*
X742073D01*
Y442175D01*
X741904D01*
Y442682D01*
X741735D01*
Y443189D01*
X741566D01*
Y443527D01*
X741397D01*
Y444035D01*
X741228D01*
Y444542D01*
X741059D01*
Y444880D01*
X740890D01*
Y445387D01*
X740721D01*
Y445894D01*
X740552D01*
Y446232D01*
X740383D01*
Y446739D01*
X740213D01*
Y447247D01*
X740044D01*
Y447585D01*
X739875D01*
Y448092D01*
X739706D01*
Y448430D01*
X739537D01*
Y448937D01*
X739368D01*
Y449444D01*
X739199D01*
Y449782D01*
X739030D01*
Y450290D01*
X738861D01*
Y450797D01*
X738692D01*
Y451135D01*
X738523D01*
Y451642D01*
X738354D01*
Y452149D01*
X738185D01*
Y452487D01*
X738016D01*
Y452995D01*
X737847D01*
Y453502D01*
X737678D01*
Y453840D01*
X737509D01*
Y454347D01*
X737339D01*
Y454685D01*
X737170D01*
Y455192D01*
X737001D01*
Y455700D01*
X736832D01*
Y456038D01*
X736663D01*
Y456545D01*
X736494D01*
Y457052D01*
X736325D01*
Y457390D01*
X736156D01*
Y457897D01*
X735987D01*
Y458405D01*
X735818D01*
Y458743D01*
X735649D01*
Y459250D01*
X735480D01*
Y459757D01*
X735311D01*
Y460095D01*
X735142D01*
Y460602D01*
X734973D01*
Y460940D01*
X734804D01*
Y461447D01*
X734635D01*
Y461955D01*
X734465D01*
Y462293D01*
X734296D01*
Y462800D01*
X734127D01*
Y463307D01*
X733958D01*
Y463645D01*
X733789D01*
Y464152D01*
X733620D01*
Y464660D01*
X733451D01*
Y464998D01*
X733282D01*
Y465505D01*
X733113D01*
Y465843D01*
X732944D01*
Y466350D01*
X732775D01*
Y466857D01*
X732606D01*
Y467196D01*
X732437D01*
Y467703D01*
X732268D01*
Y468210D01*
X732099D01*
Y468548D01*
X731930D01*
Y469055D01*
X731761D01*
Y469224D01*
Y469393D01*
Y469562D01*
X731591D01*
Y469901D01*
X731423D01*
Y470408D01*
X731253D01*
Y470915D01*
X731084D01*
Y471253D01*
X730915D01*
Y471760D01*
X730746D01*
Y472098D01*
X730577D01*
Y472605D01*
X730408D01*
Y473113D01*
X730239D01*
Y473451D01*
X730070D01*
Y473958D01*
X729901D01*
Y474465D01*
X729732D01*
Y474803D01*
X729563D01*
Y475310D01*
X729394D01*
Y475817D01*
X729225D01*
Y476156D01*
X729056D01*
Y476663D01*
X728887D01*
Y477170D01*
X728717D01*
Y477508D01*
X728549D01*
Y478015D01*
X728379D01*
Y478353D01*
X728210D01*
Y478522D01*
X729732D01*
Y478353D01*
D02*
G37*
D10*
X930700Y558801D02*
G03*
X930700Y558801I-29000J0D01*
G01*
X168700Y76200D02*
G03*
X168700Y76200I-29000J0D01*
G01*
X357914Y101000D02*
G03*
X357914Y101000I-1414J0D01*
G01*
X1311700Y463000D02*
G03*
X1311700Y463000I-29000J0D01*
G01*
X689400Y406400D02*
G03*
X689400Y406400I-29000J0D01*
G01*
X168700Y558800D02*
G03*
X168700Y558800I-29000J0D01*
G01*
X689400Y128000D02*
G03*
X689400Y128000I-29000J0D01*
G01*
X1036494Y484873D02*
X1348494D01*
Y634873D01*
X1036494Y484873D02*
Y634873D01*
Y573873D02*
X1348494D01*
X1036494Y589873D02*
X1348494D01*
X1036494Y634873D02*
X1348494D01*
X1107492Y689873D02*
X1277494D01*
X1107494Y634873D02*
Y689873D01*
X1277494Y634873D02*
Y689873D01*
X864290Y149739D02*
X1176290D01*
X864290Y-261D02*
Y149739D01*
X1176290Y-261D02*
Y149739D01*
X864290Y60739D02*
X1176290D01*
X864290Y44739D02*
X1176290D01*
X864290Y-261D02*
X1176290D01*
X935290Y-55261D02*
X1105292D01*
X1105290D02*
Y-261D01*
X935290Y-55261D02*
Y-261D01*
X701483Y275D02*
Y8275D01*
Y34275D02*
Y159275D01*
Y275D02*
X830483D01*
X847483Y23275D02*
Y159275D01*
X792483D02*
X847483D01*
X747483D02*
X770483D01*
X701483D02*
X714483D01*
X-848Y393000D02*
X134152D01*
X-848Y315000D02*
X134152D01*
X-848D02*
Y393000D01*
X134152Y315000D02*
Y393000D01*
X-1000Y248000D02*
X61000D01*
X-1000Y128000D02*
X61000D01*
Y248000D01*
X2000Y516800D02*
X163000D01*
X2000Y407200D02*
X163000D01*
Y516800D01*
X2000Y407200D02*
Y516800D01*
X310000Y324000D02*
X434000D01*
X310000Y403000D02*
X434000D01*
Y324000D02*
Y403000D01*
X310000Y324000D02*
Y403000D01*
X179406Y344000D02*
Y356000D01*
X197406Y344000D02*
Y356000D01*
X217406Y360000D02*
Y370000D01*
X257406D01*
Y360000D02*
Y370000D01*
X217406Y330000D02*
Y340000D01*
Y330000D02*
X257406D01*
Y340000D01*
X162000Y146090D02*
Y150090D01*
X154000Y146090D02*
Y150090D01*
X102000Y159000D02*
X106000D01*
X102000Y151000D02*
X106000D01*
X198036Y152188D02*
X206036D01*
X198036Y124187D02*
X206036D01*
X198036D02*
Y152188D01*
X206036Y124187D02*
Y152188D01*
X248500Y206000D02*
X344500D01*
X248500Y104000D02*
X344500D01*
X1238460Y409227D02*
X1242460D01*
X1238460Y417227D02*
X1242460D01*
X1238460Y394363D02*
X1242460D01*
X1238460Y402363D02*
X1242460D01*
X1238460Y377238D02*
X1242460D01*
X1238460Y385238D02*
X1242460D01*
X1238460Y361238D02*
X1242460D01*
X1238460Y369238D02*
X1242460D01*
X1050184Y419233D02*
Y423233D01*
X1042184Y419233D02*
Y423233D01*
X1139670Y403210D02*
Y407210D01*
X1147670Y403210D02*
Y407210D01*
X1057184Y310233D02*
Y314233D01*
X1065184Y310233D02*
Y314233D01*
X1145384Y343483D02*
X1149384D01*
X1145384Y335483D02*
X1149384D01*
X1135166Y291003D02*
X1139166D01*
X1135166Y283003D02*
X1139166D01*
X1159000Y218485D02*
Y222485D01*
X1167000Y218485D02*
Y222485D01*
X1141000Y218485D02*
Y222485D01*
X1149000Y218485D02*
Y222485D01*
X894000Y219485D02*
Y223485D01*
X886000Y219485D02*
Y223485D01*
X331000Y487000D02*
Y491000D01*
X339000Y487000D02*
Y491000D01*
X230000Y492000D02*
X234000D01*
X230000Y484000D02*
X234000D01*
X297656Y344000D02*
Y356000D01*
X279656Y344000D02*
Y356000D01*
X371000Y194000D02*
Y198000D01*
X363000Y194000D02*
Y198000D01*
X780483Y298275D02*
X784483D01*
X780483Y290275D02*
X784483D01*
X796483Y194275D02*
X800483D01*
X796483Y202275D02*
X800483D01*
X1002000Y205485D02*
Y235485D01*
X994000Y205485D02*
Y235485D01*
Y205485D02*
X1002000D01*
X994000Y235485D02*
X1002000D01*
X532800Y211000D02*
Y277000D01*
X422700D02*
X532800D01*
X422700Y211000D02*
Y277000D01*
Y211000D02*
X532800Y211000D01*
X1060000Y190485D02*
X1096000D01*
X1060000Y250485D02*
X1096000D01*
Y190485D02*
Y250485D01*
X1060000Y190485D02*
Y250485D01*
X1076434Y371960D02*
Y421960D01*
Y371960D02*
X1114434D01*
Y421960D01*
X1076434D02*
X1114434D01*
X1076917Y328597D02*
Y335597D01*
X1083917D01*
X1111917Y293597D02*
X1118917D01*
Y300597D01*
Y328597D02*
Y335597D01*
X1111917D02*
X1118917D01*
X1076917Y300597D02*
X1083917Y293597D01*
X921250Y196835D02*
X955250D01*
X921250Y246835D02*
X955250D01*
X921250Y196835D02*
Y246835D01*
X955250Y196835D02*
Y246835D01*
X304750Y475500D02*
Y526500D01*
X271250Y475500D02*
Y526500D01*
Y475500D02*
X304750D01*
X271250Y526500D02*
X304750D01*
X744983Y262025D02*
X795983D01*
X744983Y228525D02*
X795983D01*
Y262025D01*
X744983Y228525D02*
Y262025D01*
X1211700Y388863D02*
Y392864D01*
X1219700Y388863D02*
Y392864D01*
X-1000Y153000D02*
Y222000D01*
D11*
X122000Y155900D02*
G03*
X122000Y155900I-1000J0D01*
G01*
D12*
X184036Y155188D02*
G03*
X184036Y155188I-1000J0D01*
G01*
X927250Y240785D02*
G03*
X927250Y240785I-1000J0D01*
G01*
X238688Y226887D02*
Y218556D01*
X240354Y216890D01*
X243686D01*
X245352Y218556D01*
Y226887D01*
X248685Y225221D02*
X250351Y226887D01*
X253683D01*
X255349Y225221D01*
Y223554D01*
X253683Y221888D01*
X255349Y220222D01*
Y218556D01*
X253683Y216890D01*
X250351D01*
X248685Y218556D01*
Y220222D01*
X250351Y221888D01*
X248685Y223554D01*
Y225221D01*
X250351Y221888D02*
X253683D01*
X278881Y239445D02*
X277214Y241111D01*
X273882D01*
X272216Y239445D01*
Y237778D01*
X273882Y236112D01*
X277214D01*
X278881Y234446D01*
Y232780D01*
X277214Y231114D01*
X273882D01*
X272216Y232780D01*
X282213Y241111D02*
Y231114D01*
X287211D01*
X288877Y232780D01*
Y234446D01*
X287211Y236112D01*
X282213D01*
X287211D01*
X288877Y237778D01*
Y239445D01*
X287211Y241111D01*
X282213D01*
X292210Y239445D02*
X293876Y241111D01*
X297208D01*
X298874Y239445D01*
Y237778D01*
X297208Y236112D01*
X298874Y234446D01*
Y232780D01*
X297208Y231114D01*
X293876D01*
X292210Y232780D01*
Y234446D01*
X293876Y236112D01*
X292210Y237778D01*
Y239445D01*
X293876Y236112D02*
X297208D01*
X324092Y239445D02*
X322426Y241111D01*
X319094D01*
X317428Y239445D01*
Y237778D01*
X319094Y236112D01*
X322426D01*
X324092Y234446D01*
Y232780D01*
X322426Y231114D01*
X319094D01*
X317428Y232780D01*
X327425Y241111D02*
Y231114D01*
X332423D01*
X334089Y232780D01*
Y234446D01*
X332423Y236112D01*
X327425D01*
X332423D01*
X334089Y237778D01*
Y239445D01*
X332423Y241111D01*
X327425D01*
X337422D02*
X344086D01*
Y239445D01*
X337422Y232780D01*
Y231114D01*
X1025852Y417233D02*
X1024185Y415567D01*
Y412235D01*
X1025852Y410569D01*
X1032516D01*
X1034182Y412235D01*
Y415567D01*
X1032516Y417233D01*
X1034182Y420566D02*
Y423898D01*
Y422232D01*
X1024185D01*
X1025852Y420566D01*
X1148004Y432542D02*
X1146338Y434208D01*
X1143006D01*
X1141340Y432542D01*
Y425878D01*
X1143006Y424212D01*
X1146338D01*
X1148004Y425878D01*
X1158001Y424212D02*
X1151337D01*
X1158001Y430876D01*
Y432542D01*
X1156335Y434208D01*
X1153003D01*
X1151337Y432542D01*
X1055518Y292565D02*
X1053851Y294232D01*
X1050519D01*
X1048853Y292565D01*
Y285901D01*
X1050519Y284235D01*
X1053851D01*
X1055518Y285901D01*
X1058850Y292565D02*
X1060516Y294232D01*
X1063848D01*
X1065514Y292565D01*
Y290899D01*
X1063848Y289233D01*
X1062182D01*
X1063848D01*
X1065514Y287567D01*
Y285901D01*
X1063848Y284235D01*
X1060516D01*
X1058850Y285901D01*
X1172718Y342816D02*
X1171051Y344482D01*
X1167719D01*
X1166053Y342816D01*
Y336151D01*
X1167719Y334485D01*
X1171051D01*
X1172718Y336151D01*
X1181048Y334485D02*
Y344482D01*
X1176050Y339483D01*
X1182714D01*
X1110832Y283671D02*
X1112498Y282005D01*
X1115830D01*
X1117496Y283671D01*
Y290335D01*
X1115830Y292002D01*
X1112498D01*
X1110832Y290335D01*
X1100835Y282005D02*
X1107499D01*
Y287003D01*
X1104167Y285337D01*
X1102501D01*
X1100835Y287003D01*
Y290335D01*
X1102501Y292002D01*
X1105833D01*
X1107499Y290335D01*
X1158668Y244819D02*
X1157001Y243153D01*
Y239820D01*
X1158668Y238154D01*
X1165332D01*
X1166998Y239820D01*
Y243153D01*
X1165332Y244819D01*
X1157001Y254816D02*
X1158668Y251483D01*
X1162000Y248151D01*
X1165332D01*
X1166998Y249817D01*
Y253150D01*
X1165332Y254816D01*
X1163666D01*
X1162000Y253150D01*
Y248151D01*
X1148332Y196151D02*
X1149998Y197817D01*
Y201149D01*
X1148332Y202815D01*
X1141668D01*
X1140002Y201149D01*
Y197817D01*
X1141668Y196151D01*
X1149998Y192819D02*
Y186154D01*
X1148332D01*
X1141668Y192819D01*
X1140002D01*
X869668Y219819D02*
X868002Y218153D01*
Y214820D01*
X869668Y213154D01*
X876332D01*
X877998Y214820D01*
Y218153D01*
X876332Y219819D01*
X869668Y223151D02*
X868002Y224817D01*
Y228150D01*
X869668Y229816D01*
X871334D01*
X873000Y228150D01*
X874666Y229816D01*
X876332D01*
X877998Y228150D01*
Y224817D01*
X876332Y223151D01*
X874666D01*
X873000Y224817D01*
X871334Y223151D01*
X869668D01*
X873000Y224817D02*
Y228150D01*
X350334Y483332D02*
X348668Y484998D01*
X345336D01*
X343669Y483332D01*
Y476668D01*
X345336Y475002D01*
X348668D01*
X350334Y476668D01*
X353666D02*
X355332Y475002D01*
X358665D01*
X360331Y476668D01*
Y483332D01*
X358665Y484998D01*
X355332D01*
X353666Y483332D01*
Y481666D01*
X355332Y480000D01*
X360331D01*
X227004Y506737D02*
X225338Y508403D01*
X222005D01*
X220339Y506737D01*
Y500072D01*
X222005Y498406D01*
X225338D01*
X227004Y500072D01*
X230336Y498406D02*
X233668D01*
X232002D01*
Y508403D01*
X230336Y506737D01*
X238667D02*
X240333Y508403D01*
X243665D01*
X245331Y506737D01*
Y500072D01*
X243665Y498406D01*
X240333D01*
X238667Y500072D01*
Y506737D01*
X185241Y388332D02*
X183575Y389998D01*
X180243D01*
X178576Y388332D01*
Y381668D01*
X180243Y380002D01*
X183575D01*
X185241Y381668D01*
X188573Y380002D02*
X191905D01*
X190239D01*
Y389998D01*
X188573Y388332D01*
X196904Y380002D02*
X200236D01*
X198570D01*
Y389998D01*
X196904Y388332D01*
X286500Y390321D02*
X284834Y391987D01*
X281502D01*
X279836Y390321D01*
Y383656D01*
X281502Y381990D01*
X284834D01*
X286500Y383656D01*
X289833Y381990D02*
X293165D01*
X291499D01*
Y391987D01*
X289833Y390321D01*
X304828Y381990D02*
X298163D01*
X304828Y388655D01*
Y390321D01*
X303162Y391987D01*
X299830D01*
X298163Y390321D01*
X369050Y226237D02*
X367384Y227903D01*
X364052D01*
X362386Y226237D01*
Y219572D01*
X364052Y217906D01*
X367384D01*
X369050Y219572D01*
X372383Y217906D02*
X375715D01*
X374049D01*
Y227903D01*
X372383Y226237D01*
X380713D02*
X382380Y227903D01*
X385712D01*
X387378Y226237D01*
Y224571D01*
X385712Y222904D01*
X384046D01*
X385712D01*
X387378Y221238D01*
Y219572D01*
X385712Y217906D01*
X382380D01*
X380713Y219572D01*
X153168Y190332D02*
X151502Y191998D01*
X148170D01*
X146504Y190332D01*
Y183668D01*
X148170Y182002D01*
X151502D01*
X153168Y183668D01*
X156501Y182002D02*
X159833D01*
X158167D01*
Y191998D01*
X156501Y190332D01*
X169830Y182002D02*
Y191998D01*
X164831Y187000D01*
X171496D01*
X90169Y112332D02*
X88502Y113998D01*
X85170D01*
X83504Y112332D01*
Y105668D01*
X85170Y104002D01*
X88502D01*
X90169Y105668D01*
X93501Y104002D02*
X96833D01*
X95167D01*
Y113998D01*
X93501Y112332D01*
X108496Y113998D02*
X101832D01*
Y109000D01*
X105164Y110666D01*
X106830D01*
X108496Y109000D01*
Y105668D01*
X106830Y104002D01*
X103498D01*
X101832Y105668D01*
X777651Y313607D02*
X775985Y315273D01*
X772653D01*
X770987Y313607D01*
Y306943D01*
X772653Y305277D01*
X775985D01*
X777651Y306943D01*
X780984Y305277D02*
X784316D01*
X782650D01*
Y315273D01*
X780984Y313607D01*
X795979Y315273D02*
X792646Y313607D01*
X789314Y310275D01*
Y306943D01*
X790980Y305277D01*
X794313D01*
X795979Y306943D01*
Y308609D01*
X794313Y310275D01*
X789314D01*
X792651Y186607D02*
X790985Y188273D01*
X787653D01*
X785987Y186607D01*
Y179943D01*
X787653Y178277D01*
X790985D01*
X792651Y179943D01*
X795984Y178277D02*
X799316D01*
X797650D01*
Y188273D01*
X795984Y186607D01*
X804314Y188273D02*
X810979D01*
Y186607D01*
X804314Y179943D01*
Y178277D01*
X980335Y250483D02*
Y240487D01*
X985334D01*
X987000Y242153D01*
Y248817D01*
X985334Y250483D01*
X980335D01*
X990332Y240487D02*
X993664D01*
X991998D01*
Y250483D01*
X990332Y248817D01*
X13903Y540443D02*
X8824D01*
X11364D01*
Y527747D01*
X8824Y525208D01*
X6285D01*
X3746Y527747D01*
X18981Y537904D02*
X21520Y540443D01*
X26599D01*
X29138Y537904D01*
Y535365D01*
X26599Y532826D01*
X24059D01*
X26599D01*
X29138Y530286D01*
Y527747D01*
X26599Y525208D01*
X21520D01*
X18981Y527747D01*
X15461Y310377D02*
X10382D01*
X12922D01*
Y297681D01*
X10382Y295142D01*
X7843D01*
X5304Y297681D01*
X28157Y295142D02*
Y310377D01*
X20539Y302759D01*
X30696D01*
X15461Y109618D02*
X10382D01*
X12922D01*
Y96922D01*
X10382Y94382D01*
X7843D01*
X5304Y96922D01*
X30696Y109618D02*
X20539D01*
Y102000D01*
X25618Y104539D01*
X28157D01*
X30696Y102000D01*
Y96922D01*
X28157Y94382D01*
X23078D01*
X20539Y96922D01*
X431281Y295467D02*
X427948D01*
X429614D01*
Y287136D01*
X427948Y285470D01*
X426282D01*
X424616Y287136D01*
X441277Y295467D02*
X437945Y293801D01*
X434613Y290468D01*
Y287136D01*
X436279Y285470D01*
X439611D01*
X441277Y287136D01*
Y288802D01*
X439611Y290468D01*
X434613D01*
X708394Y180151D02*
X705062D01*
X706728D01*
Y171820D01*
X705062Y170154D01*
X703396D01*
X701730Y171820D01*
X711727Y180151D02*
X718391D01*
Y178485D01*
X711727Y171820D01*
Y170154D01*
X434002Y152002D02*
Y148669D01*
Y150336D01*
X442332D01*
X443998Y148669D01*
Y147003D01*
X442332Y145337D01*
X443998Y155334D02*
X434002D01*
Y160332D01*
X435668Y161998D01*
X439000D01*
X440666Y160332D01*
Y155334D01*
X443998Y165331D02*
Y168663D01*
Y166997D01*
X434002D01*
X435668Y165331D01*
X460302Y151336D02*
Y148003D01*
Y149670D01*
X468632D01*
X470298Y148003D01*
Y146337D01*
X468632Y144671D01*
X470298Y154668D02*
X460302D01*
Y159666D01*
X461968Y161332D01*
X465300D01*
X466966Y159666D01*
Y154668D01*
X470298Y171329D02*
Y164665D01*
X463634Y171329D01*
X461968D01*
X460302Y169663D01*
Y166331D01*
X461968Y164665D01*
X485702Y151336D02*
Y148003D01*
Y149670D01*
X494032D01*
X495698Y148003D01*
Y146337D01*
X494032Y144671D01*
X495698Y154668D02*
X485702D01*
Y159666D01*
X487368Y161332D01*
X490700D01*
X492366Y159666D01*
Y154668D01*
X487368Y164665D02*
X485702Y166331D01*
Y169663D01*
X487368Y171329D01*
X489034D01*
X490700Y169663D01*
Y167997D01*
Y169663D01*
X492366Y171329D01*
X494032D01*
X495698Y169663D01*
Y166331D01*
X494032Y164665D01*
X1025335Y266483D02*
Y256487D01*
X1032000D01*
X1035332D02*
X1038664D01*
X1036998D01*
Y266483D01*
X1035332Y264817D01*
X207826Y388998D02*
Y379002D01*
X214490D01*
X224487D02*
X217822D01*
X224487Y385666D01*
Y387332D01*
X222821Y388998D01*
X219489D01*
X217822Y387332D01*
X85018Y210631D02*
Y200634D01*
X91683D01*
X95015Y208965D02*
X96681Y210631D01*
X100013D01*
X101679Y208965D01*
Y207299D01*
X100013Y205632D01*
X98347D01*
X100013D01*
X101679Y203966D01*
Y202300D01*
X100013Y200634D01*
X96681D01*
X95015Y202300D01*
X97336Y163002D02*
Y172998D01*
X102334D01*
X104000Y171332D01*
Y168000D01*
X102334Y166334D01*
X97336D01*
X100668D02*
X104000Y163002D01*
X107332D02*
X110665D01*
X108998D01*
Y172998D01*
X107332Y171332D01*
X152669Y121002D02*
Y130998D01*
X157668D01*
X159334Y129332D01*
Y126000D01*
X157668Y124334D01*
X152669D01*
X156002D02*
X159334Y121002D01*
X169331D02*
X162666D01*
X169331Y127666D01*
Y129332D01*
X167665Y130998D01*
X164332D01*
X162666Y129332D01*
X1323002Y328082D02*
X1321335Y329748D01*
X1318003D01*
X1316337Y328082D01*
Y326416D01*
X1318003Y324750D01*
X1321335D01*
X1323002Y323084D01*
Y321418D01*
X1321335Y319752D01*
X1318003D01*
X1316337Y321418D01*
X1326334Y329748D02*
Y319752D01*
X1331332D01*
X1332998Y321418D01*
Y323084D01*
X1331332Y324750D01*
X1326334D01*
X1331332D01*
X1332998Y326416D01*
Y328082D01*
X1331332Y329748D01*
X1326334D01*
X1336331Y319752D02*
X1339663D01*
X1337997D01*
Y329748D01*
X1336331Y328082D01*
X186586Y494332D02*
X184919Y495998D01*
X181587D01*
X179921Y494332D01*
Y492666D01*
X181587Y491000D01*
X184919D01*
X186586Y489334D01*
Y487668D01*
X184919Y486002D01*
X181587D01*
X179921Y487668D01*
X189918Y495998D02*
Y486002D01*
X194916D01*
X196582Y487668D01*
Y489334D01*
X194916Y491000D01*
X189918D01*
X194916D01*
X196582Y492666D01*
Y494332D01*
X194916Y495998D01*
X189918D01*
X206579Y486002D02*
X199914D01*
X206579Y492666D01*
Y494332D01*
X204913Y495998D01*
X201581D01*
X199914Y494332D01*
X126086Y134903D02*
X132750D01*
X129418D01*
Y124906D01*
X136082D02*
X139415D01*
X137748D01*
Y134903D01*
X136082Y133237D01*
X1075769Y437958D02*
Y429628D01*
X1077435Y427962D01*
X1080768D01*
X1082434Y429628D01*
Y437958D01*
X1085766Y427962D02*
X1089098D01*
X1087432D01*
Y437958D01*
X1085766Y436292D01*
X1072853Y354232D02*
Y345901D01*
X1074519Y344235D01*
X1077851D01*
X1079518Y345901D01*
Y354232D01*
X1089514Y344235D02*
X1082850D01*
X1089514Y350899D01*
Y352565D01*
X1087848Y354232D01*
X1084516D01*
X1082850Y352565D01*
X903669Y265483D02*
Y257153D01*
X905335Y255487D01*
X908668D01*
X910334Y257153D01*
Y265483D01*
X913666Y263817D02*
X915332Y265483D01*
X918664D01*
X920331Y263817D01*
Y262151D01*
X918664Y260485D01*
X916998D01*
X918664D01*
X920331Y258819D01*
Y257153D01*
X918664Y255487D01*
X915332D01*
X913666Y257153D01*
X271669Y540998D02*
Y532668D01*
X273335Y531002D01*
X276668D01*
X278334Y532668D01*
Y540998D01*
X286665Y531002D02*
Y540998D01*
X281666Y536000D01*
X288331D01*
X309669Y417998D02*
Y409668D01*
X311336Y408002D01*
X314668D01*
X316334Y409668D01*
Y417998D01*
X326331D02*
X319666D01*
Y413000D01*
X322998Y414666D01*
X324664D01*
X326331Y413000D01*
Y409668D01*
X324664Y408002D01*
X321332D01*
X319666Y409668D01*
X203705Y118096D02*
Y109765D01*
X205371Y108099D01*
X208703D01*
X210370Y109765D01*
Y118096D01*
X220366D02*
X217034Y116430D01*
X213702Y113097D01*
Y109765D01*
X215368Y108099D01*
X218700D01*
X220366Y109765D01*
Y111431D01*
X218700Y113097D01*
X213702D01*
X744152Y298273D02*
Y289943D01*
X745818Y288277D01*
X749150D01*
X750817Y289943D01*
Y298273D01*
X754149D02*
X760813D01*
Y296607D01*
X754149Y289943D01*
Y288277D01*
X1178119Y317482D02*
X1184784Y307485D01*
Y317482D02*
X1178119Y307485D01*
X1188116D02*
X1191448D01*
X1189782D01*
Y317482D01*
X1188116Y315816D01*
X872732Y168213D02*
X869400D01*
X871066D01*
Y159882D01*
X869400Y158216D01*
X867734D01*
X866068Y159882D01*
X882729Y158216D02*
X876065D01*
X882729Y164881D01*
Y166547D01*
X881063Y168213D01*
X877731D01*
X876065Y166547D01*
X1021494Y629871D02*
X1018162D01*
X1019828D01*
Y621541D01*
X1018162Y619875D01*
X1016496D01*
X1014830Y621541D01*
X1024827Y619875D02*
X1028159D01*
X1026493D01*
Y629871D01*
X1024827Y628205D01*
X1131626Y167322D02*
X1129960Y168988D01*
X1126627D01*
X1124961Y167322D01*
Y165655D01*
X1126627Y163989D01*
X1129960D01*
X1131626Y162323D01*
Y160657D01*
X1129960Y158991D01*
X1126627D01*
X1124961Y160657D01*
X1134958Y168988D02*
Y158991D01*
X1139956D01*
X1141623Y160657D01*
Y162323D01*
X1139956Y163989D01*
X1134958D01*
X1139956D01*
X1141623Y165655D01*
Y167322D01*
X1139956Y168988D01*
X1134958D01*
X1149953Y158991D02*
Y168988D01*
X1144955Y163989D01*
X1151619D01*
X1319335Y434332D02*
X1317669Y435998D01*
X1314337D01*
X1312671Y434332D01*
Y432666D01*
X1314337Y431000D01*
X1317669D01*
X1319335Y429334D01*
Y427668D01*
X1317669Y426002D01*
X1314337D01*
X1312671Y427668D01*
X1322668Y435998D02*
Y426002D01*
X1327666D01*
X1329332Y427668D01*
Y429334D01*
X1327666Y431000D01*
X1322668D01*
X1327666D01*
X1329332Y432666D01*
Y434332D01*
X1327666Y435998D01*
X1322668D01*
X1332664Y434332D02*
X1334331Y435998D01*
X1337663D01*
X1339329Y434332D01*
Y432666D01*
X1337663Y431000D01*
X1335997D01*
X1337663D01*
X1339329Y429334D01*
Y427668D01*
X1337663Y426002D01*
X1334331D01*
X1332664Y427668D01*
X1196368Y385032D02*
X1194702Y383366D01*
Y380034D01*
X1196368Y378368D01*
X1203032D01*
X1204698Y380034D01*
Y383366D01*
X1203032Y385032D01*
X1204698Y388364D02*
Y391697D01*
Y390030D01*
X1194702D01*
X1196368Y388364D01*
Y396695D02*
X1194702Y398361D01*
Y401693D01*
X1196368Y403359D01*
X1198034D01*
X1199700Y401693D01*
X1201366Y403359D01*
X1203032D01*
X1204698Y401693D01*
Y398361D01*
X1203032Y396695D01*
X1201366D01*
X1199700Y398361D01*
X1198034Y396695D01*
X1196368D01*
X1199700Y398361D02*
Y401693D01*
X1281436Y399696D02*
X1279769Y401362D01*
X1276437D01*
X1274771Y399696D01*
Y398030D01*
X1276437Y396363D01*
X1279769D01*
X1281436Y394697D01*
Y393031D01*
X1279769Y391365D01*
X1276437D01*
X1274771Y393031D01*
X1284768Y401362D02*
Y391365D01*
X1289766D01*
X1291432Y393031D01*
Y394697D01*
X1289766Y396363D01*
X1284768D01*
X1289766D01*
X1291432Y398030D01*
Y399696D01*
X1289766Y401362D01*
X1284768D01*
X1301429D02*
X1294765D01*
Y396363D01*
X1298097Y398030D01*
X1299763D01*
X1301429Y396363D01*
Y393031D01*
X1299763Y391365D01*
X1296431D01*
X1294765Y393031D01*
X1281436Y384646D02*
X1279769Y386312D01*
X1276437D01*
X1274771Y384646D01*
Y382980D01*
X1276437Y381313D01*
X1279769D01*
X1281436Y379647D01*
Y377981D01*
X1279769Y376315D01*
X1276437D01*
X1274771Y377981D01*
X1284768Y386312D02*
Y376315D01*
X1289766D01*
X1291432Y377981D01*
Y379647D01*
X1289766Y381313D01*
X1284768D01*
X1289766D01*
X1291432Y382980D01*
Y384646D01*
X1289766Y386312D01*
X1284768D01*
X1301429D02*
X1298097Y384646D01*
X1294765Y381313D01*
Y377981D01*
X1296431Y376315D01*
X1299763D01*
X1301429Y377981D01*
Y379647D01*
X1299763Y381313D01*
X1294765D01*
X0Y10165D02*
G03*
X10165Y0I10165J0D01*
G01*
X1365000Y625000D02*
G03*
X1355000Y635000I-10000J0D01*
G01*
X9726Y635000D02*
G03*
X0Y625274I0J-9726D01*
G01*
X1355314Y269564D02*
G03*
X1365000Y279250I0J9686D01*
G01*
X1213316Y269564D02*
G03*
X1200616Y256864I0J-12700D01*
G01*
X1187916Y0D02*
G03*
X1200616Y12700I0J12700D01*
G01*
X0Y10165D02*
Y625274D01*
X10165Y0D02*
X907093D01*
X9726Y635000D02*
X1355000Y635000D01*
X1365000Y624840D02*
X1365000Y279250D01*
X1200616Y12700D02*
Y256864D01*
X1365000Y279250D02*
Y281877D01*
X1213316Y269564D02*
X1355314D01*
X1180429Y0D02*
X1187916D01*
X907093D02*
X1180429D01*
D13*
X357500Y111000D02*
G03*
X356500Y111000I-500J0D01*
G01*
D02*
G03*
X357500Y111000I500J0D01*
G01*
D14*
X1074000Y240485D02*
G03*
X1074000Y240485I-3000J0D01*
G01*
X1090434Y414710D02*
G03*
X1090434Y414710I-3000J0D01*
G01*
X297750Y485500D02*
G03*
X297750Y485500I-3000J0D01*
G01*
X788983Y252025D02*
G03*
X788983Y252025I-3000J0D01*
G01*
D15*
X1066684Y425960D02*
G03*
X1066684Y425960I-1250J0D01*
G01*
X1089167Y286597D02*
G03*
X1089167Y286597I-1250J0D01*
G01*
X318000Y474250D02*
G03*
X318000Y474250I-1250J0D01*
G01*
X798483Y274025D02*
G03*
X798483Y274025I-1250J0D01*
G01*
M02*
