G04*
G04 #@! TF.GenerationSoftware,Altium Limited,Altium Designer,22.0.2 (36)*
G04*
G04 Layer_Color=32896*
%FSLAX44Y44*%
%MOMM*%
G71*
G04*
G04 #@! TF.SameCoordinates,2F7B36FA-1CAB-4409-8D5E-7B144DD93BD5*
G04*
G04*
G04 #@! TF.FilePolarity,Positive*
G04*
G01*
G75*
%ADD10C,0.1500*%
%ADD12C,0.2540*%
%ADD55C,0.4000*%
G36*
X740406Y389279D02*
X740711D01*
Y389127D01*
X740863D01*
Y388975D01*
X741015D01*
Y388823D01*
X741167D01*
Y388367D01*
X741319D01*
Y387910D01*
X741167D01*
Y387454D01*
X741015D01*
Y386998D01*
X740863D01*
Y386694D01*
X740711D01*
Y386238D01*
X740558D01*
Y385781D01*
X740406D01*
Y385477D01*
X740254D01*
Y385021D01*
X740102D01*
Y384717D01*
X739950D01*
Y384261D01*
X739798D01*
Y383957D01*
X739646D01*
Y383500D01*
X739494D01*
Y383196D01*
X739342D01*
Y382740D01*
X739190D01*
Y382436D01*
X739038D01*
Y381980D01*
X738886D01*
Y381524D01*
X738734D01*
Y381219D01*
X738582D01*
Y380763D01*
X738429D01*
Y380459D01*
X738278D01*
Y380003D01*
X738125D01*
Y379699D01*
X737973D01*
Y379242D01*
X737821D01*
Y378938D01*
X737669D01*
Y378482D01*
X737517D01*
Y378178D01*
X737365D01*
Y377722D01*
X737213D01*
Y377418D01*
X737061D01*
Y377113D01*
X736909D01*
Y376961D01*
X736757D01*
Y376809D01*
X736453D01*
Y376657D01*
X735540D01*
Y376809D01*
X735236D01*
Y376961D01*
X735084D01*
Y377113D01*
X734932D01*
Y377266D01*
X734780D01*
Y377570D01*
X734628D01*
Y377874D01*
X734476D01*
Y378330D01*
X734324D01*
Y378634D01*
X734172D01*
Y379090D01*
X734019D01*
Y379547D01*
X733867D01*
Y379851D01*
X733715D01*
Y380307D01*
X733563D01*
Y380611D01*
X733411D01*
Y381067D01*
X733259D01*
Y381371D01*
X733107D01*
Y381828D01*
X732955D01*
Y382132D01*
X732803D01*
Y382588D01*
X732651D01*
Y382892D01*
X732499D01*
Y383348D01*
X732347D01*
Y383805D01*
X732195D01*
Y384109D01*
X732043D01*
Y384565D01*
X731890D01*
Y384869D01*
X731739D01*
Y385325D01*
X731586D01*
Y385629D01*
X731434D01*
Y386086D01*
X731282D01*
Y386390D01*
X731130D01*
Y386846D01*
X730978D01*
Y387150D01*
X730826D01*
Y387606D01*
X730674D01*
Y388671D01*
X730826D01*
Y388823D01*
X730978D01*
Y389127D01*
X731282D01*
Y389279D01*
X731586D01*
Y389431D01*
X732499D01*
Y389279D01*
X732803D01*
Y389127D01*
X732955D01*
Y388975D01*
X733107D01*
Y388671D01*
X733259D01*
Y388367D01*
X733411D01*
Y387910D01*
X733563D01*
Y387454D01*
X733715D01*
Y387150D01*
X733867D01*
Y386694D01*
X734019D01*
Y386238D01*
X734172D01*
Y385781D01*
X734324D01*
Y385477D01*
X734476D01*
Y385021D01*
X734628D01*
Y384565D01*
X734780D01*
Y384261D01*
X734932D01*
Y383805D01*
X735084D01*
Y383348D01*
X735236D01*
Y383044D01*
X735388D01*
Y382588D01*
X735540D01*
Y382132D01*
X735692D01*
Y381828D01*
X735844D01*
Y381371D01*
X735996D01*
Y381524D01*
X736149D01*
Y381980D01*
X736301D01*
Y382436D01*
X736453D01*
Y382740D01*
X736605D01*
Y383196D01*
X736757D01*
Y383652D01*
X736909D01*
Y383957D01*
X737061D01*
Y384413D01*
X737213D01*
Y384869D01*
X737365D01*
Y385173D01*
X737517D01*
Y385629D01*
X737669D01*
Y386086D01*
X737821D01*
Y386390D01*
X737973D01*
Y386846D01*
X738125D01*
Y387302D01*
X738278D01*
Y387758D01*
X738429D01*
Y388063D01*
X738582D01*
Y388519D01*
X738734D01*
Y388823D01*
X738886D01*
Y388975D01*
X739038D01*
Y389127D01*
X739190D01*
Y389279D01*
X739494D01*
Y389431D01*
X740406D01*
Y389279D01*
D02*
G37*
G36*
X906467D02*
X910877D01*
Y385933D01*
X910725D01*
Y381980D01*
X910573D01*
Y373160D01*
X910421D01*
Y368597D01*
X910573D01*
Y361602D01*
X910725D01*
Y361298D01*
X910573D01*
Y361146D01*
X910421D01*
Y360994D01*
X909660D01*
Y361146D01*
X902817D01*
Y361298D01*
X902665D01*
Y363427D01*
X902817D01*
Y367533D01*
X902969D01*
Y373616D01*
X892781D01*
Y364188D01*
X892933D01*
Y361146D01*
X892781D01*
Y360994D01*
X891868D01*
Y361146D01*
X885025D01*
Y361298D01*
X884873D01*
Y362515D01*
X885025D01*
Y366164D01*
X885177D01*
Y371335D01*
X885329D01*
Y389279D01*
X885481D01*
Y389431D01*
X888827D01*
Y389279D01*
X893085D01*
Y389127D01*
X893237D01*
Y388215D01*
X893085D01*
Y385477D01*
X892933D01*
Y378786D01*
X893693D01*
Y378634D01*
X902969D01*
Y388975D01*
X902817D01*
Y389127D01*
X902969D01*
Y389431D01*
X906467D01*
Y389279D01*
D02*
G37*
G36*
X719117D02*
X719421D01*
Y389127D01*
X719573D01*
Y388975D01*
X719725D01*
Y388671D01*
X719877D01*
Y377570D01*
X719725D01*
Y377266D01*
X719573D01*
Y377113D01*
X719421D01*
Y376961D01*
X719117D01*
Y376809D01*
X713490D01*
Y376961D01*
X713338D01*
Y377113D01*
X713186D01*
Y377266D01*
X713034D01*
Y377418D01*
X712882D01*
Y378634D01*
X713034D01*
Y378786D01*
X713186D01*
Y378938D01*
X713338D01*
Y379090D01*
X713642D01*
Y379242D01*
X717292D01*
Y388671D01*
X717444D01*
Y388975D01*
X717596D01*
Y389127D01*
X717748D01*
Y389279D01*
X718052D01*
Y389431D01*
X719117D01*
Y389279D01*
D02*
G37*
G36*
X699195D02*
X699500D01*
Y389127D01*
X699652D01*
Y388975D01*
X699804D01*
Y388671D01*
X699956D01*
Y377418D01*
X699804D01*
Y377113D01*
X699652D01*
Y376961D01*
X699500D01*
Y376809D01*
X699195D01*
Y376657D01*
X698283D01*
Y376809D01*
X697979D01*
Y376961D01*
X697675D01*
Y377113D01*
X697523D01*
Y377418D01*
X697371D01*
Y388671D01*
X697523D01*
Y388975D01*
X697675D01*
Y389127D01*
X697827D01*
Y389279D01*
X698131D01*
Y389431D01*
X699195D01*
Y389279D01*
D02*
G37*
G36*
X727176D02*
X727480D01*
Y389127D01*
X727633D01*
Y388975D01*
X727937D01*
Y388671D01*
X728089D01*
Y388519D01*
X728241D01*
Y388215D01*
X728393D01*
Y387910D01*
X728545D01*
Y387454D01*
X728697D01*
Y387150D01*
X728849D01*
Y386694D01*
X729001D01*
Y386238D01*
X729153D01*
Y385933D01*
X729305D01*
Y385477D01*
X729457D01*
Y385021D01*
X729610D01*
Y384717D01*
X729762D01*
Y384261D01*
X729914D01*
Y383805D01*
X730066D01*
Y383348D01*
X730218D01*
Y383044D01*
X730370D01*
Y382588D01*
X730522D01*
Y382132D01*
X730674D01*
Y381828D01*
X730826D01*
Y381371D01*
X730978D01*
Y380915D01*
X731130D01*
Y380459D01*
X731282D01*
Y380155D01*
X731434D01*
Y379699D01*
X731586D01*
Y379242D01*
X731739D01*
Y378938D01*
X731890D01*
Y378482D01*
X732043D01*
Y377266D01*
X731890D01*
Y376961D01*
X731739D01*
Y376809D01*
X731434D01*
Y376657D01*
X730978D01*
Y376505D01*
X730522D01*
Y376657D01*
X730066D01*
Y376809D01*
X729914D01*
Y376961D01*
X729762D01*
Y377113D01*
X729610D01*
Y377570D01*
X729457D01*
Y378026D01*
X729305D01*
Y378482D01*
X729153D01*
Y378938D01*
X729001D01*
Y379090D01*
X724135D01*
Y378938D01*
X723983D01*
Y378482D01*
X723831D01*
Y378026D01*
X723679D01*
Y377570D01*
X723527D01*
Y377266D01*
X723375D01*
Y376961D01*
X723223D01*
Y376809D01*
X723071D01*
Y376657D01*
X722614D01*
Y376505D01*
X722006D01*
Y376657D01*
X721702D01*
Y376809D01*
X721398D01*
Y376961D01*
X721246D01*
Y377266D01*
X721094D01*
Y378330D01*
X721246D01*
Y378786D01*
X721398D01*
Y379090D01*
X721550D01*
Y379547D01*
X721702D01*
Y380003D01*
X721854D01*
Y380459D01*
X722006D01*
Y380763D01*
X722158D01*
Y381219D01*
X722310D01*
Y381675D01*
X722462D01*
Y382132D01*
X722614D01*
Y382588D01*
X722766D01*
Y382892D01*
X722918D01*
Y383348D01*
X723071D01*
Y383805D01*
X723223D01*
Y384261D01*
X723375D01*
Y384565D01*
X723527D01*
Y385021D01*
X723679D01*
Y385477D01*
X723831D01*
Y385933D01*
X723983D01*
Y386390D01*
X724135D01*
Y386694D01*
X724287D01*
Y387150D01*
X724439D01*
Y387606D01*
X724591D01*
Y388063D01*
X724743D01*
Y388367D01*
X724895D01*
Y388671D01*
X725047D01*
Y388823D01*
X725199D01*
Y388975D01*
X725351D01*
Y389127D01*
X725656D01*
Y389279D01*
X725960D01*
Y389431D01*
X727176D01*
Y389279D01*
D02*
G37*
G36*
X707255D02*
X707559D01*
Y389127D01*
X707863D01*
Y388975D01*
X708016D01*
Y388823D01*
X708168D01*
Y388671D01*
X708320D01*
Y388367D01*
X708472D01*
Y388063D01*
X708624D01*
Y387606D01*
X708776D01*
Y387302D01*
X708928D01*
Y386846D01*
X709080D01*
Y386390D01*
X709232D01*
Y385933D01*
X709384D01*
Y385629D01*
X709536D01*
Y385173D01*
X709688D01*
Y384717D01*
X709840D01*
Y384413D01*
X709992D01*
Y383957D01*
X710145D01*
Y383500D01*
X710297D01*
Y383196D01*
X710449D01*
Y382740D01*
X710601D01*
Y382284D01*
X710753D01*
Y381828D01*
X710905D01*
Y381524D01*
X711057D01*
Y381067D01*
X711209D01*
Y380611D01*
X711361D01*
Y380307D01*
X711513D01*
Y379851D01*
X711665D01*
Y379394D01*
X711817D01*
Y378938D01*
X711969D01*
Y378634D01*
X712121D01*
Y378178D01*
X712273D01*
Y377418D01*
X712121D01*
Y377113D01*
X711969D01*
Y376961D01*
X711817D01*
Y376809D01*
X711665D01*
Y376657D01*
X711209D01*
Y376505D01*
X710601D01*
Y376657D01*
X710297D01*
Y376809D01*
X709992D01*
Y376961D01*
X709840D01*
Y377266D01*
X709688D01*
Y377722D01*
X709536D01*
Y378178D01*
X709384D01*
Y378634D01*
X709232D01*
Y379090D01*
X704214D01*
Y378786D01*
X704062D01*
Y378330D01*
X703910D01*
Y377874D01*
X703757D01*
Y377418D01*
X703605D01*
Y377113D01*
X703453D01*
Y376961D01*
X703301D01*
Y376809D01*
X703149D01*
Y376657D01*
X702693D01*
Y376505D01*
X702237D01*
Y376657D01*
X701781D01*
Y376809D01*
X701629D01*
Y376961D01*
X701477D01*
Y377113D01*
X701324D01*
Y377418D01*
X701172D01*
Y378178D01*
X701324D01*
Y378634D01*
X701477D01*
Y378938D01*
X701629D01*
Y379394D01*
X701781D01*
Y379851D01*
X701933D01*
Y380307D01*
X702085D01*
Y380763D01*
X702237D01*
Y381067D01*
X702389D01*
Y381524D01*
X702541D01*
Y381980D01*
X702693D01*
Y382436D01*
X702845D01*
Y382740D01*
X702997D01*
Y383196D01*
X703149D01*
Y383652D01*
X703301D01*
Y384109D01*
X703453D01*
Y384565D01*
X703605D01*
Y384869D01*
X703757D01*
Y385325D01*
X703910D01*
Y385781D01*
X704062D01*
Y386238D01*
X704214D01*
Y386542D01*
X704366D01*
Y386998D01*
X704518D01*
Y387454D01*
X704670D01*
Y387910D01*
X704822D01*
Y388215D01*
X704974D01*
Y388519D01*
X705126D01*
Y388671D01*
X705278D01*
Y388975D01*
X705582D01*
Y389127D01*
X705734D01*
Y389279D01*
X706039D01*
Y389431D01*
X707255D01*
Y389279D01*
D02*
G37*
G36*
X692200D02*
X692809D01*
Y389127D01*
X693265D01*
Y388975D01*
X693569D01*
Y388823D01*
X693873D01*
Y388671D01*
X694025D01*
Y388519D01*
X694177D01*
Y388367D01*
X694481D01*
Y388215D01*
X694633D01*
Y388063D01*
X694785D01*
Y387758D01*
X694938D01*
Y387606D01*
X695090D01*
Y387302D01*
X695242D01*
Y386998D01*
X695394D01*
Y386542D01*
X695546D01*
Y385781D01*
X695698D01*
Y385173D01*
X695546D01*
Y384413D01*
X695394D01*
Y383957D01*
X695242D01*
Y383805D01*
X695090D01*
Y383500D01*
X694938D01*
Y383348D01*
X694785D01*
Y383196D01*
X694633D01*
Y383044D01*
X694329D01*
Y382892D01*
X694177D01*
Y382740D01*
X693873D01*
Y382588D01*
X693417D01*
Y382436D01*
X693113D01*
Y382284D01*
X692656D01*
Y382132D01*
X692048D01*
Y381980D01*
X691592D01*
Y381828D01*
X691136D01*
Y381675D01*
X690679D01*
Y381524D01*
X690375D01*
Y381371D01*
X690223D01*
Y381219D01*
X689919D01*
Y380915D01*
X689767D01*
Y380003D01*
X689919D01*
Y379699D01*
X690071D01*
Y379547D01*
X690223D01*
Y379394D01*
X690375D01*
Y379242D01*
X690679D01*
Y379090D01*
X691440D01*
Y378938D01*
X691592D01*
Y379090D01*
X692504D01*
Y379242D01*
X692961D01*
Y379394D01*
X693417D01*
Y379547D01*
X694025D01*
Y379699D01*
X694938D01*
Y379547D01*
X695242D01*
Y379394D01*
X695394D01*
Y379242D01*
X695546D01*
Y378938D01*
X695698D01*
Y378026D01*
X695546D01*
Y377722D01*
X695394D01*
Y377570D01*
X695242D01*
Y377418D01*
X695090D01*
Y377266D01*
X694938D01*
Y377113D01*
X694633D01*
Y376961D01*
X694177D01*
Y376809D01*
X693721D01*
Y376657D01*
X692961D01*
Y376505D01*
X690223D01*
Y376657D01*
X689615D01*
Y376809D01*
X689311D01*
Y376961D01*
X689007D01*
Y377113D01*
X688703D01*
Y377266D01*
X688550D01*
Y377418D01*
X688246D01*
Y377570D01*
X688094D01*
Y377722D01*
X687942D01*
Y377874D01*
X687790D01*
Y378026D01*
X687638D01*
Y378330D01*
X687486D01*
Y378482D01*
X687334D01*
Y378786D01*
X687182D01*
Y379242D01*
X687030D01*
Y379699D01*
X686878D01*
Y381371D01*
X687030D01*
Y381980D01*
X687182D01*
Y382284D01*
X687334D01*
Y382588D01*
X687486D01*
Y382740D01*
X687638D01*
Y382892D01*
X687790D01*
Y383044D01*
X687942D01*
Y383196D01*
X688094D01*
Y383348D01*
X688246D01*
Y383500D01*
X688550D01*
Y383652D01*
X688703D01*
Y383805D01*
X689007D01*
Y383957D01*
X689463D01*
Y384109D01*
X689767D01*
Y384261D01*
X690223D01*
Y384413D01*
X690832D01*
Y384565D01*
X691288D01*
Y384717D01*
X691744D01*
Y384869D01*
X692048D01*
Y385021D01*
X692352D01*
Y385173D01*
X692504D01*
Y385325D01*
X692656D01*
Y385477D01*
X692809D01*
Y386086D01*
X692656D01*
Y386390D01*
X692504D01*
Y386542D01*
X692352D01*
Y386694D01*
X692048D01*
Y386846D01*
X690375D01*
Y386694D01*
X689919D01*
Y386542D01*
X689615D01*
Y386390D01*
X688550D01*
Y386542D01*
X688246D01*
Y386694D01*
X688094D01*
Y386846D01*
X687942D01*
Y387150D01*
X687790D01*
Y388063D01*
X687942D01*
Y388367D01*
X688094D01*
Y388519D01*
X688246D01*
Y388671D01*
X688399D01*
Y388823D01*
X688703D01*
Y388975D01*
X689007D01*
Y389127D01*
X689463D01*
Y389279D01*
X690223D01*
Y389431D01*
X692200D01*
Y389279D01*
D02*
G37*
G36*
X830280Y374072D02*
X830736D01*
Y373920D01*
X831040D01*
Y373768D01*
X831344D01*
Y373616D01*
X831497D01*
Y373464D01*
X831648D01*
Y373312D01*
X831801D01*
Y373160D01*
X831953D01*
Y372855D01*
X832105D01*
Y372399D01*
X832257D01*
Y370879D01*
X832105D01*
Y370574D01*
X831953D01*
Y370270D01*
X831801D01*
Y370118D01*
X831648D01*
Y369966D01*
X831497D01*
Y369814D01*
X831344D01*
Y369662D01*
X831192D01*
Y369510D01*
X830888D01*
Y369358D01*
X830584D01*
Y369206D01*
X828911D01*
Y369358D01*
X828607D01*
Y369510D01*
X828303D01*
Y369662D01*
X828151D01*
Y369814D01*
X827999D01*
Y369966D01*
X827847D01*
Y370118D01*
X827695D01*
Y370422D01*
X827543D01*
Y370727D01*
X827391D01*
Y371183D01*
X827238D01*
Y372247D01*
X827391D01*
Y372703D01*
X827543D01*
Y373008D01*
X827695D01*
Y373160D01*
X827847D01*
Y373312D01*
X827999D01*
Y373464D01*
X828151D01*
Y373616D01*
X828303D01*
Y373768D01*
X828455D01*
Y373920D01*
X828759D01*
Y374072D01*
X829215D01*
Y374224D01*
X830280D01*
Y374072D01*
D02*
G37*
G36*
X871491Y382588D02*
X872403D01*
Y382436D01*
X873012D01*
Y382284D01*
X873468D01*
Y382132D01*
X873924D01*
Y381980D01*
X874380D01*
Y381828D01*
X874684D01*
Y381675D01*
X874988D01*
Y381524D01*
X875293D01*
Y381371D01*
X875597D01*
Y381219D01*
X875901D01*
Y381067D01*
X876053D01*
Y380915D01*
X876357D01*
Y380763D01*
X876509D01*
Y380611D01*
X876813D01*
Y380459D01*
X876965D01*
Y380307D01*
X877117D01*
Y380155D01*
X877270D01*
Y380003D01*
X877422D01*
Y379851D01*
X877574D01*
Y379699D01*
X877726D01*
Y379547D01*
X877878D01*
Y379394D01*
X878030D01*
Y379242D01*
X878182D01*
Y379090D01*
X878334D01*
Y378786D01*
X878486D01*
Y378634D01*
X878638D01*
Y378482D01*
X878790D01*
Y378178D01*
X878942D01*
Y378026D01*
X879094D01*
Y377722D01*
X879247D01*
Y377418D01*
X879398D01*
Y377113D01*
X879551D01*
Y376809D01*
X879703D01*
Y376353D01*
X879855D01*
Y375897D01*
X880007D01*
Y375441D01*
X880159D01*
Y374832D01*
X880311D01*
Y374072D01*
X880463D01*
Y372399D01*
X880615D01*
Y371031D01*
X880463D01*
Y369510D01*
X880311D01*
Y368750D01*
X880159D01*
Y367989D01*
X880007D01*
Y367533D01*
X879855D01*
Y367077D01*
X879703D01*
Y366773D01*
X879551D01*
Y366469D01*
X879398D01*
Y366164D01*
X879247D01*
Y365860D01*
X879094D01*
Y365556D01*
X878942D01*
Y365252D01*
X878790D01*
Y365100D01*
X878638D01*
Y364796D01*
X878486D01*
Y364644D01*
X878334D01*
Y364492D01*
X878182D01*
Y364340D01*
X878030D01*
Y364188D01*
X877878D01*
Y364035D01*
X877726D01*
Y363731D01*
X877574D01*
Y363579D01*
X877270D01*
Y363427D01*
X877117D01*
Y363275D01*
X876965D01*
Y363123D01*
X876813D01*
Y362971D01*
X876509D01*
Y362819D01*
X876357D01*
Y362667D01*
X876205D01*
Y362515D01*
X875901D01*
Y362363D01*
X875597D01*
Y362211D01*
X875293D01*
Y362058D01*
X874988D01*
Y361906D01*
X874684D01*
Y361754D01*
X874380D01*
Y361602D01*
X873924D01*
Y361450D01*
X873468D01*
Y361298D01*
X872859D01*
Y361146D01*
X872251D01*
Y360994D01*
X871491D01*
Y360842D01*
X870274D01*
Y360690D01*
X866168D01*
Y360842D01*
X864952D01*
Y360994D01*
X864192D01*
Y361146D01*
X863583D01*
Y361298D01*
X863127D01*
Y361450D01*
X862671D01*
Y361602D01*
X862215D01*
Y361754D01*
X861758D01*
Y361906D01*
X861302D01*
Y362058D01*
X860998D01*
Y362211D01*
X860846D01*
Y362363D01*
X860694D01*
Y364035D01*
X860542D01*
Y364492D01*
Y364644D01*
Y366316D01*
X860390D01*
Y366925D01*
X860542D01*
Y367077D01*
X860846D01*
Y366925D01*
X861150D01*
Y366773D01*
X861454D01*
Y366621D01*
X861910D01*
Y366469D01*
X862215D01*
Y366316D01*
X862519D01*
Y366164D01*
X862975D01*
Y366012D01*
X863431D01*
Y365860D01*
X863887D01*
Y365708D01*
X864648D01*
Y365556D01*
X865560D01*
Y365404D01*
X868906D01*
Y365556D01*
X869666D01*
Y365708D01*
X870122D01*
Y365860D01*
X870579D01*
Y366012D01*
X870883D01*
Y366164D01*
X871187D01*
Y366316D01*
X871491D01*
Y366469D01*
X871643D01*
Y366621D01*
X871795D01*
Y366773D01*
X871947D01*
Y366925D01*
X872099D01*
Y367077D01*
X872251D01*
Y367229D01*
X872403D01*
Y367381D01*
X872555D01*
Y367533D01*
X872707D01*
Y367837D01*
X872859D01*
Y367989D01*
X873012D01*
Y368293D01*
X873164D01*
Y368750D01*
X873316D01*
Y369206D01*
X873468D01*
Y369966D01*
X869514D01*
Y370118D01*
X860998D01*
Y370270D01*
X859781D01*
Y370422D01*
X859629D01*
Y372855D01*
X859781D01*
Y374376D01*
X859934D01*
Y375289D01*
X860086D01*
Y375897D01*
X860238D01*
Y376505D01*
X860390D01*
Y376961D01*
X860542D01*
Y377266D01*
X860694D01*
Y377722D01*
X860846D01*
Y378026D01*
X860998D01*
Y378330D01*
X861150D01*
Y378634D01*
X861302D01*
Y378786D01*
X861454D01*
Y379090D01*
X861606D01*
Y379242D01*
X861758D01*
Y379547D01*
X861910D01*
Y379699D01*
X862063D01*
Y379851D01*
X862215D01*
Y380003D01*
X862367D01*
Y380307D01*
X862519D01*
Y380459D01*
X862671D01*
Y380611D01*
X862975D01*
Y380763D01*
X863127D01*
Y380915D01*
X863279D01*
Y381067D01*
X863431D01*
Y381219D01*
X863735D01*
Y381371D01*
X863887D01*
Y381524D01*
X864192D01*
Y381675D01*
X864496D01*
Y381828D01*
X864800D01*
Y381980D01*
X865256D01*
Y382132D01*
X865712D01*
Y382284D01*
X866168D01*
Y382436D01*
X866777D01*
Y382588D01*
X867689D01*
Y382740D01*
X871491D01*
Y382588D01*
D02*
G37*
G36*
X741927Y373312D02*
X742231D01*
Y373160D01*
X742383D01*
Y373008D01*
X742535D01*
Y372703D01*
X742688D01*
Y371639D01*
X742535D01*
Y370879D01*
X742383D01*
Y370270D01*
X742231D01*
Y369662D01*
X742079D01*
Y368902D01*
X741927D01*
Y368293D01*
X741775D01*
Y367685D01*
X741623D01*
Y367077D01*
X741471D01*
Y366316D01*
X741319D01*
Y365708D01*
X741167D01*
Y365100D01*
X741015D01*
Y364340D01*
X740863D01*
Y363731D01*
X740711D01*
Y363123D01*
X740558D01*
Y362515D01*
X740406D01*
Y361906D01*
X740254D01*
Y361450D01*
X740102D01*
Y361298D01*
X739950D01*
Y361146D01*
X739798D01*
Y360994D01*
X739646D01*
Y360842D01*
X739190D01*
Y360690D01*
X738125D01*
Y360842D01*
X737669D01*
Y360994D01*
X737517D01*
Y361146D01*
X737365D01*
Y361298D01*
X737213D01*
Y361450D01*
X737061D01*
Y361754D01*
X736909D01*
Y362211D01*
X736757D01*
Y362667D01*
X736605D01*
Y363123D01*
X736453D01*
Y363731D01*
X736301D01*
Y364188D01*
X736149D01*
Y364644D01*
X735996D01*
Y365252D01*
X735844D01*
Y365708D01*
X735692D01*
Y366164D01*
X735540D01*
Y366773D01*
X735388D01*
Y367229D01*
X735236D01*
Y367685D01*
X735084D01*
Y368293D01*
X734932D01*
Y368750D01*
X734780D01*
Y368445D01*
X734628D01*
Y367837D01*
X734476D01*
Y367381D01*
X734324D01*
Y366925D01*
X734172D01*
Y366316D01*
X734019D01*
Y365860D01*
X733867D01*
Y365404D01*
X733715D01*
Y364796D01*
X733563D01*
Y364340D01*
X733411D01*
Y363883D01*
X733259D01*
Y363275D01*
X733107D01*
Y362819D01*
X732955D01*
Y362363D01*
X732803D01*
Y361906D01*
X732651D01*
Y361602D01*
X732499D01*
Y361298D01*
X732347D01*
Y361146D01*
X732195D01*
Y360994D01*
X731890D01*
Y360842D01*
X731586D01*
Y360690D01*
X730370D01*
Y360842D01*
X730066D01*
Y360994D01*
X729914D01*
Y361146D01*
X729762D01*
Y361298D01*
X729610D01*
Y361450D01*
X729457D01*
Y361754D01*
X729305D01*
Y362211D01*
X729153D01*
Y362819D01*
X729001D01*
Y363427D01*
X728849D01*
Y364188D01*
X728697D01*
Y364796D01*
X728545D01*
Y365404D01*
X728393D01*
Y366164D01*
X728241D01*
Y366773D01*
X728089D01*
Y367381D01*
X727937D01*
Y368141D01*
X727785D01*
Y368750D01*
X727633D01*
Y369358D01*
X727480D01*
Y370118D01*
X727328D01*
Y370727D01*
X727176D01*
Y371335D01*
X727024D01*
Y372855D01*
X727176D01*
Y373008D01*
X727328D01*
Y373160D01*
X727480D01*
Y373312D01*
X727785D01*
Y373464D01*
X728697D01*
Y373312D01*
X729001D01*
Y373160D01*
X729153D01*
Y373008D01*
X729305D01*
Y372855D01*
X729457D01*
Y372551D01*
X729610D01*
Y371943D01*
X729762D01*
Y371183D01*
X729914D01*
Y370422D01*
X730066D01*
Y369662D01*
X730218D01*
Y368902D01*
X730370D01*
Y368141D01*
X730522D01*
Y367381D01*
X730674D01*
Y366621D01*
X730826D01*
Y365860D01*
X730978D01*
Y365100D01*
X731130D01*
Y364948D01*
X731282D01*
Y365404D01*
X731434D01*
Y365860D01*
X731586D01*
Y366469D01*
X731739D01*
Y366925D01*
X731890D01*
Y367381D01*
X732043D01*
Y367989D01*
X732195D01*
Y368445D01*
X732347D01*
Y368902D01*
X732499D01*
Y369510D01*
X732651D01*
Y369966D01*
X732803D01*
Y370574D01*
X732955D01*
Y371031D01*
X733107D01*
Y371487D01*
X733259D01*
Y372095D01*
X733411D01*
Y372551D01*
X733563D01*
Y372855D01*
X733715D01*
Y373008D01*
X733867D01*
Y373160D01*
X734019D01*
Y373312D01*
X734324D01*
Y373464D01*
X735236D01*
Y373312D01*
X735540D01*
Y373160D01*
X735844D01*
Y373008D01*
X735996D01*
Y372703D01*
X736149D01*
Y372399D01*
X736301D01*
Y371943D01*
X736453D01*
Y371335D01*
X736605D01*
Y370879D01*
X736757D01*
Y370270D01*
X736909D01*
Y369814D01*
X737061D01*
Y369358D01*
X737213D01*
Y368750D01*
X737365D01*
Y368293D01*
X737517D01*
Y367837D01*
X737669D01*
Y367229D01*
X737821D01*
Y366773D01*
X737973D01*
Y366164D01*
X738125D01*
Y365708D01*
X738278D01*
Y365252D01*
X738429D01*
Y364796D01*
X738582D01*
Y365404D01*
X738734D01*
Y366164D01*
X738886D01*
Y366925D01*
X739038D01*
Y367685D01*
X739190D01*
Y368293D01*
X739342D01*
Y369054D01*
X739494D01*
Y369814D01*
X739646D01*
Y370574D01*
X739798D01*
Y371335D01*
X739950D01*
Y372095D01*
X740102D01*
Y372703D01*
X740254D01*
Y373008D01*
X740406D01*
Y373160D01*
X740558D01*
Y373312D01*
X740863D01*
Y373464D01*
X741927D01*
Y373312D01*
D02*
G37*
G36*
X815225Y382436D02*
X816441D01*
Y382284D01*
X817202D01*
Y382132D01*
X817658D01*
Y381980D01*
X818114D01*
Y381828D01*
X818570D01*
Y381675D01*
X818875D01*
Y381524D01*
X819179D01*
Y381371D01*
X819483D01*
Y381219D01*
X819787D01*
Y381067D01*
X819939D01*
Y380915D01*
X820243D01*
Y380763D01*
X820395D01*
Y380611D01*
X820547D01*
Y380459D01*
X820699D01*
Y380307D01*
X820852D01*
Y380155D01*
X821004D01*
Y380003D01*
X821156D01*
Y379851D01*
X821308D01*
Y379699D01*
X821460D01*
Y379547D01*
X821612D01*
Y379242D01*
X821764D01*
Y378938D01*
X821916D01*
Y378634D01*
X822068D01*
Y378330D01*
X822220D01*
Y377722D01*
X822372D01*
Y375136D01*
X822220D01*
Y374680D01*
X822068D01*
Y374224D01*
X821916D01*
Y373920D01*
X821764D01*
Y373616D01*
X821612D01*
Y373464D01*
X821460D01*
Y373160D01*
X821308D01*
Y373008D01*
X821156D01*
Y372855D01*
X821004D01*
Y372703D01*
X820852D01*
Y372551D01*
X820699D01*
Y372399D01*
X820547D01*
Y372247D01*
X820243D01*
Y372095D01*
X820091D01*
Y371943D01*
X819787D01*
Y371791D01*
X819635D01*
Y371639D01*
X819331D01*
Y371487D01*
X819027D01*
Y371335D01*
X818723D01*
Y371183D01*
X818266D01*
Y371031D01*
X817810D01*
Y370879D01*
X817354D01*
Y370727D01*
X816898D01*
Y370574D01*
X816441D01*
Y370422D01*
X815985D01*
Y370270D01*
X815529D01*
Y370118D01*
X815073D01*
Y369966D01*
X814465D01*
Y369814D01*
X814160D01*
Y369662D01*
X813704D01*
Y369510D01*
X813248D01*
Y369358D01*
X812944D01*
Y369206D01*
X812640D01*
Y369054D01*
X812336D01*
Y368902D01*
X812184D01*
Y368750D01*
X811879D01*
Y368597D01*
X811727D01*
Y368445D01*
X811575D01*
Y368141D01*
X811423D01*
Y367989D01*
X811271D01*
Y367533D01*
X811119D01*
Y366469D01*
X811271D01*
Y366012D01*
X811423D01*
Y365708D01*
X811575D01*
Y365556D01*
X811727D01*
Y365404D01*
X811879D01*
Y365252D01*
X812031D01*
Y365100D01*
X812184D01*
Y364948D01*
X812336D01*
Y364796D01*
X812640D01*
Y364644D01*
X812944D01*
Y364492D01*
X813248D01*
Y364340D01*
X813704D01*
Y364188D01*
X814313D01*
Y364035D01*
X817354D01*
Y364188D01*
X818114D01*
Y364340D01*
X818723D01*
Y364492D01*
X819179D01*
Y364644D01*
X819483D01*
Y364796D01*
X819787D01*
Y364948D01*
X820243D01*
Y365100D01*
X820395D01*
Y365252D01*
X820699D01*
Y365404D01*
X821004D01*
Y365556D01*
X821156D01*
Y365708D01*
X821460D01*
Y365860D01*
X821916D01*
Y365708D01*
X822068D01*
Y363579D01*
X822220D01*
Y362211D01*
X822068D01*
Y362058D01*
X821764D01*
Y361906D01*
X821460D01*
Y361754D01*
X821004D01*
Y361602D01*
X820547D01*
Y361450D01*
X819939D01*
Y361298D01*
X819331D01*
Y361146D01*
X818570D01*
Y360994D01*
X817354D01*
Y360842D01*
X813856D01*
Y360994D01*
X812792D01*
Y361146D01*
X812031D01*
Y361298D01*
X811423D01*
Y361450D01*
X810967D01*
Y361602D01*
X810663D01*
Y361754D01*
X810359D01*
Y361906D01*
X810055D01*
Y362058D01*
X809750D01*
Y362211D01*
X809446D01*
Y362363D01*
X809294D01*
Y362515D01*
X808990D01*
Y362667D01*
X808838D01*
Y362819D01*
X808686D01*
Y362971D01*
X808534D01*
Y363123D01*
X808230D01*
Y363275D01*
X808078D01*
Y363427D01*
X807926D01*
Y363731D01*
X807774D01*
Y363883D01*
X807621D01*
Y364035D01*
X807469D01*
Y364340D01*
X807317D01*
Y364492D01*
X807165D01*
Y364796D01*
X807013D01*
Y365100D01*
X806861D01*
Y365556D01*
X806709D01*
Y366012D01*
X806557D01*
Y366925D01*
X806405D01*
Y367989D01*
X806557D01*
Y368902D01*
X806709D01*
Y369358D01*
X806861D01*
Y369814D01*
X807013D01*
Y370118D01*
X807165D01*
Y370422D01*
X807317D01*
Y370574D01*
X807469D01*
Y370879D01*
X807621D01*
Y371031D01*
X807774D01*
Y371183D01*
X807926D01*
Y371335D01*
X808078D01*
Y371487D01*
X808230D01*
Y371639D01*
X808382D01*
Y371791D01*
X808686D01*
Y371943D01*
X808838D01*
Y372095D01*
X808990D01*
Y372247D01*
X809294D01*
Y372399D01*
X809598D01*
Y372551D01*
X809902D01*
Y372703D01*
X810207D01*
Y372855D01*
X810511D01*
Y373008D01*
X810967D01*
Y373160D01*
X811423D01*
Y373312D01*
X811879D01*
Y373464D01*
X812336D01*
Y373616D01*
X812792D01*
Y373768D01*
X813400D01*
Y373920D01*
X813856D01*
Y374072D01*
X814465D01*
Y374224D01*
X814921D01*
Y374376D01*
X815377D01*
Y374528D01*
X815833D01*
Y374680D01*
X816137D01*
Y374832D01*
X816441D01*
Y374985D01*
X816746D01*
Y375136D01*
X817050D01*
Y375289D01*
X817202D01*
Y375441D01*
X817354D01*
Y375593D01*
X817506D01*
Y375745D01*
X817658D01*
Y376049D01*
X817810D01*
Y376657D01*
X817962D01*
Y376961D01*
X817810D01*
Y377722D01*
X817658D01*
Y377874D01*
X817506D01*
Y378178D01*
X817354D01*
Y378330D01*
X817202D01*
Y378482D01*
X817050D01*
Y378634D01*
X816746D01*
Y378786D01*
X816594D01*
Y378938D01*
X816289D01*
Y379090D01*
X815833D01*
Y379242D01*
X815225D01*
Y379394D01*
X812031D01*
Y379242D01*
X811271D01*
Y379090D01*
X810663D01*
Y378938D01*
X810359D01*
Y378786D01*
X809902D01*
Y378634D01*
X809598D01*
Y378482D01*
X809294D01*
Y378330D01*
X808990D01*
Y378178D01*
X808686D01*
Y378026D01*
X808382D01*
Y377874D01*
X808078D01*
Y378026D01*
X807926D01*
Y378482D01*
X807774D01*
Y380003D01*
X807621D01*
Y381371D01*
X807774D01*
Y381524D01*
X808230D01*
Y381675D01*
X808534D01*
Y381828D01*
X809142D01*
Y381980D01*
X809598D01*
Y382132D01*
X810359D01*
Y382284D01*
X811119D01*
Y382436D01*
X812336D01*
Y382588D01*
X815225D01*
Y382436D01*
D02*
G37*
G36*
X793479D02*
X794696D01*
Y382284D01*
X795304D01*
Y382132D01*
X795912D01*
Y381980D01*
X796368D01*
Y381828D01*
X796824D01*
Y381675D01*
X797281D01*
Y381524D01*
X797585D01*
Y381371D01*
X797889D01*
Y381219D01*
X798193D01*
Y381067D01*
X798345D01*
Y380915D01*
X798649D01*
Y380763D01*
X798953D01*
Y380611D01*
X799106D01*
Y380459D01*
X799258D01*
Y380307D01*
X799562D01*
Y380155D01*
X799714D01*
Y380003D01*
X799866D01*
Y379851D01*
X800018D01*
Y379699D01*
X800170D01*
Y379547D01*
X800322D01*
Y379394D01*
X800474D01*
Y379242D01*
X800626D01*
Y379090D01*
X800778D01*
Y378786D01*
X800930D01*
Y378634D01*
X801082D01*
Y378482D01*
X801235D01*
Y378178D01*
X801387D01*
Y377874D01*
X801539D01*
Y377722D01*
X801691D01*
Y377418D01*
X801843D01*
Y377113D01*
X801995D01*
Y376657D01*
X802147D01*
Y376201D01*
X802299D01*
Y375745D01*
X802451D01*
Y375289D01*
X802603D01*
Y374528D01*
X802755D01*
Y373464D01*
X802907D01*
Y369966D01*
X802755D01*
Y368902D01*
X802603D01*
Y368141D01*
X802451D01*
Y367533D01*
X802299D01*
Y367077D01*
X802147D01*
Y366773D01*
X801995D01*
Y366316D01*
X801843D01*
Y366012D01*
X801691D01*
Y365708D01*
X801539D01*
Y365404D01*
X801387D01*
Y365252D01*
X801235D01*
Y364948D01*
X801082D01*
Y364796D01*
X800930D01*
Y364492D01*
X800778D01*
Y364340D01*
X800626D01*
Y364188D01*
X800474D01*
Y364035D01*
X800322D01*
Y363731D01*
X800170D01*
Y363579D01*
X800018D01*
Y363427D01*
X799714D01*
Y363275D01*
X799562D01*
Y363123D01*
X799410D01*
Y362971D01*
X799258D01*
Y362819D01*
X798953D01*
Y362667D01*
X798801D01*
Y362515D01*
X798497D01*
Y362363D01*
X798345D01*
Y362211D01*
X798041D01*
Y362058D01*
X797737D01*
Y361906D01*
X797433D01*
Y361754D01*
X796976D01*
Y361602D01*
X796672D01*
Y361450D01*
X796216D01*
Y361298D01*
X795608D01*
Y361146D01*
X794848D01*
Y360994D01*
X793631D01*
Y360842D01*
X791046D01*
Y360994D01*
X789829D01*
Y361146D01*
X789069D01*
Y361298D01*
X788461D01*
Y361450D01*
X788004D01*
Y361602D01*
X787700D01*
Y361754D01*
X787244D01*
Y361906D01*
X786940D01*
Y362058D01*
X786636D01*
Y362211D01*
X786484D01*
Y362363D01*
X786180D01*
Y362515D01*
X786028D01*
Y362667D01*
X785723D01*
Y362819D01*
X785571D01*
Y362971D01*
X785419D01*
Y363123D01*
X785267D01*
Y363275D01*
X784963D01*
Y363427D01*
X784811D01*
Y363579D01*
X784659D01*
Y363731D01*
X784507D01*
Y364035D01*
X784355D01*
Y364188D01*
X784203D01*
Y364340D01*
X784051D01*
Y364492D01*
X783898D01*
Y364796D01*
X783746D01*
Y364948D01*
X783594D01*
Y365252D01*
X783442D01*
Y365404D01*
X783290D01*
Y365708D01*
X783138D01*
Y366012D01*
X782986D01*
Y366316D01*
X782834D01*
Y366773D01*
X782682D01*
Y367077D01*
X782530D01*
Y367685D01*
X782378D01*
Y368141D01*
X782226D01*
Y368902D01*
X782074D01*
Y370270D01*
X781922D01*
Y373160D01*
X782074D01*
Y374376D01*
X782226D01*
Y375289D01*
X782378D01*
Y375897D01*
X782530D01*
Y376353D01*
X782682D01*
Y376809D01*
X782834D01*
Y377113D01*
X782986D01*
Y377570D01*
X783138D01*
Y377874D01*
X783290D01*
Y378178D01*
X783442D01*
Y378330D01*
X783594D01*
Y378634D01*
X783746D01*
Y378786D01*
X783898D01*
Y379090D01*
X784051D01*
Y379242D01*
X784203D01*
Y379394D01*
X784355D01*
Y379547D01*
X784507D01*
Y379699D01*
X784659D01*
Y379851D01*
X784811D01*
Y380003D01*
X784963D01*
Y380155D01*
X785115D01*
Y380307D01*
X785267D01*
Y380459D01*
X785419D01*
Y380611D01*
X785571D01*
Y380763D01*
X785875D01*
Y380915D01*
X786028D01*
Y381067D01*
X786332D01*
Y381219D01*
X786636D01*
Y381371D01*
X786940D01*
Y381524D01*
X787244D01*
Y381675D01*
X787548D01*
Y381828D01*
X788004D01*
Y381980D01*
X788461D01*
Y382132D01*
X788917D01*
Y382284D01*
X789677D01*
Y382436D01*
X790742D01*
Y382588D01*
X793479D01*
Y382436D01*
D02*
G37*
G36*
X847616Y382588D02*
X848528D01*
Y382436D01*
X849289D01*
Y382284D01*
X849745D01*
Y382132D01*
X850201D01*
Y381980D01*
X850657D01*
Y381828D01*
X850961D01*
Y381675D01*
X851266D01*
Y381524D01*
X851570D01*
Y381371D01*
X851722D01*
Y381219D01*
X852026D01*
Y381067D01*
X852178D01*
Y380915D01*
X852482D01*
Y380763D01*
X852634D01*
Y380611D01*
X852786D01*
Y380459D01*
X852938D01*
Y380307D01*
X853090D01*
Y380155D01*
X853242D01*
Y380003D01*
X853394D01*
Y379699D01*
X853547D01*
Y379547D01*
X853699D01*
Y379394D01*
X853851D01*
Y379090D01*
X854003D01*
Y378786D01*
X854155D01*
Y378482D01*
X854307D01*
Y378178D01*
X854459D01*
Y377570D01*
X854611D01*
Y376809D01*
X854763D01*
Y375441D01*
X854611D01*
Y374528D01*
X854459D01*
Y374072D01*
X854307D01*
Y373616D01*
X854155D01*
Y373312D01*
X854003D01*
Y373008D01*
X853851D01*
Y372855D01*
X853699D01*
Y372551D01*
X853547D01*
Y372399D01*
X853394D01*
Y372247D01*
X853242D01*
Y372095D01*
X853090D01*
Y371943D01*
X852938D01*
Y371791D01*
X852786D01*
Y371639D01*
X852634D01*
Y371487D01*
X852330D01*
Y371335D01*
X852178D01*
Y371183D01*
X852026D01*
Y371031D01*
X851722D01*
Y370879D01*
X851418D01*
Y370727D01*
X851114D01*
Y370574D01*
X850809D01*
Y370422D01*
X850505D01*
Y370270D01*
X850049D01*
Y370118D01*
X849745D01*
Y369966D01*
X849289D01*
Y369814D01*
X848832D01*
Y369662D01*
X848376D01*
Y369510D01*
X847920D01*
Y369358D01*
X847616D01*
Y369206D01*
X847160D01*
Y369054D01*
X846703D01*
Y368902D01*
X846247D01*
Y368750D01*
X845943D01*
Y368597D01*
X845639D01*
Y368445D01*
X845487D01*
Y368293D01*
X845335D01*
Y368141D01*
X845183D01*
Y367989D01*
X845031D01*
Y367837D01*
X844879D01*
Y367685D01*
X844727D01*
Y367229D01*
X844575D01*
Y366469D01*
X844727D01*
Y366164D01*
X844879D01*
Y365860D01*
X845031D01*
Y365708D01*
X845183D01*
Y365556D01*
X845487D01*
Y365404D01*
X845639D01*
Y365252D01*
X845943D01*
Y365100D01*
X846399D01*
Y364948D01*
X847312D01*
Y364796D01*
X848528D01*
Y364948D01*
X849593D01*
Y365100D01*
X850201D01*
Y365252D01*
X850809D01*
Y365404D01*
X851266D01*
Y365556D01*
X851722D01*
Y365708D01*
X852026D01*
Y365860D01*
X852330D01*
Y366012D01*
X852634D01*
Y366164D01*
X852938D01*
Y366316D01*
X853242D01*
Y366469D01*
X853394D01*
Y366621D01*
X853547D01*
Y366773D01*
X853851D01*
Y366925D01*
X854003D01*
Y367077D01*
X854307D01*
Y366925D01*
X854459D01*
Y366316D01*
X854611D01*
Y363883D01*
X854763D01*
Y362211D01*
X854611D01*
Y362058D01*
X854459D01*
Y361906D01*
X854003D01*
Y361754D01*
X853547D01*
Y361602D01*
X853090D01*
Y361450D01*
X852634D01*
Y361298D01*
X852026D01*
Y361146D01*
X851418D01*
Y360994D01*
X850657D01*
Y360842D01*
X849441D01*
Y360690D01*
X845639D01*
Y360842D01*
X844422D01*
Y360994D01*
X843510D01*
Y361146D01*
X842902D01*
Y361298D01*
X842446D01*
Y361450D01*
X841989D01*
Y361602D01*
X841533D01*
Y361754D01*
X841229D01*
Y361906D01*
X840925D01*
Y362058D01*
X840621D01*
Y362211D01*
X840316D01*
Y362363D01*
X840164D01*
Y362515D01*
X839860D01*
Y362667D01*
X839708D01*
Y362819D01*
X839404D01*
Y362971D01*
X839252D01*
Y363123D01*
X839100D01*
Y363275D01*
X838948D01*
Y363427D01*
X838796D01*
Y363579D01*
X838644D01*
Y363883D01*
X838492D01*
Y364035D01*
X838340D01*
Y364188D01*
X838187D01*
Y364492D01*
X838036D01*
Y364796D01*
X837883D01*
Y365100D01*
X837731D01*
Y365556D01*
X837579D01*
Y366012D01*
X837427D01*
Y366621D01*
X837275D01*
Y369054D01*
X837427D01*
Y369662D01*
X837579D01*
Y370270D01*
X837731D01*
Y370574D01*
X837883D01*
Y370879D01*
X838036D01*
Y371183D01*
X838187D01*
Y371335D01*
X838340D01*
Y371487D01*
X838492D01*
Y371791D01*
X838644D01*
Y371943D01*
X838796D01*
Y372095D01*
X838948D01*
Y372247D01*
X839100D01*
Y372399D01*
X839404D01*
Y372551D01*
X839556D01*
Y372703D01*
X839708D01*
Y372855D01*
X840012D01*
Y373008D01*
X840164D01*
Y373160D01*
X840469D01*
Y373312D01*
X840773D01*
Y373464D01*
X841077D01*
Y373616D01*
X841533D01*
Y373768D01*
X841837D01*
Y373920D01*
X842293D01*
Y374072D01*
X842598D01*
Y374224D01*
X843054D01*
Y374376D01*
X843510D01*
Y374528D01*
X843966D01*
Y374680D01*
X844422D01*
Y374832D01*
X844879D01*
Y374985D01*
X845335D01*
Y375136D01*
X845791D01*
Y375289D01*
X846095D01*
Y375441D01*
X846399D01*
Y375593D01*
X846703D01*
Y375745D01*
X846855D01*
Y375897D01*
X847160D01*
Y376201D01*
X847312D01*
Y376353D01*
X847464D01*
Y377570D01*
X847312D01*
Y377722D01*
X847160D01*
Y378026D01*
X847008D01*
Y378178D01*
X846703D01*
Y378330D01*
X846399D01*
Y378482D01*
X846095D01*
Y378634D01*
X845183D01*
Y378786D01*
X843662D01*
Y378634D01*
X842750D01*
Y378482D01*
X842141D01*
Y378330D01*
X841685D01*
Y378178D01*
X841229D01*
Y378026D01*
X840925D01*
Y377874D01*
X840621D01*
Y377722D01*
X840316D01*
Y377570D01*
X840012D01*
Y377418D01*
X839708D01*
Y377266D01*
X839404D01*
Y377113D01*
X838948D01*
Y377266D01*
X838796D01*
Y378786D01*
X838644D01*
Y380307D01*
X838492D01*
Y381675D01*
X838644D01*
Y381828D01*
X839100D01*
Y381980D01*
X839708D01*
Y382132D01*
X840316D01*
Y382284D01*
X840925D01*
Y382436D01*
X841837D01*
Y382588D01*
X842902D01*
Y382740D01*
X847616D01*
Y382588D01*
D02*
G37*
G36*
X722158Y373464D02*
X722614D01*
Y373312D01*
X722918D01*
Y373160D01*
X723071D01*
Y373008D01*
X723223D01*
Y372855D01*
X723375D01*
Y372703D01*
X723527D01*
Y372399D01*
X723679D01*
Y372095D01*
X723831D01*
Y371791D01*
X723983D01*
Y371335D01*
X724135D01*
Y370879D01*
X724287D01*
Y370422D01*
X724439D01*
Y370118D01*
X724591D01*
Y369662D01*
X724743D01*
Y369206D01*
X724895D01*
Y368902D01*
X725047D01*
Y368445D01*
X725199D01*
Y367989D01*
X725351D01*
Y367685D01*
X725504D01*
Y367229D01*
X725656D01*
Y366773D01*
X725808D01*
Y366316D01*
X725960D01*
Y366012D01*
X726112D01*
Y365556D01*
X726264D01*
Y365100D01*
X726416D01*
Y364796D01*
X726568D01*
Y364340D01*
X726720D01*
Y363883D01*
X726872D01*
Y363579D01*
X727024D01*
Y363123D01*
X727176D01*
Y362667D01*
X727328D01*
Y362211D01*
X727480D01*
Y361602D01*
X727328D01*
Y361298D01*
X727176D01*
Y361146D01*
X727024D01*
Y360994D01*
X726872D01*
Y360842D01*
X726568D01*
Y360690D01*
X725656D01*
Y360842D01*
X725351D01*
Y360994D01*
X725199D01*
Y361146D01*
X725047D01*
Y361298D01*
X724895D01*
Y361754D01*
X724743D01*
Y362211D01*
X724591D01*
Y362667D01*
X724439D01*
Y363123D01*
X724287D01*
Y363275D01*
X719421D01*
Y362971D01*
X719269D01*
Y362515D01*
X719117D01*
Y362058D01*
X718965D01*
Y361602D01*
X718812D01*
Y361298D01*
X718660D01*
Y360994D01*
X718356D01*
Y360842D01*
X718052D01*
Y360690D01*
X717140D01*
Y360842D01*
X716836D01*
Y360994D01*
X716684D01*
Y361146D01*
X716531D01*
Y361450D01*
X716379D01*
Y362363D01*
X716531D01*
Y362819D01*
X716684D01*
Y363123D01*
X716836D01*
Y363579D01*
X716988D01*
Y364035D01*
X717140D01*
Y364492D01*
X717292D01*
Y364796D01*
X717444D01*
Y365252D01*
X717596D01*
Y365708D01*
X717748D01*
Y366164D01*
X717900D01*
Y366621D01*
X718052D01*
Y366925D01*
X718204D01*
Y367381D01*
X718356D01*
Y367837D01*
X718508D01*
Y368293D01*
X718660D01*
Y368597D01*
X718812D01*
Y369054D01*
X718965D01*
Y369510D01*
X719117D01*
Y369966D01*
X719269D01*
Y370270D01*
X719421D01*
Y370727D01*
X719573D01*
Y371183D01*
X719725D01*
Y371639D01*
X719877D01*
Y372095D01*
X720029D01*
Y372399D01*
X720181D01*
Y372703D01*
X720333D01*
Y372855D01*
X720485D01*
Y373008D01*
X720637D01*
Y373160D01*
X720789D01*
Y373312D01*
X721094D01*
Y373464D01*
X721550D01*
Y373616D01*
X722158D01*
Y373464D01*
D02*
G37*
G36*
X714555Y373160D02*
X714707D01*
Y373008D01*
X714859D01*
Y372855D01*
X715011D01*
Y372703D01*
X715163D01*
Y361450D01*
X715011D01*
Y361146D01*
X714859D01*
Y360994D01*
X714707D01*
Y360842D01*
X714402D01*
Y360690D01*
X708928D01*
Y360842D01*
X708624D01*
Y360994D01*
X708472D01*
Y361146D01*
X708320D01*
Y361450D01*
X708168D01*
Y362363D01*
X708320D01*
Y362667D01*
X708472D01*
Y362819D01*
X708624D01*
Y362971D01*
X708928D01*
Y363123D01*
X712578D01*
Y372551D01*
X712730D01*
Y372855D01*
X712882D01*
Y373008D01*
X713034D01*
Y373160D01*
X713338D01*
Y373312D01*
X714555D01*
Y373160D01*
D02*
G37*
G36*
X706647D02*
X706799D01*
Y373008D01*
X707103D01*
Y372703D01*
X707255D01*
Y372095D01*
X707407D01*
Y367381D01*
Y367229D01*
Y362058D01*
X707255D01*
Y361450D01*
X707103D01*
Y361146D01*
X706951D01*
Y360994D01*
X706799D01*
Y360842D01*
X706495D01*
Y360690D01*
X701020D01*
Y360842D01*
X700716D01*
Y360994D01*
X700564D01*
Y361298D01*
X700412D01*
Y361602D01*
X700260D01*
Y362363D01*
X700412D01*
Y362667D01*
X700564D01*
Y362819D01*
X700716D01*
Y362971D01*
X701020D01*
Y363123D01*
X704670D01*
Y372399D01*
X704822D01*
Y372855D01*
X704974D01*
Y373008D01*
X705126D01*
Y373160D01*
X705430D01*
Y373312D01*
X706647D01*
Y373160D01*
D02*
G37*
G36*
X698587Y373312D02*
X698891D01*
Y373160D01*
X699043D01*
Y373008D01*
X699195D01*
Y372855D01*
X699348D01*
Y372551D01*
X699500D01*
Y361602D01*
X699348D01*
Y361298D01*
X699195D01*
Y361146D01*
X699043D01*
Y360994D01*
X698891D01*
Y360842D01*
X698587D01*
Y360690D01*
X697675D01*
Y360842D01*
X697371D01*
Y360994D01*
X697218D01*
Y361146D01*
X697066D01*
Y361298D01*
X696914D01*
Y361754D01*
X696762D01*
Y372399D01*
X696914D01*
Y372855D01*
X697066D01*
Y373008D01*
X697218D01*
Y373160D01*
X697371D01*
Y373312D01*
X697675D01*
Y373464D01*
X698587D01*
Y373312D01*
D02*
G37*
G36*
X692504Y373464D02*
X692961D01*
Y373312D01*
X693417D01*
Y373160D01*
X693569D01*
Y373008D01*
X693873D01*
Y372855D01*
X694177D01*
Y372703D01*
X694329D01*
Y372551D01*
X694481D01*
Y372399D01*
X694633D01*
Y372247D01*
X694785D01*
Y372095D01*
X694938D01*
Y371791D01*
X695090D01*
Y371639D01*
X695242D01*
Y371183D01*
X695394D01*
Y370879D01*
X695546D01*
Y369966D01*
X695698D01*
Y369358D01*
X695546D01*
Y368597D01*
X695394D01*
Y368293D01*
X695242D01*
Y367989D01*
X695090D01*
Y367837D01*
X694938D01*
Y367533D01*
X694633D01*
Y367381D01*
X694481D01*
Y367229D01*
X694329D01*
Y367077D01*
X694025D01*
Y366925D01*
X693721D01*
Y366773D01*
X693417D01*
Y366621D01*
X692961D01*
Y366469D01*
X692504D01*
Y366316D01*
X691896D01*
Y366164D01*
X691440D01*
Y366012D01*
X690984D01*
Y365860D01*
X690527D01*
Y365708D01*
X690375D01*
Y365556D01*
X690071D01*
Y365404D01*
X689919D01*
Y365100D01*
X689767D01*
Y364188D01*
X689919D01*
Y363883D01*
X690071D01*
Y363731D01*
X690223D01*
Y363579D01*
X690375D01*
Y363427D01*
X690832D01*
Y363275D01*
X692352D01*
Y363427D01*
X692961D01*
Y363579D01*
X693417D01*
Y363731D01*
X693873D01*
Y363883D01*
X695090D01*
Y363731D01*
X695242D01*
Y363579D01*
X695394D01*
Y363427D01*
X695546D01*
Y363123D01*
X695698D01*
Y362211D01*
X695546D01*
Y361906D01*
X695394D01*
Y361754D01*
X695242D01*
Y361602D01*
X695090D01*
Y361450D01*
X694785D01*
Y361298D01*
X694481D01*
Y361146D01*
X694177D01*
Y360994D01*
X693569D01*
Y360842D01*
X692656D01*
Y360690D01*
X690527D01*
Y360842D01*
X689767D01*
Y360994D01*
X689463D01*
Y361146D01*
X689007D01*
Y361298D01*
X688855D01*
Y361450D01*
X688550D01*
Y361602D01*
X688399D01*
Y361754D01*
X688094D01*
Y361906D01*
X687942D01*
Y362058D01*
X687790D01*
Y362363D01*
X687638D01*
Y362515D01*
X687486D01*
Y362819D01*
X687334D01*
Y362971D01*
X687182D01*
Y363427D01*
X687030D01*
Y364035D01*
X686878D01*
Y365708D01*
X687030D01*
Y366164D01*
X687182D01*
Y366469D01*
X687334D01*
Y366773D01*
X687486D01*
Y366925D01*
X687638D01*
Y367229D01*
X687790D01*
Y367381D01*
X687942D01*
Y367533D01*
X688246D01*
Y367685D01*
X688399D01*
Y367837D01*
X688703D01*
Y367989D01*
X689007D01*
Y368141D01*
X689311D01*
Y368293D01*
X689767D01*
Y368445D01*
X690223D01*
Y368597D01*
X690679D01*
Y368750D01*
X691136D01*
Y368902D01*
X691592D01*
Y369054D01*
X692048D01*
Y369206D01*
X692352D01*
Y369358D01*
X692504D01*
Y369510D01*
X692656D01*
Y369814D01*
X692809D01*
Y370270D01*
X692656D01*
Y370574D01*
X692504D01*
Y370727D01*
X692352D01*
Y370879D01*
X692048D01*
Y371031D01*
X691592D01*
Y371183D01*
X690984D01*
Y371031D01*
X690223D01*
Y370879D01*
X689919D01*
Y370727D01*
X689311D01*
Y370574D01*
X688703D01*
Y370727D01*
X688399D01*
Y370879D01*
X688094D01*
Y371183D01*
X687942D01*
Y371487D01*
X687790D01*
Y372247D01*
X687942D01*
Y372551D01*
X688094D01*
Y372703D01*
X688246D01*
Y372855D01*
X688399D01*
Y373008D01*
X688550D01*
Y373160D01*
X689007D01*
Y373312D01*
X689311D01*
Y373464D01*
X689919D01*
Y373616D01*
X692504D01*
Y373464D01*
D02*
G37*
G36*
X761696Y393841D02*
X762305D01*
Y393689D01*
X762609D01*
Y393537D01*
X762913D01*
Y393385D01*
X763217D01*
Y393233D01*
X763369D01*
Y393081D01*
X763521D01*
Y392929D01*
X763673D01*
Y392777D01*
X763825D01*
Y392625D01*
X763977D01*
Y392472D01*
X764129D01*
Y392320D01*
X764281D01*
Y392168D01*
X764434D01*
Y392016D01*
X764586D01*
Y391712D01*
X764738D01*
Y391560D01*
X764890D01*
Y391256D01*
X765042D01*
Y390952D01*
X765194D01*
Y390648D01*
X765346D01*
Y390344D01*
X765498D01*
Y390039D01*
X765650D01*
Y389735D01*
X765802D01*
Y389431D01*
X765954D01*
Y389127D01*
X766106D01*
Y388823D01*
X766258D01*
Y388367D01*
X766410D01*
Y388063D01*
X766562D01*
Y387758D01*
X766715D01*
Y387454D01*
X766867D01*
Y387150D01*
X767019D01*
Y386846D01*
X767171D01*
Y386542D01*
X767323D01*
Y386238D01*
X767475D01*
Y385781D01*
X767627D01*
Y385477D01*
X767779D01*
Y385173D01*
X767931D01*
Y384869D01*
X768083D01*
Y384565D01*
X768235D01*
Y384261D01*
X768387D01*
Y383957D01*
X768539D01*
Y383652D01*
X768691D01*
Y383196D01*
X768844D01*
Y382892D01*
X768996D01*
Y382588D01*
X769148D01*
Y382284D01*
X769300D01*
Y381980D01*
X769452D01*
Y381675D01*
X769604D01*
Y381371D01*
X769756D01*
Y381067D01*
X769908D01*
Y380611D01*
X770060D01*
Y380307D01*
X770212D01*
Y380003D01*
X770364D01*
Y379699D01*
X770516D01*
Y379394D01*
X770668D01*
Y379090D01*
X770820D01*
Y378786D01*
X770973D01*
Y378482D01*
X771125D01*
Y378026D01*
X771277D01*
Y377722D01*
X771429D01*
Y377418D01*
X771581D01*
Y377113D01*
X771733D01*
Y376809D01*
X771885D01*
Y376505D01*
X772037D01*
Y376201D01*
X772189D01*
Y375745D01*
X772341D01*
Y375441D01*
X772493D01*
Y375136D01*
X772645D01*
Y374832D01*
X772797D01*
Y374528D01*
X772950D01*
Y374224D01*
X773102D01*
Y373920D01*
X773254D01*
Y373616D01*
X773406D01*
Y373160D01*
X773558D01*
Y372855D01*
X773710D01*
Y372551D01*
X773862D01*
Y372247D01*
X774014D01*
Y371943D01*
X774166D01*
Y371639D01*
X774318D01*
Y371335D01*
X774470D01*
Y371031D01*
X774622D01*
Y370574D01*
X774774D01*
Y370270D01*
X774926D01*
Y369966D01*
X775078D01*
Y369662D01*
X775230D01*
Y369358D01*
X775383D01*
Y369054D01*
X775535D01*
Y368750D01*
X775687D01*
Y368445D01*
X775839D01*
Y367989D01*
X775991D01*
Y367685D01*
X776143D01*
Y367381D01*
X776295D01*
Y367077D01*
X776447D01*
Y366773D01*
X776599D01*
Y366469D01*
X776751D01*
Y366164D01*
X776903D01*
Y365860D01*
X777055D01*
Y365404D01*
X777207D01*
Y365100D01*
X777359D01*
Y364796D01*
X777512D01*
Y364492D01*
X777664D01*
Y364188D01*
X777816D01*
Y363883D01*
X777968D01*
Y363579D01*
X778120D01*
Y363275D01*
X778272D01*
Y362819D01*
X778424D01*
Y362515D01*
X778576D01*
Y362211D01*
X778728D01*
Y361754D01*
X778880D01*
Y360690D01*
X779032D01*
Y360234D01*
X778880D01*
Y359169D01*
X778728D01*
Y358713D01*
X778576D01*
Y358409D01*
X778424D01*
Y358105D01*
X778272D01*
Y357953D01*
X778120D01*
Y357649D01*
X777968D01*
Y357496D01*
X777816D01*
Y357344D01*
X777664D01*
Y357192D01*
X777512D01*
Y357040D01*
X777359D01*
Y356888D01*
X777055D01*
Y356736D01*
X776903D01*
Y356584D01*
X776599D01*
Y356432D01*
X776143D01*
Y356280D01*
X775535D01*
Y356128D01*
X774014D01*
Y356280D01*
X773406D01*
Y356432D01*
X773102D01*
Y356584D01*
X772797D01*
Y356736D01*
X772493D01*
Y356888D01*
X772341D01*
Y357040D01*
X772037D01*
Y357192D01*
X771885D01*
Y357344D01*
X771733D01*
Y357496D01*
X771581D01*
Y357800D01*
X771429D01*
Y357953D01*
X771277D01*
Y358105D01*
X771125D01*
Y358409D01*
X770973D01*
Y358561D01*
X770820D01*
Y358865D01*
X770668D01*
Y359169D01*
X770516D01*
Y359473D01*
X770364D01*
Y359777D01*
X770212D01*
Y360082D01*
X770060D01*
Y360386D01*
X769908D01*
Y360690D01*
X769756D01*
Y360994D01*
X769604D01*
Y361298D01*
X769452D01*
Y361754D01*
X769300D01*
Y362058D01*
X769148D01*
Y362363D01*
X768996D01*
Y362667D01*
X768844D01*
Y362971D01*
X768691D01*
Y363275D01*
X768539D01*
Y363579D01*
X768387D01*
Y363883D01*
X768235D01*
Y364340D01*
X768083D01*
Y364644D01*
X767931D01*
Y364948D01*
X767779D01*
Y365252D01*
X767627D01*
Y365556D01*
X767475D01*
Y365860D01*
X767323D01*
Y366164D01*
X767171D01*
Y366469D01*
X767019D01*
Y366773D01*
X766867D01*
Y367229D01*
X766715D01*
Y367533D01*
X766562D01*
Y367837D01*
X766410D01*
Y368141D01*
X766258D01*
Y368445D01*
X766106D01*
Y368750D01*
X765954D01*
Y369054D01*
X765802D01*
Y369358D01*
X765650D01*
Y369814D01*
X765498D01*
Y370118D01*
X765346D01*
Y370422D01*
X765194D01*
Y370727D01*
X765042D01*
Y371031D01*
X764890D01*
Y371335D01*
X764738D01*
Y371639D01*
X764586D01*
Y371943D01*
X764434D01*
Y372399D01*
X764281D01*
Y372703D01*
X764129D01*
Y373008D01*
X763977D01*
Y373312D01*
X763825D01*
Y373616D01*
X763673D01*
Y373920D01*
X763521D01*
Y374224D01*
X763369D01*
Y374528D01*
X763217D01*
Y374832D01*
X763065D01*
Y375289D01*
X762913D01*
Y375593D01*
X762761D01*
Y375897D01*
X762609D01*
Y376201D01*
X762457D01*
Y376505D01*
X762305D01*
Y376809D01*
X762152D01*
Y377113D01*
X762000D01*
Y377418D01*
X761848D01*
Y377874D01*
X761696D01*
Y378178D01*
X761544D01*
Y378482D01*
X761392D01*
Y378786D01*
X761240D01*
Y379090D01*
X761088D01*
Y379394D01*
X760936D01*
Y379699D01*
X760784D01*
Y380003D01*
X760632D01*
Y380459D01*
X760480D01*
Y380763D01*
X760328D01*
Y381067D01*
X760176D01*
Y381371D01*
X760023D01*
Y381675D01*
X759871D01*
Y381980D01*
X759719D01*
Y382284D01*
X759567D01*
Y382588D01*
X759415D01*
Y382892D01*
X759263D01*
Y383348D01*
X759111D01*
Y383500D01*
Y383652D01*
X758959D01*
Y383957D01*
X758807D01*
Y384261D01*
X758655D01*
Y384565D01*
X758503D01*
Y384869D01*
X758351D01*
Y385173D01*
X758199D01*
Y385477D01*
X758047D01*
Y385933D01*
X757895D01*
Y386238D01*
X757742D01*
Y386542D01*
X757590D01*
Y386846D01*
X757438D01*
Y387150D01*
X757286D01*
Y387454D01*
X757134D01*
Y387910D01*
X756982D01*
Y388367D01*
X756830D01*
Y389127D01*
X756678D01*
Y390344D01*
X756830D01*
Y391104D01*
X756982D01*
Y391560D01*
X757134D01*
Y391864D01*
X757286D01*
Y392016D01*
X757438D01*
Y392320D01*
X757590D01*
Y392472D01*
X757742D01*
Y392625D01*
X757895D01*
Y392777D01*
X758047D01*
Y392929D01*
X758199D01*
Y393081D01*
X758351D01*
Y393233D01*
X758503D01*
Y393385D01*
X758807D01*
Y393537D01*
X759111D01*
Y393689D01*
X759567D01*
Y393841D01*
X760023D01*
Y393993D01*
X761696D01*
Y393841D01*
D02*
G37*
G36*
X749987D02*
X750595D01*
Y393689D01*
X750899D01*
Y393537D01*
X751203D01*
Y393385D01*
X751356D01*
Y393233D01*
X751660D01*
Y393081D01*
X751812D01*
Y392929D01*
X751964D01*
Y392777D01*
X752116D01*
Y392625D01*
X752268D01*
Y392472D01*
X752420D01*
Y392320D01*
X752572D01*
Y392016D01*
X752724D01*
Y391864D01*
X752876D01*
Y391560D01*
X753028D01*
Y391408D01*
X753180D01*
Y391104D01*
X753332D01*
Y390800D01*
X753484D01*
Y390496D01*
X753636D01*
Y390191D01*
X753789D01*
Y389887D01*
X753941D01*
Y389583D01*
X754093D01*
Y389279D01*
X754245D01*
Y388975D01*
X754397D01*
Y388671D01*
X754549D01*
Y388367D01*
X754701D01*
Y387910D01*
X754853D01*
Y387606D01*
X755005D01*
Y387302D01*
X755157D01*
Y386998D01*
X755309D01*
Y386694D01*
X755461D01*
Y386390D01*
X755613D01*
Y386238D01*
Y386086D01*
X755766D01*
Y385781D01*
X755918D01*
Y385325D01*
X756070D01*
Y385021D01*
X756222D01*
Y384717D01*
X756374D01*
Y384413D01*
X756526D01*
Y384109D01*
X756678D01*
Y383805D01*
X756830D01*
Y383500D01*
X756982D01*
Y383196D01*
X757134D01*
Y382740D01*
X757286D01*
Y382436D01*
X757438D01*
Y382132D01*
X757590D01*
Y381828D01*
X757742D01*
Y381524D01*
X757895D01*
Y381219D01*
X758047D01*
Y380915D01*
X758199D01*
Y380459D01*
X758351D01*
Y380155D01*
X758503D01*
Y379851D01*
X758655D01*
Y379547D01*
X758807D01*
Y379242D01*
X758959D01*
Y378938D01*
X759111D01*
Y378634D01*
X759263D01*
Y378330D01*
X759415D01*
Y377874D01*
X759567D01*
Y377570D01*
X759719D01*
Y377266D01*
X759871D01*
Y376961D01*
X760023D01*
Y376657D01*
X760176D01*
Y376353D01*
X760328D01*
Y376049D01*
X760480D01*
Y375745D01*
X760632D01*
Y375289D01*
X760784D01*
Y374985D01*
X760936D01*
Y374680D01*
X761088D01*
Y374376D01*
X761240D01*
Y374072D01*
X761392D01*
Y373768D01*
X761544D01*
Y373464D01*
X761696D01*
Y373160D01*
X761848D01*
Y372703D01*
X762000D01*
Y372399D01*
X762152D01*
Y372095D01*
X762305D01*
Y371791D01*
X762457D01*
Y371487D01*
X762609D01*
Y371183D01*
X762761D01*
Y370879D01*
X762913D01*
Y370574D01*
X763065D01*
Y370118D01*
X763217D01*
Y369814D01*
X763369D01*
Y369510D01*
X763521D01*
Y369206D01*
X763673D01*
Y368902D01*
X763825D01*
Y368597D01*
X763977D01*
Y368293D01*
X764129D01*
Y367989D01*
X764281D01*
Y367533D01*
X764434D01*
Y367229D01*
X764586D01*
Y366925D01*
X764738D01*
Y366621D01*
X764890D01*
Y366316D01*
X765042D01*
Y366012D01*
X765194D01*
Y365708D01*
X765346D01*
Y365404D01*
X765498D01*
Y364948D01*
X765650D01*
Y364644D01*
X765802D01*
Y364340D01*
X765954D01*
Y364035D01*
X766106D01*
Y363731D01*
X766258D01*
Y363427D01*
X766410D01*
Y363123D01*
X766562D01*
Y362819D01*
X766715D01*
Y362363D01*
X766867D01*
Y362058D01*
X767019D01*
Y361450D01*
X767171D01*
Y359473D01*
X767019D01*
Y358865D01*
X766867D01*
Y358561D01*
X766715D01*
Y358257D01*
X766562D01*
Y357953D01*
X766410D01*
Y357800D01*
X766258D01*
Y357649D01*
X766106D01*
Y357344D01*
X765954D01*
Y357192D01*
X765650D01*
Y357040D01*
X765498D01*
Y356888D01*
X765346D01*
Y356736D01*
X765042D01*
Y356584D01*
X764738D01*
Y356432D01*
X764434D01*
Y356280D01*
X763825D01*
Y356128D01*
X762305D01*
Y356280D01*
X761696D01*
Y356432D01*
X761240D01*
Y356584D01*
X760936D01*
Y356736D01*
X760784D01*
Y356888D01*
X760480D01*
Y357040D01*
X760328D01*
Y357192D01*
X760176D01*
Y357344D01*
X760023D01*
Y357496D01*
X759871D01*
Y357649D01*
X759719D01*
Y357800D01*
X759567D01*
Y358105D01*
X759415D01*
Y358257D01*
X759263D01*
Y358561D01*
X759111D01*
Y358713D01*
X758959D01*
Y359017D01*
X758807D01*
Y359321D01*
X758655D01*
Y359625D01*
X758503D01*
Y359930D01*
X758351D01*
Y360234D01*
X758199D01*
Y360538D01*
X758047D01*
Y360842D01*
X757895D01*
Y361298D01*
X757742D01*
Y361602D01*
X757590D01*
Y361906D01*
X757438D01*
Y362211D01*
X757286D01*
Y362515D01*
X757134D01*
Y362819D01*
X756982D01*
Y363123D01*
X756830D01*
Y363427D01*
X756678D01*
Y363883D01*
X756526D01*
Y364188D01*
X756374D01*
Y364492D01*
X756222D01*
Y364796D01*
X756070D01*
Y365100D01*
X755918D01*
Y365404D01*
X755766D01*
Y365708D01*
X755613D01*
Y366012D01*
X755461D01*
Y366316D01*
X755309D01*
Y366773D01*
X755157D01*
Y367077D01*
X755005D01*
Y367381D01*
X754853D01*
Y367685D01*
X754701D01*
Y367989D01*
X754549D01*
Y368293D01*
X754397D01*
Y368597D01*
X754245D01*
Y368902D01*
X754093D01*
Y369358D01*
X753941D01*
Y369662D01*
X753789D01*
Y369966D01*
X753636D01*
Y370270D01*
X753484D01*
Y370574D01*
X753332D01*
Y370879D01*
X753180D01*
Y371183D01*
X753028D01*
Y371487D01*
X752876D01*
Y371943D01*
X752724D01*
Y372247D01*
X752572D01*
Y372551D01*
X752420D01*
Y372855D01*
X752268D01*
Y373160D01*
X752116D01*
Y373464D01*
X751964D01*
Y373768D01*
X751812D01*
Y374072D01*
X751660D01*
Y374376D01*
X751508D01*
Y374832D01*
X751356D01*
Y375136D01*
X751203D01*
Y375441D01*
X751051D01*
Y375745D01*
X750899D01*
Y376049D01*
X750747D01*
Y376353D01*
X750595D01*
Y376657D01*
X750443D01*
Y376961D01*
X750291D01*
Y377418D01*
X750139D01*
Y377722D01*
X749987D01*
Y378026D01*
X749835D01*
Y378330D01*
X749683D01*
Y378634D01*
X749531D01*
Y378938D01*
X749379D01*
Y379242D01*
X749227D01*
Y379547D01*
X749074D01*
Y379851D01*
X748922D01*
Y380307D01*
X748770D01*
Y380611D01*
X748618D01*
Y380915D01*
X748466D01*
Y381219D01*
X748314D01*
Y381524D01*
X748162D01*
Y381828D01*
X748010D01*
Y382132D01*
X747858D01*
Y382436D01*
X747706D01*
Y382892D01*
X747554D01*
Y383196D01*
X747402D01*
Y383500D01*
X747250D01*
Y383805D01*
X747097D01*
Y384109D01*
X746945D01*
Y384413D01*
X746793D01*
Y384717D01*
X746641D01*
Y385021D01*
X746489D01*
Y385477D01*
X746337D01*
Y385781D01*
X746185D01*
Y386086D01*
X746033D01*
Y386390D01*
X745881D01*
Y386694D01*
X745729D01*
Y386998D01*
X745577D01*
Y387302D01*
X745425D01*
Y387758D01*
X745273D01*
Y388215D01*
X745121D01*
Y388823D01*
X744969D01*
Y390800D01*
X745121D01*
Y391256D01*
X745273D01*
Y391712D01*
X745425D01*
Y391864D01*
X745577D01*
Y392168D01*
X745729D01*
Y392320D01*
X745881D01*
Y392625D01*
X746033D01*
Y392777D01*
X746185D01*
Y392929D01*
X746337D01*
Y393081D01*
X746641D01*
Y393233D01*
X746793D01*
Y393385D01*
X747097D01*
Y393537D01*
X747402D01*
Y393689D01*
X747706D01*
Y393841D01*
X748314D01*
Y393993D01*
X749987D01*
Y393841D01*
D02*
G37*
G36*
X818875Y343506D02*
X819179D01*
Y343354D01*
X819331D01*
Y343202D01*
X819483D01*
Y343050D01*
X819635D01*
Y342898D01*
X819787D01*
Y342746D01*
X819939D01*
Y342593D01*
X820091D01*
Y342137D01*
X820243D01*
Y319479D01*
X820091D01*
Y319023D01*
X819939D01*
Y318718D01*
X819787D01*
Y318566D01*
X819635D01*
Y318414D01*
X819483D01*
Y318262D01*
X819331D01*
Y318110D01*
X819027D01*
Y317958D01*
X795608D01*
Y318110D01*
X795456D01*
Y318262D01*
X795152D01*
Y318414D01*
X795000D01*
Y318566D01*
X794848D01*
Y318718D01*
X794696D01*
Y319023D01*
X794543D01*
Y319479D01*
X794391D01*
Y342137D01*
X794543D01*
Y342593D01*
X794696D01*
Y342746D01*
X794848D01*
Y342898D01*
X795000D01*
Y343050D01*
X795152D01*
Y343202D01*
X795304D01*
Y343354D01*
X795456D01*
Y343506D01*
X795760D01*
Y343658D01*
X818875D01*
Y343506D01*
D02*
G37*
G36*
X909660D02*
X910117D01*
Y343354D01*
X910269D01*
Y343202D01*
X910421D01*
Y343050D01*
X910573D01*
Y342898D01*
X910725D01*
Y342746D01*
X910877D01*
Y342441D01*
X911029D01*
Y341985D01*
X911181D01*
Y319631D01*
X911029D01*
Y319175D01*
X910877D01*
Y318871D01*
X910725D01*
Y318718D01*
X910573D01*
Y318566D01*
X910421D01*
Y318414D01*
X910269D01*
Y318262D01*
X910117D01*
Y318110D01*
X909813D01*
Y317958D01*
X909356D01*
Y317806D01*
X887002D01*
Y317958D01*
X886546D01*
Y318110D01*
X886242D01*
Y318262D01*
X886090D01*
Y318414D01*
X885938D01*
Y318566D01*
X885786D01*
Y318718D01*
X885633D01*
Y318871D01*
X885481D01*
Y319175D01*
X885329D01*
Y342289D01*
X885481D01*
Y342593D01*
X885633D01*
Y342898D01*
X885786D01*
Y343050D01*
X885938D01*
Y343202D01*
X886090D01*
Y343354D01*
X886394D01*
Y343506D01*
X886698D01*
Y343658D01*
X909660D01*
Y343506D01*
D02*
G37*
G36*
X879398D02*
X879703D01*
Y343354D01*
X879855D01*
Y343202D01*
X880159D01*
Y343050D01*
X880311D01*
Y342746D01*
X880463D01*
Y342593D01*
X880615D01*
Y342289D01*
X880767D01*
Y319327D01*
X880615D01*
Y319023D01*
X880463D01*
Y318718D01*
X880311D01*
Y318566D01*
X880159D01*
Y318414D01*
X880007D01*
Y318262D01*
X879855D01*
Y318110D01*
X879551D01*
Y317958D01*
X879094D01*
Y317806D01*
X856740D01*
Y317958D01*
X856132D01*
Y318110D01*
X855980D01*
Y318262D01*
X855676D01*
Y318414D01*
X855524D01*
Y318566D01*
X855371D01*
Y318871D01*
X855219D01*
Y319023D01*
X855067D01*
Y319479D01*
X854915D01*
Y342137D01*
X855067D01*
Y342441D01*
X855219D01*
Y342746D01*
X855371D01*
Y342898D01*
X855524D01*
Y343050D01*
X855676D01*
Y343202D01*
X855828D01*
Y343354D01*
X855980D01*
Y343506D01*
X856284D01*
Y343658D01*
X879398D01*
Y343506D01*
D02*
G37*
G36*
X849137D02*
X849441D01*
Y343354D01*
X849745D01*
Y343202D01*
X849897D01*
Y343050D01*
X850049D01*
Y342746D01*
X850201D01*
Y342593D01*
X850353D01*
Y342289D01*
X850505D01*
Y326018D01*
Y325866D01*
Y319327D01*
X850353D01*
Y319023D01*
X850201D01*
Y318718D01*
X850049D01*
Y318566D01*
X849897D01*
Y318414D01*
X849745D01*
Y318262D01*
X849593D01*
Y318110D01*
X849289D01*
Y317958D01*
X848832D01*
Y317806D01*
X826326D01*
Y317958D01*
X825870D01*
Y318110D01*
X825566D01*
Y318262D01*
X825414D01*
Y318414D01*
X825262D01*
Y318566D01*
X825109D01*
Y318718D01*
X824957D01*
Y319023D01*
X824805D01*
Y319327D01*
X824653D01*
Y342137D01*
X824805D01*
Y342593D01*
X824957D01*
Y342746D01*
X825109D01*
Y342898D01*
X825262D01*
Y343050D01*
X825414D01*
Y343202D01*
X825566D01*
Y343354D01*
X825718D01*
Y343506D01*
X826022D01*
Y343658D01*
X849137D01*
Y343506D01*
D02*
G37*
G36*
X788613D02*
X788917D01*
Y343354D01*
X789069D01*
Y343202D01*
X789373D01*
Y343050D01*
X789525D01*
Y342746D01*
X789677D01*
Y342593D01*
X789829D01*
Y342137D01*
X789981D01*
Y335598D01*
Y335446D01*
Y319327D01*
X789829D01*
Y319023D01*
X789677D01*
Y318718D01*
X789525D01*
Y318566D01*
X789373D01*
Y318414D01*
X789221D01*
Y318262D01*
X789069D01*
Y318110D01*
X788765D01*
Y317958D01*
X788308D01*
Y317806D01*
X765802D01*
Y317958D01*
X765346D01*
Y318110D01*
X765042D01*
Y318262D01*
X764890D01*
Y318414D01*
X764738D01*
Y318566D01*
X764586D01*
Y318718D01*
X764434D01*
Y319023D01*
X764281D01*
Y319327D01*
X764129D01*
Y342137D01*
X764281D01*
Y342593D01*
X764434D01*
Y342746D01*
X764586D01*
Y343050D01*
X764738D01*
Y343202D01*
X765042D01*
Y343354D01*
X765194D01*
Y343506D01*
X765498D01*
Y343658D01*
X788613D01*
Y343506D01*
D02*
G37*
G36*
X861597Y258625D02*
X861404D01*
Y258047D01*
X861212D01*
Y257661D01*
X861019D01*
Y257083D01*
X860826D01*
Y256504D01*
X860633D01*
Y256119D01*
X860441D01*
Y255540D01*
X860248D01*
Y254962D01*
X860055D01*
Y254576D01*
X859862D01*
Y253998D01*
X859669D01*
Y253612D01*
X859477D01*
Y253034D01*
X859284D01*
Y252456D01*
X859091D01*
Y252070D01*
X858898D01*
Y251492D01*
X858706D01*
Y250913D01*
X858513D01*
Y250528D01*
X858320D01*
Y249949D01*
X858127D01*
Y249371D01*
X857934D01*
Y248986D01*
X857741D01*
Y248407D01*
X857549D01*
Y247829D01*
X857356D01*
Y247443D01*
X857163D01*
Y246865D01*
X856970D01*
Y246479D01*
X856778D01*
Y245901D01*
X856585D01*
Y245323D01*
X856392D01*
Y244937D01*
X856199D01*
Y244359D01*
X856006D01*
Y243780D01*
X855814D01*
Y243395D01*
X855621D01*
Y242816D01*
X855428D01*
Y242238D01*
X855235D01*
Y241852D01*
X855042D01*
Y241274D01*
X854850D01*
Y240696D01*
X854657D01*
Y240310D01*
X854464D01*
Y239732D01*
X854271D01*
Y239346D01*
X854079D01*
Y238768D01*
X853886D01*
Y238190D01*
X853693D01*
Y237804D01*
X853500D01*
Y237225D01*
X853307D01*
Y236647D01*
X853115D01*
Y236262D01*
X852922D01*
Y235683D01*
X852729D01*
Y235105D01*
X852536D01*
Y234719D01*
X852344D01*
Y234141D01*
X852151D01*
Y233755D01*
X851958D01*
Y233177D01*
X851765D01*
Y232599D01*
X851572D01*
Y232213D01*
X851380D01*
Y231635D01*
X851187D01*
Y231056D01*
X850994D01*
Y230671D01*
X850801D01*
Y230092D01*
X850608D01*
Y229514D01*
X847717D01*
Y229707D01*
X843475D01*
Y229900D01*
X839234D01*
Y230092D01*
X838656D01*
Y229900D01*
X838848D01*
Y229707D01*
X839041D01*
Y229514D01*
X839234D01*
Y229321D01*
X839427D01*
Y229128D01*
X839812D01*
Y228936D01*
X840005D01*
Y228743D01*
X840198D01*
Y228550D01*
X840391D01*
Y228357D01*
X840776D01*
Y228165D01*
X840969D01*
Y227972D01*
X841162D01*
Y227779D01*
X841355D01*
Y227586D01*
X841740D01*
Y227393D01*
X841933D01*
Y227201D01*
X842126D01*
Y227008D01*
X842319D01*
Y226815D01*
X842704D01*
Y226622D01*
X842897D01*
Y226429D01*
X843090D01*
Y226237D01*
X843282D01*
Y226044D01*
X843668D01*
Y225851D01*
X843861D01*
Y225658D01*
X844054D01*
Y225466D01*
X844246D01*
Y225273D01*
X844632D01*
Y225080D01*
X844825D01*
Y224887D01*
X845018D01*
Y224694D01*
X845210D01*
Y224501D01*
X845596D01*
Y224309D01*
X845789D01*
Y224116D01*
X845982D01*
Y223923D01*
X846174D01*
Y223730D01*
X846560D01*
Y223538D01*
X846753D01*
Y223345D01*
X846945D01*
Y223152D01*
X847138D01*
Y222959D01*
X847524D01*
Y222766D01*
X847717D01*
Y222574D01*
X847909D01*
Y222381D01*
X847717D01*
Y221995D01*
X847524D01*
Y221417D01*
X847331D01*
Y220839D01*
X847138D01*
Y220453D01*
X846945D01*
Y219875D01*
X846753D01*
Y219489D01*
X846560D01*
Y218911D01*
X846367D01*
Y218332D01*
X846174D01*
Y217947D01*
X845982D01*
Y217368D01*
X845789D01*
Y216790D01*
X845596D01*
Y216404D01*
X845403D01*
Y215826D01*
X845210D01*
Y215248D01*
X845018D01*
Y214862D01*
X844825D01*
Y214284D01*
X844632D01*
Y213705D01*
X844439D01*
Y213320D01*
X844246D01*
Y212742D01*
X844054D01*
Y212356D01*
X843861D01*
Y211778D01*
X843668D01*
Y211199D01*
X843475D01*
Y210814D01*
X843282D01*
Y210235D01*
X843090D01*
Y209657D01*
X842897D01*
Y209271D01*
X842704D01*
Y208693D01*
X842511D01*
Y208115D01*
X842319D01*
Y207729D01*
X842126D01*
Y207151D01*
X841933D01*
Y206572D01*
X841740D01*
Y206187D01*
X841547D01*
Y205608D01*
X841355D01*
Y205223D01*
X841162D01*
Y204644D01*
X840969D01*
Y204066D01*
X840776D01*
Y203680D01*
X840583D01*
Y203102D01*
X840391D01*
Y202524D01*
X840198D01*
Y202138D01*
X840005D01*
Y201560D01*
X839812D01*
Y200982D01*
X839620D01*
Y200596D01*
X839427D01*
Y200018D01*
X839234D01*
Y199632D01*
X839041D01*
Y199054D01*
X838848D01*
Y198475D01*
X838656D01*
Y198090D01*
X838463D01*
Y197511D01*
X838270D01*
Y196933D01*
X838077D01*
Y196547D01*
X837884D01*
Y195969D01*
X837692D01*
Y195391D01*
X837499D01*
Y195005D01*
X837306D01*
Y194427D01*
X837113D01*
Y193848D01*
X836920D01*
Y193463D01*
X836728D01*
Y192884D01*
X836535D01*
Y192499D01*
X836342D01*
Y191920D01*
X836149D01*
Y191728D01*
X819762D01*
Y192306D01*
X819570D01*
Y192692D01*
X819377D01*
Y193270D01*
X819184D01*
Y193655D01*
X818991D01*
Y194234D01*
X818799D01*
Y194812D01*
X818606D01*
Y195198D01*
X818413D01*
Y195776D01*
X818220D01*
Y196162D01*
X818027D01*
Y196740D01*
X817834D01*
Y197318D01*
X817642D01*
Y197704D01*
X817449D01*
Y198282D01*
X817256D01*
Y198668D01*
X817063D01*
Y199246D01*
X816871D01*
Y199825D01*
X816678D01*
Y200210D01*
X816485D01*
Y200789D01*
X816292D01*
Y201174D01*
X816099D01*
Y201753D01*
X815907D01*
Y202138D01*
X815714D01*
Y202717D01*
X815521D01*
Y203295D01*
X815328D01*
Y203680D01*
X815135D01*
Y204259D01*
X814943D01*
Y204644D01*
X814750D01*
Y205223D01*
X814557D01*
Y205801D01*
X814364D01*
Y206187D01*
X814172D01*
Y206765D01*
X813979D01*
Y207151D01*
X813786D01*
Y207729D01*
X813593D01*
Y208307D01*
X813400D01*
Y208693D01*
X813208D01*
Y209271D01*
X813015D01*
Y209657D01*
X812822D01*
Y210235D01*
X812629D01*
Y210814D01*
X812437D01*
Y211199D01*
X812244D01*
Y211778D01*
X812051D01*
Y212163D01*
X811858D01*
Y212742D01*
X811665D01*
Y213320D01*
X811472D01*
Y213705D01*
X811280D01*
Y214284D01*
X811087D01*
Y214669D01*
X810894D01*
Y215248D01*
X810701D01*
Y215826D01*
X810509D01*
Y216212D01*
X810316D01*
Y216790D01*
X810123D01*
Y217176D01*
X809930D01*
Y217754D01*
X809737D01*
Y218139D01*
X809545D01*
Y218718D01*
X809352D01*
Y219296D01*
X809159D01*
Y219682D01*
X808966D01*
Y220260D01*
X808773D01*
Y220646D01*
X808581D01*
Y221224D01*
X808388D01*
Y221803D01*
X808195D01*
Y222188D01*
X808002D01*
Y222766D01*
X807810D01*
Y223152D01*
X807617D01*
Y223730D01*
X807424D01*
Y224309D01*
X807231D01*
Y224694D01*
X807038D01*
Y225273D01*
X806846D01*
Y225658D01*
X806653D01*
Y226237D01*
X806460D01*
Y226815D01*
X806267D01*
Y227201D01*
X806075D01*
Y227779D01*
X805882D01*
Y228165D01*
X805689D01*
Y228743D01*
X805496D01*
Y229321D01*
X805303D01*
Y229707D01*
X805111D01*
Y230285D01*
X804918D01*
Y230671D01*
X804725D01*
Y231249D01*
X804532D01*
Y231828D01*
X804339D01*
Y232213D01*
X804147D01*
Y232791D01*
X803954D01*
Y233177D01*
X803761D01*
Y233755D01*
X803568D01*
Y234141D01*
X803375D01*
Y234719D01*
X803183D01*
Y235298D01*
X802990D01*
Y235683D01*
X802797D01*
Y236262D01*
X802604D01*
Y236647D01*
X802411D01*
Y237225D01*
X802219D01*
Y237804D01*
X802026D01*
Y238190D01*
X801833D01*
Y238768D01*
X801640D01*
Y239153D01*
X801448D01*
Y239732D01*
X801255D01*
Y240310D01*
X801062D01*
Y240696D01*
X800869D01*
Y241274D01*
X800676D01*
Y241660D01*
X800484D01*
Y242238D01*
X800291D01*
Y242816D01*
X800098D01*
Y243202D01*
X799905D01*
Y243780D01*
X799713D01*
Y244166D01*
X799520D01*
Y244744D01*
X799327D01*
Y245323D01*
X799134D01*
Y245708D01*
X798941D01*
Y246094D01*
X792387D01*
Y245901D01*
X790266D01*
Y245708D01*
X789109D01*
Y245515D01*
X788338D01*
Y245323D01*
X787760D01*
Y245130D01*
X787181D01*
Y244937D01*
X786603D01*
Y244744D01*
X786217D01*
Y244552D01*
X786025D01*
Y244359D01*
X785639D01*
Y244166D01*
X785253D01*
Y243973D01*
X785061D01*
Y243780D01*
X784868D01*
Y243587D01*
X784675D01*
Y243395D01*
X784482D01*
Y243202D01*
X784289D01*
Y243009D01*
X784097D01*
Y242816D01*
X783904D01*
Y242431D01*
X783711D01*
Y242238D01*
X783518D01*
Y241852D01*
X783326D01*
Y241467D01*
X783133D01*
Y241081D01*
X782940D01*
Y240310D01*
X782747D01*
Y236647D01*
X782940D01*
Y235876D01*
X783133D01*
Y235298D01*
X783326D01*
Y234912D01*
X783518D01*
Y234527D01*
X783711D01*
Y234334D01*
X783904D01*
Y233948D01*
X784097D01*
Y233755D01*
X784289D01*
Y233563D01*
X784482D01*
Y233370D01*
X784675D01*
Y233177D01*
X784868D01*
Y232984D01*
X785061D01*
Y232791D01*
X785253D01*
Y232599D01*
X785639D01*
Y232406D01*
X785832D01*
Y232213D01*
X786217D01*
Y232020D01*
X786410D01*
Y231828D01*
X786796D01*
Y231635D01*
X787374D01*
Y231442D01*
X787760D01*
Y231249D01*
X788338D01*
Y231056D01*
X789109D01*
Y230863D01*
X789880D01*
Y230671D01*
X791037D01*
Y230478D01*
X792965D01*
Y230285D01*
X796628D01*
Y230092D01*
X796821D01*
Y229514D01*
X797013D01*
Y229128D01*
X797206D01*
Y228550D01*
X797399D01*
Y227972D01*
X797592D01*
Y227586D01*
X797785D01*
Y227008D01*
X797977D01*
Y226622D01*
X798170D01*
Y226044D01*
X798363D01*
Y225466D01*
X798556D01*
Y225080D01*
X798749D01*
Y224501D01*
X798941D01*
Y223923D01*
X799134D01*
Y223538D01*
X799327D01*
Y223152D01*
X799134D01*
Y222959D01*
X798941D01*
Y222574D01*
X798749D01*
Y222188D01*
X798556D01*
Y221803D01*
X798363D01*
Y221417D01*
X798170D01*
Y221031D01*
X797977D01*
Y220839D01*
X797785D01*
Y220453D01*
X797592D01*
Y220067D01*
X797399D01*
Y219682D01*
X797206D01*
Y219296D01*
X797013D01*
Y218911D01*
X796821D01*
Y218718D01*
X796628D01*
Y218332D01*
X796435D01*
Y217947D01*
X796242D01*
Y217561D01*
X796049D01*
Y217176D01*
X795857D01*
Y216790D01*
X795664D01*
Y216597D01*
X795471D01*
Y216212D01*
X795278D01*
Y215826D01*
X795086D01*
Y215441D01*
X794893D01*
Y215055D01*
X794700D01*
Y214669D01*
X794507D01*
Y214477D01*
X794314D01*
Y214091D01*
X794122D01*
Y213705D01*
X793929D01*
Y213320D01*
X793736D01*
Y212934D01*
X793543D01*
Y212742D01*
X793351D01*
Y212356D01*
X793158D01*
Y211970D01*
X792965D01*
Y211585D01*
X792772D01*
Y211199D01*
X792579D01*
Y210814D01*
X792387D01*
Y210621D01*
X792194D01*
Y210235D01*
X792001D01*
Y209850D01*
X791808D01*
Y209464D01*
X791615D01*
Y209079D01*
X791423D01*
Y208693D01*
X791230D01*
Y208500D01*
X791037D01*
Y208115D01*
X790844D01*
Y207729D01*
X790651D01*
Y207344D01*
X790459D01*
Y206958D01*
X790266D01*
Y206572D01*
X790073D01*
Y206380D01*
X789880D01*
Y205994D01*
X789688D01*
Y205608D01*
X789495D01*
Y205223D01*
X789302D01*
Y204837D01*
X789109D01*
Y204452D01*
X788916D01*
Y204259D01*
X788724D01*
Y203873D01*
X788531D01*
Y203488D01*
X788338D01*
Y203102D01*
X788145D01*
Y202717D01*
X787952D01*
Y202524D01*
X787760D01*
Y202138D01*
X787567D01*
Y201753D01*
X787374D01*
Y201367D01*
X787181D01*
Y200982D01*
X786989D01*
Y200596D01*
X786796D01*
Y200403D01*
X786603D01*
Y200018D01*
X786410D01*
Y199632D01*
X786217D01*
Y199246D01*
X786025D01*
Y198861D01*
X785832D01*
Y198475D01*
X785639D01*
Y198282D01*
X785446D01*
Y197897D01*
X785253D01*
Y197511D01*
X785061D01*
Y197126D01*
X784868D01*
Y196740D01*
X784675D01*
Y196355D01*
X784482D01*
Y196162D01*
X784289D01*
Y195776D01*
X784097D01*
Y195391D01*
X783904D01*
Y195005D01*
X783711D01*
Y194620D01*
X783518D01*
Y194234D01*
X783326D01*
Y194041D01*
X783133D01*
Y193655D01*
X782940D01*
Y193270D01*
X782747D01*
Y192884D01*
X782554D01*
Y192499D01*
X782362D01*
Y192306D01*
X782169D01*
Y191920D01*
X781976D01*
Y191728D01*
X762890D01*
Y191920D01*
X763083D01*
Y192113D01*
X763276D01*
Y192499D01*
X763468D01*
Y192884D01*
X763661D01*
Y193077D01*
X763854D01*
Y193463D01*
X764047D01*
Y193848D01*
X764240D01*
Y194041D01*
X764432D01*
Y194427D01*
X764625D01*
Y194620D01*
X764818D01*
Y195005D01*
X765011D01*
Y195391D01*
X765203D01*
Y195583D01*
X765396D01*
Y195969D01*
X765589D01*
Y196355D01*
X765782D01*
Y196547D01*
X765975D01*
Y196933D01*
X766168D01*
Y197318D01*
X766360D01*
Y197511D01*
X766553D01*
Y197897D01*
X766746D01*
Y198090D01*
X766939D01*
Y198475D01*
X767131D01*
Y198861D01*
X767324D01*
Y199054D01*
X767517D01*
Y199439D01*
X767710D01*
Y199825D01*
X767903D01*
Y200018D01*
X768095D01*
Y200403D01*
X768288D01*
Y200789D01*
X768481D01*
Y200982D01*
X768674D01*
Y201367D01*
X768867D01*
Y201753D01*
X769059D01*
Y201945D01*
X769252D01*
Y202331D01*
X769445D01*
Y202524D01*
X769638D01*
Y202909D01*
X769830D01*
Y203295D01*
X770023D01*
Y203488D01*
X770216D01*
Y203873D01*
X770409D01*
Y204259D01*
X770602D01*
Y204452D01*
X770794D01*
Y204837D01*
X770987D01*
Y205223D01*
X771180D01*
Y205416D01*
X771373D01*
Y205801D01*
X771565D01*
Y205994D01*
X771758D01*
Y206380D01*
X771951D01*
Y206765D01*
X772144D01*
Y206958D01*
X772337D01*
Y207344D01*
X772529D01*
Y207729D01*
X772722D01*
Y207922D01*
X772915D01*
Y208307D01*
X773108D01*
Y208693D01*
X773301D01*
Y208886D01*
X773493D01*
Y209271D01*
X773686D01*
Y209464D01*
X773879D01*
Y209850D01*
X774072D01*
Y210235D01*
X774265D01*
Y210428D01*
X774457D01*
Y210814D01*
X774650D01*
Y211199D01*
X774843D01*
Y211392D01*
X775036D01*
Y211778D01*
X775229D01*
Y212163D01*
X775421D01*
Y212356D01*
X775614D01*
Y212742D01*
X775807D01*
Y212934D01*
X776000D01*
Y213320D01*
X776192D01*
Y213705D01*
X776385D01*
Y213898D01*
X776578D01*
Y214284D01*
X776771D01*
Y214669D01*
X776964D01*
Y214862D01*
X777156D01*
Y215248D01*
X777349D01*
Y215633D01*
X777542D01*
Y215826D01*
X777735D01*
Y216212D01*
X777927D01*
Y216404D01*
X778120D01*
Y216790D01*
X778313D01*
Y217176D01*
X778506D01*
Y217368D01*
X778699D01*
Y217754D01*
X778891D01*
Y218139D01*
X779084D01*
Y218332D01*
X779277D01*
Y218718D01*
X779470D01*
Y219104D01*
X779663D01*
Y219296D01*
X779855D01*
Y219682D01*
X780048D01*
Y220067D01*
X780241D01*
Y220260D01*
X780434D01*
Y220646D01*
X780048D01*
Y220839D01*
X779470D01*
Y221031D01*
X778891D01*
Y221224D01*
X778506D01*
Y221417D01*
X777927D01*
Y221610D01*
X777542D01*
Y221803D01*
X777156D01*
Y221995D01*
X776771D01*
Y222188D01*
X776385D01*
Y222381D01*
X776000D01*
Y222574D01*
X775614D01*
Y222766D01*
X775229D01*
Y222959D01*
X775036D01*
Y223152D01*
X774650D01*
Y223345D01*
X774457D01*
Y223538D01*
X774072D01*
Y223730D01*
X773879D01*
Y223923D01*
X773493D01*
Y224116D01*
X773301D01*
Y224309D01*
X773108D01*
Y224501D01*
X772915D01*
Y224694D01*
X772722D01*
Y224887D01*
X772337D01*
Y225080D01*
X772144D01*
Y225273D01*
X771951D01*
Y225466D01*
X771758D01*
Y225658D01*
X771565D01*
Y225851D01*
X771373D01*
Y226044D01*
X771180D01*
Y226237D01*
X770987D01*
Y226429D01*
X770794D01*
Y226622D01*
X770602D01*
Y227008D01*
X770409D01*
Y227201D01*
X770216D01*
Y227393D01*
X770023D01*
Y227779D01*
X769830D01*
Y227972D01*
X769638D01*
Y228165D01*
X769445D01*
Y228550D01*
X769252D01*
Y228743D01*
X769059D01*
Y229128D01*
X768867D01*
Y229514D01*
X768674D01*
Y229900D01*
X768481D01*
Y230285D01*
X768288D01*
Y230671D01*
X768095D01*
Y231056D01*
X767903D01*
Y231442D01*
X767710D01*
Y232020D01*
X767517D01*
Y232599D01*
X767324D01*
Y233370D01*
X767131D01*
Y234141D01*
X766939D01*
Y235105D01*
X766746D01*
Y236647D01*
X766553D01*
Y241081D01*
X766746D01*
Y242816D01*
X766939D01*
Y243780D01*
X767131D01*
Y244744D01*
X767324D01*
Y245323D01*
X767517D01*
Y246094D01*
X767710D01*
Y246479D01*
X767903D01*
Y247058D01*
X768095D01*
Y247443D01*
X768288D01*
Y247829D01*
X768481D01*
Y248214D01*
X768674D01*
Y248600D01*
X768867D01*
Y248986D01*
X769059D01*
Y249178D01*
X769252D01*
Y249564D01*
X769445D01*
Y249757D01*
X769638D01*
Y250142D01*
X769830D01*
Y250335D01*
X770023D01*
Y250721D01*
X770216D01*
Y250913D01*
X770409D01*
Y251106D01*
X770602D01*
Y251299D01*
X770794D01*
Y251685D01*
X770987D01*
Y251877D01*
X771180D01*
Y252070D01*
X771373D01*
Y252263D01*
X771565D01*
Y252456D01*
X771758D01*
Y252649D01*
X771951D01*
Y252841D01*
X772144D01*
Y253034D01*
X772337D01*
Y253227D01*
X772529D01*
Y253420D01*
X772915D01*
Y253612D01*
X773108D01*
Y253805D01*
X773301D01*
Y253998D01*
X773493D01*
Y254191D01*
X773879D01*
Y254384D01*
X774072D01*
Y254576D01*
X774457D01*
Y254769D01*
X774650D01*
Y254962D01*
X775036D01*
Y255155D01*
X775229D01*
Y255347D01*
X775614D01*
Y255540D01*
X776000D01*
Y255733D01*
X776385D01*
Y255926D01*
X776771D01*
Y256119D01*
X777156D01*
Y256311D01*
X777542D01*
Y256504D01*
X777927D01*
Y256697D01*
X778313D01*
Y256890D01*
X778891D01*
Y257083D01*
X779277D01*
Y257275D01*
X779855D01*
Y257468D01*
X780434D01*
Y257661D01*
X781205D01*
Y257854D01*
X781783D01*
Y258047D01*
X782747D01*
Y258239D01*
X783518D01*
Y258432D01*
X784675D01*
Y258625D01*
X785832D01*
Y258818D01*
X787374D01*
Y259011D01*
X789688D01*
Y259203D01*
X811858D01*
Y259011D01*
X812051D01*
Y258432D01*
X812244D01*
Y257854D01*
X812437D01*
Y257275D01*
X812629D01*
Y256697D01*
X812822D01*
Y256119D01*
X813015D01*
Y255540D01*
X813208D01*
Y254962D01*
X813400D01*
Y254384D01*
X813593D01*
Y253612D01*
X813786D01*
Y253034D01*
X813979D01*
Y252456D01*
X814172D01*
Y251877D01*
X814364D01*
Y251299D01*
X814557D01*
Y250721D01*
X814750D01*
Y250142D01*
X814943D01*
Y249564D01*
X815135D01*
Y248986D01*
X815328D01*
Y248407D01*
X815521D01*
Y247829D01*
X815714D01*
Y247250D01*
X815907D01*
Y246479D01*
X816099D01*
Y245901D01*
X816292D01*
Y245323D01*
X816485D01*
Y244744D01*
X816678D01*
Y244166D01*
X816871D01*
Y243587D01*
X817063D01*
Y243009D01*
X817256D01*
Y242431D01*
X817449D01*
Y241852D01*
X817642D01*
Y241274D01*
X817834D01*
Y240696D01*
X818027D01*
Y240117D01*
X818220D01*
Y239539D01*
X818413D01*
Y238768D01*
X818606D01*
Y238190D01*
X818799D01*
Y237611D01*
X818991D01*
Y237033D01*
X819184D01*
Y236454D01*
X819377D01*
Y235876D01*
X819570D01*
Y235298D01*
X819762D01*
Y234719D01*
X819955D01*
Y234141D01*
X820148D01*
Y233563D01*
X820341D01*
Y232984D01*
X820534D01*
Y232406D01*
X820726D01*
Y231635D01*
X820919D01*
Y231056D01*
X821112D01*
Y230478D01*
X821305D01*
Y229900D01*
X821497D01*
Y229321D01*
X821690D01*
Y228743D01*
X821883D01*
Y228165D01*
X822076D01*
Y227586D01*
X822269D01*
Y227008D01*
X822461D01*
Y226429D01*
X822654D01*
Y225851D01*
X822847D01*
Y225273D01*
X823040D01*
Y224694D01*
X823233D01*
Y223923D01*
X823425D01*
Y223345D01*
X823618D01*
Y222766D01*
X823811D01*
Y222188D01*
X824004D01*
Y221610D01*
X824196D01*
Y221031D01*
X824389D01*
Y220453D01*
X824582D01*
Y219875D01*
X824775D01*
Y219296D01*
X824968D01*
Y218718D01*
X825161D01*
Y218139D01*
X825353D01*
Y217561D01*
X825546D01*
Y216983D01*
X825739D01*
Y216212D01*
X825932D01*
Y215633D01*
X826124D01*
Y215055D01*
X826317D01*
Y214477D01*
X826510D01*
Y213898D01*
X826703D01*
Y213320D01*
X826896D01*
Y212742D01*
X827088D01*
Y212163D01*
X827281D01*
Y211585D01*
X827474D01*
Y211392D01*
X827859D01*
Y211970D01*
X828052D01*
Y212549D01*
X828245D01*
Y213127D01*
X828438D01*
Y213705D01*
X828631D01*
Y214284D01*
X828823D01*
Y214862D01*
X829016D01*
Y215633D01*
X829209D01*
Y216212D01*
X829402D01*
Y216790D01*
X829595D01*
Y217368D01*
X829787D01*
Y217947D01*
X829980D01*
Y218525D01*
X830173D01*
Y219104D01*
X830366D01*
Y219682D01*
X830558D01*
Y220260D01*
X830751D01*
Y220839D01*
X830944D01*
Y221417D01*
X831137D01*
Y221995D01*
X831330D01*
Y222574D01*
X831522D01*
Y223152D01*
X831715D01*
Y223730D01*
X831908D01*
Y224309D01*
X832101D01*
Y224887D01*
X832294D01*
Y225658D01*
X832486D01*
Y226237D01*
X832679D01*
Y226815D01*
X832872D01*
Y227393D01*
X833065D01*
Y227972D01*
X833258D01*
Y228550D01*
X833450D01*
Y229128D01*
X833643D01*
Y229707D01*
X833836D01*
Y230285D01*
X834029D01*
Y230863D01*
X834221D01*
Y231442D01*
X834414D01*
Y232020D01*
X834607D01*
Y232599D01*
X834800D01*
Y233177D01*
X834993D01*
Y233755D01*
X835185D01*
Y234334D01*
X835378D01*
Y235105D01*
X835571D01*
Y235683D01*
X835764D01*
Y236262D01*
X835956D01*
Y236840D01*
X836149D01*
Y237418D01*
X836342D01*
Y237997D01*
X836535D01*
Y238575D01*
X836728D01*
Y239153D01*
X836920D01*
Y239732D01*
X837113D01*
Y240310D01*
X837306D01*
Y240889D01*
X837499D01*
Y241467D01*
X837692D01*
Y242045D01*
X837884D01*
Y242624D01*
X838077D01*
Y243202D01*
X838270D01*
Y243587D01*
X838463D01*
Y243973D01*
X838656D01*
Y244552D01*
X838848D01*
Y244937D01*
X839041D01*
Y245323D01*
X839234D01*
Y245708D01*
X839427D01*
Y246094D01*
X839620D01*
Y246479D01*
X839812D01*
Y246672D01*
X840005D01*
Y247058D01*
X840198D01*
Y247443D01*
X840391D01*
Y247636D01*
X840583D01*
Y248022D01*
X840776D01*
Y248214D01*
X840969D01*
Y248600D01*
X841162D01*
Y248793D01*
X841355D01*
Y248986D01*
X841547D01*
Y249371D01*
X841740D01*
Y249564D01*
X841933D01*
Y249757D01*
X842126D01*
Y249949D01*
X842319D01*
Y250335D01*
X842511D01*
Y250528D01*
X842704D01*
Y250721D01*
X842897D01*
Y250913D01*
X843090D01*
Y251106D01*
X843282D01*
Y251299D01*
X843475D01*
Y251492D01*
X843668D01*
Y251685D01*
X843861D01*
Y251877D01*
X844054D01*
Y252070D01*
X844246D01*
Y252263D01*
X844439D01*
Y252456D01*
X844632D01*
Y252649D01*
X844825D01*
Y252841D01*
X845018D01*
Y253034D01*
X845210D01*
Y253227D01*
X845403D01*
Y253420D01*
X845789D01*
Y253612D01*
X845982D01*
Y253805D01*
X846174D01*
Y253998D01*
X846367D01*
Y254191D01*
X846753D01*
Y254384D01*
X846945D01*
Y254576D01*
X847331D01*
Y254769D01*
X847524D01*
Y254962D01*
X847909D01*
Y255155D01*
X848102D01*
Y255347D01*
X848488D01*
Y255540D01*
X848680D01*
Y255733D01*
X849066D01*
Y255926D01*
X849452D01*
Y256119D01*
X849837D01*
Y256311D01*
X850223D01*
Y256504D01*
X850608D01*
Y256697D01*
X850994D01*
Y256890D01*
X851380D01*
Y257083D01*
X851765D01*
Y257275D01*
X852151D01*
Y257468D01*
X852729D01*
Y257661D01*
X853307D01*
Y257854D01*
X853886D01*
Y258047D01*
X854464D01*
Y258239D01*
X855042D01*
Y258432D01*
X855814D01*
Y258625D01*
X856778D01*
Y258818D01*
X857934D01*
Y259011D01*
X859669D01*
Y259203D01*
X861597D01*
Y258625D01*
D02*
G37*
G36*
X887624Y259011D02*
X887431D01*
Y258625D01*
X887238D01*
Y258047D01*
X887045D01*
Y257661D01*
X886852D01*
Y257083D01*
X886660D01*
Y256504D01*
X886467D01*
Y256119D01*
X886274D01*
Y255540D01*
X886081D01*
Y254962D01*
X885889D01*
Y254576D01*
X885696D01*
Y253998D01*
X885503D01*
Y253420D01*
X885310D01*
Y253034D01*
X885117D01*
Y252456D01*
X884925D01*
Y251877D01*
X884732D01*
Y251492D01*
X884539D01*
Y250913D01*
X884346D01*
Y250528D01*
X884154D01*
Y249949D01*
X883961D01*
Y249371D01*
X883768D01*
Y248986D01*
X883575D01*
Y248793D01*
Y248600D01*
Y248407D01*
X883382D01*
Y247829D01*
X883189D01*
Y247443D01*
X882997D01*
Y246865D01*
X882804D01*
Y246287D01*
X882611D01*
Y245901D01*
X882418D01*
Y245323D01*
X882226D01*
Y244744D01*
X882033D01*
Y244359D01*
X881840D01*
Y243780D01*
X881647D01*
Y243395D01*
X881454D01*
Y242816D01*
X881262D01*
Y242238D01*
X881069D01*
Y241852D01*
X880876D01*
Y241274D01*
X880683D01*
Y240696D01*
X880490D01*
Y240310D01*
X880298D01*
Y239732D01*
X880105D01*
Y239153D01*
X879912D01*
Y238768D01*
X879719D01*
Y238190D01*
X879527D01*
Y237804D01*
X879334D01*
Y237225D01*
X879141D01*
Y236647D01*
X878948D01*
Y236262D01*
X878755D01*
Y235683D01*
X878563D01*
Y235105D01*
X878370D01*
Y234719D01*
X878177D01*
Y234141D01*
X877984D01*
Y233563D01*
X877792D01*
Y233177D01*
X877599D01*
Y232599D01*
X877406D01*
Y232020D01*
X877213D01*
Y231635D01*
X877020D01*
Y231056D01*
X876827D01*
Y230671D01*
X876635D01*
Y230092D01*
X876442D01*
Y229514D01*
X876249D01*
Y229128D01*
X876056D01*
Y228550D01*
X875864D01*
Y227972D01*
X875671D01*
Y227586D01*
X875478D01*
Y227008D01*
X875285D01*
Y226429D01*
X875092D01*
Y226044D01*
X874900D01*
Y225466D01*
X874707D01*
Y224887D01*
X874514D01*
Y224501D01*
X874321D01*
Y223923D01*
X874128D01*
Y223538D01*
X873936D01*
Y222959D01*
X873743D01*
Y222381D01*
X873550D01*
Y221995D01*
X873357D01*
Y221417D01*
X873165D01*
Y220839D01*
X872972D01*
Y220453D01*
X872779D01*
Y219875D01*
X872586D01*
Y219296D01*
X872393D01*
Y218911D01*
X872201D01*
Y218332D01*
X872008D01*
Y217754D01*
X871815D01*
Y217368D01*
X871622D01*
Y216790D01*
X871430D01*
Y216404D01*
X871237D01*
Y215826D01*
X871044D01*
Y215248D01*
X870851D01*
Y214862D01*
X870658D01*
Y214284D01*
X870465D01*
Y213705D01*
X870273D01*
Y213320D01*
X870080D01*
Y212742D01*
X869887D01*
Y212163D01*
X869694D01*
Y211778D01*
X869502D01*
Y211199D01*
X869309D01*
Y210814D01*
X869116D01*
Y210235D01*
X868923D01*
Y209657D01*
X868730D01*
Y209271D01*
X868538D01*
Y208693D01*
X868345D01*
Y208115D01*
X868152D01*
Y207729D01*
X867959D01*
Y207344D01*
X867766D01*
Y206958D01*
X867574D01*
Y206572D01*
X867381D01*
Y206187D01*
X867188D01*
Y205801D01*
X866995D01*
Y205416D01*
X866803D01*
Y205030D01*
X866610D01*
Y204644D01*
X866417D01*
Y204452D01*
X866224D01*
Y204066D01*
X866031D01*
Y203873D01*
X865839D01*
Y203488D01*
X865646D01*
Y203295D01*
X865453D01*
Y202909D01*
X865260D01*
Y202717D01*
X865068D01*
Y202331D01*
X864875D01*
Y202138D01*
X864682D01*
Y201945D01*
X864489D01*
Y201560D01*
X864296D01*
Y201367D01*
X864104D01*
Y201174D01*
X863911D01*
Y200982D01*
X863718D01*
Y200789D01*
X863525D01*
Y200596D01*
X863332D01*
Y200210D01*
X863140D01*
Y200018D01*
X862947D01*
Y199825D01*
X862754D01*
Y199632D01*
X862561D01*
Y199439D01*
X862368D01*
Y199246D01*
X862176D01*
Y199054D01*
X861983D01*
Y198861D01*
X861790D01*
Y198668D01*
X861597D01*
Y198475D01*
X861212D01*
Y198282D01*
X861019D01*
Y198090D01*
X860826D01*
Y197897D01*
X860633D01*
Y197704D01*
X860441D01*
Y197511D01*
X860055D01*
Y197318D01*
X859862D01*
Y197126D01*
X859669D01*
Y196933D01*
X859284D01*
Y196740D01*
X859091D01*
Y196547D01*
X858898D01*
Y196355D01*
X858513D01*
Y196162D01*
X858320D01*
Y195969D01*
X857934D01*
Y195776D01*
X857549D01*
Y195583D01*
X857356D01*
Y195391D01*
X856970D01*
Y195198D01*
X856585D01*
Y195005D01*
X856392D01*
Y194812D01*
X856006D01*
Y194620D01*
X855621D01*
Y194427D01*
X855235D01*
Y194234D01*
X854657D01*
Y194041D01*
X854271D01*
Y193848D01*
X853886D01*
Y193655D01*
X853307D01*
Y193463D01*
X852922D01*
Y193270D01*
X852344D01*
Y193077D01*
X851765D01*
Y192884D01*
X851187D01*
Y192692D01*
X850416D01*
Y192499D01*
X849644D01*
Y192306D01*
X848680D01*
Y192113D01*
X847524D01*
Y191920D01*
X845596D01*
Y191728D01*
X843668D01*
Y191920D01*
X843861D01*
Y192306D01*
X844054D01*
Y192884D01*
X844246D01*
Y193463D01*
X844439D01*
Y193848D01*
X844632D01*
Y194427D01*
X844825D01*
Y195005D01*
X845018D01*
Y195391D01*
X845210D01*
Y195969D01*
X845403D01*
Y196547D01*
X845596D01*
Y196933D01*
X845789D01*
Y197511D01*
X845982D01*
Y198090D01*
X846174D01*
Y198475D01*
X846367D01*
Y199054D01*
X846560D01*
Y199439D01*
X846753D01*
Y200018D01*
X846945D01*
Y200596D01*
X847138D01*
Y200982D01*
X847331D01*
Y201560D01*
X847524D01*
Y202138D01*
X847717D01*
Y202524D01*
X847909D01*
Y203102D01*
X848102D01*
Y203680D01*
X848295D01*
Y204066D01*
X848488D01*
Y204644D01*
X848680D01*
Y205223D01*
X848873D01*
Y205608D01*
X849066D01*
Y206187D01*
X849259D01*
Y206572D01*
X849452D01*
Y207151D01*
X849644D01*
Y207729D01*
X849837D01*
Y208115D01*
X850030D01*
Y208693D01*
X850223D01*
Y209271D01*
X850416D01*
Y209657D01*
X850608D01*
Y210235D01*
X850801D01*
Y210814D01*
X850994D01*
Y211199D01*
X851187D01*
Y211778D01*
X851380D01*
Y212163D01*
X851572D01*
Y212742D01*
X851765D01*
Y213320D01*
X851958D01*
Y213705D01*
X852151D01*
Y214284D01*
X852344D01*
Y214862D01*
X852536D01*
Y215248D01*
X852729D01*
Y215826D01*
X852922D01*
Y216404D01*
X853115D01*
Y216790D01*
X853307D01*
Y217368D01*
X853500D01*
Y217754D01*
X853886D01*
Y217561D01*
X854271D01*
Y217368D01*
X854464D01*
Y217176D01*
X854657D01*
Y216983D01*
X854850D01*
Y216790D01*
X855235D01*
Y216597D01*
X855428D01*
Y216404D01*
X855621D01*
Y216212D01*
X855814D01*
Y216019D01*
X856199D01*
Y215826D01*
X856392D01*
Y215633D01*
X856585D01*
Y215441D01*
X856778D01*
Y215248D01*
X857163D01*
Y215055D01*
X857356D01*
Y214862D01*
X857549D01*
Y214669D01*
X857741D01*
Y214477D01*
X858127D01*
Y214284D01*
X858320D01*
Y214091D01*
X858513D01*
Y213898D01*
X858706D01*
Y213705D01*
X859091D01*
Y213513D01*
X859284D01*
Y213320D01*
X859477D01*
Y213127D01*
X859669D01*
Y212934D01*
X860055D01*
Y212742D01*
X860248D01*
Y212549D01*
X860441D01*
Y212356D01*
X860633D01*
Y212163D01*
X861019D01*
Y211970D01*
X861212D01*
Y211778D01*
X861404D01*
Y211585D01*
X861597D01*
Y211392D01*
X861983D01*
Y211199D01*
X862176D01*
Y211006D01*
X862368D01*
Y210814D01*
X862561D01*
Y210621D01*
X862947D01*
Y211199D01*
X862754D01*
Y211778D01*
X862561D01*
Y212549D01*
X862368D01*
Y213320D01*
X862176D01*
Y213898D01*
X861983D01*
Y214669D01*
X861790D01*
Y215441D01*
X861597D01*
Y216019D01*
X861404D01*
Y216790D01*
X861212D01*
Y217561D01*
X861019D01*
Y218139D01*
X860826D01*
Y218911D01*
X860633D01*
Y219489D01*
X860441D01*
Y220260D01*
X860248D01*
Y221031D01*
X860055D01*
Y221610D01*
X859862D01*
Y221995D01*
X860055D01*
Y222188D01*
X860441D01*
Y222381D01*
X860633D01*
Y222574D01*
X861019D01*
Y222766D01*
X861212D01*
Y222959D01*
X861597D01*
Y223152D01*
X861790D01*
Y223345D01*
X862176D01*
Y223538D01*
X862368D01*
Y223730D01*
X862754D01*
Y223923D01*
X862947D01*
Y224116D01*
X863332D01*
Y224309D01*
X863525D01*
Y224501D01*
X863911D01*
Y224694D01*
X864104D01*
Y224887D01*
X864489D01*
Y225080D01*
X864682D01*
Y225273D01*
X865068D01*
Y225466D01*
X865260D01*
Y225658D01*
X865646D01*
Y225851D01*
X866031D01*
Y226044D01*
X866224D01*
Y226237D01*
X866610D01*
Y226429D01*
X866803D01*
Y226622D01*
X867188D01*
Y226815D01*
X867381D01*
Y227008D01*
X867766D01*
Y227201D01*
X867959D01*
Y227393D01*
X868345D01*
Y227586D01*
X868538D01*
Y227779D01*
X868923D01*
Y227972D01*
X869116D01*
Y228165D01*
X869502D01*
Y228357D01*
X869694D01*
Y228550D01*
X868538D01*
Y228743D01*
X864489D01*
Y228936D01*
X860248D01*
Y229128D01*
X857934D01*
Y229514D01*
X858127D01*
Y230092D01*
X858320D01*
Y230671D01*
X858513D01*
Y231056D01*
X858706D01*
Y231635D01*
X858898D01*
Y232213D01*
X859091D01*
Y232599D01*
X859284D01*
Y233177D01*
X859477D01*
Y233563D01*
X859669D01*
Y234141D01*
X859862D01*
Y234719D01*
X860055D01*
Y235105D01*
X860248D01*
Y235683D01*
X860441D01*
Y236262D01*
X860633D01*
Y236647D01*
X860826D01*
Y237225D01*
X861019D01*
Y237804D01*
X861212D01*
Y238190D01*
X861404D01*
Y238768D01*
X861597D01*
Y239346D01*
X861790D01*
Y239732D01*
X861983D01*
Y240310D01*
X862176D01*
Y240696D01*
X862368D01*
Y241274D01*
X862561D01*
Y241852D01*
X862754D01*
Y242238D01*
X862947D01*
Y242816D01*
X863140D01*
Y243202D01*
X863332D01*
Y243587D01*
X863525D01*
Y244166D01*
X863718D01*
Y244552D01*
X863911D01*
Y244937D01*
X864104D01*
Y245323D01*
X864296D01*
Y245515D01*
X864489D01*
Y245901D01*
X864682D01*
Y246287D01*
X864875D01*
Y246479D01*
X865068D01*
Y246865D01*
X865260D01*
Y247250D01*
X865453D01*
Y247443D01*
X865646D01*
Y247829D01*
X865839D01*
Y248022D01*
X866031D01*
Y248214D01*
X866224D01*
Y248600D01*
X866417D01*
Y248793D01*
X866610D01*
Y248986D01*
X866803D01*
Y249371D01*
X866995D01*
Y249564D01*
X867188D01*
Y249757D01*
X867381D01*
Y249949D01*
X867574D01*
Y250142D01*
X867766D01*
Y250528D01*
X867959D01*
Y250721D01*
X868152D01*
Y250913D01*
X868345D01*
Y251106D01*
X868538D01*
Y251299D01*
X868730D01*
Y251492D01*
X868923D01*
Y251685D01*
X869116D01*
Y251877D01*
X869309D01*
Y252070D01*
X869502D01*
Y252263D01*
X869694D01*
Y252456D01*
X870080D01*
Y252649D01*
X870273D01*
Y252841D01*
X870465D01*
Y253034D01*
X870658D01*
Y253227D01*
X870851D01*
Y253420D01*
X871237D01*
Y253612D01*
X871430D01*
Y253805D01*
X871622D01*
Y253998D01*
X872008D01*
Y254191D01*
X872201D01*
Y254384D01*
X872393D01*
Y254576D01*
X872779D01*
Y254769D01*
X872972D01*
Y254962D01*
X873357D01*
Y255155D01*
X873743D01*
Y255347D01*
X873936D01*
Y255540D01*
X874321D01*
Y255733D01*
X874707D01*
Y255926D01*
X874900D01*
Y256119D01*
X875285D01*
Y256311D01*
X875671D01*
Y256504D01*
X876056D01*
Y256697D01*
X876635D01*
Y256890D01*
X877020D01*
Y257083D01*
X877406D01*
Y257275D01*
X877984D01*
Y257468D01*
X878370D01*
Y257661D01*
X878948D01*
Y257854D01*
X879527D01*
Y258047D01*
X880298D01*
Y258239D01*
X880876D01*
Y258432D01*
X881647D01*
Y258625D01*
X882611D01*
Y258818D01*
X883961D01*
Y259011D01*
X885889D01*
Y259203D01*
X887624D01*
Y259011D01*
D02*
G37*
G36*
X771758D02*
X771373D01*
Y258818D01*
X771180D01*
Y258625D01*
X770794D01*
Y258432D01*
X770602D01*
Y258239D01*
X770409D01*
Y258047D01*
X770023D01*
Y257854D01*
X769830D01*
Y257661D01*
X769638D01*
Y257468D01*
X769445D01*
Y257275D01*
X769059D01*
Y257083D01*
X768867D01*
Y256890D01*
X768674D01*
Y256697D01*
X768481D01*
Y256504D01*
X768288D01*
Y256311D01*
X768095D01*
Y256119D01*
X767903D01*
Y255926D01*
X767710D01*
Y255733D01*
X767517D01*
Y255540D01*
X767324D01*
Y255347D01*
X767131D01*
Y255155D01*
X766939D01*
Y254769D01*
X766746D01*
Y254576D01*
X766553D01*
Y254384D01*
X766360D01*
Y254191D01*
X766168D01*
Y253805D01*
X765975D01*
Y253612D01*
X765782D01*
Y253420D01*
X765589D01*
Y253034D01*
X765396D01*
Y252841D01*
X765203D01*
Y252456D01*
X765011D01*
Y252263D01*
X764818D01*
Y251877D01*
X764625D01*
Y251685D01*
X764432D01*
Y251299D01*
X764240D01*
Y250913D01*
X764047D01*
Y250528D01*
X763854D01*
Y250142D01*
X763661D01*
Y249757D01*
X763468D01*
Y249371D01*
X763276D01*
Y248986D01*
X763083D01*
Y248407D01*
X762890D01*
Y248022D01*
X762697D01*
Y247443D01*
X762505D01*
Y246672D01*
X762312D01*
Y246094D01*
X762119D01*
Y245323D01*
X751130D01*
Y244552D01*
X751323D01*
Y244166D01*
X751516D01*
Y243587D01*
X751708D01*
Y243202D01*
X751901D01*
Y242624D01*
X752094D01*
Y242238D01*
X752287D01*
Y241660D01*
X752479D01*
Y241274D01*
X752672D01*
Y240696D01*
X752865D01*
Y240310D01*
X753058D01*
Y239732D01*
X753251D01*
Y239346D01*
X753444D01*
Y238768D01*
X753636D01*
Y238382D01*
X753829D01*
Y237804D01*
X754022D01*
Y237418D01*
X754215D01*
Y236840D01*
X754407D01*
Y236454D01*
X754600D01*
Y235876D01*
X754793D01*
Y235490D01*
X754986D01*
Y234912D01*
X755179D01*
Y234334D01*
X755371D01*
Y233948D01*
X755564D01*
Y233370D01*
X755757D01*
Y232984D01*
X755950D01*
Y232406D01*
X756143D01*
Y232020D01*
X756335D01*
Y231442D01*
X756528D01*
Y231056D01*
X756721D01*
Y230478D01*
X756914D01*
Y230092D01*
X757106D01*
Y229514D01*
X757299D01*
Y229128D01*
X757492D01*
Y228550D01*
X757685D01*
Y228165D01*
X757878D01*
Y227586D01*
X758070D01*
Y227201D01*
X758263D01*
Y226622D01*
X758456D01*
Y226237D01*
X758649D01*
Y225658D01*
X758841D01*
Y225273D01*
X759034D01*
Y224694D01*
X759227D01*
Y224309D01*
X759420D01*
Y223730D01*
X759613D01*
Y223345D01*
X759806D01*
Y222766D01*
X759998D01*
Y222381D01*
X760191D01*
Y221803D01*
X760384D01*
Y221417D01*
X760577D01*
Y220839D01*
X760769D01*
Y220260D01*
X760962D01*
Y219875D01*
X761155D01*
Y219296D01*
X761348D01*
Y218911D01*
X761541D01*
Y218332D01*
X761733D01*
Y217947D01*
X761926D01*
Y217368D01*
X762119D01*
Y216983D01*
X762312D01*
Y216404D01*
X762505D01*
Y216019D01*
X762697D01*
Y215441D01*
X762890D01*
Y215055D01*
X763083D01*
Y214477D01*
X763276D01*
Y214091D01*
X763468D01*
Y213513D01*
X763661D01*
Y213127D01*
X763854D01*
Y212549D01*
X764047D01*
Y212163D01*
X764240D01*
Y211585D01*
X764432D01*
Y211199D01*
X764625D01*
Y210621D01*
X764818D01*
Y210235D01*
X765011D01*
Y209657D01*
X765203D01*
Y209271D01*
X765396D01*
Y208693D01*
X765589D01*
Y208307D01*
X765782D01*
Y207729D01*
X765975D01*
Y207344D01*
X766168D01*
Y206958D01*
X765975D01*
Y206572D01*
X765782D01*
Y206187D01*
X765589D01*
Y205994D01*
X765396D01*
Y205608D01*
X765203D01*
Y205223D01*
X765011D01*
Y205030D01*
X764818D01*
Y204644D01*
X764625D01*
Y204452D01*
X764432D01*
Y204066D01*
X764240D01*
Y203680D01*
X764047D01*
Y203488D01*
X763854D01*
Y203102D01*
X763661D01*
Y202717D01*
X763468D01*
Y202524D01*
X763276D01*
Y202138D01*
X763083D01*
Y201753D01*
X762890D01*
Y201560D01*
X762697D01*
Y201174D01*
X762505D01*
Y200789D01*
X762312D01*
Y200596D01*
X762119D01*
Y200210D01*
X761926D01*
Y200018D01*
X761733D01*
Y199632D01*
X761541D01*
Y199246D01*
X761348D01*
Y199054D01*
X761155D01*
Y198668D01*
X760962D01*
Y198282D01*
X760769D01*
Y198090D01*
X760577D01*
Y197704D01*
X760384D01*
Y197318D01*
X760191D01*
Y197126D01*
X759998D01*
Y196740D01*
X759806D01*
Y196547D01*
X759613D01*
Y196162D01*
X759420D01*
Y195776D01*
X759227D01*
Y195583D01*
X759034D01*
Y195198D01*
X758841D01*
Y194812D01*
X758649D01*
Y194620D01*
X758456D01*
Y194234D01*
X758263D01*
Y193848D01*
X758070D01*
Y193655D01*
X757878D01*
Y193270D01*
X757685D01*
Y193077D01*
X757492D01*
Y192692D01*
X757299D01*
Y192306D01*
X757106D01*
Y192113D01*
X756914D01*
Y191728D01*
X755950D01*
Y191920D01*
X755757D01*
Y192306D01*
X755564D01*
Y192884D01*
X755371D01*
Y193270D01*
X755179D01*
Y193848D01*
X754986D01*
Y194234D01*
X754793D01*
Y194812D01*
X754600D01*
Y195198D01*
X754407D01*
Y195776D01*
X754215D01*
Y196162D01*
X754022D01*
Y196740D01*
X753829D01*
Y197126D01*
X753636D01*
Y197704D01*
X753444D01*
Y198090D01*
X753251D01*
Y198668D01*
X753058D01*
Y199054D01*
X752865D01*
Y199632D01*
X752672D01*
Y200018D01*
X752479D01*
Y200596D01*
X752287D01*
Y200982D01*
X752094D01*
Y201560D01*
X751901D01*
Y201945D01*
X751708D01*
Y202524D01*
X751516D01*
Y202909D01*
X751323D01*
Y203488D01*
X751130D01*
Y203873D01*
X750937D01*
Y204452D01*
X750744D01*
Y205030D01*
X750552D01*
Y205416D01*
X750359D01*
Y205994D01*
X750166D01*
Y206380D01*
X749973D01*
Y206958D01*
X749781D01*
Y207344D01*
X749588D01*
Y207922D01*
X749395D01*
Y208307D01*
X749202D01*
Y208886D01*
X749009D01*
Y209271D01*
X748817D01*
Y209850D01*
X748624D01*
Y210235D01*
X748431D01*
Y210814D01*
X748238D01*
Y211199D01*
X748045D01*
Y211778D01*
X747853D01*
Y212163D01*
X747660D01*
Y212742D01*
X747467D01*
Y213127D01*
X747274D01*
Y213705D01*
X747082D01*
Y214091D01*
X746889D01*
Y214669D01*
X746696D01*
Y215055D01*
X746503D01*
Y215633D01*
X746310D01*
Y216019D01*
X746118D01*
Y216597D01*
X745925D01*
Y216983D01*
X745732D01*
Y217561D01*
X745539D01*
Y217947D01*
X745346D01*
Y218525D01*
X745154D01*
Y219104D01*
X744961D01*
Y219489D01*
X744768D01*
Y220067D01*
X744575D01*
Y220453D01*
X744382D01*
Y221031D01*
X744190D01*
Y221417D01*
X743997D01*
Y221995D01*
X743804D01*
Y222381D01*
X743611D01*
Y222959D01*
X743419D01*
Y223345D01*
X743226D01*
Y223538D01*
Y223730D01*
Y223923D01*
X743033D01*
Y224309D01*
X742840D01*
Y224887D01*
X742647D01*
Y225273D01*
X742455D01*
Y225851D01*
X742262D01*
Y226237D01*
X742069D01*
Y226815D01*
X741876D01*
Y227201D01*
X741683D01*
Y227779D01*
X741491D01*
Y228165D01*
X741298D01*
Y228743D01*
X741105D01*
Y229128D01*
X740912D01*
Y229707D01*
X740720D01*
Y230092D01*
X740527D01*
Y230671D01*
X740334D01*
Y231056D01*
X740141D01*
Y231635D01*
X739948D01*
Y232213D01*
X739756D01*
Y232599D01*
X739563D01*
Y233177D01*
X739370D01*
Y233563D01*
X739177D01*
Y234141D01*
X738984D01*
Y234527D01*
X738792D01*
Y235105D01*
X738599D01*
Y235490D01*
X738406D01*
Y236069D01*
X738213D01*
Y236454D01*
X738020D01*
Y237033D01*
X737828D01*
Y237418D01*
X737635D01*
Y237997D01*
X737442D01*
Y238382D01*
X737249D01*
Y238961D01*
X737057D01*
Y239346D01*
X736864D01*
Y239925D01*
X736671D01*
Y240310D01*
X736478D01*
Y240889D01*
X736285D01*
Y241274D01*
X736093D01*
Y241852D01*
X735900D01*
Y242238D01*
X735707D01*
Y242816D01*
X735514D01*
Y243202D01*
X735321D01*
Y243780D01*
X735129D01*
Y244166D01*
X734936D01*
Y244744D01*
X734743D01*
Y245130D01*
X734550D01*
Y245323D01*
X718356D01*
Y245515D01*
X717392D01*
Y245708D01*
X716621D01*
Y245901D01*
X716043D01*
Y246094D01*
X715464D01*
Y246287D01*
X715079D01*
Y246479D01*
X714500D01*
Y246672D01*
X714115D01*
Y246865D01*
X713729D01*
Y247058D01*
X713536D01*
Y247250D01*
X713151D01*
Y247443D01*
X712958D01*
Y247636D01*
X712572D01*
Y247829D01*
X712380D01*
Y248022D01*
X711994D01*
Y248214D01*
X711801D01*
Y248407D01*
X711609D01*
Y248600D01*
X711416D01*
Y248793D01*
X711223D01*
Y248986D01*
X710837D01*
Y249178D01*
X710645D01*
Y249371D01*
X710452D01*
Y249564D01*
X710259D01*
Y249949D01*
X710066D01*
Y250142D01*
X709874D01*
Y250335D01*
X709681D01*
Y250528D01*
X709488D01*
Y250721D01*
X709295D01*
Y251106D01*
X709102D01*
Y251299D01*
X708910D01*
Y251685D01*
X708717D01*
Y251877D01*
X708524D01*
Y252263D01*
X708331D01*
Y252649D01*
X708138D01*
Y253034D01*
X707946D01*
Y253420D01*
X707753D01*
Y253805D01*
X707560D01*
Y254384D01*
X707367D01*
Y254962D01*
X707175D01*
Y255540D01*
X706982D01*
Y256504D01*
X706789D01*
Y257854D01*
X706596D01*
Y259203D01*
X771758D01*
Y259011D01*
D02*
G37*
G36*
X619760Y366747D02*
X616224D01*
Y365485D01*
X616210Y365249D01*
X616196Y365027D01*
X616182Y364833D01*
X616154Y364653D01*
X616140Y364500D01*
X616113Y364347D01*
X616085Y364223D01*
X616057Y364112D01*
X616029Y364015D01*
X616016Y363945D01*
X615988Y363876D01*
X615974Y363820D01*
X615960Y363793D01*
X615946Y363765D01*
X615821Y363557D01*
X615683Y363363D01*
X615516Y363196D01*
X615364Y363058D01*
X615225Y362947D01*
X615100Y362864D01*
X615017Y362808D01*
X615003Y362794D01*
X614989D01*
X614712Y362669D01*
X614435Y362572D01*
X614143Y362503D01*
X613880Y362448D01*
X613644Y362420D01*
X613533D01*
X613450Y362406D01*
X613381D01*
X613325D01*
X613297D01*
X613284D01*
X612881Y362420D01*
X612521Y362475D01*
X612216Y362545D01*
X611952Y362628D01*
X611827Y362683D01*
X611730Y362725D01*
X611647Y362753D01*
X611578Y362794D01*
X611522Y362822D01*
X611481Y362850D01*
X611467Y362864D01*
X611453D01*
X611203Y363044D01*
X611009Y363224D01*
X610843Y363418D01*
X610718Y363585D01*
X610635Y363751D01*
X610565Y363876D01*
X610537Y363959D01*
X610524Y363973D01*
Y363987D01*
X610496Y364084D01*
X610482Y364195D01*
X610454Y364320D01*
X610440Y364459D01*
X610413Y364750D01*
X610399Y365069D01*
X610385Y365346D01*
Y368300D01*
X619760D01*
Y366747D01*
D02*
G37*
G36*
X617777Y361352D02*
X617985Y361297D01*
X618165Y361241D01*
X618332Y361172D01*
X618484Y361102D01*
X618637Y361033D01*
X618761Y360964D01*
X618872Y360894D01*
X618969Y360825D01*
X619053Y360770D01*
X619122Y360714D01*
X619178Y360672D01*
X619219Y360631D01*
X619233Y360617D01*
X619247Y360603D01*
X619358Y360464D01*
X619469Y360326D01*
X619635Y360048D01*
X619746Y359757D01*
X619829Y359494D01*
X619871Y359258D01*
X619899Y359147D01*
Y359064D01*
X619913Y358994D01*
Y358897D01*
X619899Y358661D01*
X619871Y358453D01*
X619815Y358245D01*
X619746Y358065D01*
X619677Y357885D01*
X619594Y357732D01*
X619496Y357580D01*
X619399Y357455D01*
X619302Y357344D01*
X619205Y357233D01*
X619122Y357150D01*
X619053Y357080D01*
X618983Y357025D01*
X618928Y356983D01*
X618900Y356969D01*
X618886Y356956D01*
X618692Y356831D01*
X618484Y356720D01*
X618290Y356637D01*
X618096Y356553D01*
X617707Y356429D01*
X617361Y356345D01*
X617194Y356318D01*
X617056Y356304D01*
X616931Y356276D01*
X616820D01*
X616737Y356262D01*
X616667D01*
X616626D01*
X616612D01*
X616334Y356276D01*
X616071Y356290D01*
X615835Y356332D01*
X615600Y356387D01*
X615392Y356442D01*
X615183Y356512D01*
X615003Y356595D01*
X614837Y356664D01*
X614698Y356734D01*
X614573Y356817D01*
X614462Y356886D01*
X614365Y356942D01*
X614296Y356997D01*
X614240Y357025D01*
X614213Y357053D01*
X614199Y357067D01*
X614074Y357191D01*
X613963Y357316D01*
X613866Y357441D01*
X613783Y357580D01*
X613658Y357843D01*
X613561Y358079D01*
X613519Y358301D01*
X613505Y358384D01*
X613492Y358467D01*
X613478Y358537D01*
Y358620D01*
X613492Y358814D01*
X613533Y358994D01*
X613575Y359161D01*
X613630Y359313D01*
X613699Y359452D01*
X613741Y359549D01*
X613783Y359604D01*
X613797Y359632D01*
X612188Y359383D01*
Y356609D01*
X610510D01*
Y360506D01*
X615392Y361255D01*
X615600Y360062D01*
X615475Y359965D01*
X615378Y359868D01*
X615280Y359771D01*
X615211Y359674D01*
X615086Y359480D01*
X615003Y359299D01*
X614962Y359147D01*
X614934Y359036D01*
X614920Y358953D01*
Y358925D01*
X614934Y358745D01*
X614989Y358592D01*
X615059Y358440D01*
X615128Y358329D01*
X615211Y358232D01*
X615280Y358162D01*
X615336Y358121D01*
X615350Y358107D01*
X615530Y357996D01*
X615724Y357913D01*
X615946Y357857D01*
X616154Y357816D01*
X616348Y357788D01*
X616501Y357774D01*
X616570D01*
X616612D01*
X616640D01*
X616654D01*
X616973Y357788D01*
X617264Y357829D01*
X617500Y357885D01*
X617694Y357940D01*
X617832Y357996D01*
X617943Y358051D01*
X617999Y358093D01*
X618026Y358107D01*
X618179Y358232D01*
X618276Y358356D01*
X618359Y358495D01*
X618415Y358620D01*
X618442Y358717D01*
X618456Y358800D01*
X618470Y358870D01*
Y358883D01*
X618456Y359022D01*
X618415Y359147D01*
X618359Y359272D01*
X618290Y359369D01*
X618234Y359452D01*
X618179Y359521D01*
X618137Y359563D01*
X618124Y359577D01*
X617985Y359688D01*
X617818Y359771D01*
X617666Y359840D01*
X617513Y359882D01*
X617375Y359910D01*
X617250Y359937D01*
X617180Y359951D01*
X617153D01*
X617347Y361421D01*
X617777Y361352D01*
D02*
G37*
G36*
X924560Y544547D02*
X921024D01*
Y543285D01*
X921010Y543049D01*
X920996Y542827D01*
X920982Y542633D01*
X920954Y542453D01*
X920940Y542300D01*
X920913Y542147D01*
X920885Y542023D01*
X920857Y541912D01*
X920829Y541815D01*
X920816Y541745D01*
X920788Y541676D01*
X920774Y541620D01*
X920760Y541593D01*
X920746Y541565D01*
X920621Y541357D01*
X920483Y541163D01*
X920316Y540996D01*
X920164Y540858D01*
X920025Y540747D01*
X919900Y540664D01*
X919817Y540608D01*
X919803Y540594D01*
X919789D01*
X919512Y540469D01*
X919234Y540372D01*
X918943Y540303D01*
X918680Y540247D01*
X918444Y540220D01*
X918333D01*
X918250Y540206D01*
X918180D01*
X918125D01*
X918097D01*
X918083D01*
X917681Y540220D01*
X917321Y540275D01*
X917016Y540345D01*
X916752Y540428D01*
X916627Y540483D01*
X916530Y540525D01*
X916447Y540553D01*
X916378Y540594D01*
X916322Y540622D01*
X916281Y540650D01*
X916267Y540664D01*
X916253D01*
X916003Y540844D01*
X915809Y541024D01*
X915643Y541218D01*
X915518Y541385D01*
X915435Y541551D01*
X915365Y541676D01*
X915338Y541759D01*
X915324Y541773D01*
Y541787D01*
X915296Y541884D01*
X915282Y541995D01*
X915254Y542120D01*
X915240Y542258D01*
X915213Y542550D01*
X915199Y542869D01*
X915185Y543146D01*
Y546100D01*
X924560D01*
Y544547D01*
D02*
G37*
G36*
Y534270D02*
X922896D01*
Y537210D01*
X922716Y537113D01*
X922563Y537016D01*
X922507Y536975D01*
X922452Y536933D01*
X922424Y536919D01*
X922410Y536905D01*
X922286Y536808D01*
X922133Y536683D01*
X921967Y536531D01*
X921786Y536378D01*
X921620Y536240D01*
X921481Y536115D01*
X921426Y536073D01*
X921384Y536031D01*
X921370Y536018D01*
X921356Y536004D01*
X921051Y535740D01*
X920774Y535518D01*
X920538Y535324D01*
X920330Y535172D01*
X920178Y535061D01*
X920053Y534977D01*
X919983Y534936D01*
X919956Y534922D01*
X919748Y534811D01*
X919554Y534700D01*
X919373Y534617D01*
X919207Y534548D01*
X919068Y534506D01*
X918971Y534464D01*
X918902Y534437D01*
X918874D01*
X918666Y534381D01*
X918472Y534340D01*
X918278Y534312D01*
X918111Y534284D01*
X917959D01*
X917848Y534270D01*
X917778D01*
X917751D01*
X917557D01*
X917376Y534298D01*
X917043Y534367D01*
X916738Y534464D01*
X916475Y534575D01*
X916253Y534700D01*
X916156Y534756D01*
X916086Y534797D01*
X916031Y534839D01*
X915989Y534867D01*
X915962Y534880D01*
X915948Y534894D01*
X915809Y535019D01*
X915684Y535144D01*
X915587Y535283D01*
X915490Y535435D01*
X915407Y535588D01*
X915351Y535740D01*
X915254Y536031D01*
X915199Y536309D01*
X915185Y536420D01*
X915171Y536531D01*
X915157Y536614D01*
Y536725D01*
X915171Y536919D01*
X915185Y537113D01*
X915268Y537460D01*
X915365Y537765D01*
X915490Y538015D01*
X915615Y538223D01*
X915684Y538292D01*
X915726Y538361D01*
X915767Y538417D01*
X915809Y538459D01*
X915823Y538472D01*
X915837Y538486D01*
X915975Y538611D01*
X916114Y538708D01*
X916447Y538888D01*
X916794Y539027D01*
X917126Y539124D01*
X917293Y539166D01*
X917446Y539207D01*
X917584Y539221D01*
X917695Y539249D01*
X917792Y539263D01*
X917862D01*
X917917Y539277D01*
X917931D01*
X918125Y537807D01*
X917862Y537779D01*
X917640Y537737D01*
X917446Y537682D01*
X917279Y537612D01*
X917126Y537529D01*
X917016Y537446D01*
X916918Y537349D01*
X916835Y537252D01*
X916780Y537155D01*
X916738Y537072D01*
X916683Y536905D01*
X916669Y536850D01*
X916655Y536794D01*
Y536753D01*
X916669Y536600D01*
X916711Y536448D01*
X916752Y536323D01*
X916808Y536226D01*
X916877Y536143D01*
X916918Y536087D01*
X916960Y536045D01*
X916974Y536031D01*
X917099Y535934D01*
X917251Y535865D01*
X917404Y535824D01*
X917557Y535782D01*
X917695Y535768D01*
X917806Y535754D01*
X917875D01*
X917889D01*
X917903D01*
X918111Y535768D01*
X918319Y535810D01*
X918513Y535865D01*
X918680Y535921D01*
X918832Y535976D01*
X918943Y536031D01*
X919013Y536073D01*
X919040Y536087D01*
X919124Y536143D01*
X919221Y536212D01*
X919443Y536378D01*
X919678Y536572D01*
X919928Y536780D01*
X920164Y536975D01*
X920275Y537058D01*
X920358Y537141D01*
X920427Y537197D01*
X920483Y537252D01*
X920524Y537280D01*
X920538Y537294D01*
X920788Y537515D01*
X921037Y537710D01*
X921259Y537904D01*
X921467Y538070D01*
X921675Y538223D01*
X921856Y538348D01*
X922022Y538472D01*
X922175Y538569D01*
X922313Y538666D01*
X922424Y538750D01*
X922535Y538805D01*
X922618Y538861D01*
X922688Y538902D01*
X922729Y538916D01*
X922757Y538944D01*
X922771D01*
X923090Y539083D01*
X923409Y539193D01*
X923714Y539291D01*
X923978Y539346D01*
X924213Y539388D01*
X924310Y539415D01*
X924394Y539429D01*
X924463D01*
X924518Y539443D01*
X924546D01*
X924560D01*
Y534270D01*
D02*
G37*
G36*
X922674Y530387D02*
X924560D01*
Y528959D01*
X922674D01*
Y528002D01*
X921093D01*
Y528959D01*
X915157D01*
Y530207D01*
X921107Y533535D01*
X922674D01*
Y530387D01*
D02*
G37*
G36*
X429265Y539467D02*
X425729D01*
Y538205D01*
X425715Y537969D01*
X425701Y537747D01*
X425687Y537553D01*
X425659Y537373D01*
X425645Y537220D01*
X425618Y537067D01*
X425590Y536943D01*
X425562Y536832D01*
X425534Y536735D01*
X425521Y536665D01*
X425493Y536596D01*
X425479Y536540D01*
X425465Y536513D01*
X425451Y536485D01*
X425326Y536277D01*
X425188Y536083D01*
X425021Y535916D01*
X424869Y535778D01*
X424730Y535667D01*
X424605Y535583D01*
X424522Y535528D01*
X424508Y535514D01*
X424494D01*
X424217Y535389D01*
X423940Y535292D01*
X423648Y535223D01*
X423385Y535167D01*
X423149Y535140D01*
X423038D01*
X422955Y535126D01*
X422886D01*
X422830D01*
X422802D01*
X422789D01*
X422386Y535140D01*
X422026Y535195D01*
X421721Y535265D01*
X421457Y535348D01*
X421332Y535403D01*
X421235Y535445D01*
X421152Y535472D01*
X421083Y535514D01*
X421027Y535542D01*
X420986Y535570D01*
X420972Y535583D01*
X420958D01*
X420708Y535764D01*
X420514Y535944D01*
X420348Y536138D01*
X420223Y536305D01*
X420140Y536471D01*
X420070Y536596D01*
X420042Y536679D01*
X420029Y536693D01*
Y536707D01*
X420001Y536804D01*
X419987Y536915D01*
X419959Y537040D01*
X419945Y537178D01*
X419918Y537470D01*
X419904Y537789D01*
X419890Y538066D01*
Y541020D01*
X429265D01*
Y539467D01*
D02*
G37*
G36*
X427379Y531284D02*
X429265D01*
Y529856D01*
X427379D01*
Y528899D01*
X425798D01*
Y529856D01*
X419862D01*
Y531104D01*
X425812Y534432D01*
X427379D01*
Y531284D01*
D02*
G37*
G36*
X647705Y539467D02*
X644169D01*
Y538205D01*
X644155Y537969D01*
X644141Y537747D01*
X644127Y537553D01*
X644099Y537373D01*
X644085Y537220D01*
X644058Y537067D01*
X644030Y536943D01*
X644002Y536832D01*
X643974Y536735D01*
X643960Y536665D01*
X643933Y536596D01*
X643919Y536540D01*
X643905Y536513D01*
X643891Y536485D01*
X643766Y536277D01*
X643628Y536083D01*
X643461Y535916D01*
X643309Y535778D01*
X643170Y535667D01*
X643045Y535583D01*
X642962Y535528D01*
X642948Y535514D01*
X642934D01*
X642657Y535389D01*
X642380Y535292D01*
X642088Y535223D01*
X641825Y535167D01*
X641589Y535140D01*
X641478D01*
X641395Y535126D01*
X641326D01*
X641270D01*
X641242D01*
X641228D01*
X640826Y535140D01*
X640466Y535195D01*
X640161Y535265D01*
X639897Y535348D01*
X639772Y535403D01*
X639675Y535445D01*
X639592Y535472D01*
X639523Y535514D01*
X639467Y535542D01*
X639426Y535570D01*
X639412Y535583D01*
X639398D01*
X639148Y535764D01*
X638954Y535944D01*
X638788Y536138D01*
X638663Y536305D01*
X638580Y536471D01*
X638510Y536596D01*
X638483Y536679D01*
X638469Y536693D01*
Y536707D01*
X638441Y536804D01*
X638427Y536915D01*
X638399Y537040D01*
X638385Y537178D01*
X638358Y537470D01*
X638344Y537789D01*
X638330Y538066D01*
Y541020D01*
X647705D01*
Y539467D01*
D02*
G37*
G36*
X645652Y534155D02*
X646027Y534058D01*
X646207Y533989D01*
X646360Y533919D01*
X646512Y533850D01*
X646637Y533781D01*
X646762Y533711D01*
X646859Y533642D01*
X646942Y533586D01*
X647026Y533531D01*
X647081Y533489D01*
X647122Y533448D01*
X647136Y533434D01*
X647150Y533420D01*
X647275Y533281D01*
X647386Y533143D01*
X647483Y533004D01*
X647552Y532851D01*
X647691Y532560D01*
X647774Y532297D01*
X647816Y532061D01*
X647830Y531950D01*
X647844Y531867D01*
X647858Y531797D01*
Y531700D01*
X647844Y531506D01*
X647816Y531326D01*
X647774Y531146D01*
X647733Y530965D01*
X647594Y530660D01*
X647441Y530397D01*
X647289Y530175D01*
X647220Y530092D01*
X647150Y530022D01*
X647109Y529967D01*
X647067Y529911D01*
X647039Y529897D01*
X647026Y529884D01*
X646859Y529745D01*
X646693Y529620D01*
X646512Y529523D01*
X646332Y529440D01*
X645985Y529301D01*
X645652Y529204D01*
X645486Y529176D01*
X645347Y529148D01*
X645223Y529135D01*
X645112Y529121D01*
X645028Y529107D01*
X644959D01*
X644918D01*
X644904D01*
X644585Y529121D01*
X644293Y529176D01*
X644044Y529232D01*
X643836Y529315D01*
X643669Y529384D01*
X643544Y529454D01*
X643461Y529509D01*
X643434Y529523D01*
X643225Y529689D01*
X643059Y529856D01*
X642934Y530022D01*
X642823Y530189D01*
X642754Y530341D01*
X642712Y530452D01*
X642685Y530535D01*
X642671Y530549D01*
Y530563D01*
X642532Y530369D01*
X642380Y530202D01*
X642227Y530050D01*
X642102Y529939D01*
X641977Y529842D01*
X641894Y529786D01*
X641839Y529745D01*
X641811Y529731D01*
X641617Y529634D01*
X641423Y529565D01*
X641242Y529509D01*
X641062Y529481D01*
X640923Y529454D01*
X640798Y529440D01*
X640729D01*
X640702D01*
X640535D01*
X640369Y529468D01*
X640063Y529537D01*
X639786Y529634D01*
X639537Y529745D01*
X639328Y529870D01*
X639245Y529925D01*
X639176Y529967D01*
X639120Y530008D01*
X639079Y530036D01*
X639065Y530050D01*
X639051Y530064D01*
X638912Y530189D01*
X638801Y530313D01*
X638704Y530452D01*
X638621Y530591D01*
X638483Y530868D01*
X638399Y531132D01*
X638344Y531381D01*
X638330Y531478D01*
X638316Y531562D01*
X638302Y531645D01*
Y531908D01*
X638330Y532075D01*
X638399Y532380D01*
X638496Y532657D01*
X638593Y532879D01*
X638704Y533059D01*
X638801Y533198D01*
X638871Y533281D01*
X638885Y533295D01*
X638899Y533309D01*
X639010Y533420D01*
X639148Y533517D01*
X639439Y533697D01*
X639744Y533836D01*
X640050Y533947D01*
X640327Y534030D01*
X640438Y534058D01*
X640549Y534086D01*
X640632Y534100D01*
X640702Y534113D01*
X640743Y534127D01*
X640757D01*
X641034Y532768D01*
X640812Y532741D01*
X640632Y532699D01*
X640466Y532643D01*
X640341Y532588D01*
X640244Y532532D01*
X640161Y532491D01*
X640119Y532463D01*
X640105Y532449D01*
X639994Y532338D01*
X639925Y532227D01*
X639869Y532116D01*
X639828Y532019D01*
X639800Y531936D01*
X639786Y531853D01*
Y531797D01*
X639800Y531659D01*
X639828Y531534D01*
X639869Y531423D01*
X639925Y531340D01*
X639980Y531270D01*
X640022Y531215D01*
X640050Y531187D01*
X640063Y531173D01*
X640174Y531090D01*
X640299Y531035D01*
X640424Y530979D01*
X640535Y530951D01*
X640646Y530938D01*
X640729Y530924D01*
X640785D01*
X640812D01*
X641020Y530938D01*
X641201Y530979D01*
X641353Y531035D01*
X641478Y531090D01*
X641575Y531146D01*
X641658Y531201D01*
X641700Y531243D01*
X641714Y531256D01*
X641811Y531395D01*
X641894Y531534D01*
X641936Y531687D01*
X641977Y531839D01*
X641991Y531964D01*
X642005Y532075D01*
Y532172D01*
X643475Y532324D01*
X643434Y532186D01*
X643392Y532061D01*
X643364Y531936D01*
X643350Y531839D01*
X643336Y531770D01*
Y531659D01*
X643350Y531506D01*
X643392Y531367D01*
X643461Y531243D01*
X643531Y531132D01*
X643614Y531049D01*
X643669Y530979D01*
X643725Y530938D01*
X643739Y530924D01*
X643891Y530827D01*
X644072Y530743D01*
X644252Y530688D01*
X644418Y530660D01*
X644571Y530633D01*
X644696Y530619D01*
X644779D01*
X644793D01*
X644807D01*
X645070Y530633D01*
X645292Y530674D01*
X645500Y530716D01*
X645652Y530771D01*
X645791Y530840D01*
X645874Y530882D01*
X645944Y530924D01*
X645958Y530938D01*
X646096Y531062D01*
X646193Y531187D01*
X646263Y531326D01*
X646304Y531451D01*
X646332Y531548D01*
X646360Y531631D01*
Y531714D01*
X646346Y531867D01*
X646304Y532005D01*
X646249Y532130D01*
X646180Y532227D01*
X646124Y532310D01*
X646068Y532380D01*
X646027Y532421D01*
X646013Y532435D01*
X645874Y532532D01*
X645708Y532616D01*
X645542Y532685D01*
X645375Y532727D01*
X645223Y532768D01*
X645112Y532782D01*
X645028Y532796D01*
X645014D01*
X645001D01*
X645209Y534224D01*
X645652Y534155D01*
D02*
G37*
G36*
X876305Y539467D02*
X872769D01*
Y538205D01*
X872755Y537969D01*
X872741Y537747D01*
X872727Y537553D01*
X872699Y537373D01*
X872685Y537220D01*
X872658Y537067D01*
X872630Y536943D01*
X872602Y536832D01*
X872574Y536735D01*
X872561Y536665D01*
X872533Y536596D01*
X872519Y536540D01*
X872505Y536513D01*
X872491Y536485D01*
X872366Y536277D01*
X872228Y536083D01*
X872061Y535916D01*
X871909Y535778D01*
X871770Y535667D01*
X871645Y535583D01*
X871562Y535528D01*
X871548Y535514D01*
X871534D01*
X871257Y535389D01*
X870980Y535292D01*
X870688Y535223D01*
X870425Y535167D01*
X870189Y535140D01*
X870078D01*
X869995Y535126D01*
X869926D01*
X869870D01*
X869842D01*
X869828D01*
X869426Y535140D01*
X869066Y535195D01*
X868761Y535265D01*
X868497Y535348D01*
X868372Y535403D01*
X868275Y535445D01*
X868192Y535472D01*
X868123Y535514D01*
X868067Y535542D01*
X868026Y535570D01*
X868012Y535583D01*
X867998D01*
X867748Y535764D01*
X867554Y535944D01*
X867388Y536138D01*
X867263Y536305D01*
X867180Y536471D01*
X867110Y536596D01*
X867083Y536679D01*
X867069Y536693D01*
Y536707D01*
X867041Y536804D01*
X867027Y536915D01*
X866999Y537040D01*
X866985Y537178D01*
X866958Y537470D01*
X866944Y537789D01*
X866930Y538066D01*
Y541020D01*
X876305D01*
Y539467D01*
D02*
G37*
G36*
X872200Y534155D02*
X872630Y534141D01*
X873018Y534100D01*
X873379Y534058D01*
X873712Y533989D01*
X874003Y533933D01*
X874280Y533864D01*
X874516Y533795D01*
X874724Y533725D01*
X874890Y533656D01*
X875043Y533586D01*
X875168Y533531D01*
X875251Y533489D01*
X875320Y533448D01*
X875362Y533434D01*
X875376Y533420D01*
X875570Y533268D01*
X875736Y533115D01*
X875875Y532962D01*
X876000Y532796D01*
X876111Y532643D01*
X876194Y532477D01*
X876263Y532324D01*
X876319Y532172D01*
X876402Y531908D01*
X876430Y531797D01*
X876444Y531700D01*
Y531617D01*
X876458Y531562D01*
Y531506D01*
X876444Y531312D01*
X876416Y531132D01*
X876374Y530951D01*
X876333Y530785D01*
X876194Y530480D01*
X876041Y530230D01*
X875889Y530022D01*
X875820Y529939D01*
X875750Y529870D01*
X875709Y529814D01*
X875667Y529773D01*
X875639Y529759D01*
X875626Y529745D01*
X875459Y529620D01*
X875279Y529509D01*
X875098Y529412D01*
X874904Y529329D01*
X874516Y529204D01*
X874155Y529107D01*
X873975Y529079D01*
X873823Y529065D01*
X873670Y529052D01*
X873545Y529038D01*
X873448Y529024D01*
X873379D01*
X873323D01*
X873309D01*
X873060Y529038D01*
X872810Y529052D01*
X872588Y529079D01*
X872366Y529135D01*
X872172Y529176D01*
X871992Y529232D01*
X871825Y529301D01*
X871673Y529357D01*
X871534Y529426D01*
X871410Y529481D01*
X871312Y529551D01*
X871229Y529592D01*
X871160Y529634D01*
X871118Y529675D01*
X871090Y529689D01*
X871077Y529703D01*
X870924Y529828D01*
X870799Y529967D01*
X870688Y530092D01*
X870591Y530230D01*
X870508Y530355D01*
X870439Y530494D01*
X870342Y530729D01*
X870272Y530951D01*
X870258Y531035D01*
X870245Y531118D01*
X870231Y531187D01*
Y531270D01*
X870245Y531423D01*
X870258Y531562D01*
X870300Y531700D01*
X870328Y531811D01*
X870369Y531894D01*
X870411Y531978D01*
X870425Y532019D01*
X870439Y532033D01*
X870522Y532158D01*
X870619Y532269D01*
X870716Y532366D01*
X870813Y532463D01*
X870896Y532532D01*
X870966Y532588D01*
X871021Y532630D01*
X871035Y532643D01*
X870744Y532630D01*
X870480Y532602D01*
X870245Y532574D01*
X870036Y532546D01*
X869842Y532519D01*
X869662Y532477D01*
X869510Y532449D01*
X869371Y532408D01*
X869260Y532380D01*
X869163Y532352D01*
X869080Y532310D01*
X869024Y532297D01*
X868969Y532269D01*
X868941Y532255D01*
X868913Y532241D01*
X868733Y532116D01*
X868608Y531978D01*
X868511Y531853D01*
X868456Y531728D01*
X868414Y531617D01*
X868400Y531534D01*
X868386Y531465D01*
Y531451D01*
X868400Y531326D01*
X868428Y531201D01*
X868483Y531104D01*
X868553Y531007D01*
X868719Y530854D01*
X868899Y530757D01*
X869093Y530674D01*
X869260Y530633D01*
X869329Y530619D01*
X869385Y530605D01*
X869412D01*
X869426D01*
X869232Y529176D01*
X868816Y529259D01*
X868469Y529357D01*
X868164Y529481D01*
X867915Y529606D01*
X867734Y529731D01*
X867596Y529828D01*
X867512Y529897D01*
X867485Y529925D01*
X867290Y530147D01*
X867152Y530397D01*
X867041Y530633D01*
X866972Y530868D01*
X866930Y531062D01*
X866916Y531229D01*
X866902Y531284D01*
Y531367D01*
X866916Y531589D01*
X866944Y531811D01*
X867013Y532005D01*
X867083Y532200D01*
X867263Y532546D01*
X867360Y532699D01*
X867471Y532837D01*
X867582Y532962D01*
X867679Y533073D01*
X867776Y533170D01*
X867859Y533254D01*
X867928Y533309D01*
X867984Y533351D01*
X868026Y533378D01*
X868039Y533392D01*
X868261Y533531D01*
X868525Y533642D01*
X868802Y533753D01*
X869093Y533836D01*
X869704Y533975D01*
X870314Y534072D01*
X870605Y534100D01*
X870869Y534127D01*
X871104Y534141D01*
X871326Y534155D01*
X871493Y534169D01*
X871631D01*
X871715D01*
X871728D01*
X871742D01*
X872200Y534155D01*
D02*
G37*
G36*
X277005Y58447D02*
X273469D01*
Y57185D01*
X273455Y56949D01*
X273441Y56727D01*
X273427Y56533D01*
X273399Y56353D01*
X273385Y56200D01*
X273358Y56047D01*
X273330Y55923D01*
X273302Y55812D01*
X273274Y55715D01*
X273260Y55645D01*
X273233Y55576D01*
X273219Y55520D01*
X273205Y55493D01*
X273191Y55465D01*
X273066Y55257D01*
X272928Y55063D01*
X272761Y54896D01*
X272609Y54758D01*
X272470Y54647D01*
X272345Y54563D01*
X272262Y54508D01*
X272248Y54494D01*
X272234D01*
X271957Y54369D01*
X271679Y54272D01*
X271388Y54203D01*
X271125Y54147D01*
X270889Y54120D01*
X270778D01*
X270695Y54106D01*
X270625D01*
X270570D01*
X270542D01*
X270529D01*
X270126Y54120D01*
X269766Y54175D01*
X269461Y54244D01*
X269197Y54328D01*
X269072Y54383D01*
X268975Y54425D01*
X268892Y54453D01*
X268823Y54494D01*
X268767Y54522D01*
X268726Y54550D01*
X268712Y54563D01*
X268698D01*
X268448Y54744D01*
X268254Y54924D01*
X268088Y55118D01*
X267963Y55285D01*
X267880Y55451D01*
X267810Y55576D01*
X267782Y55659D01*
X267769Y55673D01*
Y55687D01*
X267741Y55784D01*
X267727Y55895D01*
X267699Y56020D01*
X267685Y56158D01*
X267658Y56450D01*
X267644Y56769D01*
X267630Y57046D01*
Y60000D01*
X277005D01*
Y58447D01*
D02*
G37*
G36*
X271402Y52372D02*
X271194Y51998D01*
X270958Y51679D01*
X270737Y51402D01*
X270639Y51277D01*
X270542Y51166D01*
X270445Y51069D01*
X270376Y50999D01*
X270307Y50930D01*
X270265Y50888D01*
X270237Y50861D01*
X270223Y50847D01*
X277005D01*
Y49363D01*
X267602D01*
Y50569D01*
X267907Y50680D01*
X268185Y50819D01*
X268434Y50972D01*
X268642Y51124D01*
X268823Y51263D01*
X268961Y51374D01*
X269044Y51457D01*
X269058Y51471D01*
X269072Y51485D01*
X269294Y51734D01*
X269475Y51970D01*
X269627Y52178D01*
X269752Y52372D01*
X269835Y52539D01*
X269904Y52650D01*
X269932Y52733D01*
X269946Y52747D01*
Y52761D01*
X271583D01*
X271402Y52372D01*
D02*
G37*
G36*
X505005Y58447D02*
X501469D01*
Y57185D01*
X501455Y56949D01*
X501441Y56727D01*
X501427Y56533D01*
X501399Y56353D01*
X501385Y56200D01*
X501358Y56047D01*
X501330Y55923D01*
X501302Y55812D01*
X501274Y55715D01*
X501260Y55645D01*
X501233Y55576D01*
X501219Y55520D01*
X501205Y55493D01*
X501191Y55465D01*
X501066Y55257D01*
X500928Y55063D01*
X500761Y54896D01*
X500609Y54758D01*
X500470Y54647D01*
X500345Y54563D01*
X500262Y54508D01*
X500248Y54494D01*
X500234D01*
X499957Y54369D01*
X499679Y54272D01*
X499388Y54203D01*
X499125Y54147D01*
X498889Y54120D01*
X498778D01*
X498695Y54106D01*
X498625D01*
X498570D01*
X498542D01*
X498529D01*
X498126Y54120D01*
X497766Y54175D01*
X497461Y54244D01*
X497197Y54328D01*
X497072Y54383D01*
X496975Y54425D01*
X496892Y54453D01*
X496823Y54494D01*
X496767Y54522D01*
X496726Y54550D01*
X496712Y54563D01*
X496698D01*
X496448Y54744D01*
X496254Y54924D01*
X496088Y55118D01*
X495963Y55285D01*
X495880Y55451D01*
X495810Y55576D01*
X495783Y55659D01*
X495769Y55673D01*
Y55687D01*
X495741Y55784D01*
X495727Y55895D01*
X495699Y56020D01*
X495685Y56158D01*
X495658Y56450D01*
X495644Y56769D01*
X495630Y57046D01*
Y60000D01*
X505005D01*
Y58447D01*
D02*
G37*
G36*
Y48170D02*
X503341D01*
Y51110D01*
X503161Y51013D01*
X503008Y50916D01*
X502952Y50875D01*
X502897Y50833D01*
X502869Y50819D01*
X502855Y50805D01*
X502731Y50708D01*
X502578Y50583D01*
X502412Y50431D01*
X502231Y50278D01*
X502065Y50139D01*
X501926Y50015D01*
X501871Y49973D01*
X501829Y49931D01*
X501815Y49918D01*
X501801Y49904D01*
X501496Y49640D01*
X501219Y49418D01*
X500983Y49224D01*
X500775Y49072D01*
X500623Y48961D01*
X500498Y48877D01*
X500428Y48836D01*
X500401Y48822D01*
X500193Y48711D01*
X499999Y48600D01*
X499818Y48517D01*
X499652Y48447D01*
X499513Y48406D01*
X499416Y48364D01*
X499347Y48337D01*
X499319D01*
X499111Y48281D01*
X498917Y48239D01*
X498723Y48212D01*
X498556Y48184D01*
X498404D01*
X498293Y48170D01*
X498223D01*
X498196D01*
X498002D01*
X497821Y48198D01*
X497488Y48267D01*
X497183Y48364D01*
X496920Y48475D01*
X496698Y48600D01*
X496601Y48656D01*
X496531Y48697D01*
X496476Y48739D01*
X496434Y48766D01*
X496407Y48780D01*
X496393Y48794D01*
X496254Y48919D01*
X496129Y49044D01*
X496032Y49183D01*
X495935Y49335D01*
X495852Y49488D01*
X495796Y49640D01*
X495699Y49931D01*
X495644Y50209D01*
X495630Y50320D01*
X495616Y50431D01*
X495602Y50514D01*
Y50625D01*
X495616Y50819D01*
X495630Y51013D01*
X495713Y51360D01*
X495810Y51665D01*
X495935Y51915D01*
X496060Y52123D01*
X496129Y52192D01*
X496171Y52261D01*
X496212Y52317D01*
X496254Y52358D01*
X496268Y52372D01*
X496282Y52386D01*
X496421Y52511D01*
X496559Y52608D01*
X496892Y52788D01*
X497239Y52927D01*
X497571Y53024D01*
X497738Y53066D01*
X497891Y53107D01*
X498029Y53121D01*
X498140Y53149D01*
X498237Y53163D01*
X498307D01*
X498362Y53177D01*
X498376D01*
X498570Y51707D01*
X498307Y51679D01*
X498085Y51637D01*
X497891Y51582D01*
X497724Y51512D01*
X497571Y51429D01*
X497461Y51346D01*
X497364Y51249D01*
X497280Y51152D01*
X497225Y51055D01*
X497183Y50972D01*
X497128Y50805D01*
X497114Y50750D01*
X497100Y50694D01*
Y50653D01*
X497114Y50500D01*
X497155Y50347D01*
X497197Y50223D01*
X497253Y50126D01*
X497322Y50042D01*
X497364Y49987D01*
X497405Y49945D01*
X497419Y49931D01*
X497544Y49834D01*
X497696Y49765D01*
X497849Y49723D01*
X498002Y49682D01*
X498140Y49668D01*
X498251Y49654D01*
X498320D01*
X498334D01*
X498348D01*
X498556Y49668D01*
X498764Y49710D01*
X498958Y49765D01*
X499125Y49820D01*
X499277Y49876D01*
X499388Y49931D01*
X499458Y49973D01*
X499485Y49987D01*
X499569Y50042D01*
X499666Y50112D01*
X499888Y50278D01*
X500123Y50472D01*
X500373Y50680D01*
X500609Y50875D01*
X500720Y50958D01*
X500803Y51041D01*
X500872Y51096D01*
X500928Y51152D01*
X500969Y51180D01*
X500983Y51193D01*
X501233Y51415D01*
X501482Y51610D01*
X501704Y51804D01*
X501912Y51970D01*
X502120Y52123D01*
X502301Y52248D01*
X502467Y52372D01*
X502620Y52469D01*
X502758Y52566D01*
X502869Y52650D01*
X502980Y52705D01*
X503063Y52761D01*
X503133Y52802D01*
X503174Y52816D01*
X503202Y52844D01*
X503216D01*
X503535Y52983D01*
X503854Y53093D01*
X504159Y53190D01*
X504422Y53246D01*
X504658Y53288D01*
X504755Y53315D01*
X504839Y53329D01*
X504908D01*
X504963Y53343D01*
X504991D01*
X505005D01*
Y48170D01*
D02*
G37*
G36*
X185005Y439447D02*
X181469D01*
Y438185D01*
X181455Y437949D01*
X181441Y437727D01*
X181427Y437533D01*
X181399Y437352D01*
X181385Y437200D01*
X181358Y437047D01*
X181330Y436923D01*
X181302Y436812D01*
X181274Y436715D01*
X181261Y436645D01*
X181233Y436576D01*
X181219Y436520D01*
X181205Y436493D01*
X181191Y436465D01*
X181066Y436257D01*
X180928Y436063D01*
X180761Y435896D01*
X180609Y435758D01*
X180470Y435647D01*
X180345Y435564D01*
X180262Y435508D01*
X180248Y435494D01*
X180234D01*
X179957Y435369D01*
X179680Y435272D01*
X179388Y435203D01*
X179125Y435147D01*
X178889Y435120D01*
X178778D01*
X178695Y435106D01*
X178626D01*
X178570D01*
X178542D01*
X178528D01*
X178126Y435120D01*
X177766Y435175D01*
X177461Y435244D01*
X177197Y435328D01*
X177072Y435383D01*
X176975Y435425D01*
X176892Y435452D01*
X176823Y435494D01*
X176767Y435522D01*
X176726Y435550D01*
X176712Y435564D01*
X176698D01*
X176448Y435744D01*
X176254Y435924D01*
X176088Y436118D01*
X175963Y436285D01*
X175880Y436451D01*
X175810Y436576D01*
X175783Y436659D01*
X175769Y436673D01*
Y436687D01*
X175741Y436784D01*
X175727Y436895D01*
X175699Y437020D01*
X175685Y437158D01*
X175658Y437450D01*
X175644Y437769D01*
X175630Y438046D01*
Y441000D01*
X185005D01*
Y439447D01*
D02*
G37*
G36*
Y429170D02*
X183341D01*
Y432110D01*
X183160Y432013D01*
X183008Y431916D01*
X182952Y431875D01*
X182897Y431833D01*
X182869Y431819D01*
X182855Y431805D01*
X182731Y431708D01*
X182578Y431583D01*
X182412Y431431D01*
X182231Y431278D01*
X182065Y431139D01*
X181926Y431015D01*
X181871Y430973D01*
X181829Y430931D01*
X181815Y430918D01*
X181801Y430904D01*
X181496Y430640D01*
X181219Y430418D01*
X180983Y430224D01*
X180775Y430072D01*
X180623Y429961D01*
X180498Y429877D01*
X180428Y429836D01*
X180401Y429822D01*
X180193Y429711D01*
X179998Y429600D01*
X179818Y429517D01*
X179652Y429448D01*
X179513Y429406D01*
X179416Y429364D01*
X179347Y429337D01*
X179319D01*
X179111Y429281D01*
X178917Y429240D01*
X178723Y429212D01*
X178556Y429184D01*
X178404D01*
X178293Y429170D01*
X178223D01*
X178196D01*
X178001D01*
X177821Y429198D01*
X177488Y429267D01*
X177183Y429364D01*
X176920Y429475D01*
X176698Y429600D01*
X176601Y429656D01*
X176531Y429697D01*
X176476Y429739D01*
X176434Y429767D01*
X176407Y429780D01*
X176393Y429794D01*
X176254Y429919D01*
X176129Y430044D01*
X176032Y430183D01*
X175935Y430335D01*
X175852Y430488D01*
X175796Y430640D01*
X175699Y430931D01*
X175644Y431209D01*
X175630Y431320D01*
X175616Y431431D01*
X175602Y431514D01*
Y431625D01*
X175616Y431819D01*
X175630Y432013D01*
X175713Y432360D01*
X175810Y432665D01*
X175935Y432915D01*
X176060Y433123D01*
X176129Y433192D01*
X176171Y433261D01*
X176212Y433317D01*
X176254Y433358D01*
X176268Y433372D01*
X176282Y433386D01*
X176420Y433511D01*
X176559Y433608D01*
X176892Y433788D01*
X177239Y433927D01*
X177572Y434024D01*
X177738Y434066D01*
X177890Y434107D01*
X178029Y434121D01*
X178140Y434149D01*
X178237Y434163D01*
X178307D01*
X178362Y434177D01*
X178376D01*
X178570Y432707D01*
X178307Y432679D01*
X178085Y432637D01*
X177890Y432582D01*
X177724Y432512D01*
X177572Y432429D01*
X177461Y432346D01*
X177363Y432249D01*
X177280Y432152D01*
X177225Y432055D01*
X177183Y431972D01*
X177128Y431805D01*
X177114Y431750D01*
X177100Y431694D01*
Y431653D01*
X177114Y431500D01*
X177155Y431348D01*
X177197Y431223D01*
X177253Y431126D01*
X177322Y431042D01*
X177363Y430987D01*
X177405Y430945D01*
X177419Y430931D01*
X177544Y430834D01*
X177696Y430765D01*
X177849Y430723D01*
X178001Y430682D01*
X178140Y430668D01*
X178251Y430654D01*
X178320D01*
X178334D01*
X178348D01*
X178556Y430668D01*
X178764Y430710D01*
X178958Y430765D01*
X179125Y430821D01*
X179277Y430876D01*
X179388Y430931D01*
X179458Y430973D01*
X179485Y430987D01*
X179569Y431042D01*
X179666Y431112D01*
X179888Y431278D01*
X180123Y431472D01*
X180373Y431680D01*
X180609Y431875D01*
X180720Y431958D01*
X180803Y432041D01*
X180872Y432096D01*
X180928Y432152D01*
X180969Y432180D01*
X180983Y432193D01*
X181233Y432415D01*
X181482Y432609D01*
X181704Y432804D01*
X181912Y432970D01*
X182120Y433123D01*
X182301Y433247D01*
X182467Y433372D01*
X182620Y433469D01*
X182758Y433566D01*
X182869Y433650D01*
X182980Y433705D01*
X183063Y433761D01*
X183133Y433802D01*
X183174Y433816D01*
X183202Y433844D01*
X183216D01*
X183535Y433983D01*
X183854Y434093D01*
X184159Y434190D01*
X184422Y434246D01*
X184658Y434288D01*
X184755Y434315D01*
X184839Y434329D01*
X184908D01*
X184963Y434343D01*
X184991D01*
X185005D01*
Y429170D01*
D02*
G37*
G36*
X180858Y428158D02*
X181302Y428144D01*
X181718Y428102D01*
X182093Y428061D01*
X182439Y428019D01*
X182745Y427950D01*
X183008Y427894D01*
X183258Y427825D01*
X183466Y427770D01*
X183646Y427700D01*
X183785Y427645D01*
X183909Y427603D01*
X184007Y427548D01*
X184062Y427520D01*
X184104Y427506D01*
X184117Y427492D01*
X184298Y427353D01*
X184464Y427215D01*
X184603Y427062D01*
X184714Y426910D01*
X184825Y426757D01*
X184908Y426618D01*
X184977Y426466D01*
X185033Y426327D01*
X185102Y426064D01*
X185130Y425953D01*
X185144Y425856D01*
Y425786D01*
X185158Y425731D01*
Y425675D01*
X185144Y425467D01*
X185116Y425273D01*
X185061Y425093D01*
X184991Y424926D01*
X184825Y424621D01*
X184631Y424358D01*
X184436Y424150D01*
X184353Y424067D01*
X184270Y423997D01*
X184201Y423942D01*
X184145Y423900D01*
X184117Y423886D01*
X184104Y423872D01*
X183882Y423748D01*
X183632Y423637D01*
X183368Y423554D01*
X183077Y423470D01*
X182453Y423345D01*
X181843Y423262D01*
X181552Y423234D01*
X181274Y423221D01*
X181039Y423193D01*
X180817D01*
X180637Y423179D01*
X180498D01*
X180456D01*
X180415D01*
X180401D01*
X180387D01*
X179901Y423193D01*
X179471Y423207D01*
X179056Y423248D01*
X178695Y423290D01*
X178348Y423345D01*
X178043Y423401D01*
X177780Y423456D01*
X177530Y423526D01*
X177322Y423595D01*
X177142Y423651D01*
X177003Y423706D01*
X176878Y423761D01*
X176781Y423803D01*
X176726Y423845D01*
X176684Y423859D01*
X176670Y423872D01*
X176476Y424011D01*
X176323Y424150D01*
X176171Y424302D01*
X176046Y424455D01*
X175949Y424608D01*
X175866Y424746D01*
X175796Y424899D01*
X175741Y425037D01*
X175658Y425301D01*
X175630Y425412D01*
X175616Y425509D01*
X175602Y425578D01*
Y425689D01*
X175616Y425897D01*
X175644Y426091D01*
X175699Y426272D01*
X175769Y426438D01*
X175935Y426743D01*
X176129Y427007D01*
X176337Y427215D01*
X176420Y427298D01*
X176504Y427367D01*
X176573Y427423D01*
X176628Y427464D01*
X176656Y427478D01*
X176670Y427492D01*
X176892Y427617D01*
X177142Y427714D01*
X177405Y427811D01*
X177696Y427880D01*
X178307Y428005D01*
X178917Y428088D01*
X179208Y428116D01*
X179485Y428130D01*
X179735Y428144D01*
X179943Y428158D01*
X180123Y428172D01*
X180262D01*
X180304D01*
X180345D01*
X180359D01*
X180373D01*
X180858Y428158D01*
D02*
G37*
%LPC*%
G36*
X726568Y386542D02*
X726416D01*
Y386390D01*
Y386086D01*
X726264D01*
Y385629D01*
X726112D01*
Y385173D01*
X725960D01*
Y384565D01*
X725808D01*
Y384109D01*
X725656D01*
Y383652D01*
X725504D01*
Y383196D01*
X725351D01*
Y382740D01*
X725199D01*
Y382284D01*
X725047D01*
Y381828D01*
X724895D01*
Y381524D01*
X728241D01*
Y381828D01*
X728089D01*
Y382284D01*
X727937D01*
Y382740D01*
X727785D01*
Y383196D01*
X727633D01*
Y383652D01*
X727480D01*
Y384109D01*
X727328D01*
Y384565D01*
X727176D01*
Y385021D01*
X727024D01*
Y385477D01*
X726872D01*
Y385933D01*
X726720D01*
Y386390D01*
X726568D01*
Y386542D01*
D02*
G37*
G36*
X706799D02*
X706647D01*
Y386390D01*
X706495D01*
Y385933D01*
X706343D01*
Y385477D01*
X706191D01*
Y385021D01*
X706039D01*
Y384565D01*
X705887D01*
Y383957D01*
X705734D01*
Y383500D01*
X705582D01*
Y383044D01*
X705430D01*
Y382588D01*
X705278D01*
Y382132D01*
X705126D01*
Y381980D01*
Y381828D01*
Y381524D01*
X708320D01*
Y381980D01*
X708168D01*
Y382436D01*
X708016D01*
Y382892D01*
X707863D01*
Y383348D01*
X707711D01*
Y383805D01*
X707559D01*
Y384261D01*
X707407D01*
Y384717D01*
X707255D01*
Y385173D01*
X707103D01*
Y385629D01*
X706951D01*
Y386086D01*
X706799D01*
Y386542D01*
D02*
G37*
G36*
X870731Y378482D02*
X868906D01*
Y378330D01*
X868449D01*
Y378178D01*
X868145D01*
Y378026D01*
X867993D01*
Y377874D01*
X867689D01*
Y377722D01*
X867537D01*
Y377570D01*
X867385D01*
Y377418D01*
X867233D01*
Y377113D01*
X867081D01*
Y376961D01*
X866929D01*
Y376657D01*
X866777D01*
Y376201D01*
X866625D01*
Y375441D01*
X866473D01*
Y374680D01*
Y374528D01*
Y374376D01*
X869818D01*
Y374224D01*
X873620D01*
Y374376D01*
X873468D01*
Y375289D01*
X873316D01*
Y375897D01*
X873164D01*
Y376201D01*
X873012D01*
Y376505D01*
X872859D01*
Y376809D01*
X872707D01*
Y377113D01*
X872555D01*
Y377266D01*
X872403D01*
Y377418D01*
X872251D01*
Y377570D01*
X872099D01*
Y377722D01*
X871947D01*
Y377874D01*
X871643D01*
Y378026D01*
X871491D01*
Y378178D01*
X871187D01*
Y378330D01*
X870731D01*
Y378482D01*
D02*
G37*
G36*
X793327Y379547D02*
X791350D01*
Y379394D01*
X790590D01*
Y379242D01*
X790133D01*
Y379090D01*
X789829D01*
Y378938D01*
X789525D01*
Y378786D01*
X789221D01*
Y378634D01*
X789069D01*
Y378482D01*
X788765D01*
Y378330D01*
X788613D01*
Y378178D01*
X788461D01*
Y378026D01*
X788308D01*
Y377874D01*
X788157D01*
Y377722D01*
X788004D01*
Y377418D01*
X787852D01*
Y377266D01*
X787700D01*
Y376961D01*
X787548D01*
Y376657D01*
X787396D01*
Y376353D01*
X787244D01*
Y375897D01*
X787092D01*
Y375289D01*
X786940D01*
Y374680D01*
X786788D01*
Y373768D01*
X786636D01*
Y371791D01*
X786484D01*
Y371031D01*
X786636D01*
Y369206D01*
X786788D01*
Y368445D01*
X786940D01*
Y367837D01*
X787092D01*
Y367381D01*
X787244D01*
Y367077D01*
X787396D01*
Y366621D01*
X787548D01*
Y366469D01*
X787700D01*
Y366164D01*
X787852D01*
Y366012D01*
X788004D01*
Y365708D01*
X788157D01*
Y365556D01*
X788308D01*
Y365404D01*
X788461D01*
Y365252D01*
X788613D01*
Y365100D01*
X788765D01*
Y364948D01*
X789069D01*
Y364796D01*
X789221D01*
Y364644D01*
X789525D01*
Y364492D01*
X789829D01*
Y364340D01*
X790133D01*
Y364188D01*
X790590D01*
Y364035D01*
X791198D01*
Y363883D01*
X793479D01*
Y364035D01*
X794087D01*
Y364188D01*
X794543D01*
Y364340D01*
X794848D01*
Y364492D01*
X795152D01*
Y364644D01*
X795456D01*
Y364796D01*
X795608D01*
Y364948D01*
X795912D01*
Y365100D01*
X796064D01*
Y365252D01*
X796216D01*
Y365404D01*
X796368D01*
Y365556D01*
X796520D01*
Y365708D01*
X796672D01*
Y365860D01*
X796824D01*
Y366164D01*
X796976D01*
Y366316D01*
X797129D01*
Y366621D01*
X797281D01*
Y366925D01*
X797433D01*
Y367229D01*
X797585D01*
Y367533D01*
X797737D01*
Y367989D01*
X797889D01*
Y368597D01*
X798041D01*
Y369510D01*
X798193D01*
Y373920D01*
X798041D01*
Y374224D01*
Y374376D01*
Y374832D01*
X797889D01*
Y375441D01*
X797737D01*
Y375897D01*
X797585D01*
Y376201D01*
X797433D01*
Y376505D01*
X797281D01*
Y376809D01*
X797129D01*
Y377113D01*
X796976D01*
Y377266D01*
X796824D01*
Y377570D01*
X796672D01*
Y377722D01*
X796520D01*
Y377874D01*
X796368D01*
Y378026D01*
X796216D01*
Y378178D01*
X796064D01*
Y378330D01*
X795912D01*
Y378482D01*
X795608D01*
Y378634D01*
X795456D01*
Y378786D01*
X795152D01*
Y378938D01*
X794848D01*
Y379090D01*
X794543D01*
Y379242D01*
X794087D01*
Y379394D01*
X793327D01*
Y379547D01*
D02*
G37*
G36*
X722006Y370727D02*
X721854D01*
Y370574D01*
X721702D01*
Y370118D01*
X721550D01*
Y369662D01*
X721398D01*
Y369054D01*
X721246D01*
Y368597D01*
X721094D01*
Y368141D01*
X720941D01*
Y367685D01*
X720789D01*
Y367229D01*
X720637D01*
Y366773D01*
X720485D01*
Y366316D01*
X720333D01*
Y365860D01*
X720181D01*
Y365708D01*
X723527D01*
Y366012D01*
X723375D01*
Y366469D01*
X723223D01*
Y366925D01*
X723071D01*
Y367381D01*
X722918D01*
Y367837D01*
X722766D01*
Y368293D01*
X722614D01*
Y368750D01*
X722462D01*
Y369358D01*
X722310D01*
Y369814D01*
X722158D01*
Y369966D01*
Y370270D01*
X722006D01*
Y370727D01*
D02*
G37*
G36*
X761088Y392625D02*
X760632D01*
Y392472D01*
X759871D01*
Y392320D01*
X759567D01*
Y392168D01*
X759263D01*
Y392016D01*
X759111D01*
Y391864D01*
X758959D01*
Y391712D01*
X758807D01*
Y391560D01*
X758655D01*
Y391256D01*
X758503D01*
Y391104D01*
X758351D01*
Y390648D01*
X758199D01*
Y388823D01*
X758351D01*
Y388367D01*
X758503D01*
Y387910D01*
X758655D01*
Y387606D01*
X758807D01*
Y387302D01*
X758959D01*
Y386998D01*
X759111D01*
Y386694D01*
X759263D01*
Y386390D01*
X759415D01*
Y385933D01*
X759567D01*
Y385629D01*
X759719D01*
Y385325D01*
X759871D01*
Y385021D01*
X760023D01*
Y384717D01*
X760176D01*
Y384413D01*
X760328D01*
Y384109D01*
X760480D01*
Y383805D01*
X760632D01*
Y383500D01*
X760784D01*
Y383044D01*
X760936D01*
Y382740D01*
X761088D01*
Y382436D01*
X761240D01*
Y382132D01*
X761392D01*
Y381828D01*
X761544D01*
Y381524D01*
X761696D01*
Y381219D01*
X761848D01*
Y380915D01*
X762000D01*
Y380611D01*
X762152D01*
Y380155D01*
X762305D01*
Y379851D01*
X762457D01*
Y379547D01*
X762609D01*
Y379242D01*
X762761D01*
Y378938D01*
X762913D01*
Y378634D01*
X763065D01*
Y378330D01*
X763217D01*
Y378026D01*
X763369D01*
Y377570D01*
X763521D01*
Y377266D01*
X763673D01*
Y376961D01*
X763825D01*
Y376657D01*
X763977D01*
Y376353D01*
X764129D01*
Y376049D01*
X764281D01*
Y375745D01*
X764434D01*
Y375441D01*
X764586D01*
Y375136D01*
X764738D01*
Y374680D01*
X764890D01*
Y374376D01*
X765042D01*
Y374072D01*
X765194D01*
Y373768D01*
X765346D01*
Y373464D01*
X765498D01*
Y373160D01*
X765650D01*
Y372855D01*
X765802D01*
Y372551D01*
X765954D01*
Y372095D01*
X766106D01*
Y371791D01*
X766258D01*
Y371487D01*
X766410D01*
Y371183D01*
X766562D01*
Y370879D01*
X766715D01*
Y370574D01*
X766867D01*
Y370270D01*
X767019D01*
Y369966D01*
X767171D01*
Y369662D01*
X767323D01*
Y369206D01*
X767475D01*
Y368902D01*
X767627D01*
Y368597D01*
X767779D01*
Y368293D01*
X767931D01*
Y367989D01*
X768083D01*
Y367685D01*
X768235D01*
Y367381D01*
X768387D01*
Y367077D01*
X768539D01*
Y366773D01*
X768691D01*
Y366316D01*
X768844D01*
Y366012D01*
X768996D01*
Y365708D01*
X769148D01*
Y365404D01*
X769300D01*
Y365100D01*
X769452D01*
Y364796D01*
X769604D01*
Y364492D01*
X769756D01*
Y364188D01*
X769908D01*
Y363883D01*
X770060D01*
Y363427D01*
X770212D01*
Y363123D01*
X770364D01*
Y362819D01*
X770516D01*
Y362515D01*
X770668D01*
Y362211D01*
X770820D01*
Y361906D01*
X770973D01*
Y361602D01*
X771125D01*
Y361298D01*
X771277D01*
Y360842D01*
X771429D01*
Y360538D01*
X771581D01*
Y360234D01*
X771733D01*
Y359930D01*
X771885D01*
Y359625D01*
X772037D01*
Y359321D01*
X772189D01*
Y359169D01*
X772341D01*
Y358865D01*
X772493D01*
Y358713D01*
X772645D01*
Y358561D01*
X772797D01*
Y358409D01*
X772950D01*
Y358257D01*
X773102D01*
Y358105D01*
X773254D01*
Y357953D01*
X773558D01*
Y357800D01*
X773862D01*
Y357649D01*
X775687D01*
Y357800D01*
X775991D01*
Y357953D01*
X776295D01*
Y358105D01*
X776447D01*
Y358257D01*
X776751D01*
Y358561D01*
X776903D01*
Y358713D01*
X777055D01*
Y358865D01*
X777207D01*
Y359169D01*
X777359D01*
Y359625D01*
X777512D01*
Y361298D01*
X777359D01*
Y361754D01*
X777207D01*
Y361906D01*
Y362058D01*
X777055D01*
Y362363D01*
X776903D01*
Y362667D01*
X776751D01*
Y363123D01*
X776599D01*
Y363427D01*
X776447D01*
Y363731D01*
X776295D01*
Y364035D01*
X776143D01*
Y364340D01*
X775991D01*
Y364644D01*
X775839D01*
Y364948D01*
X775687D01*
Y365252D01*
X775535D01*
Y365708D01*
X775383D01*
Y366012D01*
X775230D01*
Y366316D01*
X775078D01*
Y366621D01*
X774926D01*
Y366925D01*
X774774D01*
Y367229D01*
X774622D01*
Y367533D01*
X774470D01*
Y367837D01*
X774318D01*
Y368293D01*
X774166D01*
Y368597D01*
X774014D01*
Y368902D01*
X773862D01*
Y369206D01*
X773710D01*
Y369510D01*
X773558D01*
Y369814D01*
X773406D01*
Y370118D01*
X773254D01*
Y370422D01*
X773102D01*
Y370879D01*
X772950D01*
Y371183D01*
X772797D01*
Y371487D01*
X772645D01*
Y371791D01*
X772493D01*
Y372095D01*
X772341D01*
Y372399D01*
X772189D01*
Y372703D01*
X772037D01*
Y373160D01*
X771885D01*
Y373464D01*
X771733D01*
Y373768D01*
X771581D01*
Y374072D01*
X771429D01*
Y374376D01*
X771277D01*
Y374680D01*
X771125D01*
Y374985D01*
X770973D01*
Y375289D01*
X770820D01*
Y375745D01*
X770668D01*
Y376049D01*
X770516D01*
Y376353D01*
X770364D01*
Y376657D01*
X770212D01*
Y376961D01*
X770060D01*
Y377266D01*
X769908D01*
Y377570D01*
X769756D01*
Y377874D01*
X769604D01*
Y378330D01*
X769452D01*
Y378634D01*
X769300D01*
Y378938D01*
X769148D01*
Y379242D01*
X768996D01*
Y379547D01*
X768844D01*
Y379851D01*
X768691D01*
Y380155D01*
X768539D01*
Y380459D01*
X768387D01*
Y380915D01*
X768235D01*
Y381219D01*
X768083D01*
Y381524D01*
X767931D01*
Y381828D01*
X767779D01*
Y382132D01*
X767627D01*
Y382436D01*
X767475D01*
Y382740D01*
X767323D01*
Y383196D01*
X767171D01*
Y383500D01*
X767019D01*
Y383805D01*
X766867D01*
Y384109D01*
X766715D01*
Y384413D01*
X766562D01*
Y384717D01*
X766410D01*
Y385021D01*
X766258D01*
Y385325D01*
X766106D01*
Y385781D01*
X765954D01*
Y386086D01*
X765802D01*
Y386390D01*
X765650D01*
Y386694D01*
X765498D01*
Y386998D01*
X765346D01*
Y387302D01*
X765194D01*
Y387606D01*
X765042D01*
Y387910D01*
X764890D01*
Y388367D01*
X764738D01*
Y388671D01*
X764586D01*
Y388975D01*
X764434D01*
Y389279D01*
X764281D01*
Y389583D01*
X764129D01*
Y389887D01*
X763977D01*
Y390191D01*
X763825D01*
Y390496D01*
X763673D01*
Y390648D01*
X763521D01*
Y390952D01*
X763369D01*
Y391256D01*
X763217D01*
Y391408D01*
X763065D01*
Y391560D01*
X762913D01*
Y391712D01*
X762761D01*
Y391864D01*
X762609D01*
Y392016D01*
X762457D01*
Y392168D01*
X762152D01*
Y392320D01*
X761848D01*
Y392472D01*
X761088D01*
Y392625D01*
D02*
G37*
G36*
X749379D02*
X748922D01*
Y392472D01*
X748162D01*
Y392320D01*
X747858D01*
Y392168D01*
X747554D01*
Y392016D01*
X747402D01*
Y391864D01*
X747250D01*
Y391712D01*
X747097D01*
Y391560D01*
X746945D01*
Y391408D01*
X746793D01*
Y391256D01*
X746641D01*
Y390800D01*
X746489D01*
Y390344D01*
X746337D01*
Y389279D01*
X746489D01*
Y388519D01*
X746641D01*
Y388215D01*
X746793D01*
Y387758D01*
X746945D01*
Y387454D01*
X747097D01*
Y387150D01*
X747250D01*
Y386846D01*
X747402D01*
Y386542D01*
X747554D01*
Y386238D01*
X747706D01*
Y385933D01*
X747858D01*
Y385629D01*
X748010D01*
Y385173D01*
X748162D01*
Y384869D01*
X748314D01*
Y384565D01*
X748466D01*
Y384261D01*
X748618D01*
Y383957D01*
X748770D01*
Y383652D01*
X748922D01*
Y383348D01*
X749074D01*
Y383044D01*
X749227D01*
Y382588D01*
X749379D01*
Y382284D01*
X749531D01*
Y381980D01*
X749683D01*
Y381675D01*
X749835D01*
Y381371D01*
X749987D01*
Y381067D01*
X750139D01*
Y380763D01*
X750291D01*
Y380459D01*
X750443D01*
Y380003D01*
X750595D01*
Y379699D01*
X750747D01*
Y379394D01*
X750899D01*
Y379090D01*
X751051D01*
Y378786D01*
X751203D01*
Y378482D01*
X751356D01*
Y378178D01*
X751508D01*
Y377874D01*
X751660D01*
Y377418D01*
X751812D01*
Y377113D01*
X751964D01*
Y376809D01*
X752116D01*
Y376505D01*
X752268D01*
Y376201D01*
X752420D01*
Y375897D01*
X752572D01*
Y375593D01*
X752724D01*
Y375136D01*
X752876D01*
Y374832D01*
X753028D01*
Y374528D01*
X753180D01*
Y374224D01*
X753332D01*
Y373920D01*
X753484D01*
Y373616D01*
X753636D01*
Y373312D01*
X753789D01*
Y373008D01*
X753941D01*
Y372551D01*
X754093D01*
Y372247D01*
X754245D01*
Y371943D01*
X754397D01*
Y371639D01*
X754549D01*
Y371335D01*
X754701D01*
Y371031D01*
X754853D01*
Y370727D01*
X755005D01*
Y370270D01*
X755157D01*
Y369966D01*
X755309D01*
Y369662D01*
X755461D01*
Y369358D01*
X755613D01*
Y369054D01*
X755766D01*
Y368902D01*
Y368750D01*
X755918D01*
Y368445D01*
X756070D01*
Y367989D01*
X756222D01*
Y367685D01*
X756374D01*
Y367381D01*
X756526D01*
Y367077D01*
X756678D01*
Y366773D01*
X756830D01*
Y366469D01*
X756982D01*
Y366164D01*
X757134D01*
Y365860D01*
X757286D01*
Y365404D01*
X757438D01*
Y365100D01*
X757590D01*
Y364796D01*
X757742D01*
Y364492D01*
X757895D01*
Y364188D01*
X758047D01*
Y363883D01*
X758199D01*
Y363579D01*
X758351D01*
Y363123D01*
X758503D01*
Y362819D01*
X758655D01*
Y362515D01*
X758807D01*
Y362211D01*
X758959D01*
Y361906D01*
X759111D01*
Y361602D01*
X759263D01*
Y361298D01*
X759415D01*
Y360994D01*
X759567D01*
Y360690D01*
X759719D01*
Y360386D01*
X759871D01*
Y360082D01*
X760023D01*
Y359777D01*
X760176D01*
Y359625D01*
X760328D01*
Y359321D01*
X760480D01*
Y359017D01*
X760632D01*
Y358865D01*
X760784D01*
Y358561D01*
X760936D01*
Y358409D01*
X761088D01*
Y358257D01*
X761240D01*
Y358105D01*
X761544D01*
Y357953D01*
X761696D01*
Y357800D01*
X762152D01*
Y357649D01*
X763977D01*
Y357800D01*
X764281D01*
Y357953D01*
X764586D01*
Y358105D01*
X764738D01*
Y358257D01*
X764890D01*
Y358409D01*
X765042D01*
Y358561D01*
X765194D01*
Y358713D01*
X765346D01*
Y359017D01*
X765498D01*
Y359321D01*
X765650D01*
Y359930D01*
X765802D01*
Y360994D01*
X765650D01*
Y361602D01*
X765498D01*
Y361906D01*
X765346D01*
Y362211D01*
X765194D01*
Y362667D01*
X765042D01*
Y362971D01*
X764890D01*
Y363275D01*
X764738D01*
Y363579D01*
X764586D01*
Y363883D01*
X764434D01*
Y364188D01*
X764281D01*
Y364492D01*
X764129D01*
Y364796D01*
X763977D01*
Y365252D01*
X763825D01*
Y365556D01*
X763673D01*
Y365860D01*
X763521D01*
Y366164D01*
X763369D01*
Y366469D01*
X763217D01*
Y366773D01*
X763065D01*
Y367077D01*
X762913D01*
Y367533D01*
X762761D01*
Y367837D01*
X762609D01*
Y368141D01*
X762457D01*
Y368445D01*
X762305D01*
Y368750D01*
X762152D01*
Y369054D01*
X762000D01*
Y369358D01*
X761848D01*
Y369662D01*
X761696D01*
Y370118D01*
X761544D01*
Y370422D01*
X761392D01*
Y370727D01*
X761240D01*
Y371031D01*
X761088D01*
Y371335D01*
X760936D01*
Y371639D01*
X760784D01*
Y371943D01*
X760632D01*
Y372247D01*
X760480D01*
Y372703D01*
X760328D01*
Y373008D01*
X760176D01*
Y373312D01*
X760023D01*
Y373616D01*
X759871D01*
Y373920D01*
X759719D01*
Y374224D01*
X759567D01*
Y374528D01*
X759415D01*
Y374832D01*
X759263D01*
Y375289D01*
X759111D01*
Y375593D01*
X758959D01*
Y375897D01*
X758807D01*
Y376201D01*
X758655D01*
Y376505D01*
X758503D01*
Y376809D01*
X758351D01*
Y377113D01*
X758199D01*
Y377418D01*
X758047D01*
Y377874D01*
X757895D01*
Y378178D01*
X757742D01*
Y378482D01*
X757590D01*
Y378786D01*
X757438D01*
Y379090D01*
X757286D01*
Y379394D01*
X757134D01*
Y379699D01*
X756982D01*
Y380003D01*
X756830D01*
Y380459D01*
X756678D01*
Y380763D01*
X756526D01*
Y381067D01*
X756374D01*
Y381371D01*
X756222D01*
Y381675D01*
X756070D01*
Y381980D01*
X755918D01*
Y382284D01*
X755766D01*
Y382740D01*
X755613D01*
Y383044D01*
X755461D01*
Y383348D01*
X755309D01*
Y383652D01*
X755157D01*
Y383957D01*
X755005D01*
Y384261D01*
X754853D01*
Y384565D01*
X754701D01*
Y384869D01*
X754549D01*
Y385325D01*
X754397D01*
Y385629D01*
X754245D01*
Y385933D01*
X754093D01*
Y386238D01*
X753941D01*
Y386542D01*
X753789D01*
Y386846D01*
X753636D01*
Y387150D01*
X753484D01*
Y387454D01*
X753332D01*
Y387910D01*
X753180D01*
Y388215D01*
X753028D01*
Y388519D01*
X752876D01*
Y388823D01*
X752724D01*
Y389127D01*
X752572D01*
Y389431D01*
X752420D01*
Y389735D01*
X752268D01*
Y390039D01*
X752116D01*
Y390344D01*
X751964D01*
Y390648D01*
X751812D01*
Y390800D01*
X751660D01*
Y391104D01*
X751508D01*
Y391256D01*
X751356D01*
Y391560D01*
X751203D01*
Y391712D01*
X751051D01*
Y391864D01*
X750899D01*
Y392016D01*
X750595D01*
Y392168D01*
X750443D01*
Y392320D01*
X750139D01*
Y392472D01*
X749379D01*
Y392625D01*
D02*
G37*
G36*
X811727Y335446D02*
X809598D01*
Y335294D01*
X808990D01*
Y335142D01*
X808534D01*
Y334990D01*
X808078D01*
Y334838D01*
X807621D01*
Y334686D01*
X807317D01*
Y334534D01*
X806861D01*
Y334382D01*
X806405D01*
Y334230D01*
X805949D01*
Y334078D01*
X805492D01*
Y333926D01*
X804884D01*
Y333773D01*
X802907D01*
Y333926D01*
X802299D01*
Y334078D01*
X801995D01*
Y334230D01*
X801691D01*
Y334382D01*
X801387D01*
Y334534D01*
X801235D01*
Y334686D01*
X801082D01*
Y334838D01*
X800930D01*
Y334990D01*
X800778D01*
Y335142D01*
X800626D01*
Y335294D01*
X800474D01*
Y335446D01*
X800322D01*
Y334686D01*
X800474D01*
Y334078D01*
X800626D01*
Y333773D01*
X800778D01*
Y333469D01*
X800930D01*
Y333317D01*
X801082D01*
Y333013D01*
X801235D01*
Y332861D01*
X801387D01*
Y332709D01*
X801691D01*
Y332557D01*
X801843D01*
Y332405D01*
X802147D01*
Y332253D01*
X802451D01*
Y332101D01*
X803059D01*
Y331949D01*
X804276D01*
Y332101D01*
X805340D01*
Y332253D01*
X805949D01*
Y332405D01*
X806405D01*
Y332557D01*
X806709D01*
Y332709D01*
X807165D01*
Y332861D01*
X807469D01*
Y333013D01*
X807926D01*
Y333165D01*
X808230D01*
Y333317D01*
X808686D01*
Y333469D01*
X808990D01*
Y333621D01*
X809446D01*
Y333773D01*
X810055D01*
Y333926D01*
X812031D01*
Y333773D01*
X812488D01*
Y333621D01*
X812792D01*
Y333469D01*
X813096D01*
Y333317D01*
X813248D01*
Y333165D01*
X813400D01*
Y333013D01*
X813552D01*
Y332861D01*
X813704D01*
Y332709D01*
X813856D01*
Y332557D01*
X814008D01*
Y332405D01*
X814160D01*
Y332101D01*
X814313D01*
Y332861D01*
X814160D01*
Y333165D01*
X814008D01*
Y333469D01*
X813856D01*
Y333773D01*
X813704D01*
Y334078D01*
X813552D01*
Y334230D01*
X813400D01*
Y334382D01*
X813248D01*
Y334534D01*
X813096D01*
Y334686D01*
X812944D01*
Y334838D01*
X812640D01*
Y334990D01*
X812488D01*
Y335142D01*
X812184D01*
Y335294D01*
X811727D01*
Y335446D01*
D02*
G37*
G36*
Y329515D02*
X809598D01*
Y329363D01*
X808990D01*
Y329211D01*
X808534D01*
Y329059D01*
X808078D01*
Y328907D01*
X807774D01*
Y328755D01*
X807317D01*
Y328603D01*
X806861D01*
Y328451D01*
X806557D01*
Y328299D01*
X806101D01*
Y328147D01*
X805492D01*
Y327995D01*
X804884D01*
Y327843D01*
X802907D01*
Y327995D01*
X802299D01*
Y328147D01*
X801843D01*
Y328299D01*
X801691D01*
Y328451D01*
X801387D01*
Y328603D01*
X801235D01*
Y328755D01*
X800930D01*
Y328907D01*
X800778D01*
Y329211D01*
X800626D01*
Y329363D01*
X800474D01*
Y329515D01*
X800322D01*
Y328755D01*
X800474D01*
Y328147D01*
X800626D01*
Y327843D01*
X800778D01*
Y327539D01*
X800930D01*
Y327387D01*
X801082D01*
Y327082D01*
X801235D01*
Y326930D01*
X801387D01*
Y326778D01*
X801691D01*
Y326626D01*
X801843D01*
Y326474D01*
X802147D01*
Y326322D01*
X802451D01*
Y326170D01*
X803059D01*
Y326018D01*
X804276D01*
Y326170D01*
X805340D01*
Y326322D01*
X805949D01*
Y326474D01*
X806405D01*
Y326626D01*
X806709D01*
Y326778D01*
X807165D01*
Y326930D01*
X807469D01*
Y327082D01*
X807926D01*
Y327234D01*
X808230D01*
Y327387D01*
X808686D01*
Y327539D01*
X808990D01*
Y327691D01*
X809446D01*
Y327843D01*
X810055D01*
Y327995D01*
X812031D01*
Y327843D01*
X812488D01*
Y327691D01*
X812792D01*
Y327539D01*
X813096D01*
Y327387D01*
X813248D01*
Y327234D01*
X813400D01*
Y327082D01*
X813552D01*
Y326930D01*
X813704D01*
Y326778D01*
X813856D01*
Y326626D01*
X814008D01*
Y326474D01*
X814160D01*
Y326170D01*
X814313D01*
Y326930D01*
X814160D01*
Y327234D01*
X814008D01*
Y327539D01*
X813856D01*
Y327843D01*
X813704D01*
Y328147D01*
X813552D01*
Y328299D01*
X813400D01*
Y328451D01*
X813248D01*
Y328603D01*
X813096D01*
Y328755D01*
X812944D01*
Y328907D01*
X812640D01*
Y329059D01*
X812488D01*
Y329211D01*
X812184D01*
Y329363D01*
X811727D01*
Y329515D01*
D02*
G37*
G36*
X902969Y337423D02*
X901905D01*
Y337271D01*
X901449D01*
Y337119D01*
X901145D01*
Y336967D01*
X900840D01*
Y336815D01*
X900688D01*
Y336663D01*
X900536D01*
Y336359D01*
X900384D01*
Y336207D01*
X900232D01*
Y335750D01*
X900080D01*
Y334230D01*
X900232D01*
Y333773D01*
X900384D01*
Y333621D01*
X900536D01*
Y333317D01*
X900688D01*
Y333165D01*
X900993D01*
Y333013D01*
X901145D01*
Y332861D01*
X901449D01*
Y332709D01*
X902057D01*
Y332557D01*
X902817D01*
Y332709D01*
X903426D01*
Y332861D01*
X903730D01*
Y333013D01*
X903882D01*
Y333165D01*
X904186D01*
Y333317D01*
X904338D01*
Y333621D01*
X904490D01*
Y333773D01*
X904642D01*
Y334230D01*
X904794D01*
Y335750D01*
X904642D01*
Y336207D01*
X904490D01*
Y336359D01*
X904338D01*
Y336663D01*
X904186D01*
Y336815D01*
X904034D01*
Y336967D01*
X903730D01*
Y337119D01*
X903426D01*
Y337271D01*
X902969D01*
Y337423D01*
D02*
G37*
G36*
Y329668D02*
X901905D01*
Y329515D01*
X901449D01*
Y329363D01*
X901145D01*
Y329211D01*
X900840D01*
Y329059D01*
X900688D01*
Y328907D01*
X900536D01*
Y328603D01*
X900384D01*
Y328451D01*
X900232D01*
Y327995D01*
X900080D01*
Y326474D01*
X900232D01*
Y326018D01*
X900384D01*
Y325866D01*
X900536D01*
Y325562D01*
X900688D01*
Y325410D01*
X900993D01*
Y325257D01*
X901145D01*
Y325106D01*
X901449D01*
Y324953D01*
X902057D01*
Y324801D01*
X902817D01*
Y324953D01*
X903426D01*
Y325106D01*
X903730D01*
Y325257D01*
X903882D01*
Y325410D01*
X904186D01*
Y325562D01*
X904338D01*
Y325866D01*
X904490D01*
Y326018D01*
X904642D01*
Y326474D01*
X904794D01*
Y327995D01*
X904642D01*
Y328451D01*
X904490D01*
Y328603D01*
X904338D01*
Y328907D01*
X904186D01*
Y329059D01*
X904034D01*
Y329211D01*
X903730D01*
Y329363D01*
X903426D01*
Y329515D01*
X902969D01*
Y329668D01*
D02*
G37*
G36*
X873772Y337271D02*
X862671D01*
Y335902D01*
X862519D01*
Y334230D01*
X862823D01*
Y334534D01*
X862975D01*
Y334990D01*
X863127D01*
Y335294D01*
X863279D01*
Y335446D01*
X863431D01*
Y335598D01*
X863583D01*
Y335750D01*
X863887D01*
Y335902D01*
X864192D01*
Y336054D01*
X864800D01*
Y336207D01*
X869818D01*
Y336054D01*
X869970D01*
Y335750D01*
X869818D01*
Y335598D01*
X869666D01*
Y335294D01*
X869514D01*
Y335142D01*
X869362D01*
Y334838D01*
X869210D01*
Y334686D01*
X869058D01*
Y334382D01*
X868906D01*
Y334230D01*
X868754D01*
Y333926D01*
X868602D01*
Y333773D01*
X868449D01*
Y333469D01*
X868297D01*
Y333317D01*
X868145D01*
Y333013D01*
X867993D01*
Y332861D01*
X867841D01*
Y332557D01*
X867689D01*
Y332405D01*
X867537D01*
Y332253D01*
X867385D01*
Y331949D01*
X867233D01*
Y331796D01*
X867081D01*
Y331492D01*
X866929D01*
Y330884D01*
X867081D01*
Y330732D01*
X867233D01*
Y330428D01*
X867385D01*
Y330276D01*
X867537D01*
Y330124D01*
X867689D01*
Y329972D01*
X867841D01*
Y329668D01*
X867993D01*
Y329515D01*
X868145D01*
Y329363D01*
X868297D01*
Y329211D01*
X868449D01*
Y328907D01*
X868602D01*
Y328755D01*
X868754D01*
Y328603D01*
X868906D01*
Y328299D01*
X869058D01*
Y328147D01*
X869210D01*
Y327995D01*
X869362D01*
Y327843D01*
X869514D01*
Y327539D01*
X869666D01*
Y327387D01*
X869818D01*
Y327234D01*
X869970D01*
Y327082D01*
X870122D01*
Y326778D01*
X870274D01*
Y326626D01*
X870426D01*
Y326474D01*
X870274D01*
Y326322D01*
X864648D01*
Y326474D01*
X863887D01*
Y326626D01*
X863735D01*
Y326778D01*
X863583D01*
Y326930D01*
X863431D01*
Y327082D01*
X863279D01*
Y327234D01*
X863127D01*
Y327539D01*
X862975D01*
Y327995D01*
X862823D01*
Y328147D01*
X862519D01*
Y327082D01*
X862671D01*
Y325562D01*
X862823D01*
Y324497D01*
X873772D01*
Y324649D01*
X873620D01*
Y324953D01*
X873468D01*
Y325106D01*
X873316D01*
Y325257D01*
X873164D01*
Y325410D01*
X873012D01*
Y325714D01*
X872859D01*
Y325866D01*
X872707D01*
Y326018D01*
X872555D01*
Y326170D01*
X872403D01*
Y326322D01*
X872251D01*
Y326626D01*
X872099D01*
Y326778D01*
X871947D01*
Y326930D01*
X871795D01*
Y327082D01*
X871643D01*
Y327387D01*
X871491D01*
Y327539D01*
X871339D01*
Y327691D01*
X871187D01*
Y327843D01*
X871035D01*
Y328147D01*
X870883D01*
Y328299D01*
X870731D01*
Y328451D01*
X870579D01*
Y328603D01*
X870426D01*
Y328907D01*
X870274D01*
Y329059D01*
X870122D01*
Y329211D01*
X869970D01*
Y329515D01*
X869818D01*
Y329668D01*
X869666D01*
Y329820D01*
X869514D01*
Y330124D01*
X869362D01*
Y330428D01*
X869210D01*
Y330580D01*
X869362D01*
Y330884D01*
X869514D01*
Y331036D01*
X869666D01*
Y331340D01*
X869818D01*
Y331492D01*
X869970D01*
Y331796D01*
X870122D01*
Y331949D01*
X870274D01*
Y332253D01*
X870426D01*
Y332405D01*
X870579D01*
Y332709D01*
X870731D01*
Y332861D01*
X870883D01*
Y333013D01*
X871035D01*
Y333317D01*
X871187D01*
Y333469D01*
X871339D01*
Y333773D01*
X871491D01*
Y333926D01*
X871643D01*
Y334230D01*
X871795D01*
Y334382D01*
X871947D01*
Y334686D01*
X872099D01*
Y334838D01*
X872251D01*
Y335142D01*
X872403D01*
Y335294D01*
X872555D01*
Y335446D01*
X872707D01*
Y335750D01*
X872859D01*
Y335902D01*
X873012D01*
Y336207D01*
X873164D01*
Y336359D01*
X873316D01*
Y336663D01*
X873468D01*
Y336815D01*
X873620D01*
Y337119D01*
X873772D01*
Y337271D01*
D02*
G37*
G36*
X841381Y337575D02*
X831801D01*
Y337423D01*
X831497D01*
Y337271D01*
X831344D01*
Y337119D01*
X831192D01*
Y336967D01*
X831040D01*
Y336207D01*
X831192D01*
Y335902D01*
X831344D01*
Y335750D01*
X831497D01*
Y335598D01*
X831953D01*
Y335446D01*
X834690D01*
Y334078D01*
X834842D01*
Y331340D01*
X834994D01*
Y328755D01*
X834842D01*
Y328147D01*
X834690D01*
Y327691D01*
X834538D01*
Y327539D01*
X834386D01*
Y327387D01*
X834234D01*
Y327234D01*
X834082D01*
Y327082D01*
X833930D01*
Y326930D01*
X833473D01*
Y326778D01*
X832713D01*
Y326930D01*
X832409D01*
Y327082D01*
X832257D01*
Y327234D01*
X832105D01*
Y327387D01*
X831953D01*
Y327539D01*
X831801D01*
Y327843D01*
X831648D01*
Y328603D01*
X831497D01*
Y329059D01*
X831192D01*
Y327539D01*
X831344D01*
Y327082D01*
X831497D01*
Y326626D01*
X831648D01*
Y326322D01*
X831801D01*
Y326018D01*
X831953D01*
Y325714D01*
X832105D01*
Y325562D01*
X832257D01*
Y325410D01*
X832409D01*
Y325257D01*
X832561D01*
Y325106D01*
X832713D01*
Y324953D01*
X833017D01*
Y324801D01*
X833321D01*
Y324649D01*
X833777D01*
Y324497D01*
X834538D01*
Y324649D01*
X834994D01*
Y324801D01*
X835146D01*
Y324953D01*
X835450D01*
Y325257D01*
X835602D01*
Y325410D01*
X835754D01*
Y325562D01*
X835907D01*
Y325866D01*
X836059D01*
Y326170D01*
X836211D01*
Y326474D01*
X836363D01*
Y326930D01*
X836515D01*
Y327843D01*
X836667D01*
Y330732D01*
X836515D01*
Y332253D01*
X836363D01*
Y333773D01*
X836211D01*
Y335142D01*
X836059D01*
Y335446D01*
X839252D01*
Y334078D01*
X839404D01*
Y333926D01*
Y333773D01*
Y332557D01*
X839556D01*
Y331188D01*
X839708D01*
Y330124D01*
X839860D01*
Y329059D01*
X840012D01*
Y328147D01*
X840164D01*
Y327234D01*
X840316D01*
Y326474D01*
X840469D01*
Y325866D01*
X840621D01*
Y325562D01*
X840773D01*
Y325257D01*
X840925D01*
Y325106D01*
X841077D01*
Y324953D01*
X841229D01*
Y324801D01*
X841381D01*
Y324649D01*
X841837D01*
Y324497D01*
X842293D01*
Y324649D01*
X842598D01*
Y324801D01*
X842902D01*
Y324953D01*
X843054D01*
Y325106D01*
X843206D01*
Y325257D01*
X843358D01*
Y326474D01*
X843206D01*
Y326778D01*
X843054D01*
Y326930D01*
X842902D01*
Y327082D01*
X842750D01*
Y327234D01*
X842598D01*
Y327539D01*
X842446D01*
Y327691D01*
X842293D01*
Y327843D01*
X842141D01*
Y327995D01*
X841989D01*
Y328299D01*
X841837D01*
Y328451D01*
X841685D01*
Y328755D01*
X841533D01*
Y329059D01*
X841381D01*
Y329515D01*
X841229D01*
Y329972D01*
X841077D01*
Y330884D01*
X840925D01*
Y332253D01*
X840773D01*
Y334382D01*
X840621D01*
Y335446D01*
X842750D01*
Y335294D01*
X843054D01*
Y335142D01*
X843358D01*
Y334990D01*
X843510D01*
Y334838D01*
X843662D01*
Y334686D01*
X843814D01*
Y334382D01*
X843966D01*
Y334230D01*
X844118D01*
Y333926D01*
X844270D01*
Y333773D01*
X844422D01*
Y333621D01*
X844575D01*
Y333469D01*
X844727D01*
Y333773D01*
X844575D01*
Y334230D01*
X844422D01*
Y334534D01*
X844270D01*
Y334990D01*
X844118D01*
Y335294D01*
X843966D01*
Y335598D01*
X843814D01*
Y335750D01*
X843662D01*
Y336054D01*
X843510D01*
Y336207D01*
X843358D01*
Y336511D01*
X843206D01*
Y336663D01*
X843054D01*
Y336815D01*
X842750D01*
Y336967D01*
X842598D01*
Y337119D01*
X842293D01*
Y337271D01*
X841989D01*
Y337423D01*
X841381D01*
Y337575D01*
D02*
G37*
G36*
X777968Y337879D02*
X776599D01*
Y337727D01*
X775991D01*
Y337575D01*
X775535D01*
Y337423D01*
X775230D01*
Y337271D01*
X775078D01*
Y337119D01*
X774774D01*
Y336967D01*
X774622D01*
Y336663D01*
X774470D01*
Y336511D01*
X774318D01*
Y336207D01*
X774166D01*
Y335598D01*
X774014D01*
Y334686D01*
X774166D01*
Y334078D01*
X774318D01*
Y333773D01*
X774470D01*
Y333621D01*
X774622D01*
Y333317D01*
X774774D01*
Y333165D01*
X774926D01*
Y333013D01*
X775078D01*
Y332709D01*
X775230D01*
Y332557D01*
X775383D01*
Y332405D01*
X775535D01*
Y332253D01*
X775839D01*
Y332101D01*
X775991D01*
Y331949D01*
X776143D01*
Y331796D01*
X776295D01*
Y331645D01*
X776143D01*
Y331492D01*
X775991D01*
Y331340D01*
X775839D01*
Y331188D01*
X775687D01*
Y331036D01*
X775535D01*
Y330884D01*
X775383D01*
Y330580D01*
X775230D01*
Y330428D01*
X775078D01*
Y330276D01*
X774926D01*
Y330124D01*
X774774D01*
Y329972D01*
X774622D01*
Y329820D01*
X774470D01*
Y329668D01*
X774318D01*
Y329515D01*
X774166D01*
Y329363D01*
X774014D01*
Y329211D01*
X773862D01*
Y329059D01*
X773710D01*
Y329211D01*
X773558D01*
Y329820D01*
X773406D01*
Y330580D01*
X773254D01*
Y331645D01*
X772645D01*
Y331036D01*
X772493D01*
Y329515D01*
X772645D01*
Y328603D01*
X772797D01*
Y327843D01*
X772645D01*
Y327691D01*
X772493D01*
Y327539D01*
X772341D01*
Y327387D01*
X772189D01*
Y327234D01*
X772037D01*
Y327082D01*
X771885D01*
Y326930D01*
X771733D01*
Y326626D01*
X771581D01*
Y326474D01*
X771429D01*
Y326322D01*
X771277D01*
Y326170D01*
X771125D01*
Y326018D01*
X770973D01*
Y325866D01*
X770820D01*
Y325714D01*
X770668D01*
Y325562D01*
X770516D01*
Y325410D01*
X770364D01*
Y325257D01*
X770212D01*
Y325106D01*
X770060D01*
Y324801D01*
X769908D01*
Y324649D01*
X770060D01*
Y324497D01*
X772189D01*
Y324801D01*
X772341D01*
Y324953D01*
X772493D01*
Y325106D01*
X772645D01*
Y325257D01*
X772797D01*
Y325410D01*
X772950D01*
Y325562D01*
X773102D01*
Y325714D01*
X773254D01*
Y325866D01*
X773406D01*
Y326018D01*
X773558D01*
Y326170D01*
X773862D01*
Y326018D01*
X774014D01*
Y325714D01*
X774166D01*
Y325562D01*
X774318D01*
Y325410D01*
X774470D01*
Y325257D01*
X774622D01*
Y325106D01*
X774774D01*
Y324953D01*
X775078D01*
Y324801D01*
X775230D01*
Y324649D01*
X775535D01*
Y324497D01*
X775839D01*
Y324345D01*
X776295D01*
Y324193D01*
X777207D01*
Y324041D01*
X778728D01*
Y324193D01*
X779489D01*
Y324345D01*
X779945D01*
Y324497D01*
X780249D01*
Y324649D01*
X780553D01*
Y324801D01*
X780857D01*
Y324953D01*
X781009D01*
Y325106D01*
X781161D01*
Y325257D01*
X781313D01*
Y325410D01*
X781465D01*
Y325714D01*
X781618D01*
Y325866D01*
X781769D01*
Y326322D01*
X781922D01*
Y326778D01*
X782074D01*
Y327995D01*
X781922D01*
Y328451D01*
X781769D01*
Y328907D01*
X781618D01*
Y329059D01*
X781465D01*
Y329363D01*
X781313D01*
Y329515D01*
X781161D01*
Y329668D01*
X781009D01*
Y329972D01*
X780857D01*
Y330124D01*
X780705D01*
Y330276D01*
X780553D01*
Y330428D01*
X780401D01*
Y330580D01*
X780097D01*
Y330732D01*
X779945D01*
Y330884D01*
X779793D01*
Y331036D01*
X779641D01*
Y331188D01*
X779489D01*
Y331340D01*
X779184D01*
Y331492D01*
X779032D01*
Y331645D01*
X778880D01*
Y331949D01*
X779032D01*
Y332101D01*
X779184D01*
Y332253D01*
X779336D01*
Y332405D01*
X779489D01*
Y332709D01*
X779641D01*
Y332861D01*
X779793D01*
Y333013D01*
X779945D01*
Y333317D01*
X780097D01*
Y333621D01*
X780249D01*
Y333926D01*
X780401D01*
Y334534D01*
X780553D01*
Y335446D01*
X780401D01*
Y336054D01*
X780249D01*
Y336359D01*
X780097D01*
Y336663D01*
X779945D01*
Y336815D01*
X779793D01*
Y336967D01*
X779641D01*
Y337119D01*
X779489D01*
Y337271D01*
X779184D01*
Y337423D01*
X779032D01*
Y337575D01*
X778576D01*
Y337727D01*
X777968D01*
Y337879D01*
D02*
G37*
%LPD*%
G36*
Y336359D02*
X778272D01*
Y336207D01*
X778424D01*
Y336054D01*
X778576D01*
Y335902D01*
X778728D01*
Y335598D01*
X778880D01*
Y334686D01*
X778728D01*
Y334382D01*
X778576D01*
Y334230D01*
Y334078D01*
X778424D01*
Y333926D01*
X778272D01*
Y333773D01*
X778120D01*
Y333621D01*
X777968D01*
Y333317D01*
X777816D01*
Y333165D01*
X777664D01*
Y333013D01*
X777512D01*
Y332861D01*
X777359D01*
Y332709D01*
X777207D01*
Y332861D01*
X777055D01*
Y333013D01*
X776903D01*
Y333165D01*
X776751D01*
Y333317D01*
X776599D01*
Y333469D01*
X776447D01*
Y333621D01*
X776295D01*
Y333773D01*
X776143D01*
Y333926D01*
X775991D01*
Y334078D01*
X775839D01*
Y334230D01*
X775687D01*
Y334534D01*
X775535D01*
Y335750D01*
X775687D01*
Y335902D01*
X775839D01*
Y336054D01*
X775991D01*
Y336207D01*
X776143D01*
Y336359D01*
X776295D01*
Y336511D01*
X777968D01*
Y336359D01*
D02*
G37*
G36*
Y330428D02*
X778272D01*
Y330276D01*
X778424D01*
Y330124D01*
X778576D01*
Y329972D01*
X778728D01*
Y329820D01*
X778880D01*
Y329668D01*
X779032D01*
Y329515D01*
X779184D01*
Y329363D01*
X779336D01*
Y329211D01*
X779489D01*
Y328907D01*
X779641D01*
Y328755D01*
X779793D01*
Y327082D01*
X779641D01*
Y326778D01*
X779489D01*
Y326626D01*
X779336D01*
Y326474D01*
X779184D01*
Y326322D01*
X779032D01*
Y326170D01*
X778880D01*
Y326018D01*
X778576D01*
Y325866D01*
X777968D01*
Y325714D01*
X776903D01*
Y325866D01*
X776295D01*
Y326018D01*
X775839D01*
Y326170D01*
X775687D01*
Y326322D01*
X775383D01*
Y326474D01*
X775230D01*
Y326626D01*
X775078D01*
Y326778D01*
X774926D01*
Y326930D01*
X774774D01*
Y327082D01*
X774622D01*
Y327234D01*
X774774D01*
Y327387D01*
X774926D01*
Y327691D01*
X775078D01*
Y327843D01*
X775230D01*
Y327995D01*
X775383D01*
Y328147D01*
X775535D01*
Y328299D01*
X775687D01*
Y328451D01*
X775839D01*
Y328603D01*
X775991D01*
Y328755D01*
X776143D01*
Y328907D01*
X776295D01*
Y329211D01*
X776447D01*
Y329363D01*
X776599D01*
Y329515D01*
X776751D01*
Y329668D01*
X776903D01*
Y329820D01*
X777055D01*
Y329972D01*
X777207D01*
Y330124D01*
X777359D01*
Y330276D01*
X777512D01*
Y330428D01*
X777664D01*
Y330580D01*
X777968D01*
Y330428D01*
D02*
G37*
%LPC*%
G36*
X614643Y366747D02*
X611966D01*
Y365665D01*
X611980Y365526D01*
Y365388D01*
X611994Y365166D01*
X612021Y364999D01*
X612035Y364874D01*
X612063Y364791D01*
X612077Y364750D01*
Y364736D01*
X612132Y364625D01*
X612188Y364528D01*
X612271Y364445D01*
X612340Y364361D01*
X612410Y364306D01*
X612465Y364264D01*
X612507Y364237D01*
X612521Y364223D01*
X612645Y364153D01*
X612784Y364098D01*
X612909Y364070D01*
X613034Y364042D01*
X613145Y364029D01*
X613228Y364015D01*
X613284D01*
X613311D01*
X613478Y364029D01*
X613630Y364042D01*
X613755Y364084D01*
X613866Y364112D01*
X613963Y364153D01*
X614032Y364195D01*
X614074Y364209D01*
X614088Y364223D01*
X614199Y364306D01*
X614296Y364389D01*
X614365Y364472D01*
X614435Y364556D01*
X614476Y364625D01*
X614504Y364680D01*
X614532Y364722D01*
Y364736D01*
X614573Y364874D01*
X614601Y365041D01*
X614615Y365235D01*
X614629Y365429D01*
X614643Y365610D01*
Y366747D01*
D02*
G37*
G36*
X919443Y544547D02*
X916766D01*
Y543465D01*
X916780Y543326D01*
Y543188D01*
X916794Y542966D01*
X916821Y542799D01*
X916835Y542674D01*
X916863Y542591D01*
X916877Y542550D01*
Y542536D01*
X916932Y542425D01*
X916988Y542328D01*
X917071Y542245D01*
X917140Y542161D01*
X917210Y542106D01*
X917265Y542064D01*
X917307Y542037D01*
X917321Y542023D01*
X917446Y541953D01*
X917584Y541898D01*
X917709Y541870D01*
X917834Y541842D01*
X917945Y541828D01*
X918028Y541815D01*
X918083D01*
X918111D01*
X918278Y541828D01*
X918430Y541842D01*
X918555Y541884D01*
X918666Y541912D01*
X918763Y541953D01*
X918832Y541995D01*
X918874Y542009D01*
X918888Y542023D01*
X918999Y542106D01*
X919096Y542189D01*
X919165Y542272D01*
X919234Y542355D01*
X919276Y542425D01*
X919304Y542480D01*
X919332Y542522D01*
Y542536D01*
X919373Y542674D01*
X919401Y542841D01*
X919415Y543035D01*
X919429Y543229D01*
X919443Y543410D01*
Y544547D01*
D02*
G37*
G36*
X921093Y532162D02*
X917903Y530387D01*
X921093D01*
Y532162D01*
D02*
G37*
G36*
X424148Y539467D02*
X421471D01*
Y538385D01*
X421485Y538246D01*
Y538107D01*
X421499Y537886D01*
X421526Y537719D01*
X421540Y537594D01*
X421568Y537511D01*
X421582Y537470D01*
Y537456D01*
X421637Y537345D01*
X421693Y537248D01*
X421776Y537164D01*
X421845Y537081D01*
X421915Y537026D01*
X421970Y536984D01*
X422012Y536956D01*
X422026Y536943D01*
X422150Y536873D01*
X422289Y536818D01*
X422414Y536790D01*
X422539Y536762D01*
X422650Y536748D01*
X422733Y536735D01*
X422789D01*
X422816D01*
X422983Y536748D01*
X423135Y536762D01*
X423260Y536804D01*
X423371Y536832D01*
X423468Y536873D01*
X423537Y536915D01*
X423579Y536929D01*
X423593Y536943D01*
X423704Y537026D01*
X423801Y537109D01*
X423870Y537192D01*
X423940Y537275D01*
X423981Y537345D01*
X424009Y537400D01*
X424037Y537442D01*
Y537456D01*
X424078Y537594D01*
X424106Y537761D01*
X424120Y537955D01*
X424134Y538149D01*
X424148Y538329D01*
Y539467D01*
D02*
G37*
G36*
X425798Y533059D02*
X422608Y531284D01*
X425798D01*
Y533059D01*
D02*
G37*
G36*
X642588Y539467D02*
X639911D01*
Y538385D01*
X639925Y538246D01*
Y538107D01*
X639939Y537886D01*
X639966Y537719D01*
X639980Y537594D01*
X640008Y537511D01*
X640022Y537470D01*
Y537456D01*
X640077Y537345D01*
X640133Y537248D01*
X640216Y537164D01*
X640285Y537081D01*
X640355Y537026D01*
X640410Y536984D01*
X640452Y536956D01*
X640466Y536943D01*
X640591Y536873D01*
X640729Y536818D01*
X640854Y536790D01*
X640979Y536762D01*
X641090Y536748D01*
X641173Y536735D01*
X641228D01*
X641256D01*
X641423Y536748D01*
X641575Y536762D01*
X641700Y536804D01*
X641811Y536832D01*
X641908Y536873D01*
X641977Y536915D01*
X642019Y536929D01*
X642033Y536943D01*
X642144Y537026D01*
X642241Y537109D01*
X642310Y537192D01*
X642380Y537275D01*
X642421Y537345D01*
X642449Y537400D01*
X642477Y537442D01*
Y537456D01*
X642518Y537594D01*
X642546Y537761D01*
X642560Y537955D01*
X642574Y538149D01*
X642588Y538329D01*
Y539467D01*
D02*
G37*
G36*
X871188D02*
X868511D01*
Y538385D01*
X868525Y538246D01*
Y538107D01*
X868539Y537886D01*
X868566Y537719D01*
X868580Y537594D01*
X868608Y537511D01*
X868622Y537470D01*
Y537456D01*
X868677Y537345D01*
X868733Y537248D01*
X868816Y537164D01*
X868885Y537081D01*
X868955Y537026D01*
X869010Y536984D01*
X869052Y536956D01*
X869066Y536943D01*
X869191Y536873D01*
X869329Y536818D01*
X869454Y536790D01*
X869579Y536762D01*
X869690Y536748D01*
X869773Y536735D01*
X869828D01*
X869856D01*
X870023Y536748D01*
X870175Y536762D01*
X870300Y536804D01*
X870411Y536832D01*
X870508Y536873D01*
X870577Y536915D01*
X870619Y536929D01*
X870633Y536943D01*
X870744Y537026D01*
X870841Y537109D01*
X870910Y537192D01*
X870980Y537275D01*
X871021Y537345D01*
X871049Y537400D01*
X871077Y537442D01*
Y537456D01*
X871118Y537594D01*
X871146Y537761D01*
X871160Y537955D01*
X871174Y538149D01*
X871188Y538329D01*
Y539467D01*
D02*
G37*
G36*
X873296Y532505D02*
X873240D01*
X873198D01*
X873171D01*
X873157D01*
X872879Y532491D01*
X872630Y532463D01*
X872436Y532408D01*
X872269Y532352D01*
X872131Y532310D01*
X872033Y532255D01*
X871978Y532227D01*
X871964Y532214D01*
X871825Y532103D01*
X871728Y531978D01*
X871659Y531853D01*
X871618Y531742D01*
X871576Y531645D01*
X871562Y531562D01*
Y531492D01*
X871576Y531340D01*
X871631Y531201D01*
X871701Y531076D01*
X871770Y530965D01*
X871853Y530882D01*
X871923Y530827D01*
X871978Y530785D01*
X871992Y530771D01*
X872172Y530674D01*
X872366Y530591D01*
X872588Y530535D01*
X872810Y530508D01*
X873004Y530480D01*
X873157Y530466D01*
X873226D01*
X873268D01*
X873296D01*
X873309D01*
X873615Y530480D01*
X873878Y530508D01*
X874100Y530549D01*
X874280Y530605D01*
X874419Y530660D01*
X874516Y530702D01*
X874572Y530729D01*
X874585Y530743D01*
X874710Y530854D01*
X874807Y530965D01*
X874863Y531076D01*
X874918Y531187D01*
X874946Y531284D01*
X874960Y531354D01*
Y531423D01*
X874946Y531576D01*
X874890Y531728D01*
X874821Y531853D01*
X874724Y531964D01*
X874641Y532061D01*
X874572Y532130D01*
X874516Y532172D01*
X874502Y532186D01*
X874308Y532297D01*
X874086Y532366D01*
X873864Y532421D01*
X873656Y532463D01*
X873462Y532491D01*
X873296Y532505D01*
D02*
G37*
G36*
X271888Y58447D02*
X269211D01*
Y57365D01*
X269225Y57226D01*
Y57087D01*
X269239Y56866D01*
X269266Y56699D01*
X269280Y56574D01*
X269308Y56491D01*
X269322Y56450D01*
Y56436D01*
X269377Y56325D01*
X269433Y56228D01*
X269516Y56144D01*
X269585Y56061D01*
X269655Y56006D01*
X269710Y55964D01*
X269752Y55936D01*
X269766Y55923D01*
X269890Y55853D01*
X270029Y55798D01*
X270154Y55770D01*
X270279Y55742D01*
X270390Y55728D01*
X270473Y55715D01*
X270529D01*
X270556D01*
X270723Y55728D01*
X270875Y55742D01*
X271000Y55784D01*
X271111Y55812D01*
X271208Y55853D01*
X271277Y55895D01*
X271319Y55909D01*
X271333Y55923D01*
X271444Y56006D01*
X271541Y56089D01*
X271610Y56172D01*
X271679Y56255D01*
X271721Y56325D01*
X271749Y56380D01*
X271777Y56422D01*
Y56436D01*
X271818Y56574D01*
X271846Y56741D01*
X271860Y56935D01*
X271874Y57129D01*
X271888Y57309D01*
Y58447D01*
D02*
G37*
G36*
X499888D02*
X497211D01*
Y57365D01*
X497225Y57226D01*
Y57087D01*
X497239Y56866D01*
X497266Y56699D01*
X497280Y56574D01*
X497308Y56491D01*
X497322Y56450D01*
Y56436D01*
X497377Y56325D01*
X497433Y56228D01*
X497516Y56144D01*
X497585Y56061D01*
X497655Y56006D01*
X497710Y55964D01*
X497752Y55936D01*
X497766Y55923D01*
X497891Y55853D01*
X498029Y55798D01*
X498154Y55770D01*
X498279Y55742D01*
X498390Y55728D01*
X498473Y55715D01*
X498529D01*
X498556D01*
X498723Y55728D01*
X498875Y55742D01*
X499000Y55784D01*
X499111Y55812D01*
X499208Y55853D01*
X499277Y55895D01*
X499319Y55909D01*
X499333Y55923D01*
X499444Y56006D01*
X499541Y56089D01*
X499610Y56172D01*
X499679Y56255D01*
X499721Y56325D01*
X499749Y56380D01*
X499777Y56422D01*
Y56436D01*
X499818Y56574D01*
X499846Y56741D01*
X499860Y56935D01*
X499874Y57129D01*
X499888Y57309D01*
Y58447D01*
D02*
G37*
G36*
X179888Y439447D02*
X177211D01*
Y438365D01*
X177225Y438226D01*
Y438088D01*
X177239Y437866D01*
X177266Y437699D01*
X177280Y437574D01*
X177308Y437491D01*
X177322Y437450D01*
Y437436D01*
X177377Y437325D01*
X177433Y437228D01*
X177516Y437145D01*
X177585Y437061D01*
X177655Y437006D01*
X177710Y436964D01*
X177752Y436936D01*
X177766Y436923D01*
X177890Y436853D01*
X178029Y436798D01*
X178154Y436770D01*
X178279Y436742D01*
X178390Y436728D01*
X178473Y436715D01*
X178528D01*
X178556D01*
X178723Y436728D01*
X178875Y436742D01*
X179000Y436784D01*
X179111Y436812D01*
X179208Y436853D01*
X179277Y436895D01*
X179319Y436909D01*
X179333Y436923D01*
X179444Y437006D01*
X179541Y437089D01*
X179610Y437172D01*
X179680Y437255D01*
X179721Y437325D01*
X179749Y437380D01*
X179777Y437422D01*
Y437436D01*
X179818Y437574D01*
X179846Y437741D01*
X179860Y437935D01*
X179874Y438129D01*
X179888Y438309D01*
Y439447D01*
D02*
G37*
G36*
X180734Y426618D02*
X180581D01*
X180484D01*
X180415D01*
X180387D01*
X179998D01*
X179652Y426604D01*
X179347Y426591D01*
X179069Y426577D01*
X178820Y426563D01*
X178598Y426535D01*
X178404Y426521D01*
X178237Y426494D01*
X178099Y426466D01*
X177974Y426452D01*
X177877Y426424D01*
X177807Y426410D01*
X177752Y426396D01*
X177710Y426383D01*
X177682Y426369D01*
X177488Y426272D01*
X177350Y426161D01*
X177239Y426036D01*
X177169Y425925D01*
X177128Y425828D01*
X177114Y425745D01*
X177100Y425689D01*
Y425675D01*
X177128Y425523D01*
X177197Y425384D01*
X177280Y425273D01*
X177391Y425176D01*
X177502Y425093D01*
X177585Y425037D01*
X177655Y425010D01*
X177682Y424996D01*
X177807Y424954D01*
X177960Y424913D01*
X178140Y424871D01*
X178348Y424843D01*
X178556Y424815D01*
X178792Y424802D01*
X179250Y424760D01*
X179471D01*
X179680Y424746D01*
X179874D01*
X180040Y424732D01*
X180179D01*
X180290D01*
X180359D01*
X180387D01*
X180775D01*
X181122Y424746D01*
X181427Y424760D01*
X181704Y424774D01*
X181954Y424788D01*
X182176Y424815D01*
X182370Y424843D01*
X182536Y424857D01*
X182675Y424885D01*
X182800Y424913D01*
X182897Y424940D01*
X182966Y424954D01*
X183022Y424968D01*
X183063Y424982D01*
X183077Y424996D01*
X183091D01*
X183285Y425093D01*
X183424Y425204D01*
X183521Y425315D01*
X183590Y425426D01*
X183632Y425523D01*
X183646Y425606D01*
X183660Y425662D01*
Y425675D01*
X183632Y425828D01*
X183577Y425967D01*
X183479Y426091D01*
X183368Y426189D01*
X183272Y426272D01*
X183174Y426327D01*
X183119Y426355D01*
X183091Y426369D01*
X182966Y426410D01*
X182814Y426452D01*
X182633Y426480D01*
X182425Y426507D01*
X182218Y426535D01*
X181982Y426563D01*
X181524Y426591D01*
X181302D01*
X181094Y426604D01*
X180900D01*
X180734Y426618D01*
D02*
G37*
%LPD*%
D10*
X8895Y247547D02*
G03*
X15245Y253897I0J6350D01*
G01*
X6355Y247547D02*
G03*
X5Y241197I0J-6350D01*
G01*
X1339855Y624840D02*
G03*
X1329695Y635000I-10160J0D01*
G01*
Y0D02*
G03*
X1339855Y10160I0J10160D01*
G01*
X5Y10160D02*
G03*
X10165Y-0I10160J0D01*
G01*
Y635000D02*
G03*
X5Y624840I0J-10160D01*
G01*
X5Y393803D02*
G03*
X6355Y387453I6350J0D01*
G01*
X15245Y381103D02*
G03*
X8895Y387453I-6350J0D01*
G01*
X1168597Y635000D02*
G03*
X1162247Y628650I0J-6350D01*
G01*
X1155897Y619760D02*
G03*
X1162247Y626110I0J6350D01*
G01*
X1022342D02*
G03*
X1028692Y619760I6350J0D01*
G01*
X1022342Y628650D02*
G03*
X1015992Y635000I-6350J0D01*
G01*
X10165Y635000D02*
G03*
X5Y625094I-127J-10033D01*
G01*
Y10160D02*
G03*
X10165Y-0I10160J0D01*
G01*
X965205Y71098D02*
Y81098D01*
X960205Y76098D02*
X970205D01*
X660405Y121898D02*
Y131898D01*
X655405Y126898D02*
X665405D01*
X1282705Y458550D02*
Y468550D01*
X1277705Y463550D02*
X1287705D01*
X901705Y553800D02*
Y563800D01*
X896705Y558800D02*
X906705D01*
X660405Y401298D02*
Y411298D01*
X655405Y406298D02*
X665405D01*
X139705Y71098D02*
Y81098D01*
X134705Y76098D02*
X144705D01*
X10165Y-0D02*
X820995Y0D01*
X973600D02*
X1329695Y0D01*
X1162247Y626110D02*
Y628650D01*
X820933Y0D02*
X973600D01*
X6355Y387453D02*
X8895D01*
X6355Y247547D02*
X8895D01*
X15245Y253897D02*
Y381103D01*
X5Y393803D02*
Y624840D01*
X1339855Y454660D02*
X1365255Y429260D01*
Y101600D02*
Y429260D01*
X1339855Y76200D02*
X1365255Y101600D01*
X1339855Y10160D02*
Y76200D01*
X5Y10160D02*
Y241197D01*
X1339855Y454660D02*
Y624840D01*
X1168597Y635000D02*
X1329695Y635000D01*
X1028692Y619760D02*
X1155897D01*
X1022342Y626110D02*
Y628650D01*
X623570Y342900D02*
X631088D01*
X648970Y360781D02*
Y368300D01*
X623570Y292100D02*
Y368300D01*
X674370D01*
Y292100D02*
Y368300D01*
X623570Y292100D02*
X674370D01*
X444505Y571398D02*
X647705D01*
X444505Y545998D02*
X647705D01*
X444505D02*
Y571398D01*
X647705Y545998D02*
Y571398D01*
X622305Y563778D02*
Y571398D01*
Y545998D02*
Y553618D01*
X175265Y571398D02*
X429265D01*
X175265Y545998D02*
X429265Y545998D01*
X175265Y545998D02*
Y571398D01*
X429265Y545998D02*
Y571398D01*
X403865Y563778D02*
Y571398D01*
Y545998D02*
Y553618D01*
X520705Y81178D02*
Y88798D01*
Y63398D02*
Y71018D01*
X495305Y63398D02*
Y88798D01*
X647705Y63398D02*
Y88798D01*
X495305D02*
X647705D01*
X495305Y63398D02*
X647705D01*
X673105Y545998D02*
Y571399D01*
Y545998D02*
X876305D01*
X673105Y571399D02*
X876305D01*
X266705Y63398D02*
X469905D01*
X266705Y88798D02*
X469905D01*
Y63398D02*
Y88798D01*
X266705Y63398D02*
Y88798D01*
X292105Y63398D02*
Y71018D01*
Y81178D02*
Y88798D01*
X660405Y401298D02*
Y411298D01*
X655405Y406298D02*
X665405D01*
X965205Y71098D02*
Y81098D01*
X960205Y76098D02*
X970205D01*
X660405Y121898D02*
Y131898D01*
X655405Y126898D02*
X665405D01*
X139705Y71098D02*
Y81098D01*
X134705Y76098D02*
X144705D01*
X152405Y553698D02*
Y563698D01*
X147405Y558698D02*
X157405D01*
X10165Y0D02*
X980953D01*
X10165Y635000D02*
X1015992D01*
X850905Y545998D02*
Y553618D01*
Y563778D02*
Y571398D01*
X876305Y545998D02*
Y571398D01*
X175265Y444601D02*
Y470001D01*
X200665Y444601D02*
Y452221D01*
Y462381D02*
Y469900D01*
X505465Y444601D02*
Y470001D01*
X175265Y470001D02*
X505465Y470001D01*
X175265Y444601D02*
X505465D01*
X927100Y292100D02*
Y546100D01*
X926999Y520700D02*
X934619D01*
X927100Y546100D02*
X977900D01*
Y292100D02*
Y546100D01*
X952500Y538582D02*
Y546100D01*
X927100Y292100D02*
X977900D01*
X-1000Y153000D02*
Y222000D01*
D12*
X1363400Y658591D02*
Y643356D01*
X1355782D01*
X1353243Y645895D01*
Y648434D01*
X1355782Y650974D01*
X1363400D01*
X1355782D01*
X1353243Y653513D01*
Y656052D01*
X1355782Y658591D01*
X1363400D01*
X1348165Y643356D02*
X1343087D01*
X1345626D01*
Y658591D01*
X1348165Y656052D01*
X0Y10165D02*
G03*
X10165Y0I10165J0D01*
G01*
X1365000Y625000D02*
G03*
X1355000Y635000I-10000J0D01*
G01*
X9726Y635000D02*
G03*
X0Y625274I0J-9726D01*
G01*
X1355314Y269564D02*
G03*
X1365000Y279250I0J9686D01*
G01*
X1213316Y269564D02*
G03*
X1200616Y256864I0J-12700D01*
G01*
X1187916Y0D02*
G03*
X1200616Y12700I0J12700D01*
G01*
X0Y10165D02*
Y625274D01*
X10165Y0D02*
X907093D01*
X9726Y635000D02*
X1355000Y635000D01*
X1365000Y624840D02*
X1365000Y279250D01*
X1200616Y12700D02*
Y256864D01*
X1365000Y279250D02*
Y281877D01*
X1213316Y269564D02*
X1355314D01*
X1180429Y0D02*
X1187916D01*
X907093D02*
X1180429D01*
D55*
X909195Y444159D02*
X906696Y446659D01*
X901698D01*
X899198Y444159D01*
Y434162D01*
X901698Y431663D01*
X906696D01*
X909195Y434162D01*
Y444159D01*
X894200Y434162D02*
X891701Y431663D01*
X886702D01*
X884203Y434162D01*
Y444159D01*
X886702Y446659D01*
X891701D01*
X894200Y444159D01*
Y441660D01*
X891701Y439161D01*
X884203D01*
X879205Y431663D02*
Y434162D01*
X876706D01*
Y431663D01*
X879205D01*
X866709Y444159D02*
X864210Y446659D01*
X859211D01*
X856712Y444159D01*
Y434162D01*
X859211Y431663D01*
X864210D01*
X866709Y434162D01*
Y444159D01*
X841717Y446659D02*
X846715Y444159D01*
X851714Y439161D01*
Y434162D01*
X849215Y431663D01*
X844216D01*
X841717Y434162D01*
Y436662D01*
X844216Y439161D01*
X851714D01*
X836719Y431663D02*
Y434162D01*
X834219D01*
Y431663D01*
X836719D01*
X814226D02*
X824223D01*
X814226Y441660D01*
Y444159D01*
X816725Y446659D01*
X821723D01*
X824223Y444159D01*
X809228D02*
X806728Y446659D01*
X801730D01*
X799231Y444159D01*
Y434162D01*
X801730Y431663D01*
X806728D01*
X809228Y434162D01*
Y444159D01*
X784236Y431663D02*
X794232D01*
X784236Y441660D01*
Y444159D01*
X786735Y446659D01*
X791733D01*
X794232Y444159D01*
X779237D02*
X776738Y446659D01*
X771740D01*
X769240Y444159D01*
Y441660D01*
X771740Y439161D01*
X774239D01*
X771740D01*
X769240Y436662D01*
Y434162D01*
X771740Y431663D01*
X776738D01*
X779237Y434162D01*
X899198Y472159D02*
X901698Y474659D01*
X906696D01*
X909195Y472159D01*
Y469660D01*
X906696Y467161D01*
X901698D01*
X899198Y464662D01*
Y462163D01*
X901698Y459663D01*
X906696D01*
X909195Y462163D01*
X894200Y469660D02*
Y462163D01*
X891701Y459663D01*
X884203D01*
Y457164D01*
X886702Y454665D01*
X889202D01*
X884203Y459663D02*
Y469660D01*
X879205Y459663D02*
X874206D01*
X876706D01*
Y474659D01*
X879205D01*
X866709Y469660D02*
X861711Y459663D01*
X856712Y469660D01*
X844216Y459663D02*
X849215D01*
X851714Y462163D01*
Y467161D01*
X849215Y469660D01*
X844216D01*
X841717Y467161D01*
Y464662D01*
X851714D01*
X836719Y459663D02*
X829221D01*
X826722Y462163D01*
X829221Y464662D01*
X834219D01*
X836719Y467161D01*
X834219Y469660D01*
X826722D01*
X819224Y472159D02*
Y469660D01*
X821723D01*
X816725D01*
X819224D01*
Y462163D01*
X816725Y459663D01*
X809228Y469660D02*
Y459663D01*
Y464662D01*
X806728Y467161D01*
X804229Y469660D01*
X801730D01*
X786735Y459663D02*
X791733D01*
X794232Y462163D01*
Y467161D01*
X791733Y469660D01*
X786735D01*
X784236Y467161D01*
Y464662D01*
X794232D01*
X764242Y469660D02*
X759244Y459663D01*
X754245Y469660D01*
X746748D02*
X741749D01*
X739250Y467161D01*
Y459663D01*
X746748D01*
X749247Y462163D01*
X746748Y464662D01*
X739250D01*
X734252Y459663D02*
Y469660D01*
X726754D01*
X724255Y467161D01*
Y459663D01*
X704261Y474659D02*
Y459663D01*
Y464662D01*
X694265Y474659D01*
X701762Y467161D01*
X694265Y459663D01*
X686767Y469660D02*
X681769D01*
X679270Y467161D01*
Y459663D01*
X686767D01*
X689266Y462163D01*
X686767Y464662D01*
X679270D01*
X674271Y454665D02*
Y469660D01*
X666774D01*
X664275Y467161D01*
Y462163D01*
X666774Y459663D01*
X674271D01*
X659276Y454665D02*
Y469660D01*
X651778D01*
X649279Y467161D01*
Y462163D01*
X651778Y459663D01*
X659276D01*
X636783D02*
X641782D01*
X644281Y462163D01*
Y467161D01*
X641782Y469660D01*
X636783D01*
X634284Y467161D01*
Y464662D01*
X644281D01*
X629286Y459663D02*
X624287D01*
X626787D01*
Y474659D01*
X629286D01*
X909195Y501659D02*
X899198D01*
X904197D01*
Y486663D01*
X886702D02*
X891701D01*
X894200Y489162D01*
Y494161D01*
X891701Y496660D01*
X886702D01*
X884203Y494161D01*
Y491662D01*
X894200D01*
X879205Y486663D02*
X874206D01*
X876706D01*
Y501659D01*
X879205D01*
X859211Y486663D02*
X864210D01*
X866709Y489162D01*
Y494161D01*
X864210Y496660D01*
X859211D01*
X856712Y494161D01*
Y491662D01*
X866709D01*
X851714Y486663D02*
Y496660D01*
X849215D01*
X846715Y494161D01*
Y486663D01*
Y494161D01*
X844216Y496660D01*
X841717Y494161D01*
Y486663D01*
X829221D02*
X834219D01*
X836719Y489162D01*
Y494161D01*
X834219Y496660D01*
X829221D01*
X826722Y494161D01*
Y491662D01*
X836719D01*
X819224Y499159D02*
Y496660D01*
X821723D01*
X816725D01*
X819224D01*
Y489162D01*
X816725Y486663D01*
X809228Y496660D02*
Y486663D01*
Y491662D01*
X806728Y494161D01*
X804229Y496660D01*
X801730D01*
X794232D02*
Y489162D01*
X791733Y486663D01*
X784236D01*
Y484164D01*
X786735Y481665D01*
X789234D01*
X784236Y486663D02*
Y496660D01*
X764242Y501659D02*
Y486663D01*
X756745D01*
X754245Y489162D01*
Y491662D01*
X756745Y494161D01*
X764242D01*
X756745D01*
X754245Y496660D01*
Y499159D01*
X756745Y501659D01*
X764242D01*
X746748Y486663D02*
X741749D01*
X739250Y489162D01*
Y494161D01*
X741749Y496660D01*
X746748D01*
X749247Y494161D01*
Y489162D01*
X746748Y486663D01*
X731753Y496660D02*
X726754D01*
X724255Y494161D01*
Y486663D01*
X731753D01*
X734252Y489162D01*
X731753Y491662D01*
X724255D01*
X719257Y496660D02*
Y486663D01*
Y491662D01*
X716758Y494161D01*
X714258Y496660D01*
X711759D01*
X694265Y501659D02*
Y486663D01*
X701762D01*
X704261Y489162D01*
Y494161D01*
X701762Y496660D01*
X694265D01*
M02*
