G04*
G04 #@! TF.GenerationSoftware,Altium Limited,Altium Designer,22.0.2 (36)*
G04*
G04 Layer_Physical_Order=4*
G04 Layer_Color=16711680*
%FSLAX44Y44*%
%MOMM*%
G71*
G04*
G04 #@! TF.SameCoordinates,2F7B36FA-1CAB-4409-8D5E-7B144DD93BD5*
G04*
G04*
G04 #@! TF.FilePolarity,Positive*
G04*
G01*
G75*
%ADD10C,0.1500*%
%ADD12C,0.2540*%
%ADD24R,5.8000X2.4000*%
%ADD42C,0.6000*%
%ADD43C,2.0000*%
%ADD44C,5.0000*%
%ADD45C,3.2000*%
G04:AMPARAMS|DCode=46|XSize=2.032mm|YSize=2.032mm|CornerRadius=0.508mm|HoleSize=0mm|Usage=FLASHONLY|Rotation=270.000|XOffset=0mm|YOffset=0mm|HoleType=Round|Shape=RoundedRectangle|*
%AMROUNDEDRECTD46*
21,1,2.0320,1.0160,0,0,270.0*
21,1,1.0160,2.0320,0,0,270.0*
1,1,1.0160,-0.5080,-0.5080*
1,1,1.0160,-0.5080,0.5080*
1,1,1.0160,0.5080,0.5080*
1,1,1.0160,0.5080,-0.5080*
%
%ADD46ROUNDEDRECTD46*%
%ADD47P,2.1994X8X292.5*%
%ADD48P,2.1994X8X202.5*%
G04:AMPARAMS|DCode=49|XSize=2.032mm|YSize=2.032mm|CornerRadius=0.508mm|HoleSize=0mm|Usage=FLASHONLY|Rotation=180.000|XOffset=0mm|YOffset=0mm|HoleType=Round|Shape=RoundedRectangle|*
%AMROUNDEDRECTD49*
21,1,2.0320,1.0160,0,0,180.0*
21,1,1.0160,2.0320,0,0,180.0*
1,1,1.0160,-0.5080,0.5080*
1,1,1.0160,0.5080,0.5080*
1,1,1.0160,0.5080,-0.5080*
1,1,1.0160,-0.5080,-0.5080*
%
%ADD49ROUNDEDRECTD49*%
%ADD50C,1.6000*%
%ADD53C,0.5000*%
%ADD58C,1.0000*%
%ADD60C,3.0000*%
G36*
X1357917Y634616D02*
X1359737Y633862D01*
X1361375Y632768D01*
X1362767Y631375D01*
X1363862Y629737D01*
X1364615Y627917D01*
X1365000Y625985D01*
Y625000D01*
Y279250D01*
Y278296D01*
X1364628Y276425D01*
X1363898Y274662D01*
X1362838Y273076D01*
X1361488Y271727D01*
X1359902Y270667D01*
X1358139Y269937D01*
X1356268Y269564D01*
X1213316D01*
X1212071Y269503D01*
X1209629Y269018D01*
X1207329Y268065D01*
X1205259Y266682D01*
X1203499Y264921D01*
X1202115Y262851D01*
X1201163Y260551D01*
X1200677Y258109D01*
X1200616Y256864D01*
Y12748D01*
Y11492D01*
X1200126Y9029D01*
X1199165Y6709D01*
X1197770Y4622D01*
X1195994Y2846D01*
X1193906Y1451D01*
X1191587Y490D01*
X1189124Y0D01*
X8261D01*
X6491Y352D01*
X4823Y1043D01*
X3322Y2046D01*
X2046Y3322D01*
X1043Y4823D01*
X352Y6491D01*
X0Y8261D01*
Y9164D01*
Y625274D01*
Y626232D01*
X374Y628111D01*
X1107Y629881D01*
X2171Y631474D01*
X3526Y632829D01*
X5119Y633893D01*
X6889Y634626D01*
X8768Y635000D01*
X1355985D01*
X1357917Y634616D01*
D02*
G37*
%LPC*%
G36*
X418079Y570300D02*
X415051D01*
X412126Y569516D01*
X409504Y568002D01*
X407363Y565861D01*
X405849Y563239D01*
X405065Y560314D01*
Y557286D01*
X405849Y554361D01*
X407363Y551739D01*
X409504Y549598D01*
X412126Y548083D01*
X415051Y547300D01*
X418079D01*
X421004Y548083D01*
X423626Y549598D01*
X425767Y551739D01*
X427281Y554361D01*
X428065Y557286D01*
Y560314D01*
X427281Y563239D01*
X425767Y565861D01*
X423626Y568002D01*
X421004Y569516D01*
X418079Y570300D01*
D02*
G37*
G36*
X392679D02*
X389651D01*
X386726Y569516D01*
X384104Y568002D01*
X381963Y565861D01*
X380449Y563239D01*
X379665Y560314D01*
Y557286D01*
X380449Y554361D01*
X381963Y551739D01*
X384104Y549598D01*
X386726Y548083D01*
X389651Y547300D01*
X392679D01*
X395604Y548083D01*
X398226Y549598D01*
X400367Y551739D01*
X401881Y554361D01*
X402665Y557286D01*
Y560314D01*
X401881Y563239D01*
X400367Y565861D01*
X398226Y568002D01*
X395604Y569516D01*
X392679Y570300D01*
D02*
G37*
G36*
X367279D02*
X364251D01*
X361326Y569516D01*
X358704Y568002D01*
X356563Y565861D01*
X355049Y563239D01*
X354265Y560314D01*
Y557286D01*
X355049Y554361D01*
X356563Y551739D01*
X358704Y549598D01*
X361326Y548083D01*
X364251Y547300D01*
X367279D01*
X370204Y548083D01*
X372826Y549598D01*
X374967Y551739D01*
X376481Y554361D01*
X377265Y557286D01*
Y560314D01*
X376481Y563239D01*
X374967Y565861D01*
X372826Y568002D01*
X370204Y569516D01*
X367279Y570300D01*
D02*
G37*
G36*
X341879D02*
X338851D01*
X335926Y569516D01*
X333304Y568002D01*
X331163Y565861D01*
X329649Y563239D01*
X328865Y560314D01*
Y557286D01*
X329649Y554361D01*
X331163Y551739D01*
X333304Y549598D01*
X335926Y548083D01*
X338851Y547300D01*
X341879D01*
X344804Y548083D01*
X347426Y549598D01*
X349567Y551739D01*
X351081Y554361D01*
X351865Y557286D01*
Y560314D01*
X351081Y563239D01*
X349567Y565861D01*
X347426Y568002D01*
X344804Y569516D01*
X341879Y570300D01*
D02*
G37*
G36*
X316479D02*
X313451D01*
X310526Y569516D01*
X307904Y568002D01*
X305763Y565861D01*
X304249Y563239D01*
X303465Y560314D01*
Y557286D01*
X304249Y554361D01*
X305763Y551739D01*
X307904Y549598D01*
X310526Y548083D01*
X313451Y547300D01*
X316479D01*
X319404Y548083D01*
X322026Y549598D01*
X324167Y551739D01*
X325681Y554361D01*
X326465Y557286D01*
Y560314D01*
X325681Y563239D01*
X324167Y565861D01*
X322026Y568002D01*
X319404Y569516D01*
X316479Y570300D01*
D02*
G37*
G36*
X291079D02*
X288051D01*
X285126Y569516D01*
X282504Y568002D01*
X280363Y565861D01*
X278849Y563239D01*
X278065Y560314D01*
Y557286D01*
X278849Y554361D01*
X280363Y551739D01*
X282504Y549598D01*
X285126Y548083D01*
X288051Y547300D01*
X291079D01*
X294004Y548083D01*
X296626Y549598D01*
X298767Y551739D01*
X300281Y554361D01*
X301065Y557286D01*
Y560314D01*
X300281Y563239D01*
X298767Y565861D01*
X296626Y568002D01*
X294004Y569516D01*
X291079Y570300D01*
D02*
G37*
G36*
X240279D02*
X237251D01*
X234326Y569516D01*
X231704Y568002D01*
X229563Y565861D01*
X228049Y563239D01*
X227265Y560314D01*
Y557286D01*
X228049Y554361D01*
X229563Y551739D01*
X231704Y549598D01*
X234326Y548083D01*
X237251Y547300D01*
X240279D01*
X243204Y548083D01*
X245826Y549598D01*
X247967Y551739D01*
X249481Y554361D01*
X250265Y557286D01*
Y560314D01*
X249481Y563239D01*
X247967Y565861D01*
X245826Y568002D01*
X243204Y569516D01*
X240279Y570300D01*
D02*
G37*
G36*
X214879D02*
X211851D01*
X208926Y569516D01*
X206304Y568002D01*
X204163Y565861D01*
X202649Y563239D01*
X201865Y560314D01*
Y557286D01*
X202649Y554361D01*
X204163Y551739D01*
X206304Y549598D01*
X208926Y548083D01*
X211851Y547300D01*
X214879D01*
X217804Y548083D01*
X220426Y549598D01*
X222567Y551739D01*
X224081Y554361D01*
X224865Y557286D01*
Y560314D01*
X224081Y563239D01*
X222567Y565861D01*
X220426Y568002D01*
X217804Y569516D01*
X214879Y570300D01*
D02*
G37*
G36*
X865119Y570300D02*
X862091D01*
X859166Y569516D01*
X856544Y568002D01*
X854403Y565861D01*
X852889Y563239D01*
X852105Y560314D01*
Y557286D01*
X852889Y554361D01*
X854403Y551739D01*
X856544Y549598D01*
X859166Y548083D01*
X862091Y547300D01*
X865119D01*
X868044Y548083D01*
X870666Y549598D01*
X872807Y551739D01*
X874321Y554361D01*
X875105Y557286D01*
Y560314D01*
X874321Y563239D01*
X872807Y565861D01*
X870666Y568002D01*
X868044Y569516D01*
X865119Y570300D01*
D02*
G37*
G36*
X839719D02*
X836691D01*
X833766Y569516D01*
X831144Y568002D01*
X829003Y565861D01*
X827489Y563239D01*
X826705Y560314D01*
Y557286D01*
X827489Y554361D01*
X829003Y551739D01*
X831144Y549598D01*
X833766Y548083D01*
X836691Y547300D01*
X839719D01*
X842644Y548083D01*
X845266Y549598D01*
X847407Y551739D01*
X848921Y554361D01*
X849705Y557286D01*
Y560314D01*
X848921Y563239D01*
X847407Y565861D01*
X845266Y568002D01*
X842644Y569516D01*
X839719Y570300D01*
D02*
G37*
G36*
X814319D02*
X811291D01*
X808366Y569516D01*
X805744Y568002D01*
X803603Y565861D01*
X802089Y563239D01*
X801305Y560314D01*
Y557286D01*
X802089Y554361D01*
X803603Y551739D01*
X805744Y549598D01*
X808366Y548083D01*
X811291Y547300D01*
X814319D01*
X817244Y548083D01*
X819866Y549598D01*
X822007Y551739D01*
X823521Y554361D01*
X824305Y557286D01*
Y560314D01*
X823521Y563239D01*
X822007Y565861D01*
X819866Y568002D01*
X817244Y569516D01*
X814319Y570300D01*
D02*
G37*
G36*
X788919D02*
X785891D01*
X782966Y569516D01*
X780344Y568002D01*
X778203Y565861D01*
X776689Y563239D01*
X775905Y560314D01*
Y557286D01*
X776689Y554361D01*
X778203Y551739D01*
X780344Y549598D01*
X782966Y548083D01*
X785891Y547300D01*
X788919D01*
X791844Y548083D01*
X794466Y549598D01*
X796607Y551739D01*
X798121Y554361D01*
X798905Y557286D01*
Y560314D01*
X798121Y563239D01*
X796607Y565861D01*
X794466Y568002D01*
X791844Y569516D01*
X788919Y570300D01*
D02*
G37*
G36*
X763519D02*
X760491D01*
X757566Y569516D01*
X754944Y568002D01*
X752803Y565861D01*
X751289Y563239D01*
X750505Y560314D01*
Y557286D01*
X751289Y554361D01*
X752803Y551739D01*
X754944Y549598D01*
X757566Y548083D01*
X760491Y547300D01*
X763519D01*
X766444Y548083D01*
X769066Y549598D01*
X771207Y551739D01*
X772721Y554361D01*
X773505Y557286D01*
Y560314D01*
X772721Y563239D01*
X771207Y565861D01*
X769066Y568002D01*
X766444Y569516D01*
X763519Y570300D01*
D02*
G37*
G36*
X738119D02*
X735091D01*
X732166Y569516D01*
X729544Y568002D01*
X727403Y565861D01*
X725889Y563239D01*
X725105Y560314D01*
Y557286D01*
X725889Y554361D01*
X727403Y551739D01*
X729544Y549598D01*
X732166Y548083D01*
X735091Y547300D01*
X738119D01*
X741044Y548083D01*
X743666Y549598D01*
X745807Y551739D01*
X747321Y554361D01*
X748105Y557286D01*
Y560314D01*
X747321Y563239D01*
X745807Y565861D01*
X743666Y568002D01*
X741044Y569516D01*
X738119Y570300D01*
D02*
G37*
G36*
X712719D02*
X709691D01*
X706766Y569516D01*
X704144Y568002D01*
X702003Y565861D01*
X700489Y563239D01*
X699705Y560314D01*
Y557286D01*
X700489Y554361D01*
X702003Y551739D01*
X704144Y549598D01*
X706766Y548083D01*
X709691Y547300D01*
X712719D01*
X715644Y548083D01*
X718266Y549598D01*
X720407Y551739D01*
X721921Y554361D01*
X722705Y557286D01*
Y560314D01*
X721921Y563239D01*
X720407Y565861D01*
X718266Y568002D01*
X715644Y569516D01*
X712719Y570300D01*
D02*
G37*
G36*
X687319D02*
X684291D01*
X681366Y569516D01*
X678744Y568002D01*
X676603Y565861D01*
X675089Y563239D01*
X674305Y560314D01*
Y557286D01*
X675089Y554361D01*
X676603Y551739D01*
X678744Y549598D01*
X681366Y548083D01*
X684291Y547300D01*
X687319D01*
X690244Y548083D01*
X692866Y549598D01*
X695007Y551739D01*
X696521Y554361D01*
X697305Y557286D01*
Y560314D01*
X696521Y563239D01*
X695007Y565861D01*
X692866Y568002D01*
X690244Y569516D01*
X687319Y570300D01*
D02*
G37*
G36*
X636519D02*
X633491D01*
X630566Y569516D01*
X627944Y568002D01*
X625803Y565861D01*
X624289Y563239D01*
X623505Y560314D01*
Y557286D01*
X624289Y554361D01*
X625803Y551739D01*
X627944Y549598D01*
X630566Y548083D01*
X633491Y547300D01*
X636519D01*
X639444Y548083D01*
X642066Y549598D01*
X644207Y551739D01*
X645721Y554361D01*
X646505Y557286D01*
Y560314D01*
X645721Y563239D01*
X644207Y565861D01*
X642066Y568002D01*
X639444Y569516D01*
X636519Y570300D01*
D02*
G37*
G36*
X611119D02*
X608091D01*
X605166Y569516D01*
X602544Y568002D01*
X600403Y565861D01*
X598889Y563239D01*
X598105Y560314D01*
Y557286D01*
X598889Y554361D01*
X600403Y551739D01*
X602544Y549598D01*
X605166Y548083D01*
X608091Y547300D01*
X611119D01*
X614044Y548083D01*
X616666Y549598D01*
X618807Y551739D01*
X620321Y554361D01*
X621105Y557286D01*
Y560314D01*
X620321Y563239D01*
X618807Y565861D01*
X616666Y568002D01*
X614044Y569516D01*
X611119Y570300D01*
D02*
G37*
G36*
X585719D02*
X582691D01*
X579766Y569516D01*
X577144Y568002D01*
X575003Y565861D01*
X573489Y563239D01*
X572705Y560314D01*
Y557286D01*
X573489Y554361D01*
X575003Y551739D01*
X577144Y549598D01*
X579766Y548083D01*
X582691Y547300D01*
X585719D01*
X588644Y548083D01*
X591266Y549598D01*
X593407Y551739D01*
X594921Y554361D01*
X595705Y557286D01*
Y560314D01*
X594921Y563239D01*
X593407Y565861D01*
X591266Y568002D01*
X588644Y569516D01*
X585719Y570300D01*
D02*
G37*
G36*
X560319D02*
X557291D01*
X554366Y569516D01*
X551744Y568002D01*
X549603Y565861D01*
X548089Y563239D01*
X547305Y560314D01*
Y557286D01*
X548089Y554361D01*
X549603Y551739D01*
X551744Y549598D01*
X554366Y548083D01*
X557291Y547300D01*
X560319D01*
X563244Y548083D01*
X565866Y549598D01*
X568007Y551739D01*
X569521Y554361D01*
X570305Y557286D01*
Y560314D01*
X569521Y563239D01*
X568007Y565861D01*
X565866Y568002D01*
X563244Y569516D01*
X560319Y570300D01*
D02*
G37*
G36*
X534919D02*
X531891D01*
X528966Y569516D01*
X526344Y568002D01*
X524203Y565861D01*
X522689Y563239D01*
X521905Y560314D01*
Y557286D01*
X522689Y554361D01*
X524203Y551739D01*
X526344Y549598D01*
X528966Y548083D01*
X531891Y547300D01*
X534919D01*
X537844Y548083D01*
X540466Y549598D01*
X542607Y551739D01*
X544121Y554361D01*
X544905Y557286D01*
Y560314D01*
X544121Y563239D01*
X542607Y565861D01*
X540466Y568002D01*
X537844Y569516D01*
X534919Y570300D01*
D02*
G37*
G36*
X509519D02*
X506491D01*
X503566Y569516D01*
X500944Y568002D01*
X498803Y565861D01*
X497289Y563239D01*
X496505Y560314D01*
Y557286D01*
X497289Y554361D01*
X498803Y551739D01*
X500944Y549598D01*
X503566Y548083D01*
X506491Y547300D01*
X509519D01*
X512444Y548083D01*
X515066Y549598D01*
X517207Y551739D01*
X518721Y554361D01*
X519505Y557286D01*
Y560314D01*
X518721Y563239D01*
X517207Y565861D01*
X515066Y568002D01*
X512444Y569516D01*
X509519Y570300D01*
D02*
G37*
G36*
X484119D02*
X481091D01*
X478166Y569516D01*
X475544Y568002D01*
X473403Y565861D01*
X471889Y563239D01*
X471105Y560314D01*
Y557286D01*
X471889Y554361D01*
X473403Y551739D01*
X475544Y549598D01*
X478166Y548083D01*
X481091Y547300D01*
X484119D01*
X487044Y548083D01*
X489666Y549598D01*
X491807Y551739D01*
X493321Y554361D01*
X494105Y557286D01*
Y560314D01*
X493321Y563239D01*
X491807Y565861D01*
X489666Y568002D01*
X487044Y569516D01*
X484119Y570300D01*
D02*
G37*
G36*
X458719D02*
X455691D01*
X452766Y569516D01*
X450144Y568002D01*
X448003Y565861D01*
X446489Y563239D01*
X445705Y560314D01*
Y557286D01*
X446489Y554361D01*
X448003Y551739D01*
X450144Y549598D01*
X452766Y548083D01*
X455691Y547300D01*
X458719D01*
X461644Y548083D01*
X464266Y549598D01*
X466407Y551739D01*
X467921Y554361D01*
X468705Y557286D01*
Y560314D01*
X467921Y563239D01*
X466407Y565861D01*
X464266Y568002D01*
X461644Y569516D01*
X458719Y570300D01*
D02*
G37*
G36*
X903423Y576300D02*
X899976D01*
X896595Y575627D01*
X893410Y574308D01*
X890544Y572393D01*
X888106Y569955D01*
X886191Y567089D01*
X884872Y563904D01*
X884199Y560523D01*
Y557076D01*
X884872Y553695D01*
X886191Y550510D01*
X888106Y547644D01*
X890544Y545207D01*
X893410Y543292D01*
X896595Y541972D01*
X899976Y541300D01*
X903423D01*
X906804Y541972D01*
X909989Y543292D01*
X912855Y545207D01*
X915292Y547644D01*
X917207Y550510D01*
X918527Y553695D01*
X919199Y557076D01*
Y560523D01*
X918527Y563904D01*
X917207Y567089D01*
X915292Y569955D01*
X912855Y572393D01*
X909989Y574308D01*
X906804Y575627D01*
X903423Y576300D01*
D02*
G37*
G36*
X141423Y576299D02*
X137976D01*
X134595Y575627D01*
X131410Y574308D01*
X128544Y572392D01*
X126106Y569955D01*
X124191Y567089D01*
X122872Y563904D01*
X122199Y560523D01*
Y557076D01*
X122872Y553695D01*
X124191Y550510D01*
X126106Y547644D01*
X128544Y545206D01*
X131410Y543291D01*
X134595Y541972D01*
X137976Y541299D01*
X141423D01*
X144804Y541972D01*
X147989Y543291D01*
X150855Y545206D01*
X153292Y547644D01*
X155208Y550510D01*
X156527Y553695D01*
X157199Y557076D01*
Y560523D01*
X156527Y563904D01*
X155208Y567089D01*
X153292Y569955D01*
X150855Y572392D01*
X147989Y574308D01*
X144804Y575627D01*
X141423Y576299D01*
D02*
G37*
G36*
X966714Y544900D02*
X963686D01*
X960761Y544116D01*
X958139Y542602D01*
X955998Y540461D01*
X954484Y537839D01*
X953700Y534914D01*
Y531886D01*
X954484Y528961D01*
X955998Y526339D01*
X958139Y524198D01*
X960761Y522684D01*
X963686Y521900D01*
X966714D01*
X969639Y522684D01*
X972261Y524198D01*
X974402Y526339D01*
X975916Y528961D01*
X976700Y531886D01*
Y534914D01*
X975916Y537839D01*
X974402Y540461D01*
X972261Y542602D01*
X969639Y544116D01*
X966714Y544900D01*
D02*
G37*
G36*
X941314D02*
X938286D01*
X935361Y544116D01*
X932739Y542602D01*
X930598Y540461D01*
X929084Y537839D01*
X928300Y534914D01*
Y531886D01*
X929084Y528961D01*
X930598Y526339D01*
X932739Y524198D01*
X935361Y522684D01*
X938286Y521900D01*
X941314D01*
X944239Y522684D01*
X946861Y524198D01*
X949002Y526339D01*
X950516Y528961D01*
X951300Y531886D01*
Y534914D01*
X950516Y537839D01*
X949002Y540461D01*
X946861Y542602D01*
X944239Y544116D01*
X941314Y544900D01*
D02*
G37*
G36*
X1207708Y542373D02*
X1204680D01*
X1201755Y541589D01*
X1199133Y540075D01*
X1196992Y537934D01*
X1195478Y535312D01*
X1194694Y532387D01*
Y529359D01*
X1195478Y526434D01*
X1196992Y523812D01*
X1199133Y521671D01*
X1201755Y520157D01*
X1204680Y519373D01*
X1207708D01*
X1210633Y520157D01*
X1213255Y521671D01*
X1215397Y523812D01*
X1216911Y526434D01*
X1217694Y529359D01*
Y532387D01*
X1216911Y535312D01*
X1215397Y537934D01*
X1213255Y540075D01*
X1210633Y541589D01*
X1207708Y542373D01*
D02*
G37*
G36*
X1180308D02*
X1177280D01*
X1174355Y541589D01*
X1171733Y540075D01*
X1169592Y537934D01*
X1168078Y535312D01*
X1167294Y532387D01*
Y529359D01*
X1168078Y526434D01*
X1169592Y523812D01*
X1171733Y521671D01*
X1174355Y520157D01*
X1177280Y519373D01*
X1180308D01*
X1183233Y520157D01*
X1185855Y521671D01*
X1187997Y523812D01*
X1189511Y526434D01*
X1190294Y529359D01*
Y532387D01*
X1189511Y535312D01*
X1187997Y537934D01*
X1185855Y540075D01*
X1183233Y541589D01*
X1180308Y542373D01*
D02*
G37*
G36*
X966714Y519500D02*
X963686D01*
X960761Y518716D01*
X958139Y517202D01*
X955998Y515061D01*
X954484Y512439D01*
X953700Y509514D01*
Y506486D01*
X954484Y503561D01*
X955998Y500939D01*
X958139Y498798D01*
X960761Y497284D01*
X963686Y496500D01*
X966714D01*
X969639Y497284D01*
X972261Y498798D01*
X974402Y500939D01*
X975916Y503561D01*
X976700Y506486D01*
Y509514D01*
X975916Y512439D01*
X974402Y515061D01*
X972261Y517202D01*
X969639Y518716D01*
X966714Y519500D01*
D02*
G37*
G36*
X941314D02*
X938286D01*
X935361Y518716D01*
X932739Y517202D01*
X930598Y515061D01*
X929084Y512439D01*
X928300Y509514D01*
Y506486D01*
X929084Y503561D01*
X930598Y500939D01*
X932739Y498798D01*
X935361Y497284D01*
X938286Y496500D01*
X941314D01*
X944239Y497284D01*
X946861Y498798D01*
X949002Y500939D01*
X950516Y503561D01*
X951300Y506486D01*
Y509514D01*
X950516Y512439D01*
X949002Y515061D01*
X946861Y517202D01*
X944239Y518716D01*
X941314Y519500D01*
D02*
G37*
G36*
X1248808Y516973D02*
X1245780D01*
X1242855Y516189D01*
X1240233Y514675D01*
X1238092Y512534D01*
X1236578Y509912D01*
X1235794Y506987D01*
Y503959D01*
X1236578Y501034D01*
X1238092Y498412D01*
X1240233Y496271D01*
X1242855Y494757D01*
X1245780Y493973D01*
X1248808D01*
X1251733Y494757D01*
X1254355Y496271D01*
X1256497Y498412D01*
X1258011Y501034D01*
X1258794Y503959D01*
Y506987D01*
X1258011Y509912D01*
X1256497Y512534D01*
X1254355Y514675D01*
X1251733Y516189D01*
X1248808Y516973D01*
D02*
G37*
G36*
X1221408D02*
X1218380D01*
X1215455Y516189D01*
X1212833Y514675D01*
X1210692Y512534D01*
X1209178Y509912D01*
X1208394Y506987D01*
Y503959D01*
X1209178Y501034D01*
X1210692Y498412D01*
X1212833Y496271D01*
X1215455Y494757D01*
X1218380Y493973D01*
X1221408D01*
X1224333Y494757D01*
X1226955Y496271D01*
X1229097Y498412D01*
X1230611Y501034D01*
X1231394Y503959D01*
Y506987D01*
X1230611Y509912D01*
X1229097Y512534D01*
X1226955Y514675D01*
X1224333Y516189D01*
X1221408Y516973D01*
D02*
G37*
G36*
X1166608D02*
X1163580D01*
X1160655Y516189D01*
X1158033Y514675D01*
X1155892Y512534D01*
X1154378Y509912D01*
X1153594Y506987D01*
Y503959D01*
X1154378Y501034D01*
X1155892Y498412D01*
X1158033Y496271D01*
X1160655Y494757D01*
X1163580Y493973D01*
X1166608D01*
X1169533Y494757D01*
X1172155Y496271D01*
X1174297Y498412D01*
X1175811Y501034D01*
X1176594Y503959D01*
Y506987D01*
X1175811Y509912D01*
X1174297Y512534D01*
X1172155Y514675D01*
X1169533Y516189D01*
X1166608Y516973D01*
D02*
G37*
G36*
X1039587Y613556D02*
X105000D01*
X103303Y613333D01*
X101722Y612678D01*
X100364Y611636D01*
X79364Y590636D01*
X78322Y589278D01*
X77667Y587697D01*
X77444Y586000D01*
Y435000D01*
X77667Y433303D01*
X78322Y431722D01*
X79364Y430364D01*
X114644Y395084D01*
Y365529D01*
X114355Y365491D01*
X112754Y364828D01*
X111379Y363773D01*
X110325Y362398D01*
X109662Y360798D01*
X109436Y359080D01*
Y348920D01*
X109662Y347202D01*
X110325Y345602D01*
X111379Y344227D01*
X112754Y343172D01*
X114355Y342509D01*
X116072Y342283D01*
X126232D01*
X127950Y342509D01*
X129551Y343172D01*
X130925Y344227D01*
X131980Y345602D01*
X132643Y347202D01*
X132869Y348920D01*
Y359080D01*
X132643Y360798D01*
X131980Y362398D01*
X130925Y363773D01*
X129551Y364828D01*
X127950Y365491D01*
X127756Y365516D01*
Y397800D01*
X127533Y399497D01*
X126878Y401078D01*
X125836Y402436D01*
X90556Y437716D01*
Y583284D01*
X107716Y600444D01*
X1036871D01*
X1113944Y523371D01*
Y482500D01*
X1114167Y480803D01*
X1114822Y479222D01*
X1115864Y477864D01*
X1126364Y467364D01*
X1127722Y466322D01*
X1129303Y465667D01*
X1131000Y465444D01*
X1208284D01*
X1329512Y344216D01*
Y310000D01*
X1329736Y308303D01*
X1330391Y306722D01*
X1331432Y305364D01*
X1332790Y304322D01*
X1334371Y303667D01*
X1336068Y303444D01*
X1337765Y303667D01*
X1339346Y304322D01*
X1340704Y305364D01*
X1341746Y306722D01*
X1342174Y307755D01*
X1343444Y307502D01*
Y298079D01*
X1338171Y292806D01*
X1162245D01*
X1160548Y292583D01*
X1158967Y291928D01*
X1157609Y290886D01*
X1107372Y240648D01*
X1106330Y239291D01*
X1105675Y237709D01*
X1105452Y236012D01*
Y133738D01*
X1058009Y86295D01*
X991006D01*
X987660Y89642D01*
Y95945D01*
X988393Y96678D01*
X989907Y99300D01*
X990690Y102225D01*
Y105253D01*
X989907Y108178D01*
X988393Y110801D01*
X986252Y112942D01*
X983629Y114456D01*
X980704Y115239D01*
X977676D01*
X974752Y114456D01*
X972129Y112942D01*
X969988Y110801D01*
X968474Y108178D01*
X967690Y105253D01*
Y102225D01*
X968474Y99300D01*
X969988Y96678D01*
X972129Y94537D01*
X974548Y93141D01*
Y86926D01*
X974771Y85229D01*
X975426Y83648D01*
X976468Y82290D01*
X983654Y75104D01*
X985012Y74062D01*
X986593Y73407D01*
X988290Y73183D01*
X1060725D01*
X1062422Y73407D01*
X1064003Y74062D01*
X1065361Y75104D01*
X1116643Y126386D01*
X1117685Y127744D01*
X1118340Y129325D01*
X1118564Y131022D01*
Y233297D01*
X1164961Y279694D01*
X1340887D01*
X1342583Y279917D01*
X1344165Y280572D01*
X1345522Y281614D01*
X1354636Y290728D01*
X1355678Y292085D01*
X1356333Y293666D01*
X1356556Y295363D01*
Y344150D01*
Y437609D01*
X1356333Y439306D01*
X1355678Y440887D01*
X1354636Y442245D01*
X1302278Y494603D01*
X1303105Y495572D01*
X1303605Y495208D01*
X1307322Y493315D01*
X1311289Y492025D01*
X1315409Y491373D01*
X1319580D01*
X1323700Y492025D01*
X1327667Y493315D01*
X1331383Y495208D01*
X1334758Y497660D01*
X1337707Y500609D01*
X1340159Y503984D01*
X1342053Y507701D01*
X1343342Y511668D01*
X1343994Y515787D01*
Y519959D01*
X1343342Y524078D01*
X1342053Y528046D01*
X1340159Y531762D01*
X1337707Y535137D01*
X1334758Y538086D01*
X1331383Y540538D01*
X1327667Y542431D01*
X1323700Y543721D01*
X1319580Y544373D01*
X1315409D01*
X1311289Y543721D01*
X1307322Y542431D01*
X1303605Y540538D01*
X1300231Y538086D01*
X1297281Y535137D01*
X1294829Y531762D01*
X1292936Y528046D01*
X1291647Y524078D01*
X1290994Y519959D01*
Y515787D01*
X1291647Y511668D01*
X1292936Y507701D01*
X1294829Y503984D01*
X1295193Y503484D01*
X1294224Y502656D01*
X1263230Y533650D01*
X1261872Y534692D01*
X1260291Y535347D01*
X1258594Y535571D01*
X1244161D01*
X1242796Y537934D01*
X1240655Y540075D01*
X1238033Y541589D01*
X1235108Y542373D01*
X1232080D01*
X1229155Y541589D01*
X1226533Y540075D01*
X1224392Y537934D01*
X1222878Y535312D01*
X1222094Y532387D01*
Y529359D01*
X1222878Y526434D01*
X1224392Y523812D01*
X1226533Y521671D01*
X1229155Y520157D01*
X1232080Y519373D01*
X1235108D01*
X1238033Y520157D01*
X1240655Y521671D01*
X1241443Y522458D01*
X1255879D01*
X1343444Y434893D01*
Y349429D01*
X1342174Y349177D01*
X1341746Y350210D01*
X1340704Y351567D01*
X1215636Y476636D01*
X1214278Y477678D01*
X1212697Y478333D01*
X1211000Y478556D01*
X1133716D01*
X1127056Y485216D01*
Y498445D01*
X1128283Y498774D01*
X1128492Y498412D01*
X1130633Y496271D01*
X1133255Y494757D01*
X1136180Y493973D01*
X1139208D01*
X1142133Y494757D01*
X1144755Y496271D01*
X1146897Y498412D01*
X1148411Y501034D01*
X1149194Y503959D01*
Y506987D01*
X1148411Y509912D01*
X1146897Y512534D01*
X1144755Y514675D01*
X1142133Y516189D01*
X1139208Y516973D01*
X1136180D01*
X1133255Y516189D01*
X1130633Y514675D01*
X1128492Y512534D01*
X1128283Y512172D01*
X1127056Y512501D01*
Y526087D01*
X1126833Y527784D01*
X1126178Y529365D01*
X1125136Y530723D01*
X1044222Y611636D01*
X1042865Y612678D01*
X1041283Y613333D01*
X1039587Y613556D01*
D02*
G37*
G36*
X1069580Y544373D02*
X1065409D01*
X1061289Y543721D01*
X1057322Y542431D01*
X1053605Y540538D01*
X1050231Y538086D01*
X1047281Y535137D01*
X1044829Y531762D01*
X1042936Y528046D01*
X1041647Y524078D01*
X1040994Y519959D01*
Y515787D01*
X1041647Y511668D01*
X1042936Y507701D01*
X1044829Y503984D01*
X1047281Y500609D01*
X1050231Y497660D01*
X1053605Y495208D01*
X1057322Y493315D01*
X1061289Y492025D01*
X1065409Y491373D01*
X1069580D01*
X1073700Y492025D01*
X1077667Y493315D01*
X1081383Y495208D01*
X1084758Y497660D01*
X1087707Y500609D01*
X1090159Y503984D01*
X1092053Y507701D01*
X1093342Y511668D01*
X1093994Y515787D01*
Y519959D01*
X1093342Y524078D01*
X1092053Y528046D01*
X1090159Y531762D01*
X1087707Y535137D01*
X1084758Y538086D01*
X1081383Y540538D01*
X1077667Y542431D01*
X1073700Y543721D01*
X1069580Y544373D01*
D02*
G37*
G36*
X966714Y494100D02*
X963686D01*
X960761Y493316D01*
X958139Y491802D01*
X955998Y489661D01*
X954484Y487039D01*
X953700Y484114D01*
Y481086D01*
X954484Y478161D01*
X955998Y475539D01*
X958139Y473398D01*
X960761Y471884D01*
X963686Y471100D01*
X966714D01*
X969639Y471884D01*
X972261Y473398D01*
X974402Y475539D01*
X975916Y478161D01*
X976700Y481086D01*
Y484114D01*
X975916Y487039D01*
X974402Y489661D01*
X972261Y491802D01*
X969639Y493316D01*
X966714Y494100D01*
D02*
G37*
G36*
X941314D02*
X938286D01*
X935361Y493316D01*
X932739Y491802D01*
X930598Y489661D01*
X929084Y487039D01*
X928300Y484114D01*
Y481086D01*
X929084Y478161D01*
X930598Y475539D01*
X932739Y473398D01*
X935361Y471884D01*
X938286Y471100D01*
X941314D01*
X944239Y471884D01*
X946861Y473398D01*
X949002Y475539D01*
X950516Y478161D01*
X951300Y481086D01*
Y484114D01*
X950516Y487039D01*
X949002Y489661D01*
X946861Y491802D01*
X944239Y493316D01*
X941314Y494100D01*
D02*
G37*
G36*
X243395Y480000D02*
X241605D01*
X239951Y479315D01*
X238685Y478049D01*
X238000Y476395D01*
Y474605D01*
X238685Y472951D01*
X239951Y471685D01*
X241605Y471000D01*
X243395D01*
X245049Y471685D01*
X246315Y472951D01*
X247000Y474605D01*
Y476395D01*
X246315Y478049D01*
X245049Y479315D01*
X243395Y480000D01*
D02*
G37*
G36*
X155080Y486417D02*
X144920D01*
X143202Y486191D01*
X141602Y485528D01*
X140227Y484473D01*
X139172Y483098D01*
X138509Y481498D01*
X138283Y479780D01*
Y469620D01*
X138509Y467902D01*
X139172Y466302D01*
X140227Y464927D01*
X141602Y463872D01*
X143202Y463209D01*
X144920Y462983D01*
X155080D01*
X156798Y463209D01*
X158398Y463872D01*
X159773Y464927D01*
X160828Y466302D01*
X161491Y467902D01*
X161717Y469620D01*
Y479780D01*
X161491Y481498D01*
X160828Y483098D01*
X159773Y484473D01*
X158398Y485528D01*
X156798Y486191D01*
X155080Y486417D01*
D02*
G37*
G36*
X494279Y468816D02*
X491251D01*
X488326Y468032D01*
X485704Y466518D01*
X483563Y464377D01*
X482049Y461755D01*
X481265Y458830D01*
Y455802D01*
X482049Y452877D01*
X483563Y450255D01*
X485704Y448114D01*
X488326Y446600D01*
X491251Y445816D01*
X494279D01*
X497204Y446600D01*
X499826Y448114D01*
X501967Y450255D01*
X503481Y452877D01*
X504265Y455802D01*
Y458830D01*
X503481Y461755D01*
X501967Y464377D01*
X499826Y466518D01*
X497204Y468032D01*
X494279Y468816D01*
D02*
G37*
G36*
X966714Y468700D02*
X963686D01*
X960761Y467916D01*
X958139Y466402D01*
X955998Y464261D01*
X954484Y461639D01*
X953700Y458714D01*
Y455686D01*
X954484Y452761D01*
X955998Y450139D01*
X958139Y447998D01*
X960761Y446484D01*
X963686Y445700D01*
X966714D01*
X969639Y446484D01*
X972261Y447998D01*
X974402Y450139D01*
X975916Y452761D01*
X976700Y455686D01*
Y458714D01*
X975916Y461639D01*
X974402Y464261D01*
X972261Y466402D01*
X969639Y467916D01*
X966714Y468700D01*
D02*
G37*
G36*
X941314D02*
X938286D01*
X935361Y467916D01*
X932739Y466402D01*
X930598Y464261D01*
X929084Y461639D01*
X928300Y458714D01*
Y455686D01*
X929084Y452761D01*
X930598Y450139D01*
X932739Y447998D01*
X935361Y446484D01*
X938286Y445700D01*
X941314D01*
X944239Y446484D01*
X946861Y447998D01*
X949002Y450139D01*
X950516Y452761D01*
X951300Y455686D01*
Y458714D01*
X950516Y461639D01*
X949002Y464261D01*
X946861Y466402D01*
X944239Y467916D01*
X941314Y468700D01*
D02*
G37*
G36*
X468879Y468700D02*
X465851D01*
X462926Y467916D01*
X460304Y466402D01*
X458163Y464261D01*
X456649Y461639D01*
X455865Y458714D01*
Y455686D01*
X456649Y452761D01*
X458163Y450139D01*
X460304Y447998D01*
X462926Y446483D01*
X465851Y445700D01*
X468879D01*
X471804Y446483D01*
X474426Y447998D01*
X476567Y450139D01*
X478081Y452761D01*
X478865Y455686D01*
Y458714D01*
X478081Y461639D01*
X476567Y464261D01*
X474426Y466402D01*
X471804Y467916D01*
X468879Y468700D01*
D02*
G37*
G36*
X443479D02*
X440451D01*
X437526Y467916D01*
X434904Y466402D01*
X432763Y464261D01*
X431249Y461639D01*
X430465Y458714D01*
Y455686D01*
X431249Y452761D01*
X432763Y450139D01*
X434904Y447998D01*
X437526Y446483D01*
X440451Y445700D01*
X443479D01*
X446404Y446483D01*
X449026Y447998D01*
X451167Y450139D01*
X452681Y452761D01*
X453465Y455686D01*
Y458714D01*
X452681Y461639D01*
X451167Y464261D01*
X449026Y466402D01*
X446404Y467916D01*
X443479Y468700D01*
D02*
G37*
G36*
X418079D02*
X415051D01*
X412126Y467916D01*
X409504Y466402D01*
X407363Y464261D01*
X405849Y461639D01*
X405065Y458714D01*
Y455686D01*
X405849Y452761D01*
X407363Y450139D01*
X409504Y447998D01*
X412126Y446483D01*
X415051Y445700D01*
X418079D01*
X421004Y446483D01*
X423626Y447998D01*
X425767Y450139D01*
X427281Y452761D01*
X428065Y455686D01*
Y458714D01*
X427281Y461639D01*
X425767Y464261D01*
X423626Y466402D01*
X421004Y467916D01*
X418079Y468700D01*
D02*
G37*
G36*
X392679D02*
X389651D01*
X386726Y467916D01*
X384104Y466402D01*
X381963Y464261D01*
X380449Y461639D01*
X379665Y458714D01*
Y455686D01*
X380449Y452761D01*
X381963Y450139D01*
X384104Y447998D01*
X386726Y446483D01*
X389651Y445700D01*
X392679D01*
X395604Y446483D01*
X398226Y447998D01*
X400367Y450139D01*
X401881Y452761D01*
X402665Y455686D01*
Y458714D01*
X401881Y461639D01*
X400367Y464261D01*
X398226Y466402D01*
X395604Y467916D01*
X392679Y468700D01*
D02*
G37*
G36*
X367279D02*
X364251D01*
X361326Y467916D01*
X358704Y466402D01*
X356563Y464261D01*
X355049Y461639D01*
X354265Y458714D01*
Y455686D01*
X355049Y452761D01*
X356563Y450139D01*
X358704Y447998D01*
X361326Y446483D01*
X364251Y445700D01*
X367279D01*
X370204Y446483D01*
X372826Y447998D01*
X374967Y450139D01*
X376481Y452761D01*
X377265Y455686D01*
Y458714D01*
X376481Y461639D01*
X374967Y464261D01*
X372826Y466402D01*
X370204Y467916D01*
X367279Y468700D01*
D02*
G37*
G36*
X341879D02*
X338851D01*
X335926Y467916D01*
X333304Y466402D01*
X331163Y464261D01*
X329649Y461639D01*
X328865Y458714D01*
Y455686D01*
X329649Y452761D01*
X331163Y450139D01*
X333304Y447998D01*
X335926Y446483D01*
X338851Y445700D01*
X341879D01*
X344804Y446483D01*
X347426Y447998D01*
X349567Y450139D01*
X351081Y452761D01*
X351865Y455686D01*
Y458714D01*
X351081Y461639D01*
X349567Y464261D01*
X347426Y466402D01*
X344804Y467916D01*
X341879Y468700D01*
D02*
G37*
G36*
X316479D02*
X313451D01*
X310526Y467916D01*
X307904Y466402D01*
X305763Y464261D01*
X304249Y461639D01*
X303465Y458714D01*
Y455686D01*
X304249Y452761D01*
X305763Y450139D01*
X307904Y447998D01*
X310526Y446483D01*
X313451Y445700D01*
X316479D01*
X319404Y446483D01*
X322026Y447998D01*
X324167Y450139D01*
X325681Y452761D01*
X326465Y455686D01*
Y458714D01*
X325681Y461639D01*
X324167Y464261D01*
X322026Y466402D01*
X319404Y467916D01*
X316479Y468700D01*
D02*
G37*
G36*
X291079D02*
X288051D01*
X285126Y467916D01*
X282504Y466402D01*
X280363Y464261D01*
X278849Y461639D01*
X278065Y458714D01*
Y455686D01*
X278849Y452761D01*
X280363Y450139D01*
X282504Y447998D01*
X285126Y446483D01*
X288051Y445700D01*
X291079D01*
X294004Y446483D01*
X296626Y447998D01*
X298767Y450139D01*
X300281Y452761D01*
X301065Y455686D01*
Y458714D01*
X300281Y461639D01*
X298767Y464261D01*
X296626Y466402D01*
X294004Y467916D01*
X291079Y468700D01*
D02*
G37*
G36*
X265679D02*
X262651D01*
X259726Y467916D01*
X257104Y466402D01*
X254963Y464261D01*
X253449Y461639D01*
X252665Y458714D01*
Y455686D01*
X253449Y452761D01*
X254963Y450139D01*
X257104Y447998D01*
X259726Y446483D01*
X262651Y445700D01*
X265679D01*
X268604Y446483D01*
X271226Y447998D01*
X273367Y450139D01*
X274881Y452761D01*
X275665Y455686D01*
Y458714D01*
X274881Y461639D01*
X273367Y464261D01*
X271226Y466402D01*
X268604Y467916D01*
X265679Y468700D01*
D02*
G37*
G36*
X240279D02*
X237251D01*
X234326Y467916D01*
X231704Y466402D01*
X229563Y464261D01*
X228049Y461639D01*
X227265Y458714D01*
Y455686D01*
X228049Y452761D01*
X229563Y450139D01*
X231704Y447998D01*
X234326Y446483D01*
X237251Y445700D01*
X240279D01*
X243204Y446483D01*
X245826Y447998D01*
X247967Y450139D01*
X249481Y452761D01*
X250265Y455686D01*
Y458714D01*
X249481Y461639D01*
X247967Y464261D01*
X245826Y466402D01*
X243204Y467916D01*
X240279Y468700D01*
D02*
G37*
G36*
X214879D02*
X211851D01*
X208926Y467916D01*
X206304Y466402D01*
X204163Y464261D01*
X202649Y461639D01*
X201865Y458714D01*
Y455686D01*
X202649Y452761D01*
X204163Y450139D01*
X206304Y447998D01*
X208926Y446483D01*
X211851Y445700D01*
X214879D01*
X217804Y446483D01*
X220426Y447998D01*
X222567Y450139D01*
X224081Y452761D01*
X224865Y455686D01*
Y458714D01*
X224081Y461639D01*
X222567Y464261D01*
X220426Y466402D01*
X217804Y467916D01*
X214879Y468700D01*
D02*
G37*
G36*
X189479D02*
X186451D01*
X183526Y467916D01*
X180904Y466402D01*
X178763Y464261D01*
X177249Y461639D01*
X176465Y458714D01*
Y455686D01*
X177249Y452761D01*
X178763Y450139D01*
X180904Y447998D01*
X183526Y446483D01*
X186451Y445700D01*
X189479D01*
X192404Y446483D01*
X195026Y447998D01*
X197167Y450139D01*
X198681Y452761D01*
X199465Y455686D01*
Y458714D01*
X198681Y461639D01*
X197167Y464261D01*
X195026Y466402D01*
X192404Y467916D01*
X189479Y468700D01*
D02*
G37*
G36*
X1284423Y480499D02*
X1280976D01*
X1277595Y479827D01*
X1274410Y478507D01*
X1271544Y476592D01*
X1269106Y474155D01*
X1267191Y471288D01*
X1265872Y468104D01*
X1265199Y464723D01*
Y461276D01*
X1265872Y457895D01*
X1267191Y454710D01*
X1269106Y451844D01*
X1271544Y449406D01*
X1274410Y447491D01*
X1277595Y446172D01*
X1280976Y445499D01*
X1284423D01*
X1287804Y446172D01*
X1290989Y447491D01*
X1293855Y449406D01*
X1296292Y451844D01*
X1298208Y454710D01*
X1299527Y457895D01*
X1300199Y461276D01*
Y464723D01*
X1299527Y468104D01*
X1298208Y471288D01*
X1296292Y474155D01*
X1293855Y476592D01*
X1290989Y478507D01*
X1287804Y479827D01*
X1284423Y480499D01*
D02*
G37*
G36*
X155080Y461017D02*
X144920D01*
X143202Y460791D01*
X141602Y460128D01*
X140227Y459073D01*
X139172Y457698D01*
X138509Y456098D01*
X138283Y454380D01*
Y444220D01*
X138509Y442502D01*
X139172Y440902D01*
X140227Y439527D01*
X141602Y438472D01*
X143202Y437809D01*
X144920Y437583D01*
X155080D01*
X156798Y437809D01*
X158398Y438472D01*
X159773Y439527D01*
X160828Y440902D01*
X161491Y442502D01*
X161717Y444220D01*
Y454380D01*
X161491Y456098D01*
X160828Y457698D01*
X159773Y459073D01*
X158398Y460128D01*
X156798Y460791D01*
X155080Y461017D01*
D02*
G37*
G36*
X966714Y443300D02*
X963686D01*
X960761Y442516D01*
X958139Y441002D01*
X955998Y438861D01*
X954484Y436239D01*
X953700Y433314D01*
Y430286D01*
X954484Y427361D01*
X955998Y424739D01*
X958139Y422598D01*
X960761Y421084D01*
X963686Y420300D01*
X966714D01*
X969639Y421084D01*
X972261Y422598D01*
X974402Y424739D01*
X975916Y427361D01*
X976700Y430286D01*
Y433314D01*
X975916Y436239D01*
X974402Y438861D01*
X972261Y441002D01*
X969639Y442516D01*
X966714Y443300D01*
D02*
G37*
G36*
X941314D02*
X938286D01*
X935361Y442516D01*
X932739Y441002D01*
X930598Y438861D01*
X929084Y436239D01*
X928300Y433314D01*
Y430286D01*
X929084Y427361D01*
X930598Y424739D01*
X932739Y422598D01*
X935361Y421084D01*
X938286Y420300D01*
X941314D01*
X944239Y421084D01*
X946861Y422598D01*
X949002Y424739D01*
X950516Y427361D01*
X951300Y430286D01*
Y433314D01*
X950516Y436239D01*
X949002Y438861D01*
X946861Y441002D01*
X944239Y442516D01*
X941314Y443300D01*
D02*
G37*
G36*
X1144566Y426870D02*
X1142775D01*
X1141121Y426185D01*
X1139855Y424919D01*
X1139170Y423265D01*
Y421475D01*
X1139855Y419821D01*
X1141121Y418555D01*
X1142775Y417870D01*
X1144566D01*
X1146219Y418555D01*
X1147485Y419821D01*
X1148170Y421475D01*
Y423265D01*
X1147485Y424919D01*
X1146219Y426185D01*
X1144566Y426870D01*
D02*
G37*
G36*
X155830Y435560D02*
X144170D01*
X138340Y429730D01*
Y418070D01*
X144170Y412240D01*
X155830D01*
X161660Y418070D01*
Y429730D01*
X155830Y435560D01*
D02*
G37*
G36*
X966714Y417900D02*
X963686D01*
X960761Y417116D01*
X958139Y415602D01*
X955998Y413461D01*
X954484Y410839D01*
X953700Y407914D01*
Y404886D01*
X954484Y401961D01*
X955998Y399339D01*
X958139Y397198D01*
X960761Y395684D01*
X963686Y394900D01*
X966714D01*
X969639Y395684D01*
X972261Y397198D01*
X974402Y399339D01*
X975916Y401961D01*
X976700Y404886D01*
Y407914D01*
X975916Y410839D01*
X974402Y413461D01*
X972261Y415602D01*
X969639Y417116D01*
X966714Y417900D01*
D02*
G37*
G36*
X941314D02*
X938286D01*
X935361Y417116D01*
X932739Y415602D01*
X930598Y413461D01*
X929084Y410839D01*
X928300Y407914D01*
Y404886D01*
X929084Y401961D01*
X930598Y399339D01*
X932739Y397198D01*
X935361Y395684D01*
X938286Y394900D01*
X941314D01*
X944239Y395684D01*
X946861Y397198D01*
X949002Y399339D01*
X950516Y401961D01*
X951300Y404886D01*
Y407914D01*
X950516Y410839D01*
X949002Y413461D01*
X946861Y415602D01*
X944239Y417116D01*
X941314Y417900D01*
D02*
G37*
G36*
X662123Y423899D02*
X658676D01*
X655295Y423227D01*
X652110Y421908D01*
X649244Y419992D01*
X646806Y417555D01*
X644891Y414689D01*
X643572Y411504D01*
X642899Y408123D01*
Y404676D01*
X643572Y401295D01*
X644891Y398110D01*
X646806Y395244D01*
X649244Y392806D01*
X652110Y390891D01*
X655295Y389572D01*
X658676Y388899D01*
X662123D01*
X665504Y389572D01*
X668689Y390891D01*
X671555Y392806D01*
X673992Y395244D01*
X675908Y398110D01*
X677227Y401295D01*
X677899Y404676D01*
Y408123D01*
X677227Y411504D01*
X675908Y414689D01*
X673992Y417555D01*
X671555Y419992D01*
X668689Y421908D01*
X665504Y423227D01*
X662123Y423899D01*
D02*
G37*
G36*
X966714Y392500D02*
X963686D01*
X960761Y391716D01*
X958139Y390202D01*
X955998Y388061D01*
X954484Y385439D01*
X953700Y382514D01*
Y379486D01*
X954484Y376561D01*
X955998Y373939D01*
X958139Y371798D01*
X960761Y370284D01*
X963686Y369500D01*
X966714D01*
X969639Y370284D01*
X972261Y371798D01*
X974402Y373939D01*
X975916Y376561D01*
X976700Y379486D01*
Y382514D01*
X975916Y385439D01*
X974402Y388061D01*
X972261Y390202D01*
X969639Y391716D01*
X966714Y392500D01*
D02*
G37*
G36*
X941314D02*
X938286D01*
X935361Y391716D01*
X932739Y390202D01*
X930598Y388061D01*
X929084Y385439D01*
X928300Y382514D01*
Y379486D01*
X929084Y376561D01*
X930598Y373939D01*
X932739Y371798D01*
X935361Y370284D01*
X938286Y369500D01*
X941314D01*
X944239Y370284D01*
X946861Y371798D01*
X949002Y373939D01*
X950516Y376561D01*
X951300Y379486D01*
Y382514D01*
X950516Y385439D01*
X949002Y388061D01*
X946861Y390202D01*
X944239Y391716D01*
X941314Y392500D01*
D02*
G37*
G36*
X966714Y367100D02*
X963686D01*
X960761Y366316D01*
X958139Y364802D01*
X955998Y362661D01*
X954484Y360039D01*
X953700Y357114D01*
Y354086D01*
X954484Y351161D01*
X955998Y348539D01*
X958139Y346398D01*
X960761Y344884D01*
X963686Y344100D01*
X966714D01*
X969639Y344884D01*
X972261Y346398D01*
X974402Y348539D01*
X975916Y351161D01*
X976700Y354086D01*
Y357114D01*
X975916Y360039D01*
X974402Y362661D01*
X972261Y364802D01*
X969639Y366316D01*
X966714Y367100D01*
D02*
G37*
G36*
X941314D02*
X938286D01*
X935361Y366316D01*
X932739Y364802D01*
X930598Y362661D01*
X929084Y360039D01*
X928300Y357114D01*
Y354086D01*
X929084Y351161D01*
X930598Y348539D01*
X932739Y346398D01*
X935361Y344884D01*
X938286Y344100D01*
X941314D01*
X944239Y344884D01*
X946861Y346398D01*
X949002Y348539D01*
X950516Y351161D01*
X951300Y354086D01*
Y357114D01*
X950516Y360039D01*
X949002Y362661D01*
X946861Y364802D01*
X944239Y366316D01*
X941314Y367100D01*
D02*
G37*
G36*
X663184Y367100D02*
X660156D01*
X657231Y366316D01*
X654609Y364802D01*
X652468Y362661D01*
X650954Y360039D01*
X650170Y357114D01*
Y354086D01*
X650954Y351161D01*
X652468Y348539D01*
X654609Y346398D01*
X657231Y344884D01*
X660156Y344100D01*
X663184D01*
X666109Y344884D01*
X668731Y346398D01*
X670872Y348539D01*
X672386Y351161D01*
X673170Y354086D01*
Y357114D01*
X672386Y360039D01*
X670872Y362661D01*
X668731Y364802D01*
X666109Y366316D01*
X663184Y367100D01*
D02*
G37*
G36*
X637784D02*
X634756D01*
X631831Y366316D01*
X629209Y364802D01*
X627068Y362661D01*
X625554Y360039D01*
X624770Y357114D01*
Y354086D01*
X625554Y351161D01*
X627068Y348539D01*
X629209Y346398D01*
X631831Y344884D01*
X634756Y344100D01*
X637784D01*
X640709Y344884D01*
X643331Y346398D01*
X645472Y348539D01*
X646986Y351161D01*
X647770Y354086D01*
Y357114D01*
X646986Y360039D01*
X645472Y362661D01*
X643331Y364802D01*
X640709Y366316D01*
X637784Y367100D01*
D02*
G37*
G36*
X1112079Y403733D02*
X1110289D01*
X1108635Y403048D01*
X1107369Y401782D01*
X1106684Y400128D01*
Y398338D01*
X1107369Y396684D01*
X1108635Y395418D01*
X1109870Y394907D01*
X1109870Y393560D01*
X1108635Y393048D01*
X1107369Y391782D01*
X1106947Y390764D01*
X1082800Y366617D01*
X1081916Y365294D01*
X1081605Y363733D01*
X1081605Y363733D01*
Y346046D01*
X1081184Y345028D01*
Y343238D01*
X1081869Y341584D01*
X1083135Y340318D01*
X1084789Y339633D01*
X1086579D01*
X1088233Y340318D01*
X1089319Y341404D01*
X1090059Y341507D01*
X1090799Y341404D01*
X1091885Y340318D01*
X1093539Y339633D01*
X1095329D01*
X1096983Y340318D01*
X1098249Y341584D01*
X1098670Y342602D01*
X1123964Y367896D01*
X1123965Y367896D01*
X1124849Y369220D01*
X1125159Y370780D01*
X1125159Y370780D01*
Y396113D01*
X1124849Y397674D01*
X1123965Y398997D01*
X1123964Y398997D01*
X1121036Y401926D01*
X1119713Y402810D01*
X1118152Y403120D01*
X1118152Y403120D01*
X1113559D01*
X1112079Y403733D01*
D02*
G37*
G36*
X49577Y370500D02*
X46327D01*
X43140Y369866D01*
X40137Y368622D01*
X37434Y366816D01*
X35136Y364518D01*
X33330Y361816D01*
X32087Y358813D01*
X31452Y355625D01*
Y352375D01*
X32087Y349187D01*
X33330Y346184D01*
X35136Y343482D01*
X37434Y341184D01*
X40137Y339378D01*
X43140Y338134D01*
X46327Y337500D01*
X49577D01*
X52765Y338134D01*
X55768Y339378D01*
X58471Y341184D01*
X60769Y343482D01*
X62575Y346184D01*
X63818Y349187D01*
X64452Y352375D01*
Y355625D01*
X63818Y358813D01*
X62575Y361816D01*
X60769Y364518D01*
X58471Y366816D01*
X55768Y368622D01*
X52765Y369866D01*
X49577Y370500D01*
D02*
G37*
G36*
X398651Y355500D02*
X396149D01*
X393733Y354853D01*
X391567Y353602D01*
X389798Y351833D01*
X388547Y349667D01*
X387900Y347251D01*
Y344749D01*
X388547Y342333D01*
X389798Y340167D01*
X391567Y338398D01*
X393733Y337147D01*
X396149Y336500D01*
X398651D01*
X401067Y337147D01*
X403233Y338398D01*
X405002Y340167D01*
X406253Y342333D01*
X406900Y344749D01*
Y347251D01*
X406253Y349667D01*
X405002Y351833D01*
X403233Y353602D01*
X401067Y354853D01*
X398651Y355500D01*
D02*
G37*
G36*
X347851D02*
X345349D01*
X342933Y354853D01*
X340767Y353602D01*
X338998Y351833D01*
X337747Y349667D01*
X337100Y347251D01*
Y344749D01*
X337747Y342333D01*
X338998Y340167D01*
X340767Y338398D01*
X342933Y337147D01*
X345349Y336500D01*
X347851D01*
X350267Y337147D01*
X352433Y338398D01*
X354202Y340167D01*
X355453Y342333D01*
X356100Y344749D01*
Y347251D01*
X355453Y349667D01*
X354202Y351833D01*
X352433Y353602D01*
X350267Y354853D01*
X347851Y355500D01*
D02*
G37*
G36*
X1062079Y334933D02*
X1060289D01*
X1058635Y334248D01*
X1057369Y332982D01*
X1056684Y331328D01*
Y329538D01*
X1057369Y327884D01*
X1058635Y326618D01*
X1060289Y325933D01*
X1062079D01*
X1063733Y326618D01*
X1064999Y327884D01*
X1065684Y329538D01*
Y331328D01*
X1064999Y332982D01*
X1063733Y334248D01*
X1062079Y334933D01*
D02*
G37*
G36*
X966714Y341700D02*
X963686D01*
X960761Y340916D01*
X958139Y339402D01*
X955998Y337261D01*
X954484Y334639D01*
X953700Y331714D01*
Y328686D01*
X954484Y325761D01*
X955998Y323139D01*
X958139Y320998D01*
X960761Y319484D01*
X963686Y318700D01*
X966714D01*
X969639Y319484D01*
X972261Y320998D01*
X974402Y323139D01*
X975916Y325761D01*
X976700Y328686D01*
Y331714D01*
X975916Y334639D01*
X974402Y337261D01*
X972261Y339402D01*
X969639Y340916D01*
X966714Y341700D01*
D02*
G37*
G36*
X941314D02*
X938286D01*
X935361Y340916D01*
X932739Y339402D01*
X930598Y337261D01*
X929084Y334639D01*
X928300Y331714D01*
Y328686D01*
X929084Y325761D01*
X930598Y323139D01*
X932739Y320998D01*
X935361Y319484D01*
X938286Y318700D01*
X941314D01*
X944239Y319484D01*
X946861Y320998D01*
X949002Y323139D01*
X950516Y325761D01*
X951300Y328686D01*
Y331714D01*
X950516Y334639D01*
X949002Y337261D01*
X946861Y339402D01*
X944239Y340916D01*
X941314Y341700D01*
D02*
G37*
G36*
X663184Y341700D02*
X660156D01*
X657231Y340916D01*
X654609Y339402D01*
X652468Y337261D01*
X650954Y334639D01*
X650170Y331714D01*
Y328686D01*
X650954Y325761D01*
X652468Y323139D01*
X654609Y320998D01*
X657231Y319484D01*
X660156Y318700D01*
X663184D01*
X666109Y319484D01*
X668731Y320998D01*
X670872Y323139D01*
X672386Y325761D01*
X673170Y328686D01*
Y331714D01*
X672386Y334639D01*
X670872Y337261D01*
X668731Y339402D01*
X666109Y340916D01*
X663184Y341700D01*
D02*
G37*
G36*
X637784D02*
X634756D01*
X631831Y340916D01*
X629209Y339402D01*
X627068Y337261D01*
X625554Y334639D01*
X624770Y331714D01*
Y328686D01*
X625554Y325761D01*
X627068Y323139D01*
X629209Y320998D01*
X631831Y319484D01*
X634756Y318700D01*
X637784D01*
X640709Y319484D01*
X643331Y320998D01*
X645472Y323139D01*
X646986Y325761D01*
X647770Y328686D01*
Y331714D01*
X646986Y334639D01*
X645472Y337261D01*
X643331Y339402D01*
X640709Y340916D01*
X637784Y341700D01*
D02*
G37*
G36*
X663184Y316300D02*
X660156D01*
X657231Y315516D01*
X654609Y314002D01*
X652468Y311861D01*
X650954Y309239D01*
X650170Y306314D01*
Y303286D01*
X650954Y300361D01*
X652468Y297739D01*
X654609Y295598D01*
X657231Y294084D01*
X660156Y293300D01*
X663184D01*
X666109Y294084D01*
X668731Y295598D01*
X670872Y297739D01*
X672386Y300361D01*
X673170Y303286D01*
Y306314D01*
X672386Y309239D01*
X670872Y311861D01*
X668731Y314002D01*
X666109Y315516D01*
X663184Y316300D01*
D02*
G37*
G36*
X637784D02*
X634756D01*
X631831Y315516D01*
X629209Y314002D01*
X627068Y311861D01*
X625554Y309239D01*
X624770Y306314D01*
Y303286D01*
X625554Y300361D01*
X627068Y297739D01*
X629209Y295598D01*
X631831Y294084D01*
X634756Y293300D01*
X637784D01*
X640709Y294084D01*
X643331Y295598D01*
X645472Y297739D01*
X646986Y300361D01*
X647770Y303286D01*
Y306314D01*
X646986Y309239D01*
X645472Y311861D01*
X643331Y314002D01*
X640709Y315516D01*
X637784Y316300D01*
D02*
G37*
G36*
X445730Y255660D02*
X434070D01*
X428240Y249830D01*
Y238170D01*
X434070Y232340D01*
X445730D01*
X451560Y238170D01*
Y249830D01*
X445730Y255660D01*
D02*
G37*
G36*
X495780Y255717D02*
X485620D01*
X483902Y255491D01*
X482302Y254828D01*
X480927Y253773D01*
X479872Y252398D01*
X479209Y250798D01*
X478983Y249080D01*
Y238920D01*
X479209Y237202D01*
X479872Y235602D01*
X480927Y234227D01*
X482302Y233172D01*
X483902Y232509D01*
X485620Y232283D01*
X495780D01*
X497498Y232509D01*
X499098Y233172D01*
X500473Y234227D01*
X501528Y235602D01*
X502191Y237202D01*
X502417Y238920D01*
Y249080D01*
X502191Y250798D01*
X501528Y252398D01*
X500473Y253773D01*
X499098Y254828D01*
X497498Y255491D01*
X495780Y255717D01*
D02*
G37*
G36*
X470380D02*
X460220D01*
X458502Y255491D01*
X456902Y254828D01*
X455527Y253773D01*
X454472Y252398D01*
X453809Y250798D01*
X453583Y249080D01*
Y238920D01*
X453809Y237202D01*
X454472Y235602D01*
X455527Y234227D01*
X456902Y233172D01*
X458502Y232509D01*
X460220Y232283D01*
X470380D01*
X472098Y232509D01*
X473698Y233172D01*
X475073Y234227D01*
X476128Y235602D01*
X476791Y237202D01*
X477017Y238920D01*
Y249080D01*
X476791Y250798D01*
X476128Y252398D01*
X475073Y253773D01*
X473698Y254828D01*
X472098Y255491D01*
X470380Y255717D01*
D02*
G37*
G36*
X28000Y235879D02*
X26440Y235568D01*
X25117Y234684D01*
X25116Y234684D01*
X24232Y233361D01*
X23922Y231800D01*
X24232Y230239D01*
X25116Y228916D01*
X26439Y228032D01*
X28000Y227722D01*
X29561Y228032D01*
X30884Y228916D01*
X30884Y228917D01*
X31768Y230240D01*
X32079Y231800D01*
X31768Y233361D01*
X30884Y234684D01*
X29561Y235568D01*
X28000Y235879D01*
D02*
G37*
G36*
X890895Y206985D02*
X889105D01*
X887451Y206300D01*
X886185Y205034D01*
X885500Y203380D01*
Y201590D01*
X886185Y199936D01*
X887451Y198670D01*
X889105Y197985D01*
X890895D01*
X892549Y198670D01*
X893815Y199936D01*
X894500Y201590D01*
Y203380D01*
X893815Y205034D01*
X892549Y206300D01*
X890895Y206985D01*
D02*
G37*
G36*
X189479Y570300D02*
X186451D01*
X183526Y569516D01*
X180904Y568002D01*
X178763Y565861D01*
X177249Y563239D01*
X176465Y560314D01*
Y557286D01*
X177249Y554361D01*
X178763Y551739D01*
X180904Y549598D01*
X183526Y548083D01*
X186451Y547300D01*
X189479D01*
X192404Y548083D01*
X192727Y548270D01*
X258881Y482116D01*
X258881Y482116D01*
X260204Y481232D01*
X261765Y480922D01*
X261765Y480922D01*
X276011D01*
X276264Y479652D01*
X275451Y479315D01*
X274185Y478049D01*
X273500Y476395D01*
Y474605D01*
X274185Y472951D01*
X275451Y471685D01*
X277105Y471000D01*
X278895D01*
X279913Y471422D01*
X535811D01*
X557922Y449311D01*
Y188689D01*
X538311Y169078D01*
X511913D01*
X510895Y169500D01*
X509105D01*
X507451Y168815D01*
X506185Y167549D01*
X505500Y165895D01*
Y164105D01*
X506185Y162451D01*
X507451Y161185D01*
X509105Y160500D01*
X510895D01*
X511913Y160922D01*
X540000D01*
X540000Y160922D01*
X541561Y161232D01*
X541885Y161449D01*
X542695Y160462D01*
X538311Y156078D01*
X457689D01*
X456237Y157531D01*
X455815Y158549D01*
X454549Y159815D01*
X452895Y160500D01*
X451105D01*
X449451Y159815D01*
X448185Y158549D01*
X447500Y156895D01*
Y155105D01*
X448185Y153451D01*
X449451Y152185D01*
X450469Y151763D01*
X453116Y149116D01*
X453116Y149116D01*
X454439Y148232D01*
X456000Y147922D01*
X540000D01*
X540000Y147922D01*
X541561Y148232D01*
X542884Y149116D01*
X574884Y181116D01*
X574884Y181116D01*
X575768Y182439D01*
X576078Y184000D01*
X576078Y184000D01*
Y455805D01*
X576078Y455805D01*
X575768Y457366D01*
X574884Y458689D01*
X545689Y487884D01*
X544366Y488768D01*
X542805Y489078D01*
X542805Y489078D01*
X378689D01*
X354884Y512884D01*
X353561Y513768D01*
X352000Y514078D01*
X352000Y514078D01*
X337000D01*
X335439Y513768D01*
X334116Y512884D01*
X334116Y512884D01*
X319811Y498578D01*
X275913D01*
X274895Y499000D01*
X273105D01*
X271451Y498315D01*
X270185Y497049D01*
X269500Y495395D01*
Y493605D01*
X270185Y491951D01*
X271451Y490685D01*
X272264Y490348D01*
X272011Y489078D01*
X263454D01*
X198495Y554038D01*
X198681Y554361D01*
X199465Y557286D01*
Y560314D01*
X198681Y563239D01*
X197167Y565861D01*
X195026Y568002D01*
X192404Y569516D01*
X189479Y570300D01*
D02*
G37*
G36*
X422895Y175500D02*
X421105D01*
X419451Y174815D01*
X418185Y173549D01*
X417500Y171895D01*
Y170105D01*
X418185Y168451D01*
X419451Y167185D01*
X421105Y166500D01*
X422895D01*
X424549Y167185D01*
X425815Y168451D01*
X426500Y170105D01*
Y171895D01*
X425815Y173549D01*
X424549Y174815D01*
X422895Y175500D01*
D02*
G37*
G36*
X769348Y192245D02*
X767558D01*
X765904Y191560D01*
X764638Y190294D01*
X763953Y188640D01*
Y186850D01*
X764638Y185196D01*
X765904Y183930D01*
X767558Y183245D01*
X769348D01*
X770366Y183667D01*
X783324D01*
X800246Y166744D01*
X800668Y165726D01*
X801934Y164460D01*
X803588Y163775D01*
X805378D01*
X807032Y164460D01*
X808298Y165726D01*
X808983Y167380D01*
Y169170D01*
X808298Y170824D01*
X807032Y172090D01*
X806014Y172512D01*
X787897Y190629D01*
X786573Y191513D01*
X785013Y191823D01*
X785013Y191823D01*
X770366D01*
X769348Y192245D01*
D02*
G37*
G36*
X784528Y172775D02*
X782738D01*
X781084Y172090D01*
X779818Y170824D01*
X779133Y169170D01*
Y167380D01*
X779818Y165726D01*
X781084Y164460D01*
X782738Y163775D01*
X784528D01*
X786182Y164460D01*
X787448Y165726D01*
X788133Y167380D01*
Y169170D01*
X787448Y170824D01*
X786182Y172090D01*
X784528Y172775D01*
D02*
G37*
G36*
X1076604Y140639D02*
X1073576D01*
X1070651Y139856D01*
X1068029Y138342D01*
X1065888Y136201D01*
X1064374Y133578D01*
X1063590Y130653D01*
Y127625D01*
X1064374Y124700D01*
X1065888Y122078D01*
X1068029Y119937D01*
X1070651Y118423D01*
X1073576Y117639D01*
X1076604D01*
X1079529Y118423D01*
X1082151Y119937D01*
X1084293Y122078D01*
X1085807Y124700D01*
X1086590Y127625D01*
Y130653D01*
X1085807Y133578D01*
X1084293Y136201D01*
X1082151Y138342D01*
X1079529Y139856D01*
X1076604Y140639D01*
D02*
G37*
G36*
X1049204D02*
X1046176D01*
X1043251Y139856D01*
X1040629Y138342D01*
X1038488Y136201D01*
X1036974Y133578D01*
X1036190Y130653D01*
Y127625D01*
X1036974Y124700D01*
X1038488Y122078D01*
X1040629Y119937D01*
X1043251Y118423D01*
X1046176Y117639D01*
X1049204D01*
X1052129Y118423D01*
X1054752Y119937D01*
X1056893Y122078D01*
X1058407Y124700D01*
X1059190Y127625D01*
Y130653D01*
X1058407Y133578D01*
X1056893Y136201D01*
X1054752Y138342D01*
X1052129Y139856D01*
X1049204Y140639D01*
D02*
G37*
G36*
X994404D02*
X991376D01*
X988452Y139856D01*
X985829Y138342D01*
X983688Y136201D01*
X982174Y133578D01*
X981390Y130653D01*
Y127625D01*
X982174Y124700D01*
X983688Y122078D01*
X985829Y119937D01*
X988452Y118423D01*
X991376Y117639D01*
X994404D01*
X997329Y118423D01*
X999951Y119937D01*
X1002093Y122078D01*
X1003607Y124700D01*
X1004390Y127625D01*
Y130653D01*
X1003607Y133578D01*
X1002093Y136201D01*
X999951Y138342D01*
X997329Y139856D01*
X994404Y140639D01*
D02*
G37*
G36*
X967004D02*
X963976D01*
X961051Y139856D01*
X958429Y138342D01*
X956288Y136201D01*
X954774Y133578D01*
X953990Y130653D01*
Y127625D01*
X954774Y124700D01*
X956288Y122078D01*
X958429Y119937D01*
X961051Y118423D01*
X963976Y117639D01*
X967004D01*
X969929Y118423D01*
X972551Y119937D01*
X974693Y122078D01*
X976207Y124700D01*
X976990Y127625D01*
Y130653D01*
X976207Y133578D01*
X974693Y136201D01*
X972551Y138342D01*
X969929Y139856D01*
X967004Y140639D01*
D02*
G37*
G36*
X662123Y145499D02*
X658676D01*
X655295Y144827D01*
X652110Y143507D01*
X649244Y141592D01*
X646806Y139155D01*
X644891Y136289D01*
X643572Y133104D01*
X642899Y129723D01*
Y126276D01*
X643572Y122895D01*
X644891Y119710D01*
X646806Y116844D01*
X649244Y114406D01*
X652110Y112491D01*
X655295Y111172D01*
X658676Y110499D01*
X662123D01*
X665504Y111172D01*
X668689Y112491D01*
X671555Y114406D01*
X673992Y116844D01*
X675908Y119710D01*
X677227Y122895D01*
X677899Y126276D01*
Y129723D01*
X677227Y133104D01*
X675908Y136289D01*
X673992Y139155D01*
X671555Y141592D01*
X668689Y143507D01*
X665504Y144827D01*
X662123Y145499D01*
D02*
G37*
G36*
X1035504Y115239D02*
X1032476D01*
X1029551Y114456D01*
X1026929Y112942D01*
X1024788Y110801D01*
X1023274Y108178D01*
X1022490Y105253D01*
Y102225D01*
X1023274Y99300D01*
X1024788Y96678D01*
X1026929Y94537D01*
X1029551Y93023D01*
X1032476Y92239D01*
X1035504D01*
X1038429Y93023D01*
X1041051Y94537D01*
X1043193Y96678D01*
X1044707Y99300D01*
X1045490Y102225D01*
Y105253D01*
X1044707Y108178D01*
X1043193Y110801D01*
X1041051Y112942D01*
X1038429Y114456D01*
X1035504Y115239D01*
D02*
G37*
G36*
X1008104D02*
X1005076D01*
X1002151Y114456D01*
X999529Y112942D01*
X997388Y110801D01*
X995874Y108178D01*
X995090Y105253D01*
Y102225D01*
X995874Y99300D01*
X997388Y96678D01*
X999529Y94537D01*
X1002151Y93023D01*
X1005076Y92239D01*
X1008104D01*
X1011029Y93023D01*
X1013652Y94537D01*
X1015793Y96678D01*
X1017307Y99300D01*
X1018090Y102225D01*
Y105253D01*
X1017307Y108178D01*
X1015793Y110801D01*
X1013652Y112942D01*
X1011029Y114456D01*
X1008104Y115239D01*
D02*
G37*
G36*
X1147376Y143239D02*
X1143205D01*
X1139085Y142587D01*
X1135118Y141298D01*
X1131401Y139404D01*
X1128027Y136952D01*
X1125077Y134003D01*
X1122626Y130628D01*
X1120732Y126912D01*
X1119443Y122945D01*
X1118790Y118825D01*
Y114654D01*
X1119443Y110534D01*
X1120732Y106567D01*
X1122626Y102850D01*
X1125077Y99476D01*
X1128027Y96526D01*
X1131401Y94074D01*
X1135118Y92181D01*
X1139085Y90892D01*
X1143205Y90239D01*
X1147376D01*
X1151496Y90892D01*
X1155463Y92181D01*
X1159179Y94074D01*
X1162554Y96526D01*
X1165503Y99476D01*
X1167955Y102850D01*
X1169849Y106567D01*
X1171138Y110534D01*
X1171790Y114654D01*
Y118825D01*
X1171138Y122945D01*
X1169849Y126912D01*
X1167955Y130628D01*
X1165503Y134003D01*
X1162554Y136952D01*
X1159179Y139404D01*
X1155463Y141298D01*
X1151496Y142587D01*
X1147376Y143239D01*
D02*
G37*
G36*
X897376D02*
X893205D01*
X889085Y142587D01*
X885118Y141298D01*
X881401Y139404D01*
X878027Y136952D01*
X875077Y134003D01*
X872626Y130628D01*
X870732Y126912D01*
X869443Y122945D01*
X868790Y118825D01*
Y114654D01*
X869443Y110534D01*
X870732Y106567D01*
X872626Y102850D01*
X875077Y99476D01*
X878027Y96526D01*
X881401Y94074D01*
X885118Y92181D01*
X889085Y90892D01*
X893205Y90239D01*
X897376D01*
X901496Y90892D01*
X905463Y92181D01*
X909179Y94074D01*
X912554Y96526D01*
X915503Y99476D01*
X917955Y102850D01*
X919849Y106567D01*
X921138Y110534D01*
X921790Y114654D01*
Y118825D01*
X921138Y122945D01*
X919849Y126912D01*
X917955Y130628D01*
X915503Y134003D01*
X912554Y136952D01*
X909179Y139404D01*
X905463Y141298D01*
X901496Y142587D01*
X897376Y143239D01*
D02*
G37*
G36*
X458719Y87700D02*
X455691D01*
X452766Y86916D01*
X450144Y85402D01*
X448003Y83261D01*
X446489Y80639D01*
X445705Y77714D01*
Y74686D01*
X446489Y71761D01*
X448003Y69139D01*
X450144Y66998D01*
X452766Y65483D01*
X455691Y64700D01*
X458719D01*
X461644Y65483D01*
X464266Y66998D01*
X466407Y69139D01*
X467921Y71761D01*
X468705Y74686D01*
Y77714D01*
X467921Y80639D01*
X466407Y83261D01*
X464266Y85402D01*
X461644Y86916D01*
X458719Y87700D01*
D02*
G37*
G36*
X382519D02*
X379491D01*
X376566Y86916D01*
X373944Y85402D01*
X371803Y83261D01*
X370289Y80639D01*
X369505Y77714D01*
Y74686D01*
X370289Y71761D01*
X371803Y69139D01*
X373944Y66998D01*
X376566Y65483D01*
X379491Y64700D01*
X382519D01*
X385444Y65483D01*
X388066Y66998D01*
X390207Y69139D01*
X391721Y71761D01*
X392505Y74686D01*
Y77714D01*
X391721Y80639D01*
X390207Y83261D01*
X388066Y85402D01*
X385444Y86916D01*
X382519Y87700D01*
D02*
G37*
G36*
X331719D02*
X328691D01*
X325766Y86916D01*
X323144Y85402D01*
X321003Y83261D01*
X319489Y80639D01*
X318705Y77714D01*
Y74686D01*
X319489Y71761D01*
X321003Y69139D01*
X323144Y66998D01*
X325766Y65483D01*
X328691Y64700D01*
X331719D01*
X334644Y65483D01*
X337266Y66998D01*
X339407Y69139D01*
X340921Y71761D01*
X341705Y74686D01*
Y77714D01*
X340921Y80639D01*
X339407Y83261D01*
X337266Y85402D01*
X334644Y86916D01*
X331719Y87700D01*
D02*
G37*
G36*
X306319D02*
X303291D01*
X300366Y86916D01*
X297744Y85402D01*
X295603Y83261D01*
X294089Y80639D01*
X293305Y77714D01*
Y74686D01*
X294089Y71761D01*
X295603Y69139D01*
X297744Y66998D01*
X300366Y65483D01*
X303291Y64700D01*
X306319D01*
X309244Y65483D01*
X311866Y66998D01*
X314007Y69139D01*
X315521Y71761D01*
X316305Y74686D01*
Y77714D01*
X315521Y80639D01*
X314007Y83261D01*
X311866Y85402D01*
X309244Y86916D01*
X306319Y87700D01*
D02*
G37*
G36*
X280919D02*
X277891D01*
X274966Y86916D01*
X272344Y85402D01*
X270203Y83261D01*
X268689Y80639D01*
X267905Y77714D01*
Y74686D01*
X268689Y71761D01*
X270203Y69139D01*
X272344Y66998D01*
X274966Y65483D01*
X277891Y64700D01*
X280919D01*
X283844Y65483D01*
X286466Y66998D01*
X288607Y69139D01*
X290121Y71761D01*
X290905Y74686D01*
Y77714D01*
X290121Y80639D01*
X288607Y83261D01*
X286466Y85402D01*
X283844Y86916D01*
X280919Y87700D01*
D02*
G37*
G36*
X636519Y87700D02*
X633491D01*
X630566Y86916D01*
X627944Y85402D01*
X625803Y83261D01*
X624289Y80639D01*
X623505Y77714D01*
Y74686D01*
X624289Y71761D01*
X625803Y69139D01*
X627944Y66997D01*
X630566Y65483D01*
X633491Y64700D01*
X636519D01*
X639444Y65483D01*
X642066Y66997D01*
X644207Y69139D01*
X645721Y71761D01*
X646505Y74686D01*
Y77714D01*
X645721Y80639D01*
X644207Y83261D01*
X642066Y85402D01*
X639444Y86916D01*
X636519Y87700D01*
D02*
G37*
G36*
X611119D02*
X608091D01*
X605166Y86916D01*
X602544Y85402D01*
X600403Y83261D01*
X598889Y80639D01*
X598105Y77714D01*
Y74686D01*
X598889Y71761D01*
X600403Y69139D01*
X602544Y66997D01*
X605166Y65483D01*
X608091Y64700D01*
X611119D01*
X614044Y65483D01*
X616666Y66997D01*
X618807Y69139D01*
X620321Y71761D01*
X621105Y74686D01*
Y77714D01*
X620321Y80639D01*
X618807Y83261D01*
X616666Y85402D01*
X614044Y86916D01*
X611119Y87700D01*
D02*
G37*
G36*
X585719D02*
X582691D01*
X579766Y86916D01*
X577144Y85402D01*
X575003Y83261D01*
X573489Y80639D01*
X572705Y77714D01*
Y74686D01*
X573489Y71761D01*
X575003Y69139D01*
X577144Y66997D01*
X579766Y65483D01*
X582691Y64700D01*
X585719D01*
X588644Y65483D01*
X591266Y66997D01*
X593407Y69139D01*
X594921Y71761D01*
X595705Y74686D01*
Y77714D01*
X594921Y80639D01*
X593407Y83261D01*
X591266Y85402D01*
X588644Y86916D01*
X585719Y87700D01*
D02*
G37*
G36*
X560319D02*
X557291D01*
X554366Y86916D01*
X551744Y85402D01*
X549603Y83261D01*
X548089Y80639D01*
X547305Y77714D01*
Y74686D01*
X548089Y71761D01*
X549603Y69139D01*
X551744Y66997D01*
X554366Y65483D01*
X557291Y64700D01*
X560319D01*
X563244Y65483D01*
X565866Y66997D01*
X568007Y69139D01*
X569521Y71761D01*
X570305Y74686D01*
Y77714D01*
X569521Y80639D01*
X568007Y83261D01*
X565866Y85402D01*
X563244Y86916D01*
X560319Y87700D01*
D02*
G37*
G36*
X534919D02*
X531891D01*
X528966Y86916D01*
X526344Y85402D01*
X524203Y83261D01*
X522689Y80639D01*
X521905Y77714D01*
Y74686D01*
X522689Y71761D01*
X524203Y69139D01*
X526344Y66997D01*
X528966Y65483D01*
X531891Y64700D01*
X534919D01*
X537844Y65483D01*
X540466Y66997D01*
X542607Y69139D01*
X544121Y71761D01*
X544905Y74686D01*
Y77714D01*
X544121Y80639D01*
X542607Y83261D01*
X540466Y85402D01*
X537844Y86916D01*
X534919Y87700D01*
D02*
G37*
G36*
X509519D02*
X506491D01*
X503566Y86916D01*
X500944Y85402D01*
X498803Y83261D01*
X497289Y80639D01*
X496505Y77714D01*
Y74686D01*
X497289Y71761D01*
X498803Y69139D01*
X500944Y66997D01*
X503566Y65483D01*
X506491Y64700D01*
X509519D01*
X512444Y65483D01*
X515066Y66997D01*
X517207Y69139D01*
X518721Y71761D01*
X519505Y74686D01*
Y77714D01*
X518721Y80639D01*
X517207Y83261D01*
X515066Y85402D01*
X512444Y86916D01*
X509519Y87700D01*
D02*
G37*
G36*
X141423Y93699D02*
X137976D01*
X134595Y93027D01*
X131410Y91707D01*
X128544Y89792D01*
X126106Y87355D01*
X124191Y84489D01*
X122872Y81304D01*
X122199Y77923D01*
Y74476D01*
X122872Y71095D01*
X124191Y67910D01*
X126106Y65044D01*
X128544Y62606D01*
X131410Y60691D01*
X134595Y59372D01*
X137976Y58699D01*
X141423D01*
X144804Y59372D01*
X147989Y60691D01*
X150855Y62606D01*
X153292Y65044D01*
X155208Y67910D01*
X156527Y71095D01*
X157199Y74476D01*
Y77923D01*
X156527Y81304D01*
X155208Y84489D01*
X153292Y87355D01*
X150855Y89792D01*
X147989Y91707D01*
X144804Y93027D01*
X141423Y93699D01*
D02*
G37*
G36*
X695432Y322499D02*
X693641D01*
X691988Y321814D01*
X690722Y320548D01*
X690036Y318894D01*
Y317104D01*
X690458Y316086D01*
Y212913D01*
X690036Y211895D01*
Y210105D01*
X690722Y208451D01*
X691988Y207185D01*
X693005Y206763D01*
X727922Y171847D01*
Y107689D01*
X667311Y47078D01*
X390494D01*
X366135Y71438D01*
X366321Y71761D01*
X367105Y74686D01*
Y77714D01*
X366321Y80639D01*
X364807Y83261D01*
X362666Y85402D01*
X360044Y86916D01*
X357119Y87700D01*
X354091D01*
X351166Y86916D01*
X348544Y85402D01*
X346403Y83261D01*
X344889Y80639D01*
X344105Y77714D01*
Y74686D01*
X344889Y71761D01*
X346403Y69139D01*
X348544Y66998D01*
X351166Y65483D01*
X354091Y64700D01*
X357119D01*
X360044Y65483D01*
X360367Y65670D01*
X385921Y40116D01*
X385921Y40116D01*
X387244Y39232D01*
X388805Y38922D01*
X388805Y38922D01*
X669000D01*
X669000Y38922D01*
X670561Y39232D01*
X671884Y40116D01*
X734884Y103116D01*
X735768Y104439D01*
X736078Y106000D01*
Y173536D01*
X736078Y173536D01*
X735768Y175097D01*
X734884Y176420D01*
X734884Y176420D01*
X698773Y212531D01*
X698615Y212913D01*
Y316086D01*
X699036Y317104D01*
Y318894D01*
X698351Y320548D01*
X697086Y321814D01*
X695432Y322499D01*
D02*
G37*
%LPD*%
G36*
X374116Y482116D02*
X374116Y482116D01*
X375439Y481232D01*
X377000Y480922D01*
X377000Y480922D01*
X541116D01*
X567922Y454116D01*
Y185689D01*
X566538Y184305D01*
X565551Y185115D01*
X565768Y185439D01*
X566078Y187000D01*
X566078Y187000D01*
Y451000D01*
X566078Y451000D01*
X565768Y452561D01*
X564884Y453884D01*
X564884Y453884D01*
X540384Y478384D01*
X539061Y479268D01*
X537500Y479578D01*
X537500Y479578D01*
X281017D01*
X280956Y479652D01*
X281557Y480922D01*
X350000D01*
X350000Y480922D01*
X351561Y481232D01*
X352884Y482116D01*
X357484Y486716D01*
X358368Y488039D01*
X358482Y488613D01*
X359100Y490105D01*
Y491895D01*
X358415Y493549D01*
X357149Y494815D01*
X355495Y495500D01*
X353705D01*
X352051Y494815D01*
X350785Y493549D01*
X350100Y491895D01*
Y490868D01*
X348311Y489078D01*
X277557D01*
X276956Y490348D01*
X277017Y490422D01*
X321500D01*
X321500Y490422D01*
X323061Y490732D01*
X324384Y491616D01*
X338689Y505922D01*
X350311D01*
X374116Y482116D01*
D02*
G37*
D10*
X-1000Y153000D02*
Y222000D01*
D12*
X0Y10165D02*
G03*
X10165Y0I10165J0D01*
G01*
X1365000Y625000D02*
G03*
X1355000Y635000I-10000J0D01*
G01*
X9726Y635000D02*
G03*
X0Y625274I0J-9726D01*
G01*
X1355314Y269564D02*
G03*
X1365000Y279250I0J9686D01*
G01*
X1213316Y269564D02*
G03*
X1200616Y256864I0J-12700D01*
G01*
X1187916Y0D02*
G03*
X1200616Y12700I0J12700D01*
G01*
X0Y10165D02*
Y625274D01*
X10165Y0D02*
X907093D01*
X9726Y635000D02*
X1355000Y635000D01*
X1365000Y624840D02*
X1365000Y279250D01*
X1200616Y12700D02*
Y256864D01*
X1365000Y279250D02*
Y281877D01*
X1213316Y269564D02*
X1355314D01*
X1180429Y0D02*
X1187916D01*
X907093D02*
X1180429D01*
D24*
X28000Y144500D02*
D03*
Y231800D02*
D03*
D42*
X215016Y199500D02*
D03*
Y177320D02*
D03*
X197591Y199500D02*
D03*
X198000Y177000D02*
D03*
X178000Y199500D02*
D03*
Y177000D02*
D03*
X158000Y199500D02*
D03*
Y177000D02*
D03*
X137699Y199500D02*
D03*
X1175250Y212485D02*
D03*
X1166429Y179293D02*
D03*
X1336068Y310000D02*
D03*
X694537Y317999D02*
D03*
Y211000D02*
D03*
X75735Y216890D02*
D03*
X1340500Y416000D02*
D03*
X1046184Y440544D02*
D03*
X1140108Y350001D02*
D03*
X98000Y177096D02*
D03*
X77904D02*
D03*
X293655Y534634D02*
D03*
X773688Y307275D02*
D03*
X300000Y218000D02*
D03*
X422000Y171000D02*
D03*
X452000Y156000D02*
D03*
X510000Y165000D02*
D03*
X380000Y204000D02*
D03*
X231000Y177000D02*
D03*
Y199500D02*
D03*
X189536Y118000D02*
D03*
X75735Y159367D02*
D03*
X72869Y144500D02*
D03*
Y231800D02*
D03*
X77904Y199500D02*
D03*
X98000D02*
D03*
X118000D02*
D03*
X137699Y177000D02*
D03*
X118000D02*
D03*
X242500Y475500D02*
D03*
X346600Y500100D02*
D03*
X278000Y475500D02*
D03*
X213365Y488000D02*
D03*
X274000Y494500D02*
D03*
X1350000Y344150D02*
D03*
X738883Y274121D02*
D03*
X819494Y198275D02*
D03*
X1111184Y389233D02*
D03*
X1111184Y399233D02*
D03*
X1085684Y344133D02*
D03*
X1094434D02*
D03*
X1061184Y330433D02*
D03*
Y291483D02*
D03*
X1143670Y385472D02*
D03*
Y422370D02*
D03*
X1215700Y410569D02*
D03*
X1023487Y220485D02*
D03*
X890000Y202485D02*
D03*
Y240085D02*
D03*
X783633Y168275D02*
D03*
X768453Y187745D02*
D03*
X804483Y168275D02*
D03*
X354600Y491000D02*
D03*
X1091917Y320597D02*
D03*
Y308597D02*
D03*
X1103917Y320597D02*
D03*
Y308597D02*
D03*
X1097917Y314597D02*
D03*
D43*
X1151394Y530873D02*
D03*
X1178794D02*
D03*
X1206194D02*
D03*
X1233594D02*
D03*
X1247294Y505473D02*
D03*
X1165094D02*
D03*
X1192494D02*
D03*
X1219894D02*
D03*
X1137694D02*
D03*
X1061390Y103739D02*
D03*
X1033990D02*
D03*
X1006590D02*
D03*
X979190D02*
D03*
X965490Y129139D02*
D03*
X1047690D02*
D03*
X1020290D02*
D03*
X992890D02*
D03*
X1075090D02*
D03*
X187965Y558800D02*
D03*
X213365D02*
D03*
X238765D02*
D03*
X264165D02*
D03*
X289565D02*
D03*
X314965D02*
D03*
X340365D02*
D03*
X365765D02*
D03*
X391165D02*
D03*
X416565D02*
D03*
X457205Y558800D02*
D03*
X482605D02*
D03*
X508005D02*
D03*
X533405D02*
D03*
X558805D02*
D03*
X584205D02*
D03*
X609605D02*
D03*
X635005D02*
D03*
X279405Y76200D02*
D03*
X304805D02*
D03*
X330205D02*
D03*
X355605D02*
D03*
X381005D02*
D03*
X406405Y76200D02*
D03*
X431805Y76200D02*
D03*
X457205D02*
D03*
X508005Y76200D02*
D03*
X533405D02*
D03*
X558805D02*
D03*
X584205D02*
D03*
X609605D02*
D03*
X635005D02*
D03*
X685805Y558800D02*
D03*
X711205D02*
D03*
X736605D02*
D03*
X762005D02*
D03*
X787405D02*
D03*
X812805D02*
D03*
X838205D02*
D03*
X863605D02*
D03*
X187965Y457200D02*
D03*
X213365D02*
D03*
X238765D02*
D03*
X264165D02*
D03*
X289565D02*
D03*
X314965D02*
D03*
X340365D02*
D03*
X365765D02*
D03*
X391165D02*
D03*
X416565D02*
D03*
X441965D02*
D03*
X467365D02*
D03*
X492765Y457316D02*
D03*
X661670Y304800D02*
D03*
Y330200D02*
D03*
Y355600D02*
D03*
X965200Y533400D02*
D03*
Y508000D02*
D03*
Y482600D02*
D03*
Y457200D02*
D03*
Y431800D02*
D03*
Y406400D02*
D03*
Y381000D02*
D03*
Y355600D02*
D03*
Y330200D02*
D03*
Y304800D02*
D03*
X939800Y533400D02*
D03*
Y508000D02*
D03*
Y482600D02*
D03*
Y457200D02*
D03*
Y431800D02*
D03*
Y406400D02*
D03*
Y381000D02*
D03*
Y355600D02*
D03*
Y330200D02*
D03*
Y304800D02*
D03*
X636270Y304800D02*
D03*
Y330200D02*
D03*
Y355600D02*
D03*
D44*
X1067494Y517873D02*
D03*
X1317494D02*
D03*
X1145290Y116739D02*
D03*
X895290D02*
D03*
D45*
X901699Y558800D02*
D03*
X139699Y76199D02*
D03*
X1282699Y462999D02*
D03*
X660399Y406399D02*
D03*
X139699Y558799D02*
D03*
X660399Y127999D02*
D03*
D46*
X121152Y354000D02*
D03*
X465300Y244000D02*
D03*
X516100D02*
D03*
X490700D02*
D03*
D47*
X91152Y354000D02*
D03*
X439900Y244000D02*
D03*
D48*
X150000Y423900D02*
D03*
D49*
Y449300D02*
D03*
Y500100D02*
D03*
Y474700D02*
D03*
D50*
X397400Y346000D02*
D03*
X372000D02*
D03*
X346600D02*
D03*
D53*
X694537Y211000D02*
Y317999D01*
Y211000D02*
X732000Y173536D01*
Y106000D02*
Y173536D01*
X1094434Y344133D02*
X1121081Y370780D01*
Y396113D01*
X1111375Y399042D02*
X1118152D01*
X1121081Y396113D01*
X1111184Y399233D02*
X1111375Y399042D01*
X1111184Y399133D02*
Y399233D01*
X28000Y231800D02*
X28000Y231800D01*
X572000Y184000D02*
Y455805D01*
X542805Y485000D02*
X572000Y455805D01*
X540000Y152000D02*
X572000Y184000D01*
X456000Y152000D02*
X540000D01*
X452000Y156000D02*
X456000Y152000D01*
X510000Y165000D02*
X540000D01*
X562000Y187000D02*
Y451000D01*
X540000Y165000D02*
X562000Y187000D01*
X278000Y475500D02*
X537500D01*
X562000Y451000D01*
X377000Y485000D02*
X542805D01*
X669000Y43000D02*
X732000Y106000D01*
X388805Y43000D02*
X669000D01*
X355605Y76200D02*
X388805Y43000D01*
X352000Y510000D02*
X377000Y485000D01*
X337000Y510000D02*
X352000D01*
X274000Y494500D02*
X321500D01*
X337000Y510000D01*
X187965Y558800D02*
X261765Y485000D01*
X1085684Y363733D02*
X1111184Y389233D01*
X1085684Y344133D02*
Y363733D01*
X785013Y187745D02*
X804483Y168275D01*
X768453Y187745D02*
X785013D01*
X354600Y489600D02*
Y491000D01*
X350000Y485000D02*
X354600Y489600D01*
X261765Y485000D02*
X350000D01*
D58*
X1120500Y482500D02*
Y526087D01*
Y482500D02*
X1131000Y472000D01*
X1039587Y607000D02*
X1120500Y526087D01*
X1112008Y131022D02*
Y236012D01*
X988290Y79739D02*
X1060725D01*
X1112008Y131022D01*
Y236012D02*
X1162245Y286250D01*
X1235453Y529015D02*
X1258594D01*
X1233594Y530873D02*
X1235453Y529015D01*
X1350000Y344150D02*
Y437609D01*
X1258594Y529015D02*
X1350000Y437609D01*
X1162245Y286250D02*
X1340887D01*
X1350000Y295363D01*
X1336068Y310000D02*
Y346932D01*
X1350000Y295363D02*
Y344150D01*
X121200Y354000D02*
Y397800D01*
X84000Y435000D02*
X121200Y397800D01*
X84000Y435000D02*
Y586000D01*
X105000Y607000D01*
X1039587D01*
X1131000Y472000D02*
X1211000D01*
X1336068Y346932D01*
X979190Y103739D02*
X981104Y101826D01*
Y86926D02*
Y101826D01*
Y86926D02*
X988290Y79739D01*
D60*
X47952Y354000D02*
D03*
M02*
